<svg xmlns="http://www.w3.org/2000/svg" viewBox="0 0 36.12 86.38"><defs><style>.cls-1{fill:#7d7d7d;}.cls-2{fill:#8f8f8f;}.cls-3{fill:#fff;}.cls-4{fill:#e6e6e6;}</style></defs><g id="Layer_2" data-name="Layer 2"><g id="_12March-Sign02" data-name="12March-Sign02"><path class="cls-1" d="M12.38,12.55a3.23,3.23,0,0,1-.46,2.11v3.27l2.84,2.56,4-.45,2.8-2-2.53-5.28L15.42,9H12.1S12.2,11.38,12.38,12.55Z"/><path class="cls-2" d="M28.35,79.63c2.21,4.53,7.53,3.14,7.77,6.11.05.66-5.34,1.21-7.38-.48-.59-.22-3.16.38-4.6-.76-.73-.59.2-3.77-.23-5.72s4-.7,4-.7A7.27,7.27,0,0,0,28.35,79.63Z"/><path class="cls-2" d="M4.64,75.5c.64,2.63,4.07,6.16,3.27,7.22-1.15,1.54-4.79-.24-5.74-1.34S-.13,76.64,0,75.49s1-1.77,1.05-3,3.79,1.25,3.79,1.25A2.51,2.51,0,0,0,4.64,75.5Z"/><path class="cls-3" d="M7.05,49.92S6.54,54.39,5.9,60.84A21.74,21.74,0,0,0,.35,71.31s-.45,4.21,7.28,4.6,21,7,21.64,2.46a82.59,82.59,0,0,1-2.3-15c-.25-5.81.26-15.13-1.54-19.22A6,6,0,0,1,24,39.89L10,42.51Z"/><path class="cls-4" d="M11.92,15.54s4.83,3.16,6,2.58,1.08-4,1.08-4l5.53,8.62.85,3.07s-1,13.25-1.57,14.35c-2.7,3.4-7.62,3.17-7.62,3.17l-5.07-6.77Z"/><path class="cls-3" d="M18,14.1s4.72,6.58,5.36,10.6S21.87,48.13,22,48.52c3.58-.2,4.73-3.9,4.73-3.9s-.58-17-.45-20.11-4.09-5.94-7.22-12.9C18.61,11.36,18,14.1,18,14.1Z"/><path class="cls-3" d="M11.92,14.66a30.7,30.7,0,0,1-3.85,4.76c0,.75,1.27,11.21,0,19.71-.89,6-1.58,10.75-1.44,11.3,1.19,3.9,7,1.69,7,1.69s4.83-.83,4.88-2.29C19.12,33.7,20.59,30.7,20,26.36,18.86,21.38,11.92,14.66,11.92,14.66Z"/><path class="cls-2" d="M21.49,6.08a5.42,5.42,0,0,1-.17,1.73,25.66,25.66,0,0,1-.26,5.94c-.12.57-1.27.89-1.27.89s-3.83.26-5.11-1.72a14.74,14.74,0,0,1-.89-1.75s-1.38.09-1.79-.93.86-2.39.86-2.39l1.85-3,3.87-1.54,2.36.9A6.84,6.84,0,0,0,21.49,6.08Z"/><path d="M13.28.74c.62-.09,1.77-1.87,6.08.43,2.41,1.29,2.5,4.66,1.91,5.41a.68.68,0,0,0-.72-.76A2,2,0,0,1,19,7.64a1.28,1.28,0,0,0-.33-1.58,3.55,3.55,0,0,1-2.87,2.73,1.42,1.42,0,0,0-.2-1.54s.2.95-1,2.73c-.15-.18-.57-.54-1-.25-.67.48-.12,2.71-1,3-.54-.35-1.14-2-1.5-2.9S6,4.3,13.28.74Z"/><path class="cls-2" d="M14.52,51.07a8.47,8.47,0,0,1,2.27,2.34,2,2,0,0,1-.45,2.11s.51,3.19-.05,3.62-3.8-.74-4.37-2,0-5,0-5Z"/><path class="cls-4" d="M10.21,19c-1.1-.5-3,.38-3.54,2.77C6.34,23.2,7,37.2,7.15,38.62c.35,3.58,2.13,7.79,3.64,15.61a7.06,7.06,0,0,1,3.73-3.16S13.18,39.65,12.8,37.34C11.74,31,13.69,20.55,10.21,19Z"/></g></g></svg>