<svg xmlns="http://www.w3.org/2000/svg" viewBox="0 0 9.24 37.02"><defs><style>.cls-1{fill:#757575;}.cls-2{fill:#e6e6e6;}.cls-3{fill:#767676;}</style></defs><g id="Layer_2" data-name="Layer 2"><g id="_12March-Sign01-ArmL" data-name="12March-Sign01-ArmL"><polygon class="cls-1" points="1.49 5.49 1.61 9.53 3.59 10.88 5.47 10.22 4.52 4.82 1.49 5.49"/><path class="cls-2" d="M5.58,7.11C6.13,12.18,7.27,18,7.08,19.66s2.16,10.5,2.16,10.5S4,38.09,3.34,36.9,2.8,22.54,2.11,21.16,1,8.32,1,8.32,4.26,10.27,5.58,7.11Z"/><path class="cls-3" d="M3,3.48c0-.94-1.32-2.35-1.32-2.35V0A2.56,2.56,0,0,0,.39.85c-.52.65-.52,3.48,0,3.94S1.51,6,2.11,5.54A2.36,2.36,0,0,0,3,3.48Z"/></g></g></svg>