<svg xmlns="http://www.w3.org/2000/svg" viewBox="0 0 10.81 31.98"><defs><style>.cls-1{fill:#757575;}.cls-2{fill:#e6e6e6;}</style></defs><g id="Layer_2" data-name="Layer 2"><g id="_12March-Sign01-ArmR" data-name="12March-Sign01-ArmR"><path class="cls-1" d="M9.75,8.72a20.55,20.55,0,0,0,.52-2.83c0-.86.2-3.55-.44-4.25A13,13,0,0,0,6.5,0,1.59,1.59,0,0,0,5.33.88c-.42.8-.54,2.24,0,2.76L7.72,5.86l-1.66,5.2,3.07,1.21Z"/><path class="cls-2" d="M10.81,8.3S9.21,9.64,7.14,6.14c-.2.54-3.94,9.29-4,11.29S-.43,26.9,0,29.16,1.88,32,2.91,32s4-1,3.86-5.45C7.71,14,10.81,8.3,10.81,8.3Z"/></g></g></svg>