<svg xmlns="http://www.w3.org/2000/svg" viewBox="0 0 19.79 67.36"><defs><style>.cls-1{fill:#8f8f8f;}.cls-2{fill:#e6e6e6;}.cls-3{fill:#262626;}.cls-4{fill:#383838;}.cls-5{fill:#a8a8a8;}.cls-6{fill:#ccc;}</style></defs><g id="Layer_2" data-name="Layer 2"><g id="_12March-Sign02-Arm" data-name="12March-Sign02-Arm"><path class="cls-1" d="M11.19,32.62a33.09,33.09,0,0,0,.54,4.22c-.32.77-2.91,1.63-2.91,1.63l-.21-6.55Z"/><path class="cls-2" d="M1.07,59.12S9.11,48.93,9,47.41s-.39-7.44-1.1-9A6.91,6.91,0,0,0,12,35.56S14.16,46,13.78,48,6.88,60,6.05,67.36C3.23,66.19,1.07,59.12,1.07,59.12Z"/><path class="cls-3" d="M10.34,43,10.26.54H8.39L8.47,43a.47.47,0,0,0,.27.38,1.48,1.48,0,0,0,1.33,0A.48.48,0,0,0,10.34,43Z"/><path class="cls-4" d="M10,.92a1.46,1.46,0,0,1-1.32,0C8.3.71,8.3.37,8.66.16A1.46,1.46,0,0,1,10,.16C10.35.37,10.35.71,10,.92Z"/><polygon class="cls-5" points="1.02 30.34 19.79 19.39 19.67 0.67 0.9 11.62 1.02 30.34"/><polygon class="cls-6" points="1.02 30.34 0.13 29.82 0 11.11 0.9 11.62 1.02 30.34"/><polygon class="cls-6" points="18.77 0.16 19.67 0.67 0.9 11.62 0 11.11 18.77 0.16"/><path class="cls-1" d="M9,31.43c0,1-.34,1.82-.75,1.82s-.75-.82-.75-1.82.34-1.82.75-1.82S9,30.42,9,31.43Z"/><path class="cls-1" d="M9,30.18a2.18,2.18,0,0,1,1.33-.4l0-.51s1.71-.6,2.07.34-.32,4.4-.74,4.67A1.45,1.45,0,0,1,10,34.6C9,34.19,8.54,30.61,9,30.18Z"/></g></g></svg>