<svg xmlns="http://www.w3.org/2000/svg" viewBox="0 0 27.16 86.41"><defs><style>.cls-1{fill:#696969;}.cls-2{fill:#757575;}.cls-3{fill:#fff;}.cls-4{fill:#e6e6e6;}.cls-5{fill:#a8a8a8;}.cls-6{fill:#8f8f8f;}</style></defs><g id="Layer_2" data-name="Layer 2"><g id="_12March-Sign01-Base" data-name="12March-Sign01-Base"><polygon class="cls-1" points="13.59 12.02 11.63 15.73 18.23 19.03 21.73 14.51 20.98 9.23 15.74 8.45 13.59 12.02"/><path class="cls-1" d="M19.06,16.83c-5.37,1.25-6.51-2.7-6.51-2.7L8,22l1,2.91h5.55S19.78,17.12,19.06,16.83Z"/><path class="cls-2" d="M6.35,74.83a22.7,22.7,0,0,1-.64,4.23C5.25,80.33.91,81.92.08,83.41c-.32.58.27,1.8,1.82,1.9s5.36-2.59,5.36-2.59a15.8,15.8,0,0,0,3.52-1.31c.71-.56-1.14-3.67-.17-5.83S6.35,74.83,6.35,74.83Z"/><path class="cls-2" d="M23,76.29a42.78,42.78,0,0,1-.1,4.66c-.18,1.32-1.5,3.4-1.36,4.59s3.36,1.35,4.3-.67a10.27,10.27,0,0,0,1-5c0-1.67-.7-2.19-.7-4C26.14,74.83,23,76.29,23,76.29Z"/><path class="cls-3" d="M22.92,46c1.2,14.72,2.72,14.85,3.82,20.14a23.76,23.76,0,0,1-.13,9.49c-.43,2.08-3.4,2.54-6.11,2.16s-15.33-1.33-15.87-4c-.71-3.47-1.27-6.27-1.87-9.86-1-2.48,1.74-19.94,3.09-21.21S14,42,14,42,22.09,42.3,22.92,46Z"/><path class="cls-4" d="M25,23.1C21.76,35.24,25,41.9,22.2,44a7.62,7.62,0,0,1-7.71,1.21c-4.29-1.41-7.95-3.7-8.27-5.27-1-6.08-1.53-14-.56-16.72s8.55-12,8.55-12-4.35,11-3.6,11.49S21.1,14.39,21.1,14.39,25.52,21.17,25,23.1Z"/><path class="cls-2" d="M12.38,6.85s-.81,5.43-.38,5.92a2,2,0,0,0,1.6.78,6.67,6.67,0,0,0,6.2-2.49l.87-5.73-2.23-3-3.6-.84-2.42,2Z"/><path class="cls-5" d="M15.43,3.38a1.36,1.36,0,0,1,1.41.75c.33.88-.85,4.6,2.77,7.42-.84,1.46,0,5.08-1.45,5.92.61.14,1.78-1.22,1.78-1.22s.28,1.77-.52,2.21c4,.14,5-6,5-6s-.34-4-.3-7.56C24.22.51,20.69,1,20.69,1a4.85,4.85,0,0,0-4.13-.8c-4,1.22-4.14,2.16-4.46,3.29a8.64,8.64,0,0,0,.28,3.38s.18-3.29,1.5-3.95A1.31,1.31,0,0,1,15.43,3.38Z"/><path class="cls-6" d="M20,1a5.81,5.81,0,0,0-4.57,1.59A9.2,9.2,0,0,1,20,1Z"/></g></g></svg>