<svg xmlns="http://www.w3.org/2000/svg" viewBox="0 0 82.57 36.58"><defs><style>.cls-1{fill:#fff;}.cls-2{fill:#f1f1f2;}</style></defs><g id="Layer_2" data-name="Layer 2"><g id="_12March-SaltPile" data-name="12March-SaltPile"><g id="Salt_Pile" data-name="Salt Pile"><path class="cls-1" d="M0,35.74S2,34,3,33.15,5.8,31.76,6.4,31s1.88-1.13,2.26-1.94,4.55-4.38,4.55-4.38,1.26-2.08,2.34-2.28,1.29-.75,3.65-2.71S23.34,18.4,24,17.39a9.83,9.83,0,0,1,3.56-4c2.12-1.22.78-2.63,3.07-3.64s1.2-2.43,3.06-2.83,6.57-5.66,6.57-5.66,2.77-3.11,5,.61c.47.78,1.62,1.41,2.93,2.83s4.4,4,5.82,6.43,3.44,4.25,4.25,5.47a18.25,18.25,0,0,0,2.7,3.37c2.17,1.83,4.38,5,6.36,5.68C72,27.17,74.49,30.15,75.9,31s3.24,1.5,4,2.51,2.23,2.42,2.63,3Z"/><path class="cls-2" d="M44,5.76s5.85,5,8,8.52,4.26,8.47,8.76,11.11,13.52,8.12,13.52,8.12a33.37,33.37,0,0,1-14.49-3C54.08,27.8,49.3,17.8,45.6,14.64,39.87,9.77,40.38,4.68,44,5.76Z"/></g></g></g></svg>