<svg xmlns="http://www.w3.org/2000/svg" viewBox="0 0 40.82 101.51"><defs><style>.cls-1{fill:#fff;}.cls-2{fill:#ccc;}.cls-3{fill:#8e8d8b;}.cls-3,.cls-4{opacity:0.5;}.cls-4{fill:#b2b1b1;}.cls-5{fill:#666;opacity:0.3;}</style></defs><g id="Layer_2" data-name="Layer 2"><g id="_13March-Khadi01-Scarf" data-name="13March-Khadi01-Scarf"><path class="cls-1" d="M40.82,1.76S27,.62,24.63,14.76c-2,12,6.68,22.32,6.49,28.93s.26,17.47,2,22.74,6,27.42,5.89,30.62c0,0-6.36,5.42-18,4.31s-17.1-3-20.4-.84c0,0-2.91-38,4.08-51.3a46.49,46.49,0,0,1,6.63-6.35c3.86-3,7-8.28,8.36-13.12,0,0-1.31-15.23,2.83-23S35.23-1.17,40.82,1.76Z"/><path class="cls-2" d="M40.82,1.76C12.36-1.82,26.41,37.6,26.52,41.93s-.74,18.24,1.93,26.13,2.78,21,2.78,21c-1.89,3.12-15.55,2.47-20.12,2.68a33.47,33.47,0,0,0-10.88,2c.17,4.09.37,6.71.37,6.71,3.3-2.14,8.71-.27,20.4.84s18-4.31,18-4.31c.1-3.2-4.11-25.36-5.89-30.62s-2.22-16.12-2-22.74-8.51-16.91-6.49-28.93C27,.62,40.82,1.76,40.82,1.76Z"/><path class="cls-3" d="M15.84,39.53a159,159,0,0,0-4.55,15.84c-1.56,7.26-1.17,31-1.46,35.09,0,0-4.91-3.06-4.77-12s.51-18.12,5-26.24A72.53,72.53,0,0,0,15.84,39.53Z"/><path class="cls-4" d="M7.53,53S2.72,77.46,3,90.18c0,0-2.2-8-1.38-14.14S7.53,53,7.53,53Z"/><path class="cls-5" d="M31.12,43.69a14.67,14.67,0,0,0-1-5,16.5,16.5,0,0,1,.5,4.78c-.34,4-.41,16.67.74,22.27s7.13,26.38,3.42,29.17-20,1.57-25.61-.33c-3.73-1.28-7,1.57-8.72,3.59.09,1.48.15,2.33.15,2.33,3.3-2.14,8.71-.27,20.4.84s18-4.31,18-4.31c.1-3.2-4.11-25.36-5.89-30.62S30.93,50.31,31.12,43.69Z"/></g></g></svg>