<svg xmlns="http://www.w3.org/2000/svg" viewBox="0 0 80.87 308.69"><defs><style>.cls-1{fill:#e2ded7;}.cls-2{fill:#cecece;}.cls-3{fill:#010101;}.cls-4{fill:#9f9f9f;}.cls-5{fill:#4d4d4d;}.cls-6{fill:#333;}.cls-7{fill:#585858;}.cls-8{fill:#d6d6d6;}.cls-9{fill:gray;}.cls-10{fill:#efeeed;}.cls-11{fill:#b8b8b8;}.cls-12{fill:#9c9c9c;}.cls-13{fill:#d6d5d4;}.cls-14{fill:#ddd;}.cls-15{fill:#545454;opacity:0.4;}.cls-16{fill:#353535;}.cls-17{fill:#f2f2f2;}.cls-18{fill:#1a1a1a;}.cls-19{fill:#515151;}.cls-20{fill:none;stroke:#cecece;stroke-miterlimit:10;stroke-width:0.68px;}.cls-21{fill:#bebebe;}.cls-22{fill:#e6e6e6;}.cls-23{fill:#060606;}.cls-24{fill:#fff;}.cls-25{fill:#b9b9b9;}</style></defs><g id="Layer_2" data-name="Layer 2"><g id="_13March-Khadi01-Base" data-name="13March-Khadi01-Base"><polygon class="cls-1" points="6.64 242.17 0 238.45 7.28 90.32 11.16 89.53 6.64 242.17"/><polygon class="cls-2" points="8.58 120.47 2.64 249.96 15.76 256.92 18.8 113.25 8.58 120.47"/><path class="cls-3" d="M35.91,6.12c0,3.38,4.35,6.13,9.71,6.13s9.7-2.75,9.7-6.13S51,0,45.62,0,35.91,2.74,35.91,6.12Z"/><path class="cls-4" d="M8.58,177.3s-2.16-24.83-1.83-41.48c0,0,.27-8.91,0-13.53S3.29,89,7.83,83.85c3.4-3.85,11-4.74,11-4.74V99.64s-3.79,25-4.12,30.07,2.83,10.77-2.15,47.59Z"/><path class="cls-5" d="M16,118.67c-.46,3.37-.88,6.51-1.13,8.72a21.44,21.44,0,0,1-8.07-2.74c0-.85-.05-1.65-.1-2.36-.06-.89-.22-2.7-.42-5.08Z"/><path class="cls-6" d="M13,186.31l-1.69,1.36s.25,4.75.23,5.28c0,0,2.26,2.28,1.46,3.08,0,0-2.4-.91-3-1.77s.12-7.37.12-7.37l2.7-2Z"/><path class="cls-7" d="M11.71,197.47s.41.09.47-.73a6,6,0,0,0-1.25-3.14s.09-5.57.12-5.8a9.35,9.35,0,0,1,1.82-2.07c.94-.94,0-.94,0-.94l-2.95.94s-1.3,3.54-1.3,3.63.6,5.66.6,5.66Z"/><path class="cls-4" d="M12.53,177.3a54.32,54.32,0,0,0,1.32,5.37,9,9,0,0,1,.71,2.59c0,1.36-.08,2.55-.2,3.85,0,0-.11,2.46-.67,2.23s-.41-1.72-.26-2.58a17.41,17.41,0,0,0-.9-3.09A6.22,6.22,0,0,0,10,189s-.12,4.78,0,5.6c0,0,1.84,3.38.34,4.17a29,29,0,0,1-2-3.22c-.5-1.05-1.29-7.15-1.46-8.92s1.71-8.83,1.6-10.13S12.53,177.3,12.53,177.3Z"/><path class="cls-8" d="M16.07,78.27S5.39,81.56,5.39,89.81c0,0-.78,42.28-.24,49.21,0,0,3.43,7.47,10.87,7.25,0,0,3.26-42.73,4.25-46.63S16.07,78.27,16.07,78.27Z"/><path class="cls-9" d="M40,54.17H52.06c-.3,16,7,19.3,7,19.3a15.08,15.08,0,0,1-26.17,0S40.27,70.17,40,54.17Z"/><path class="cls-5" d="M37.47,68.18a27.53,27.53,0,0,0,2.44-10.71H52.12a31.84,31.84,0,0,0,1.15,7.3C50.43,66.46,44.36,69.32,37.47,68.18Z"/><path class="cls-9" d="M27.92,145.41c5.73-12.1-2.47-25.89-2.47-25.89-10.32-15.46-10-32.27-10.06-36.45,0-3.85.83-4.65.83-4.65,2.28-.8,16.74-5,16.74-5l13,0H59.1s14.32,4.15,16.6,5c0,0,.83.8.82,4.65,0,4.18.27,21-10,36.45,0,0-8.2,13.79-2.47,25.89,3.47,7.32,6.31,14.53,7.25,19.78a155.66,155.66,0,0,1,.29,45.6c-2.36,16.5-6.93,21.5-6.71,27.66H26.57c.22-6.16-3.83-11.16-6.19-27.66a155.66,155.66,0,0,1,.29-45.6C21.61,159.94,24.45,152.73,27.92,145.41Z"/><path class="cls-10" d="M44.15,78.77c12.4.42,12.81-7,12.81-7s24.5,5.6,23.9,8c-13.58,54-6.71,111.37-6.71,111.37s4.92,16.08,2.11,107.11c0,0-6.86,1.65-10.55,0,0,0-2.66-17.53-5.28-40.62,0,0,.15,40,1.19,50.19,0,0-3.13,2-17,0s-14.57.6-20.23-.66c0,0-1.41-29.16-1.35-46.18l-2.86,36.61s-7.81-.66-10.68-2.31c0,0,5.24-116.86,6.1-125.84S19.91,114.78,16,99c0,0-2.71-19.9.15-20.8L33,73.45S37.57,78.54,44.15,78.77Z"/><path class="cls-11" d="M61.27,119.21S35.13,206.3,26.82,214s3,9,3,9S41.58,211.11,61.27,119.21Z"/><path class="cls-11" d="M67.28,81.92s-21.71,65-41.72,77.22l3.34,11.21S53.16,150.81,67.28,81.92Z"/><path class="cls-11" d="M63.92,81.06S48.69,118,28.43,119.9l.69,9.17S52.38,119.74,63.92,81.06Z"/><path class="cls-12" d="M16.58,283.49c-1.12-.58-1-55.9-.9-115.31,1-11.33,4.08-54,.34-69.15,0,0,0-.37-.12-1,0-8.34.07-15.12.09-19.71a.76.76,0,0,1,.18-.09l10.43-3L37.73,288.07s-8-1.47-14.25-2.8C23.2,277,23,268,23,261l-1.86,23.79A29.23,29.23,0,0,1,16.58,283.49Z"/><path class="cls-13" d="M53,303.85s-2.28-82.51-4.91-92.67S40.9,258.29,40.9,265.4s2,37.76,0,39.77S53,303.85,53,303.85Z"/><path class="cls-13" d="M76.26,298.24l-.59.13c-2.9-.19-6.36-2.77-6.36-2.77s-.37-67.52-2.4-84.42c1.45,9.18,6.68,34.71,10,59C76.79,278.75,76.57,288.09,76.26,298.24Z"/><path class="cls-14" d="M59.53,247.45,68.44,290c1.29.86,6.27-.07,8.07-.35q-.12,4.2-.25,8.59s-6.86,1.65-10.55,0c0,0-2.66-17.53-5.28-40.62,0,0,.15,40,1.19,50.19,0,0-3.13,2-17,0s-14.57.6-20.23-.66c0,0-1.41-29.16-1.35-46.18l-2.86,36.61s-7.81-.66-10.68-2.31c0,0,.11-2.63.29-7.15a8.78,8.78,0,0,0,6.74,1.51l7.42-37.24,4.78,48.82c4,0,27.22,1,27.22,1C57.81,300.22,59.53,247.45,59.53,247.45Z"/><path class="cls-2" d="M15.13,267.11v13.32s13.4,4.12,20.33,2.81L28.51,74.71,20.4,77.12Z"/><path class="cls-4" d="M61.87,38.46s2.48-3.93,5-2.58c1.4.77-.58,11.38-5.47,10.56,0,0-.85-.34-.81-2.07Z"/><path class="cls-15" d="M65.61,37.16s1.14,4.18-.81,5c0,0-1,.25-1,.69s-.6,3.39-1.67,2.37c0,0-.8-1.4.33-1.84s.35-.5-.46-1.63C62,41.78,63.94,36.75,65.61,37.16Z"/><path class="cls-16" d="M65.88,40.2A10.84,10.84,0,0,0,65.7,38a1.38,1.38,0,0,0-.18-.46c-.09-.13-.12-.12-.23-.09s-.2.12-.37.24a4.26,4.26,0,0,0-.39.36,9.59,9.59,0,0,0-1.31,1.76,4.24,4.24,0,0,0-.75,1.88l-.09-.17a4.54,4.54,0,0,1,.77,1.12,1.12,1.12,0,0,1,.1.4.55.55,0,0,1-.22.5.68.68,0,0,1-.38.11l-.31.07a.75.75,0,0,0-.27.34,1.2,1.2,0,0,0-.07.54,1.31,1.31,0,0,0,.55,1,1.14,1.14,0,0,1-.52-.38,1.46,1.46,0,0,1-.29-.6,1.5,1.5,0,0,1,0-.7,1,1,0,0,1,.49-.64l.3-.1a.52.52,0,0,0,.22-.07s0-.09-.11-.26a5,5,0,0,0-.71-.93l-.07-.08v-.09a2.65,2.65,0,0,1,.25-1.27,5.28,5.28,0,0,1,.54-1.06,9.71,9.71,0,0,1,1.48-1.84,3.5,3.5,0,0,1,.46-.39,1.63,1.63,0,0,1,.64-.29.67.67,0,0,1,.71.37,1.7,1.7,0,0,1,.17.63A6.77,6.77,0,0,1,65.88,40.2Z"/><path class="cls-16" d="M65,41.13a5.23,5.23,0,0,0-.21-1.57,1.78,1.78,0,0,0-.51-.8L64,38.61l.23-.66a4.36,4.36,0,0,1,.51.38,2.31,2.31,0,0,1,.44,1.16A5.27,5.27,0,0,1,65,41.13Z"/><path class="cls-4" d="M30,38.46s-2.47-3.93-5-2.58c-1.4.77.58,11.38,5.47,10.56,0,0,.85-.34.81-2.07Z"/><path class="cls-15" d="M26.28,37.16s-1.14,4.18.81,5c0,0,1,.25,1,.69s.6,3.39,1.68,2.37c0,0,.79-1.4-.34-1.84s-.35-.5.45-1.63C29.88,41.78,28,36.75,26.28,37.16Z"/><path class="cls-16" d="M26,40.2a7,7,0,0,1-.21-2.3,1.72,1.72,0,0,1,.18-.63.66.66,0,0,1,.71-.37,1.66,1.66,0,0,1,.63.29,3.6,3.6,0,0,1,.47.39,10.07,10.07,0,0,1,1.47,1.84,5.28,5.28,0,0,1,.54,1.06,2.54,2.54,0,0,1,.25,1.27v.09l-.07.08a5.47,5.47,0,0,0-.71.93.7.7,0,0,0-.1.26s0,0,.21.07l.3.1a1.07,1.07,0,0,1,.5.64,1.65,1.65,0,0,1,0,.7,1.46,1.46,0,0,1-.29.6,1.14,1.14,0,0,1-.52.38,1.29,1.29,0,0,0,.56-1,1.44,1.44,0,0,0-.08-.55.77.77,0,0,0-.27-.33l-.31-.07a.7.7,0,0,1-.38-.11.56.56,0,0,1-.22-.51,1.39,1.39,0,0,1,.1-.39,4.54,4.54,0,0,1,.77-1.12l-.08.18a4.26,4.26,0,0,0-.76-1.89A9.15,9.15,0,0,0,27.36,38a3.26,3.26,0,0,0-.39-.36c-.16-.12-.2-.19-.37-.24s-.14,0-.23.09a1.41,1.41,0,0,0-.18.45A11,11,0,0,0,26,40.2Z"/><path class="cls-16" d="M26.87,41.13a5.11,5.11,0,0,1-.14-1.64,2.31,2.31,0,0,1,.44-1.16,4.36,4.36,0,0,1,.51-.38l.23.66s-.11.06-.33.15a1.7,1.7,0,0,0-.5.8A4.89,4.89,0,0,0,26.87,41.13Z"/><path class="cls-4" d="M47.28,62.09S54.93,58,57.55,53.53C59.7,50.37,63,35.87,63.28,33.37l0-.25a1.13,1.13,0,0,1,0-.12h0c0-.52.08-1,.08-1.57a17.49,17.49,0,0,0-35,0c0,.63,0,1.25.1,1.86h0s3.39,16.77,5.75,20.24c2.77,5.16,10.27,8.56,10.27,8.56A2.73,2.73,0,0,0,47.28,62.09Z"/><path class="cls-5" d="M58.71,22.05s-14.85,6.82-25.78,0S58.71,22.05,58.71,22.05Z"/><path class="cls-17" d="M50.14,39.24a.66.66,0,0,1-.15-.69c.12-.47,4.43-4.08,7.31.32C57.3,38.87,53.22,42.85,50.14,39.24Z"/><path class="cls-18" d="M51.38,38.64a1.84,1.84,0,1,0,1.84-1.84A1.83,1.83,0,0,0,51.38,38.64Z"/><path class="cls-3" d="M52.35,38.64a.87.87,0,1,0,.87-.87A.87.87,0,0,0,52.35,38.64Z"/><path class="cls-3" d="M55.79,40c.46-.44.91-.86,1.39-1.26l0,.27a6.76,6.76,0,0,0-.77-.83,4.19,4.19,0,0,0-.86-.66,3.54,3.54,0,0,0-1-.37,3.67,3.67,0,0,0-1-.07,5.67,5.67,0,0,0-2.1.63,5.94,5.94,0,0,0-1,.6c-.15.12-.3.21-.34.37a2.12,2.12,0,0,0,0,.57,1.65,1.65,0,0,1-.14-.6,1,1,0,0,1,.31-.55,4.88,4.88,0,0,1,.92-.78,5,5,0,0,1,2.28-.86,3.29,3.29,0,0,1,1.25.06,3.86,3.86,0,0,1,1.16.49,3.68,3.68,0,0,1,.95.8,9.68,9.68,0,0,1,.7,1l.11.16-.16.11C56.88,39.36,56.34,39.67,55.79,40Z"/><path class="cls-17" d="M53.57,38a.44.44,0,0,0,.88,0,.44.44,0,0,0-.88,0Z"/><path class="cls-3" d="M56.9,38.64a1.11,1.11,0,0,0,1.81.25s-.84.25-1.85-1Z"/><path class="cls-3" d="M58.46,37.73a2.11,2.11,0,0,1-2.12.17l.17-.29a1.87,1.87,0,0,0,.93.32A2.14,2.14,0,0,0,58.46,37.73Z"/><path class="cls-3" d="M57.6,37a1.71,1.71,0,0,1-.86.42,1.79,1.79,0,0,1-.69,0l-.31,0,.11-.3.26.06c.16,0,.38.16.6.1a1.46,1.46,0,0,0,.62-.12A1,1,0,0,0,57.6,37Z"/><path class="cls-3" d="M48.75,33.5s.78.81,3.86-.42c3.39-1.35,6.46-.45,6.76-.11C59.37,33,54.57,29.29,48.75,33.5Z"/><path class="cls-17" d="M41.94,39.24a.65.65,0,0,0,.14-.69c-.12-.47-4.43-4.08-7.3.32C34.78,38.87,38.85,42.85,41.94,39.24Z"/><path class="cls-18" d="M40.69,38.64a1.84,1.84,0,1,1-1.84-1.84A1.83,1.83,0,0,1,40.69,38.64Z"/><path class="cls-3" d="M39.72,38.64a.87.87,0,1,1-.87-.87A.87.87,0,0,1,39.72,38.64Z"/><path class="cls-3" d="M36.28,40c-.55-.3-1.09-.61-1.61-.94l-.17-.11.12-.16a7.31,7.31,0,0,1,.7-1,3.8,3.8,0,0,1,.94-.8,4,4,0,0,1,1.16-.49,3.3,3.3,0,0,1,1.25-.06,5,5,0,0,1,2.28.86,4.88,4.88,0,0,1,.92.78,1,1,0,0,1,.31.56,1.65,1.65,0,0,1-.14.59,2.12,2.12,0,0,0,0-.57c0-.16-.19-.25-.34-.37a5.94,5.94,0,0,0-1-.6,5.67,5.67,0,0,0-2.09-.63,3.74,3.74,0,0,0-1.06.07,3.66,3.66,0,0,0-1,.37,4.48,4.48,0,0,0-.86.66,7.56,7.56,0,0,0-.76.83l0-.27C35.37,39.11,35.83,39.53,36.28,40Z"/><path class="cls-17" d="M38.5,38a.44.44,0,0,1-.44.44.44.44,0,0,1-.43-.44.43.43,0,0,1,.43-.44A.44.44,0,0,1,38.5,38Z"/><path class="cls-3" d="M35.18,38.64a1.12,1.12,0,0,1-1.82.25s.84.25,1.86-1Z"/><path class="cls-3" d="M33.62,37.73a2.08,2.08,0,0,0,1,.2,1.88,1.88,0,0,0,.94-.32l.16.29a2.15,2.15,0,0,1-1.1.2A2.12,2.12,0,0,1,33.62,37.73Z"/><path class="cls-3" d="M34.48,37a.73.73,0,0,0,.26.13,1.46,1.46,0,0,0,.62.12c.22.06.44-.07.6-.1l.26-.06.12.3-.32,0c-.19,0-.44.09-.68,0A1.66,1.66,0,0,1,34.48,37Z"/><path class="cls-3" d="M43.32,33.5s-.78.81-3.85-.42C36.08,31.73,33,32.63,32.7,33,32.7,33,37.51,29.29,43.32,33.5Z"/><path class="cls-16" d="M46.21,48.74s2-.86,2.08-.29S47.18,49.3,46.21,48.74Z"/><path class="cls-16" d="M45.62,48.74s-2-.86-2.08-.29S44.65,49.3,45.62,48.74Z"/><path class="cls-19" d="M44.84,30.61a.78.78,0,1,0,.78-.78A.78.78,0,0,0,44.84,30.61Z"/><path class="cls-20" d="M42.78,47.14s-10.54,11.08-14-2.22"/><path class="cls-8" d="M28.34,45.63a.91.91,0,1,0,1.81,0,.91.91,0,0,0-1.81,0Z"/><path class="cls-8" d="M41.87,46.37a.91.91,0,1,0,.9-.91A.9.9,0,0,0,41.87,46.37Z"/><path class="cls-21" d="M62.1,50.55a.33.33,0,0,0,.33.33h0a.32.32,0,0,0,.32-.33v-3.8a.32.32,0,0,0-.32-.32h0a.32.32,0,0,0-.33.32Z"/><path class="cls-22" d="M61.46,46.57a1,1,0,0,0,1.94,0,1,1,0,0,0-1.94,0Z"/><path class="cls-22" d="M61,51.68a1.4,1.4,0,1,0,1.4-1.4A1.4,1.4,0,0,0,61,51.68Z"/><path class="cls-21" d="M29.12,49.45a.33.33,0,0,0,.32.33h0a.33.33,0,0,0,.33-.33v-3.8a.33.33,0,0,0-.33-.33h0a.33.33,0,0,0-.32.33Z"/><path class="cls-22" d="M28.05,50.57a1.4,1.4,0,1,0,1.39-1.4A1.4,1.4,0,0,0,28.05,50.57Z"/><path class="cls-3" d="M62.46,37.66a32,32,0,0,1-1.9-7.83c-.44-4.27-1.49-7.34-3.7-7.56s-11.24,3-21.33.65c0,0-3.5-.88-3.83,4s-.81,11.33-2.18,10.89l-1.73-1.63S21,9.3,44.84,8.09c0,0,22.44-4,19.74,27.79Z"/><path d="M30,26.77c-.86-8.15,6.68-7.25,12-6.59S50.91,19,55.79,19s4.77,6.06,4.77,6.06c3.38-4.71-1.2-11-5.88-15.54C60.32,12.18,66,19,64.58,35.88l-2.12,1.78a32,32,0,0,1-1.9-7.83c-.44-4.27-1.49-7.34-3.7-7.56s-11.24,3-21.33.65c0,0-3.5-.88-3.83,4s-.81,11.33-2.18,10.89l-1.73-1.63s-3.12-12.33,2.3-20.65C27.78,22.2,30,26.77,30,26.77Z"/><path class="cls-23" d="M31.18,14c2.69-3.22,7-5.57,13.66-5.91a18.16,18.16,0,0,1,9.8,1.43c.58.81.67,1.58-.19,2.2C51.49,13.81,42.91,9,31.18,14Z"/><path class="cls-22" d="M7.44,177.59a.36.36,0,0,0,.35.36H13a.36.36,0,0,0,.36-.36h0a.36.36,0,0,0-.36-.36H7.79a.36.36,0,0,0-.35.36Z"/><path class="cls-22" d="M7.44,176.21a.36.36,0,0,0,.35.36H13a.36.36,0,0,0,.36-.36h0a.36.36,0,0,0-.36-.35H7.79a.35.35,0,0,0-.35.35Z"/><path class="cls-22" d="M7.44,174.84a.35.35,0,0,0,.35.35H13a.36.36,0,0,0,.36-.35h0a.36.36,0,0,0-.36-.36H7.79a.36.36,0,0,0-.35.36Z"/><path class="cls-22" d="M7.49,173.46a.37.37,0,0,0,.39.36h5.7a.37.37,0,0,0,.39-.36h0a.37.37,0,0,0-.39-.36H7.88a.37.37,0,0,0-.39.36Z"/><path class="cls-22" d="M7.28,172.09a.39.39,0,0,0,.42.35h6.07a.39.39,0,0,0,.41-.35h0a.39.39,0,0,0-.41-.36H7.7a.39.39,0,0,0-.42.36Z"/><path class="cls-22" d="M7.49,170.71a.36.36,0,0,0,.39.35h5.7a.36.36,0,0,0,.39-.35h0a.37.37,0,0,0-.39-.36H7.88a.37.37,0,0,0-.39.36Z"/><path class="cls-24" d="M30.05,74.28l4.24-1.76s3.28,6,9.86,6.25c12.4.42,12.81-7,12.81-7s1.75.4,4.31,1c-1.49,2.78-5.48,10.3-16.7,10.29C39.85,83.08,35,80.62,30.05,74.28Z"/><path class="cls-24" d="M5.15,139c-.07-.91-.12-2.44-.15-4.39a34.54,34.54,0,0,0,11.3,8.06c-.17,2.24-.28,3.58-.28,3.58C8.58,146.49,5.15,139,5.15,139Z"/><path class="cls-24" d="M25.33,74.77a1.29,1.29,0,0,1,1.27.46L31,278.78s-9.85,0-18.12-4.94l.26-194.42a.83.83,0,0,1,.56-1c.45-.14,3.16-1,4.17-1.32S25.09,74.79,25.33,74.77Z"/><path class="cls-11" d="M74.15,119.21h0a12.88,12.88,0,0,0-.28,3,366.89,366.89,0,0,0,.28,68.94s2.31,3.12,2.85,42.47c-2.5-18.46-15.06-49.39-15.12-64.18S74.14,119.24,74.15,119.21Z"/><path class="cls-11" d="M66.91,211.18c-.23-1.45-.35-2.26-.35-2.26C66.68,209.47,66.8,210.23,66.91,211.18Z"/><path class="cls-19" d="M50.92,52.63s-3.34-1.94-5.07-1.31c0,0-1.66-.6-5.07,1.31a6,6,0,0,0,5.07,2.24C49.85,54.87,50.92,52.63,50.92,52.63Z"/><path class="cls-6" d="M40.79,52.64h0l.17-.09a21.71,21.71,0,0,1,4.9-.67,23.26,23.26,0,0,1,4.85.63l.22.13H40.79Z"/><path class="cls-25" d="M41.88,53.34s2.36.59,2,.92S41.38,53.4,41.88,53.34Z"/><path class="cls-25" d="M44.16,54.33s0-.5,1.56-.16S43.85,54.87,44.16,54.33Z"/><path class="cls-18" d="M60.15,55.25A2.22,2.22,0,1,0,62.37,53,2.21,2.21,0,0,0,60.15,55.25Z"/><path class="cls-18" d="M27.23,54.17A2.22,2.22,0,1,0,29.44,52,2.21,2.21,0,0,0,27.23,54.17Z"/></g></g></svg>