<svg xmlns="http://www.w3.org/2000/svg" viewBox="0 0 119.78 21.92"><defs><style>.cls-1{fill:#9f9f9f;}.cls-2{fill:#333;}.cls-3{fill:#585858;}.cls-4{fill:#d6d6d6;}.cls-5{fill:#e6e6e6;}.cls-6{fill:#fff;}</style></defs><g id="Layer_2" data-name="Layer 2"><g id="_13March-Khadi01-Arm" data-name="13March-Khadi01-Arm"><path class="cls-1" d="M98.68,14.62S74.35,9.25,57.79,7.42c0,0-8.86-.89-13.4-1.79S11.8-2.1,6.12,1.73C1.87,4.6,0,12,0,12l20.36,2.67s25.24-.52,30.35-.18S61,18.69,98.17,18.54Z"/><path class="cls-2" d="M107,20.14l1.58-1.5s4.67.87,5.2.91c0,0,2,2.54,2.87,1.85,0,0-.59-2.49-1.36-3.2s-7.33-.84-7.33-.84l-2.39,2.41Z"/><path class="cls-3" d="M118.28,20.34s0,.42-.79.37a5.88,5.88,0,0,1-2.94-1.65s-5.54-.63-5.78-.63A9.23,9.23,0,0,0,106.48,20c-1,.8-.92-.17-.92-.17l1.32-2.8s3.68-.83,3.76-.82l5.54,1.34Z"/><path class="cls-1" d="M98.17,18.54a55,55,0,0,1,5.16,2,9,9,0,0,0,2.48,1c1.34.15,2.53.25,3.83.31,0,0,2.46.21,2.3-.38s-1.65-.63-2.53-.6a18.23,18.23,0,0,1-2.93-1.28,6.2,6.2,0,0,1,3.66-2.08s4.75.5,5.56.73c0,0,3.11,2.25,4.08.88a29.51,29.51,0,0,0-2.94-2.37c-1-.63-6.92-2.2-8.65-2.61s-9,.56-10.25.28S98.17,18.54,98.17,18.54Z"/><path class="cls-4" d="M.53,7.94S4.17-1,12.35.09c0,0,48.65,5.59,55.45,7,0,0,4.43,8.1,2.22,11.85,0,0-52.08-3.25-56.07-2.78S.53,7.94.53,7.94Z"/><path class="cls-5" d="M97.86,19.6a.37.37,0,0,0,.4-.31l.68-5.18a.35.35,0,0,0-.31-.4h0a.36.36,0,0,0-.4.31l-.68,5.17a.37.37,0,0,0,.31.41Z"/><path class="cls-5" d="M96.5,19.42a.37.37,0,0,0,.4-.31l.67-5.18a.35.35,0,0,0-.3-.4h0a.35.35,0,0,0-.4.31L96.19,19a.36.36,0,0,0,.31.41Z"/><path class="cls-5" d="M95.13,19.24a.36.36,0,0,0,.4-.31l.68-5.18a.35.35,0,0,0-.31-.4h0a.36.36,0,0,0-.4.31l-.68,5.18a.37.37,0,0,0,.31.4Z"/><path class="cls-5" d="M93.73,19.33a.36.36,0,0,0,.4-.34l.75-5.66a.38.38,0,0,0-.31-.43h0a.37.37,0,0,0-.4.34l-.74,5.66a.37.37,0,0,0,.3.43Z"/><path class="cls-5" d="M92.34,19.36a.39.39,0,0,0,.41-.37l.79-6a.39.39,0,0,0-.3-.45h0a.38.38,0,0,0-.41.36l-.79,6a.39.39,0,0,0,.3.46Z"/><path class="cls-5" d="M91,19a.37.37,0,0,0,.41-.34L92.15,13a.38.38,0,0,0-.3-.44h0a.38.38,0,0,0-.41.34l-.74,5.66A.37.37,0,0,0,91,19Z"/><path class="cls-6" d="M66,18.68c.5-4.65-1.61-9.59-3.08-12.35,2.24.32,3.94.59,4.86.78,0,0,4.43,8.1,2.22,11.85Z"/></g></g></svg>