<svg xmlns="http://www.w3.org/2000/svg" viewBox="0 0 140.7 209.8"><defs><style>.cls-1{fill:#b3b3b3;}.cls-2{fill:#4d4d4d;}.cls-3{fill:#848484;}.cls-4{fill:#efefef;}.cls-5{fill:#b5b5b5;}.cls-15,.cls-6{fill:#838383;}.cls-7{fill:#999;}.cls-8{fill:#fff;}.cls-9{fill:#eae9e8;}.cls-10{fill:#6c6c6c;}.cls-11{fill:#d4d4d4;}.cls-12{fill:#eaeaea;}.cls-13{fill:#1f1f1f;}.cls-14{fill:#121212;}.cls-15{opacity:0.4;}.cls-16{fill:#4f4f4f;}.cls-17{fill:#f2f2f2;}.cls-18{fill:#0e0e0e;}.cls-19{fill:#0c0c0c;}.cls-20{fill:#525252;}.cls-21{fill:#393939;}.cls-22{fill:#050505;}.cls-23{fill:#bbb;}</style></defs><g id="Layer_2" data-name="Layer 2"><g id="_13March-Khadi02-Base" data-name="13March-Khadi02-Base"><path class="cls-1" d="M16.85,84s19.41-8.77,32.94-13.22c0,0,7.26-2.3,10.9-3.86s25.9-12.2,31.32-10c4.07,1.65,6.93,7.5,6.93,7.5L82.38,70.23s-21.2,4-25.42,5.19-7.88,5.34-39,11.75Z"/><path class="cls-2" d="M10.83,90.07l-1.58-1s-3.76,1.55-4.19,1.68c0,0-1.2,2.47-2.08,2.06a7.81,7.81,0,0,1,.58-2.93c.52-.73,6-2,6-2L12,89.51Z"/><path class="cls-3" d="M1.46,92.22s.05.36.73.17a5,5,0,0,0,2.17-1.9S8.88,89,9.08,88.94a8.19,8.19,0,0,1,2.19.89c1,.48.74-.3.74-.3l-1.6-2.12s-3.22,0-3.29,0L2.73,89.48Z"/><path class="cls-1" d="M18,87.17s-2.66,1.56-4,2.58a7.71,7.71,0,0,1-1.89,1.31C11,91.42,10,91.72,9,92c0,0-2,.61-2,.08s1.27-.81,2-.93a14.43,14.43,0,0,0,2.23-1.6,5.28,5.28,0,0,0-3.43-1.09S3.89,89.71,3.26,90c0,0-2.2,2.44-3.26,1.46A25.17,25.17,0,0,1,2,89a56.51,56.51,0,0,1,6.78-3.7c1.38-.65,7.61-1.11,8.62-1.58S18,87.17,18,87.17Z"/><path class="cls-4" d="M97.78,61.11s-4.61-6.82-11.26-4.48c0,0-39.72,13.24-45.16,15.64,0,0-2.27,7.55.23,10.3,0,0,43-11.89,46.42-12.2S97.78,61.11,97.78,61.11Z"/><path class="cls-5" d="M135.4,71.12H124.29v6.13s3.19,21,3.47,25.34-2.39,9.07,1.8,40.1h3.34s1.82-20.92,1.54-34.95c0,0-.23-7.51,0-11.4C134.65,93.51,136.09,80,135.4,71.12Z"/><path class="cls-6" d="M134,127.25h-6.15c.14,1.6.31,3.31.5,5.15a6.72,6.72,0,0,1,1.63-.1,9.52,9.52,0,0,0,3.74-.29C133.77,130.51,133.87,128.91,134,127.25Z"/><path class="cls-2" d="M129.2,150.28l1.42,1.16s-.21,4-.19,4.44c0,0-1.91,1.92-1.23,2.6a7.69,7.69,0,0,0,2.53-1.49c.51-.73-.11-6.22-.11-6.22l-2.27-1.72Z"/><path class="cls-3" d="M130.26,159.7s-.35.07-.4-.62a4.87,4.87,0,0,1,1.06-2.64s-.08-4.7-.11-4.9a7.64,7.64,0,0,0-1.53-1.75c-.79-.78,0-.78,0-.78l2.48.79s1.1,3,1.1,3.06-.51,4.77-.51,4.77Z"/><path class="cls-5" d="M129.56,142.69s-.58,3-1.1,4.53a7.52,7.52,0,0,0-.6,2.19c0,1.14.06,2.15.16,3.24,0,0,.1,2.07.57,1.88s.35-1.45.22-2.18a15.57,15.57,0,0,1,.75-2.6,5.23,5.23,0,0,1,2.14,2.83s.1,4,0,4.73c0,0-1.55,2.85-.29,3.51a24,24,0,0,0,1.66-2.72c.42-.88,1.08-6,1.23-7.51s-1.45-7.44-1.35-8.54S129.56,142.69,129.56,142.69Z"/><path class="cls-7" d="M116.6,115.81C111.77,105.62,118.68,94,118.68,94c8.7-13,8.47-27.2,8.47-30.72,0-3.25-.69-3.92-.69-3.92-1.93-.67-14.11-4.19-14.11-4.19l-11,0H90.32s-12.07,3.5-14,4.17c0,0-.7.67-.69,3.92,0,3.52-.23,17.7,8.47,30.72,0,0,6.91,11.62,2.08,21.81-2.92,6.18-5.31,12.25-6.11,16.68a131.36,131.36,0,0,0-.25,38.42c2,13.91,5.63,26.26,5.44,31.44h32.25c-.19-5.18,3.44-17.53,5.43-31.44a131,131,0,0,0-.25-38.42C121.91,128.06,119.52,122,116.6,115.81Z"/><path class="cls-8" d="M75.64,97.88S75.28,121,75.37,131a24,24,0,0,1,.27,5.54c-.1,4.17-.7,66.57,0,70.88,0,0,4.21,2.09,14.36-.55s11,1.11,16.12,2.22,15.95,1.53,21.74-2.78c0,0,.77-68.24-1.73-75.61,0,0,.65-1,3.17-.69s4.76.69,6.29-.56,2.22-22.23,2.63-43.5Z"/><path class="cls-9" d="M74.76,113.49s.85,15,.61,17.47a24,24,0,0,1,.27,5.54c-.1,4.17-.7,66.57,0,70.88a5.12,5.12,0,0,0,1,.33c.81-12,4.86-71.9,5.12-76.4.3-5-3-18.23-3-18.23Z"/><path class="cls-9" d="M75.58,101.78c0,3.94-.13,10.29-.18,16.43a.84.84,0,0,1,.24-.16,7.6,7.6,0,0,0,2,2.51c1.25.93,21.88-2,25.55-3.52,0,0,3.31,5,4.42,5.11s8.58-5.73,11.34-11.92c0,0,3.12,5.52,4.23,5.52s5.2-7.83,5.2-7.83a65.93,65.93,0,0,0,9.1,4.08v-.1c0-.34,0-.68,0-1,0-.11,0-.22,0-.33,0-.36,0-.73,0-1.1v-.34c0-.29,0-.59,0-.89,0-.12,0-.24,0-.37,0-.35,0-.72,0-1.08,0-.15,0-.3,0-.46l0-1,0-.53,0-.87c0-.16,0-.31,0-.46,0-.38,0-.75,0-1.13v-.47l0-.91c0-.13,0-.26,0-.39l0-1.18c0-.16,0-.32,0-.48l0-1.21v-.29l0-1.11c0-.12,0-.24,0-.36,0-.44,0-.87,0-1.31v-.29l0-1.34V93c0-.5,0-1,0-1.49v-.15c0-1,0-2.07.07-3.11Z"/><path class="cls-7" d="M106.66,39.62H96.46c.25,13.47-5.93,16.26-5.93,16.26a12.71,12.71,0,0,0,22.06,0S106.41,53.09,106.66,39.62Z"/><path class="cls-10" d="M108.76,51.42a23.41,23.41,0,0,1-2.06-9H96.41a27,27,0,0,1-1,6.16C97.84,50,103,52.38,108.76,51.42Z"/><path class="cls-8" d="M101.54,72.31c-4.94-3.73-9-17.12-9.34-17.73s-1.67-.52-1.67-.52c-5.15,1.67-18,6.32-18.63,6.6a11.27,11.27,0,0,0-4.54,2c-2.22,1.67-3.9,8.58-3.9,14.61s-1.76,25.94-3,28.72a11.35,11.35,0,0,0,5.83,2.78s-1.11,4.63-.46,5.37,23.87,1.24,36.79-8.21c0,0,4.13,4.17,4.41,4.26s7-.37,10.93-4c0,0,3,1.86,4,1.67s4.82-7.5,7-8.34c0,0,2.23,1.76,3.34,1.58s8-9.55,8.43-13.62c0,0-.95-17.64-2.89-21.81s-8.36-4.11-11.88-6.82l-3.29-1.27c-1.2-.47-7.35-2.66-10-3.56-.75-.13-1.23-.23-1.47.81C108.55,66.48,101.54,72.31,101.54,72.31Z"/><path class="cls-4" d="M129,60.53a16.22,16.22,0,0,1-2.14-1c-2,5.75-6.63,13.13-17.38,18C109.52,77.57,122,81,129,60.53Z"/><path class="cls-4" d="M140.7,87.52s-.95-17.64-2.89-21.81a7.66,7.66,0,0,0-.84-1.39C111,105.89,80.92,108.68,66,110.19c-.28,1.43-.59,3.51-.17,4,.65.74,23.87,1.24,36.79-8.21,0,0,4.13,4.17,4.41,4.26s7-.37,10.93-4l.2.13c7.13-4.74,14.1-9.39,20.42-13.66A16.07,16.07,0,0,0,140.7,87.52Z"/><path class="cls-11" d="M98.15,108.68l-.54.27.55-.27Z"/><path class="cls-8" d="M102.72,106c.5.5,4.09,4.11,4.35,4.2s7-.37,10.93-4c0,0,3,1.86,4,1.67s4.82-7.5,7-8.34c0,0,2.23,1.76,3.34,1.58s8-9.55,8.43-13.62c0,0-.95-17.64-2.89-21.81C137.81,65.71,121.71,93.88,102.72,106Z"/><path class="cls-9" d="M139.8,76.39c-.47-4.4-1.14-8.84-2-10.68a174,174,0,0,1-16.39,23.11l-1,1.21-.14.16c-.36.42-.73.83-1.1,1.25h0A82.63,82.63,0,0,1,102.72,106l1.33,1.33c2-1.21,5-3.09,8.49-5.49a52.37,52.37,0,0,0,5.41,4.42l0,0s3,1.86,4,1.67c.33-.06,1-.87,1.71-2l-7.21-6.89c1.43-1,2.9-2.16,4.39-3.34a56.05,56.05,0,0,0,6.84,4.79,4.09,4.09,0,0,1,1.17-.91c-1.48-2-2.49-5.2-3.12-8A86.14,86.14,0,0,0,139.8,76.39Z"/><path class="cls-4" d="M92.2,98.51a51.37,51.37,0,0,1-17-39.05l-2.57.94C67.54,95.49,92.2,98.51,92.2,98.51Z"/><path class="cls-12" d="M90.7,206.65c7.26-1.75,9.5-.05,12.41,1.33-.44-9.93-2.63-57.45-5-61.1S91.56,195.81,90.7,206.65Z"/><path class="cls-12" d="M127.15,103.7l-2,5s-4.4,28.56-3.9,33.59c.38,3.81,4.67,29.53,6.71,41.74,0-20.61-.28-48.76-1.84-53.35Z"/><path class="cls-4" d="M87.07,57.69S94.45,87,112.14,89.43C112.14,89.43,90.05,93.69,87.07,57.69Z"/><path class="cls-13" d="M113.08,80.62a14.86,14.86,0,0,0-1.25,12.83,15,15,0,0,1,.76,5.31s2.39-1.83,2.78-6.91c0,0-.1,4.17-.92,6,0,0,7.29-10.89,2.59-17.23Z"/><path class="cls-4" d="M99.55,79.23s13.14-12,15.09-24.06C114.64,55.17,113.71,74.72,99.55,79.23Z"/><path class="cls-13" d="M87.35,31.32A12.43,12.43,0,0,0,95,41.61c7.44,3.42-1.44-10.29-1.44-10.29"/><path class="cls-13" d="M116.22,32s1,7.47-2.09,12c0,0,.81.26,0,1.74,0,0,2.66,3.62,1.44,6.39s-2.83,3.47-4.72,2.2-4.91-6.36-4.74-10.85,6.09-12.19,6.09-12.19Z"/><path class="cls-14" d="M111.35,42.16a2.76,2.76,0,0,1-2.53-1.25l-2.55,1.41a6.39,6.39,0,0,0-.16,1.19c0,.37,0,.75,0,1.13l.06.21s1.8,3.59,4.49,5a13.53,13.53,0,0,0,3.53-4l-.08-.11c.81-1.48,0-1.74,0-1.74a13.13,13.13,0,0,0,2-5.52C115.6,39.11,112.94,42.07,111.35,42.16Z"/><path class="cls-5" d="M88.39,26.36S86.3,23,84.2,24.19c-1.18.64.49,9.58,4.61,8.89,0,0,.72-.29.68-1.74Z"/><path class="cls-15" d="M85.23,25.26s-1,3.52.69,4.24c0,0,.87.21.84.59s.51,2.85,1.41,2c0,0,.67-1.18-.27-1.55s-.3-.42.38-1.37C88.28,29.16,86.64,24.92,85.23,25.26Z"/><path class="cls-16" d="M85,27.83a6,6,0,0,1-.18-1.95,1.52,1.52,0,0,1,.15-.52.56.56,0,0,1,.6-.31.85.85,0,0,1,.29.09,2.52,2.52,0,0,1,.24.15,2.6,2.6,0,0,1,.4.33,8.72,8.72,0,0,1,1.24,1.54,5.76,5.76,0,0,1,.46.89,2.15,2.15,0,0,1,.21,1.08v.09l-.07.06a4.28,4.28,0,0,0-.6.78.63.63,0,0,0-.08.17c0,.06,0,0,0,.05s0,0,.18,0l.26.09a1.23,1.23,0,0,1,.28.24,1.6,1.6,0,0,1,.13.3,1,1,0,0,1,0,.3,1.45,1.45,0,0,1,0,.29.82.82,0,0,1-.1.26.79.79,0,0,1-.15.25.91.91,0,0,1-.43.32,1,1,0,0,0,.33-.39.5.5,0,0,0,.09-.23.53.53,0,0,0,0-.25,1,1,0,0,0-.06-.46,1.45,1.45,0,0,0-.1-.18c-.06,0-.07-.07-.12-.1l-.27-.06a.73.73,0,0,1-.32-.09.48.48,0,0,1-.18-.43.76.76,0,0,1,.08-.33,4.06,4.06,0,0,1,.64-.95l-.07.15a3.77,3.77,0,0,0-.63-1.59A7.7,7.7,0,0,0,86.14,26c-.1-.11-.21-.2-.32-.3a1.08,1.08,0,0,0-.31-.2c-.09,0-.12,0-.2.08a1.67,1.67,0,0,0-.15.38A9,9,0,0,0,85,27.83Z"/><path class="cls-16" d="M85.73,28.6a4.12,4.12,0,0,1-.12-1.37,1.78,1.78,0,0,1,.38-1,1.17,1.17,0,0,1,.43-.32l.19.56a1.1,1.1,0,0,0-.28.12,1.38,1.38,0,0,0-.43.68A4.29,4.29,0,0,0,85.73,28.6Z"/><path class="cls-5" d="M115.23,26.36s2.09-3.32,4.19-2.17c1.18.64-.49,9.58-4.61,8.89,0,0-.71-.29-.68-1.74Z"/><path class="cls-15" d="M118.39,25.26s1,3.52-.69,4.24c0,0-.87.21-.84.59s-.51,2.85-1.41,2c0,0-.67-1.18.28-1.55s.29-.42-.38-1.37C115.35,29.16,117,24.92,118.39,25.26Z"/><path class="cls-16" d="M118.61,27.83a9,9,0,0,0-.15-1.89,1.67,1.67,0,0,0-.15-.38c-.08-.11-.11-.1-.2-.08a1.08,1.08,0,0,0-.31.2c-.11.1-.22.19-.32.3a7.7,7.7,0,0,0-1.11,1.49,3.77,3.77,0,0,0-.63,1.59l-.07-.15a4.21,4.21,0,0,1,.64.94.85.85,0,0,1,.08.34.45.45,0,0,1-.18.43.73.73,0,0,1-.32.09l-.26.06c-.06,0-.07.07-.13.1a1.45,1.45,0,0,0-.1.18,1,1,0,0,0-.06.46.53.53,0,0,0,0,.25.5.5,0,0,0,.09.23,1,1,0,0,0,.33.39.91.91,0,0,1-.43-.32.79.79,0,0,1-.15-.25.82.82,0,0,1-.1-.26,1.45,1.45,0,0,1,0-.29,1,1,0,0,1,0-.3,1.6,1.6,0,0,1,.13-.3,1.09,1.09,0,0,1,.29-.24l.25-.09c.16,0,.15,0,.18,0s0,0,0-.05a.63.63,0,0,0-.08-.17,3.88,3.88,0,0,0-.6-.78l-.07-.06v-.09a2.15,2.15,0,0,1,.21-1.08,5.76,5.76,0,0,1,.46-.89,8.72,8.72,0,0,1,1.24-1.54,2.6,2.6,0,0,1,.4-.33,2.52,2.52,0,0,1,.24-.15.85.85,0,0,1,.29-.09.55.55,0,0,1,.6.31,1.52,1.52,0,0,1,.15.52A6,6,0,0,1,118.61,27.83Z"/><path class="cls-16" d="M117.89,28.6a4,4,0,0,0-.17-1.31,1.38,1.38,0,0,0-.43-.68,1,1,0,0,0-.28-.12l.19-.56a1.25,1.25,0,0,1,.44.32,1.85,1.85,0,0,1,.37,1A4.12,4.12,0,0,1,117.89,28.6Z"/><path class="cls-5" d="M100.69,46.27S94.24,42.86,92,39.06c-1.81-2.67-4.6-14.88-4.83-17l0-.21a.5.5,0,0,0,0-.11h0c0-.44-.07-.88-.07-1.33a14.74,14.74,0,0,1,29.47,0c0,.53,0,1.05-.08,1.57h0s-2.86,14.14-4.85,17.06c-2.33,4.35-8.65,7.21-8.65,7.21A2.29,2.29,0,0,1,100.69,46.27Z"/><path class="cls-17" d="M98.28,27a.53.53,0,0,0,.12-.57c-.1-.4-3.73-3.44-6.15.26C92.25,26.7,95.68,30.06,98.28,27Z"/><path d="M97.23,26.51A1.55,1.55,0,1,1,95.68,25,1.54,1.54,0,0,1,97.23,26.51Z"/><path class="cls-18" d="M96.41,26.51a.73.73,0,1,1-.73-.73A.73.73,0,0,1,96.41,26.51Z"/><path class="cls-19" d="M93.51,27.63c-.46-.25-.92-.51-1.36-.79L92,26.76l.08-.15a4.07,4.07,0,0,1,1.38-1.51,3.05,3.05,0,0,1,2-.46,4.21,4.21,0,0,1,1.92.73,4,4,0,0,1,.77.65c.1.14.26.25.26.48a1.14,1.14,0,0,1-.11.49,1.8,1.8,0,0,0,0-.47c0-.12-.17-.22-.29-.31a5.16,5.16,0,0,0-.8-.51,5,5,0,0,0-1.77-.54,3.16,3.16,0,0,0-1.73.38,4.91,4.91,0,0,0-1.37,1.25l0-.22C92.74,26.9,93.13,27.26,93.51,27.63Z"/><path class="cls-17" d="M95.38,26a.37.37,0,1,1-.73,0,.37.37,0,1,1,.73,0Z"/><path class="cls-19" d="M92.58,26.51s-.5,1-1.53.2c0,0,.71.22,1.57-.84Z"/><path class="cls-19" d="M91.27,25.74a1.76,1.76,0,0,0,.85.17,1.39,1.39,0,0,0,.56-.14l.23-.13.14.24-.28.11a1.68,1.68,0,0,1-.65.06A1.74,1.74,0,0,1,91.27,25.74Z"/><path class="cls-19" d="M92,25.12a1.46,1.46,0,0,0,.74.22,1.53,1.53,0,0,0,.51-.07l.22-.08.1.26a2,2,0,0,1-.84,0A1.51,1.51,0,0,1,92,25.12Z"/><path class="cls-19" d="M99.45,22.18s-.66.68-3.25-.35c-2.86-1.14-5.45-.38-5.7-.1C90.5,21.73,94.55,18.63,99.45,22.18Z"/><path class="cls-17" d="M105.19,27a.53.53,0,0,1-.12-.57c.1-.4,3.73-3.44,6.15.26C111.22,26.7,107.79,30.06,105.19,27Z"/><path d="M106.24,26.51A1.55,1.55,0,1,0,107.79,25,1.54,1.54,0,0,0,106.24,26.51Z"/><path class="cls-18" d="M107.06,26.51a.73.73,0,0,0,1.46,0,.73.73,0,0,0-1.46,0Z"/><path class="cls-19" d="M110,27.63c.38-.37.76-.73,1.17-1.06l0,.22a5.06,5.06,0,0,0-1.37-1.25,3.16,3.16,0,0,0-1.73-.38,5,5,0,0,0-1.77.54,5.16,5.16,0,0,0-.8.51c-.12.09-.28.19-.29.31a1.8,1.8,0,0,0,0,.47,1.31,1.31,0,0,1-.12-.49c0-.23.17-.34.27-.48a4,4,0,0,1,.77-.65,4.21,4.21,0,0,1,1.92-.73,3.12,3.12,0,0,1,2,.46,4.15,4.15,0,0,1,1.38,1.51l.08.15-.12.08C110.88,27.12,110.42,27.38,110,27.63Z"/><path class="cls-17" d="M108.09,26a.37.37,0,1,0,.73,0,.37.37,0,1,0-.73,0Z"/><path class="cls-19" d="M110.89,26.51s.5,1,1.52.2c0,0-.7.22-1.56-.84Z"/><path class="cls-19" d="M112.2,25.74a1.74,1.74,0,0,1-.85.31,1.68,1.68,0,0,1-.65-.06l-.28-.11.14-.24.22.13a1.49,1.49,0,0,0,.57.14A1.8,1.8,0,0,0,112.2,25.74Z"/><path class="cls-19" d="M111.48,25.12a1.57,1.57,0,0,1-.73.36,2,2,0,0,1-.84,0l.1-.26.21.08a1.57,1.57,0,0,0,.51.07A1.47,1.47,0,0,0,111.48,25.12Z"/><path class="cls-19" d="M104,22.18s.66.68,3.25-.35c2.86-1.14,5.45-.38,5.7-.1C113,21.73,108.92,18.63,104,22.18Z"/><path class="cls-16" d="M101.59,35s-1.69-.72-1.76-.24S100.77,35.5,101.59,35Z"/><path class="cls-16" d="M102.09,35s1.69-.72,1.75-.24S102.9,35.5,102.09,35Z"/><path class="cls-20" d="M97.56,37.88s2.82-1.63,4.28-1.11c0,0,1.39-.5,4.27,1.11a4.37,4.37,0,0,1-4,2.64A4.86,4.86,0,0,1,97.56,37.88Z"/><path class="cls-21" d="M106.11,37.89h0L106,37.8a17.93,17.93,0,0,0-4.13-.56,19.74,19.74,0,0,0-4.08.53l-.2.11h8.55Z"/><path class="cls-21" d="M97.8,38A5.55,5.55,0,0,0,102,39.7a5.26,5.26,0,0,0,4.15-1.82Z"/><path class="cls-22" d="M101.84,37.7a31.89,31.89,0,0,0-4.28.18,7.94,7.94,0,0,0,8.55,0A31.72,31.72,0,0,0,101.84,37.7Z"/><path class="cls-7" d="M99.37,38.73a7.1,7.1,0,0,0,2.47.4,7,7,0,0,0,2.43-.39A5.93,5.93,0,0,0,99.37,38.73Z"/><path class="cls-23" d="M104.64,39.29s-2,.5-1.66.79S105.07,39.34,104.64,39.29Z"/><path class="cls-23" d="M102.72,40.12s0-.41-1.31-.13S103,40.58,102.72,40.12Z"/><path class="cls-1" d="M89.1,32.92a1.1,1.1,0,1,1-1.1-1.1A1.09,1.09,0,0,1,89.1,32.92Z"/><path class="cls-10" d="M88.65,32.92a.65.65,0,1,1-.65-.65A.65.65,0,0,1,88.65,32.92Z"/><path class="cls-1" d="M116.66,32.92a1.1,1.1,0,1,1-1.09-1.1A1.09,1.09,0,0,1,116.66,32.92Z"/><circle class="cls-10" cx="115.57" cy="32.92" r="0.65"/><path class="cls-13" d="M86.91,24.88s.9,2.5,1.74-1.48c2.16-10.08,17.85-3.83,22.83-9.59L109.81,2.34S110.49,0,106.24,0C94.65,0,83.4,3.57,86.29,24.28Z"/><path class="cls-13" d="M116.77,24.88s-1.24,2.53-2.59-1.31c-1.14-3.25-2.55-5.69-3.46-10.25l-8.88-9.89A3,3,0,0,1,105.27,1c3.16.4,14.77,2.87,12.12,23.3Z"/><path class="cls-14" d="M114.18,23.57c1.35,3.84,2.59,1.31,2.59,1.31l.62-.6c.17-1.34.28-2.59.34-3.77-.74-.08-1.8-2.71-2.81-6.86-1.66-6.79-5-7.3-5-7.3L108.09,9l.06,1.47,2.57,2.86C111.63,17.88,113,20.32,114.18,23.57Z"/><path class="cls-8" d="M98.42,37.8h0s3.66,1.43,6.62,0h0a22.66,22.66,0,0,0-3.2-.09A24.14,24.14,0,0,0,98.42,37.8Z"/><path class="cls-13" d="M116.94,67.18s2.82-5.4-.72-12.21c0,0,1.16-5.35-1.75-6.79l-.09,0a2.7,2.7,0,0,1,0,.28,2.55,2.55,0,0,1-.4,1,2.9,2.9,0,0,1-1.11,1.06,3.15,3.15,0,0,1-1.57.38,5.23,5.23,0,0,1-1.11-.17,2.51,2.51,0,0,1-1.53-1.24l-.12,0A16.4,16.4,0,0,0,109.81,56s-2.39,5.24,1.82,12.24c0,0-2.68,8.33-.18,12.23,0,0,.67,1.29,2.89,1.15,0,0,2.64,0,3.15-.92S119.79,78,116.94,67.18Z"/><path class="cls-14" d="M114.06,70.19a7.54,7.54,0,0,0,2.89-3s0,0,0,0a13,13,0,0,0,.82-7.79c-.68,1.89-1.82,4.28-3.47,5.1a18.27,18.27,0,0,1-5.1-5.8,15.51,15.51,0,0,0,2.44,9.51l0,.06A7.54,7.54,0,0,0,114.06,70.19Z"/><path class="cls-14" d="M117.49,80.66c.4-.7,1.61-2,.67-7.88-.67,4.52-1.67,7.63-3.22,6.86-1.24-.63-3-5.64-4-8.86-.59,2.78-1.13,7.13.48,9.65,0,0,.67,1.29,2.89,1.15C114.34,81.58,117,81.54,117.49,80.66Z"/><path class="cls-14" d="M116.25,55.05l0-.08a10.13,10.13,0,0,0-.24-5.11c-.58,1.81-1.56,4-2.89,3.93-1.55-.13-3.32-1.48-4.52-2.84a14.74,14.74,0,0,0,1.2,4.93,11.12,11.12,0,0,0,4.57,2.59A6.87,6.87,0,0,0,116.25,55.05Z"/><path class="cls-14" d="M111.4,13.31l-1.11-7.66c-.72,1.84-2.45,3.4-6,3.8-6.55.74-14.78,5.35-14.78,5.35C91.16,8,96,3.27,99.79.48c-8.89,1.48-15.85,7-13.5,23.8l.62.6s.9,2.5,1.74-1.48c2.08-9.71,16.73-4.27,22.24-9A10.64,10.64,0,0,0,111.4,13.31Z"/><path class="cls-14" d="M116.45,90.42c-1.86,1.94-4-3.63-4.86-6.49a15.11,15.11,0,0,0,.24,9.52,15,15,0,0,1,.76,5.31s2.39-1.83,2.78-6.91c0,0-.1,4.17-.92,6,0,0,5.18-7.74,4-14C118.26,86.22,117.76,89.05,116.45,90.42Z"/><path class="cls-8" d="M75.37,131s25.4,18,51,0c0,0,1,6,1.26,11.37,0,0,4.24,44.08-27.69,44.08-27.24,0-24.8-46.8-24.8-46.8Z"/><path class="cls-4" d="M99.9,179c-20.73,0-24.27-27.08-24.78-40l0,.68s-2.44,46.8,24.8,46.8c28.58,0,28.18-35.31,27.79-42.72C127.05,156.55,122.68,179,99.9,179Z"/></g></g></svg>