<svg xmlns="http://www.w3.org/2000/svg" viewBox="0 0 36.62 111.12"><defs><style>.cls-1{isolation:isolate;}.cls-2{fill:#f9f9f9;}.cls-3{fill:#e6e5e3;opacity:0.59;mix-blend-mode:multiply;}</style></defs><g class="cls-1"><g id="Layer_2" data-name="Layer 2"><g id="_19March-Nehru-Arm-Upper" data-name="19March-Nehru-Arm-Upper"><path class="cls-2" d="M31.75,103.85c-.26-2-.53-4-.8-6a17,17,0,0,1,1.93-8.64A16.72,16.72,0,0,1,36.62,83C25.67-10.81,10.19.42,10.19.42S-7.61,3.68,3.84,59.64s27.89,50.93,27.89,50.93l3.26.09A22.62,22.62,0,0,1,31.75,103.85Z"/><path class="cls-3" d="M31.75,103.85c-.26-2-.53-4-.8-6a17,17,0,0,1,.94-6.3l.33-39.22S20.27,94.9,16.79,65.8,9.32,2.56,9.32,2.56s2,81.71,4.48,90.1,9.46,21.27,17.93,17.91l.05-6.64Z"/></g></g></g></svg>