<?xml version="1.0" encoding="utf-8"?>
<!-- Generator: Adobe Illustrator 25.0.0, SVG Export Plug-In . SVG Version: 6.00 Build 0)  -->
<svg version="1.1" id="Layer_1" xmlns="http://www.w3.org/2000/svg" xmlns:xlink="http://www.w3.org/1999/xlink" x="0px" y="0px"
	 viewBox="0 0 121.2 100.4" style="enable-background:new 0 0 121.2 100.4;" xml:space="preserve">
<style type="text/css">
	.st0{fill:#ADACAC;}
	.st1{fill:#BFBFBF;}
	.st2{fill:#F9F9F9;}
	.st3{opacity:0.59;fill:#E6E5E3;enable-background:new    ;}
	.st4{fill:#D9DADB;}
	.st5{fill:#F2F2F2;}
	.st6{fill:#FCFCFC;}
	.st7{fill:#FFFFFF;}
</style>
<g>
	<g id="Layer_2_1_">
		<g id="_19March-Nehru-Arm-Lower">
			<path class="st0" d="M59.4,71.8c3.1,0.8,15.2,1.6,21.4,2.9c1.5,0.3,8-1.4,11.7-1.2s10.2,2.7,13.2,2.8s6.2,0.2,9.7,0.5
				s7.3,3.2,3.4,4.1s-11.8,0.2-12.7,0.3c-2.2,0.2-2.1,2.9,0.1,5c2.1,2,4.4,3.8,6.8,5.3c1,0.4,4.9,1.6,5.9,1.9c3.2,1,4,3.8-0.9,2.9
				s-6.8-0.6-8.3-1.6s-4.1-2.9-4.6-2.8s1.9,3.1,2.5,3.6c2.2,1.6,6.3,2,7.3,2.7c2.3,1.4-0.4,3.4-6.4,1.3c-1,1.9-8.8,0-10-1.5
				c-1,0.6-4.2,0.3-7.4-1.3s-10-9.3-11.4-9.6C74.9,86.2,55.5,82.4,59.4,71.8z"/>
			<path class="st1" d="M98.2,98c0.4-0.1,0.6-0.5,0.6-0.9c0-0.2-0.2-0.4-0.4-0.6c-0.1-0.1-0.2-0.1-0.3-0.1c-0.1,0-0.2-0.1-0.3-0.1
				c-0.9-0.3-1.8-0.7-2.6-1.2c-0.7-0.5-1.3-1.1-1.8-1.9c-0.5-0.7-1-1.4-1.4-2.1c0.4,0.8,0.8,1.5,1.3,2.2c0.2,0.3,0.5,0.7,0.8,1
				c0.3,0.4,0.7,0.7,1.1,0.9c0.8,0.5,1.7,0.9,2.7,1.2c0.2,0,0.5,0.1,0.7,0.2c0.2,0.1,0.3,0.3,0.4,0.5C98.8,97.4,98.6,97.9,98.2,98z"
				/>
			<path class="st1" d="M108.2,99.5c0.2-0.2,0.3-0.3,0.4-0.6c0.1-0.2,0.1-0.5,0-0.7c-0.2-0.2-0.5-0.4-0.8-0.5
				c-0.3-0.1-0.6-0.2-0.9-0.2c-1.2-0.2-2.3-0.5-3.5-0.8c-0.6-0.2-1.1-0.4-1.6-0.7c-0.2-0.2-0.4-0.3-0.6-0.5
				c-0.2-0.2-0.3-0.4-0.5-0.6c-0.7-0.9-1.3-1.7-1.9-2.6c0.5,0.9,1.1,1.8,1.7,2.7c0.1,0.2,0.3,0.5,0.5,0.7c0.2,0.2,0.4,0.4,0.7,0.6
				c0.5,0.3,1.1,0.6,1.6,0.8c1.2,0.3,2.3,0.6,3.5,0.8c0.3,0.1,0.6,0.1,0.9,0.2c0.3,0.1,0.5,0.2,0.7,0.4c0.1,0.2,0.2,0.5,0.1,0.7
				C108.5,99.1,108.4,99.3,108.2,99.5z"/>
			<path class="st1" d="M87.6,85.2c0.9-0.2,1.8-0.2,2.6-0.2c0.9,0,1.8,0.1,2.7,0.2c0.9,0.1,1.8,0.3,2.7,0.5c0.9,0.2,1.8,0.4,2.7,0.7
				c-0.4-0.2-0.9-0.3-1.3-0.4l-1.4-0.4c-0.9-0.2-1.8-0.4-2.7-0.5c-0.9-0.1-1.8-0.2-2.8-0.1C89.3,84.9,88.5,85,87.6,85.2z"/>
			<path class="st1" d="M88,78.2c0.7,0.8,1.5,1.6,2.3,2.2c0.9,0.7,1.8,1.3,2.7,1.9c1,0.6,2,1,3,1.4c1.1,0.4,2.2,0.7,3.3,0.9
				c-1.1-0.3-2.2-0.6-3.2-1c-2.1-0.8-4-1.9-5.7-3.3C89.5,79.6,88.7,78.9,88,78.2z"/>
			<path class="st0" d="M64,87.8c0.5,0.2,0.9,0.5,1.4,0.9c6.9-1,12.4-2,14.3-2.5c-11.4-0.6-17.3-9.8-13.3-14.1
				c-3-0.4-10.4-0.7-17.5-0.8c2.7,4.8,5.6,9.4,8.4,14.1C59.5,86,61.8,86.8,64,87.8z"/>
			<path class="st2" d="M75.3,69.8L17,63.1c-0.1-1.2-0.3-2.3-0.4-3.5c-4.3-0.6-11.6,3-13.9,5c-2.9,4.3-0.9,11-1.9,18.9
				C7.1,91.5,12.1,90,12.1,90l65.2,1.7L75.3,69.8z"/>
			<path class="st3" d="M9.7,58.8C3.2,57.5-0.6,67,0.4,84c-0.1,0.1-0.2,0.2-0.4,0.3c3.2,4.5,7.4,7.5,12.1,5.7L17,63.1
				C18.6,56.4,10.2,58.3,9.7,58.8z"/>
			<polygon class="st4" points="87.2,85 88.6,83.8 88.7,83.8 89.3,83.6 89.5,82.9 90.8,82.6 91.6,82.2 93.1,81.2 95.2,79.6 
				95.6,78.9 96.4,79.6 97.5,79.4 98.2,79.7 99.1,80.2 100.2,80.4 100.5,81.1 100.9,81.3 101.7,82.3 102,82.9 102.6,83.7 
				103.6,84.3 104.1,84.9 104.6,86.6 102.9,86.9 102,87.6 100.7,87.6 98.7,87.9 97.1,88.3 95.8,88.4 94,87.6 92.5,87.9 90.9,88.1 
				90.9,88.1 89.4,87.9 88.1,86.9 			"/>
			<polygon class="st5" points="89.5,85.8 88.6,86.9 89.3,87.9 90.9,87.8 91.4,86.2 90.2,85.2 			"/>
			<polygon class="st6" points="88.6,86.9 88.4,88.1 89.8,88.6 91.3,88.3 91.4,86.2 90.9,87.8 89.7,87.7 			"/>
			<polygon class="st5" points="92.5,82.3 91.1,82.6 90.9,83.7 92.2,84.8 93.6,84 93.4,82.4 			"/>
			<polygon class="st6" points="91.1,82.6 90.2,83.2 90.8,84.6 92.1,85.4 93.6,84 92.2,84.8 91.3,83.9 			"/>
			<polygon class="st5" points="99.6,87.7 100.7,88 101.2,87.2 100.6,86.1 99.4,86.2 99.1,87.4 			"/>
			<polygon class="st6" points="100.7,88 101.6,87.8 101.5,86.6 100.9,85.7 99.4,86.2 100.6,86.1 101,87 			"/>
			<polygon class="st5" points="98.1,88.5 99.2,88.8 99.6,88 99.1,86.9 97.8,87 97.5,88.1 			"/>
			<polygon class="st6" points="99.2,88.8 100,88.6 100,87.4 99.3,86.4 97.8,87 99.1,86.9 99.4,87.8 			"/>
			<polygon class="st5" points="93.2,87.9 94.2,88.2 94.7,87.4 94.2,86.3 92.9,86.4 92.6,87.6 			"/>
			<polygon class="st6" points="94.2,88.2 95.1,88 95.1,86.8 94.4,85.9 92.9,86.4 94.2,86.3 94.5,87.2 			"/>
			<polygon class="st5" points="96.4,85.6 97.5,85.9 97.9,85.1 97.4,84 96.1,84.1 95.8,85.3 			"/>
			<polygon class="st6" points="97.5,85.9 98.3,85.7 98.3,84.5 97.6,83.6 96.1,84.1 97.4,84 97.7,84.9 			"/>
			<polygon class="st5" points="97.3,82.5 98.4,82.8 98.9,82.1 98.3,80.9 97.1,81 96.8,82.2 			"/>
			<polygon class="st6" points="98.4,82.8 99.3,82.6 99.2,81.5 98.6,80.5 97.1,81 98.3,80.9 98.7,81.8 			"/>
			<polygon class="st5" points="93.1,81.8 94.2,82.1 94.7,81.3 94.1,80.2 92.9,80.3 92.5,81.5 			"/>
			<polygon class="st6" points="94.2,82.1 95.1,81.9 95,80.7 94.4,79.8 92.9,80.3 94.1,80.2 94.5,81.1 			"/>
			<polygon class="st5" points="102.9,86.9 104,87.2 104.4,86.4 103.9,85.3 102.6,85.4 102.3,86.6 			"/>
			<polygon class="st6" points="104,87.2 104.8,87 104.8,85.8 104.1,84.9 102.6,85.4 103.9,85.3 104.2,86.2 			"/>
			<polygon class="st5" points="86.8,86.3 87.9,86.6 88.3,85.8 87.8,84.6 86.5,84.8 86.2,85.9 			"/>
			<polygon class="st6" points="87.9,86.6 88.7,86.4 88.7,85.2 88,84.2 86.5,84.8 87.8,84.6 88.1,85.6 			"/>
			<polygon class="st5" points="100.5,84.1 101.6,84.4 102.1,83.6 101.5,82.5 100.2,82.6 99.9,83.8 			"/>
			<polygon class="st6" points="101.6,84.4 102.4,84.2 102.4,83 101.8,82.1 100.2,82.6 101.5,82.5 101.8,83.4 			"/>
			<polygon class="st7" points="87.4,84.1 87.8,84.6 88.4,84.1 88.4,83.4 			"/>
			<polygon class="st6" points="87.4,84.1 87.7,85 88.4,85.3 88.9,84.3 88.4,83.4 88.4,84.1 87.8,84.6 			"/>
			<polygon class="st5" points="90.8,87.6 91.1,88.1 91.7,87.7 91.7,87 			"/>
			<polygon class="st6" points="90.8,87.6 91,88.5 91.7,88.8 92.2,87.8 91.7,87 91.7,87.7 91.1,88.1 			"/>
			<polygon class="st5" points="94.9,84.9 95.3,85.4 95.9,85 95.9,84.3 			"/>
			<polygon class="st6" points="94.9,84.9 95.2,85.9 95.9,86.2 96.4,85.2 95.9,84.3 95.9,85 95.3,85.4 			"/>
			<polygon class="st5" points="96.7,87.6 97.1,88.1 97.7,87.7 97.6,87 			"/>
			<polygon class="st6" points="96.7,87.6 96.9,88.5 97.6,88.9 98.1,87.9 97.6,87 97.7,87.7 97.1,88.1 			"/>
			<polygon class="st5" points="101.9,84.9 102.3,85.4 102.9,85 102.9,84.3 			"/>
			<polygon class="st6" points="101.9,84.9 102.2,85.8 102.9,86.2 103.4,85.2 102.9,84.3 102.9,85 102.3,85.4 			"/>
			<polygon class="st7" points="94.4,81.9 94.8,82.4 95.4,81.9 95.3,81.2 			"/>
			<polygon class="st6" points="94.4,81.9 94.6,82.8 95.3,83.1 95.8,82.1 95.3,81.2 95.4,81.9 94.8,82.4 			"/>
			<polygon class="st5" points="94.1,79.7 94.4,80.2 95,79.8 95,79 			"/>
			<polygon class="st6" points="94.1,79.7 94.3,80.6 95,80.9 95.5,79.9 95,79 95,79.8 94.4,80.2 			"/>
			<polygon class="st5" points="98.7,82.4 99.1,82.9 99.7,82.5 99.6,81.8 			"/>
			<polygon class="st6" points="98.7,82.4 98.9,83.3 99.7,83.7 100.1,82.7 99.6,81.8 99.7,82.5 99.1,82.9 			"/>
			<polygon class="st7" points="91.3,81.5 91.7,82 92.3,81.6 92.2,80.9 			"/>
			<polygon class="st6" points="91.3,81.5 91.5,82.4 92.2,82.8 92.7,81.8 92.2,80.9 92.3,81.6 91.7,82 			"/>
			<polygon class="st7" points="91.1,85.4 91.5,86 92.1,85.5 92.1,84.8 			"/>
			<polygon class="st6" points="91.1,85.4 91.3,86.4 92.1,86.7 92.6,85.7 92.1,84.8 92.1,85.5 91.5,86 			"/>
			<polygon class="st5" points="96.2,80 96.7,80 96.7,79.4 96.2,79.2 			"/>
			<polygon class="st6" points="96.2,80 96.9,80.2 97.4,79.9 96.9,79.2 96.2,79.2 96.7,79.4 96.7,80 			"/>
			<polygon class="st5" points="95,81.2 95.4,81.1 95.4,80.6 94.9,80.3 			"/>
			<polygon class="st6" points="95,81.2 95.6,81.4 96.1,81.1 95.7,80.4 94.9,80.3 95.4,80.6 95.4,81.1 			"/>
			<polygon class="st5" points="97.9,84.3 98.3,84.3 98.3,83.7 97.9,83.4 			"/>
			<polygon class="st6" points="97.9,84.3 98.6,84.5 99.1,84.2 98.6,83.5 97.9,83.4 98.3,83.7 98.3,84.3 			"/>
			<polygon class="st5" points="93.8,84.2 94.3,84.2 94.3,83.7 93.8,83.4 			"/>
			<polygon class="st6" points="93.8,84.2 94.5,84.5 95,84.2 94.6,83.5 93.8,83.4 94.3,83.7 94.3,84.2 			"/>
			<polygon class="st5" points="93.2,82.6 93.6,82.6 93.6,82 93.1,81.8 			"/>
			<polygon class="st6" points="93.2,82.6 93.8,82.8 94.3,82.5 93.9,81.8 93.1,81.8 93.6,82 93.6,82.6 			"/>
			<polygon class="st5" points="89,84.6 89.4,84.6 89.4,84 89,83.8 			"/>
			<polygon class="st6" points="89,84.6 89.7,84.8 90.2,84.5 89.7,83.8 89,83.8 89.4,84 89.4,84.6 			"/>
			<polygon class="st5" points="87.5,87.1 88,87 88,86.5 87.5,86.2 			"/>
			<polygon class="st6" points="87.5,87.1 88.2,87.3 88.7,87 88.3,86.3 87.5,86.2 88,86.5 88,87 			"/>
			<polygon class="st5" points="95.1,88.8 95.5,88.6 95.3,88.1 94.8,88 			"/>
			<polygon class="st6" points="95.1,88.8 95.8,88.8 96.2,88.3 95.5,87.8 94.8,88 95.3,88.1 95.5,88.6 			"/>
			<polygon class="st5" points="99,87.1 99.5,86.9 99.3,86.4 98.7,86.3 			"/>
			<polygon class="st6" points="99,87.1 99.8,87.1 100.1,86.6 99.5,86.1 98.7,86.3 99.3,86.4 99.5,86.9 			"/>
			<polygon class="st5" points="98.8,85.6 99.2,85.4 99,84.9 98.5,84.8 			"/>
			<polygon class="st6" points="98.8,85.6 99.5,85.6 99.8,85.2 99.2,84.6 98.5,84.8 99,84.9 99.2,85.4 			"/>
			<polygon class="st5" points="102.4,87.4 102.9,87.2 102.7,86.5 102,86.4 			"/>
			<polygon class="st6" points="102.4,87.4 103.3,87.4 103.7,86.8 102.9,86.2 102,86.4 102.7,86.5 102.9,87.2 			"/>
			<polygon class="st5" points="101.6,87.9 102.1,87.9 102,87.3 101.6,87.1 			"/>
			<polygon class="st6" points="101.6,87.9 102.3,88.2 102.8,87.8 102.3,87.1 101.6,87.1 102,87.3 102.1,87.9 			"/>
			<path class="st5" d="M99,79.8c0,0.1-0.4,0.4-0.4,0.4l0.4,0.4l1.3-0.6l-0.9-0.1L99,79.8z"/>
			<polygon class="st6" points="98.5,80.2 98.5,80.6 99.1,81 100.1,80.8 100.3,79.9 99,80.6 			"/>
			<path class="st7" d="M92.1,87.3l-0.4,0.4l0.4,0.4l1.3-0.6l-0.9-0.1L92.1,87.3z"/>
			<polygon class="st6" points="91.7,87.7 91.7,88.1 92.3,88.5 93.3,88.2 93.5,87.4 92.2,88 			"/>
			<path class="st7" d="M95.9,88l-0.4,0.4l0.4,0.4l1.3-0.6L96.4,88H95.9z"/>
			<polygon class="st6" points="95.5,88.4 95.4,88.8 96.1,89.2 97.1,88.9 97.3,88.1 96,88.7 			"/>
			<path class="st7" d="M93.7,84.7l-0.4,0.4l0.4,0.4l1.3-0.6l-0.9-0.1L93.7,84.7z"/>
			<polygon class="st6" points="93.2,85.1 93.2,85.5 93.8,85.9 94.8,85.6 95,84.8 93.7,85.5 			"/>
			<path class="st5" d="M100.4,84.6c0,0.1-0.4,0.4-0.4,0.4l0.4,0.4l1.3-0.6l-0.9-0.2L100.4,84.6z"/>
			<polygon class="st6" points="99.9,84.9 99.9,85.3 100.5,85.7 101.5,85.5 101.7,84.7 100.4,85.3 			"/>
			<path class="st5" d="M95.6,82.7c0,0.1-0.4,0.4-0.4,0.4l0.4,0.4l1.3-0.6l-0.9-0.1L95.6,82.7z"/>
			<polygon class="st6" points="95.2,83.1 95.1,83.5 95.8,83.9 96.8,83.6 97,82.8 95.7,83.4 			"/>
			<path class="st5" d="M89.6,83.1c0,0.2,0,0.4-0.1,0.6h0.6l0.6-1.3l-0.8,0.5L89.6,83.1z"/>
			<polygon class="st6" points="89.5,83.6 89.7,84 90.5,83.9 91.1,83.1 90.7,82.3 90.1,83.6 			"/>
			<polygon class="st7" points="90,85.6 89.4,86.3 89.7,86.7 90.4,86.8 90.9,86.4 			"/>
			<path class="st7" d="M88.6,85.5c0,0.1,0,0.2,0,0.4H89l0.4-0.9l-0.5,0.3L88.6,85.5z"/>
			<polygon class="st6" points="88.5,85.8 88.7,86.1 89.2,86 89.6,85.5 89.3,85 88.9,85.8 			"/>
			<path class="st7" d="M95.8,86.6c-0.1,0.1-0.1,0.2-0.2,0.3l0.3,0.2l0.8-0.6H96L95.8,86.6z"/>
			<polygon class="st6" points="95.5,86.9 95.6,87.2 96,87.3 96.6,87 96.7,86.5 95.9,87.1 			"/>
			<path class="st5" d="M97.1,83.2c-0.1,0.1-0.1,0.2-0.2,0.3l0.3,0.2l0.8-0.6h-0.6L97.1,83.2z"/>
			<polygon class="st6" points="96.9,83.5 96.9,83.7 97.4,83.9 98,83.6 98,83.1 97.3,83.7 			"/>
			<path class="st5" d="M95.7,82.2c-0.1,0.1-0.1,0.2-0.2,0.3l0.3,0.2l0.8-0.6H96L95.7,82.2z"/>
			<polygon class="st6" points="95.5,82.5 95.5,82.7 96,82.9 96.6,82.6 96.6,82.1 95.8,82.6 			"/>
			<path class="st5" d="M97.1,80.5c-0.1,0.1-0.1,0.2-0.2,0.3l0.3,0.2l0.8-0.6h-0.6L97.1,80.5z"/>
			<polygon class="st6" points="96.9,80.8 96.9,81 97.4,81.2 97.9,80.9 98,80.3 97.2,80.9 			"/>
			<path class="st7" d="M95.3,79.9l-0.2,0.3l0.3,0.2l0.8-0.6h-0.6L95.3,79.9z"/>
			<polygon class="st6" points="95.1,80.2 95.1,80.4 95.6,80.6 96.1,80.3 96.2,79.8 95.4,80.3 			"/>
			<path class="st5" d="M99,81.5l-0.2,0.3l0.3,0.2l0.8-0.6h-0.6L99,81.5z"/>
			<polygon class="st6" points="98.8,81.8 98.8,82.1 99.3,82.2 99.9,81.9 99.9,81.4 99.2,82 			"/>
			<path class="st5" d="M92.3,86l-0.2,0.3l0.3,0.2l0.8-0.6h-0.6L92.3,86z"/>
			<polygon class="st6" points="92.1,86.3 92.2,86.5 92.6,86.7 93.2,86.4 93.2,85.8 92.5,86.4 			"/>
			<polygon class="st7" points="97.9,81.2 97.3,81.8 97.5,82.2 98,82.4 98.3,81.9 			"/>
		</g>
	</g>
</g>
</svg>
