<svg xmlns="http://www.w3.org/2000/svg" viewBox="0 0 71.19 100.62"><defs><style>.cls-1{fill:#e6e6e6;}.cls-2{fill:#fff;}.cls-3{fill:#7c7c7c;}.cls-4{fill:#f9f9f9;}</style></defs><g id="Layer_2" data-name="Layer 2"><g id="_1April-Crowd05" data-name="1April-Crowd05"><path class="cls-1" d="M38.22,56.21c-7.08-4.28-10.29-32.94-10.29-32.94l1.24-1.74s4.74-2,8.48,6.72c2,4.68,5,10.34,6.3,16,.56,2.37-.77,4.6-1.74,6.27C41,52.54,41.23,58,38.22,56.21Z"/><path class="cls-2" d="M36.21,68.35a21,21,0,0,1-16.52,6,23.18,23.18,0,0,1-11-4.61c.6-4.29,1-8.7.71-11.17-1.14-8.79-2.85-23-2.54-25.31.52-3.89,9.33-8.1,9.33-8.1s6.25-4.84,12.73-2.29c0,0,6.93,5.59,7.75,13.5C37,40.28,36,53.62,38.1,61,38.5,62.41,36,65.9,36.21,68.35Z"/><path class="cls-2" d="M33.48,56s5,.85,6.82,3,4.37-.1,6.4.49,2.68.51,5.09-.49,11.94,0,12.52,9c.21,3.26-1.51,6.21-4.32,8.9-1.27,1.21,1.28,5.29-1.4,6.45s-8.42,2.07-11.33,3.57c-6,3-7.69,9.4-12.22,11-3.73,1.36-6.28-2.49-8-.85-5.61,5.34-15.07,4.44-22.69-.68S-.25,79.07,8.64,69.72,33.48,56,33.48,56Z"/><path class="cls-1" d="M25.3,24.27c.52-.27,2.4,2,3.21,4s-.06,4.16-3.21,5S18.54,31.59,16.65,30a41.62,41.62,0,0,1-3.39-3.26,38.85,38.85,0,0,1,6.23-3.33C22.1,22.43,25.3,24.27,25.3,24.27Z"/><path class="cls-3" d="M26.4,22.6l.41,6.1s0,1.58-2.62,2.43c-3.16,1-8-5.09-8-5.09l2.21-9.28Z"/><path class="cls-3" d="M17.53,18.32c2.17,3.55,7.14,5.57,9.35,5.92,3.29.53,6.83-6,5.24-13.33-.35-1.66-.44-3.3-1.19-4.4C26.64.16,19.7,3.44,17.41,6.36,15.63,8.63,15.07,14.32,17.53,18.32Z"/><path d="M17.53,21.32a3.2,3.2,0,0,0,1.19-2.76,4.23,4.23,0,0,1-.55-4.37,33.73,33.73,0,0,1,2.69-3.5S31,9.1,30.3,6.62s-1.71-5.22-6.11-5.2a11.23,11.23,0,0,0-9,4.39c-2.44,3.11-1.16,5.49-.24,8.73A60.72,60.72,0,0,0,17.53,21.32Z"/><path class="cls-1" d="M39.44,62.7s-2.94,5.87-7.63,7.37-13.09,1.46-13.09,1.46.91-1.45,3.91-2,5.44.5,9.18-1.17S38.07,62.82,39.44,62.7Z"/><path class="cls-1" d="M35,63.33c-3.23.92-6.34,3.08-10.31,3.43s-8.59.35-8.59.35,4.87-1.84,8.05-1.89C27.93,65.16,32.51,62.7,35,63.33Z"/><path class="cls-1" d="M20.7,73s3.47,1.36,10.44,0,12.36-5.12,15.27-6,4.15-.48,4.15-.48a50.05,50.05,0,0,0-7.85,5.09,49.19,49.19,0,0,1-10.53,7.28c-3.42,1.53-10.06-.61-11.48-2.46A2.61,2.61,0,0,1,20.7,73Z"/><path class="cls-4" d="M31.81,9.22a16.77,16.77,0,0,0-10.07,2.89c-3.83,2.7-5.09,3.35-5.86,5C15.6,16.49,9.43,7.94,17.06,3S28.91.06,30.33,3.21A18.12,18.12,0,0,1,31.81,9.22Z"/><path class="cls-3" d="M59.38,55.69s7.6,1.4,10.33,4.41,1.14,5.29-.41,7.42-2.06,3.92-3.17,3.34-.25-2-.83-3.57-6.78-4.11-7.84-6.42S59.38,55.69,59.38,55.69Z"/><path class="cls-3" d="M22.85,73c.74.14,2,1.74,4.68,4.94,1.11,1.34,3.21,3.69,3.21,6.57s0,7.38-1.48,8.6-3.52.33-4.36-2.87-3.26-5-3.44-7-1.56-3-2.6-5.2S22.85,73,22.85,73Z"/><path class="cls-1" d="M40.53,44.19s2.12-2.1,3.14-1,3,1.56,3.59,1.94,1.35,2.63,2.45,3.18,9.4,5.87,11.09,6.68a22.53,22.53,0,0,1,3.27,2s-1.83.41-2.46,3.07a28.31,28.31,0,0,0-.73,4.51s-4.92-.11-7.09-1-14.19-6-15.57-7.34S40.53,44.19,40.53,44.19Z"/><path class="cls-1" d="M2,43.61c.62-7.72,2.25-12,6.16-12.95,1.93.85,5.16,5.52,5.73,12.13.25,2.84.85,9.56,2,13.44.77,2.71,1.76,2.06,2.34,3.9.24.79-.15,1.88.43,2.57s1.36,2.78,3.09,5.54c1.11,1.78,4.46,6.13,4.11,6.18A6.24,6.24,0,0,0,21,77.53c-.75,1.32-1.76,3.4-1.31,3.77,0,0-6.82-4.34-8.67-6.88A53,53,0,0,1,3.66,58.94,48.42,48.42,0,0,1,2,43.61Z"/><path class="cls-1" d="M26.74,31.24a39.63,39.63,0,0,1,3.51,8.45c1.07,4.16.87,14,.87,14l-2.41,1.25s.87-12.25-.86-16.53a51.57,51.57,0,0,0-3.12-6.58Z"/><path class="cls-1" d="M14.87,60.18a14.84,14.84,0,0,1-4,.55,2.44,2.44,0,0,1-2-1.66,12,12,0,0,1,3.39,0A5.33,5.33,0,0,1,14.87,60.18Z"/><path class="cls-1" d="M16.14,62.57a13.87,13.87,0,0,1-3.21,2.91,4.82,4.82,0,0,1-2.51.43s1.46-1.23,2.84-2.26A5.77,5.77,0,0,1,16.14,62.57Z"/><path class="cls-1" d="M25,94.36a44.72,44.72,0,0,0-7.84-.29,16.35,16.35,0,0,1-7-1.46s1.93,2.64,6.5,2.88A23.87,23.87,0,0,0,25,94.36Z"/><path class="cls-1" d="M60,72.91a22,22,0,0,1-7.46,7.37C47.69,83,43.42,86,43.42,86a56.55,56.55,0,0,1,8.15-6.86C55.44,76.66,60,72.91,60,72.91Z"/><path class="cls-1" d="M48.16,79.15c-.58.06-4.74,3.72-7.06,6.86A27,27,0,0,1,36,91.2s2.22-5,5.1-7.89A20.31,20.31,0,0,1,48.16,79.15Z"/></g></g></svg>