<svg xmlns="http://www.w3.org/2000/svg" viewBox="0 0 51.04 78.78"><defs><style>.cls-1{fill:#cfcfcf;}.cls-2{fill:#fff;}.cls-3{fill:#c1c1c1;}.cls-4{fill:#d4d4d4;}.cls-5{fill:#2d2d2d;}</style></defs><g id="Layer_2" data-name="Layer 2"><g id="_1April-Crowd17" data-name="1April-Crowd17"><path class="cls-1" d="M46.46,66.17s-11.25-8.9-13.85-9.41c-4.06-8.94-8.3-13.1-9-12.85-3.85,1.4-4.31,21.21-4.31,21.21S43.33,69.74,46.46,66.17Z"/><path class="cls-2" d="M5.89,49S-.64,57,.05,63.18c.22,2,2,3.9,4.6,6.62,3.06,3.13,3.27,5.7,10.51,7.74,6.86,1.94,26,2,31.15-2.91,4.46-4.25,2.07-10.3-2.64-11.14-6.6-1.17-17.61-3.27-17.47-3.32Z"/><path class="cls-2" d="M22.09,19s-3.53-.65-5.07.29A18.3,18.3,0,0,0,9.64,29.56c-1.38,4.52-1,9.07-1.72,13.35S3.3,51.3,1.66,55.83C3,60.27,8.82,62.09,13.27,63.77c6.43,2.41,13.69.48,16-2.19a6.48,6.48,0,0,0,0-5.25C28.59,55,32.1,46.26,32.93,41.59c.79-4.4,2.31-9.29-.18-12.58a15.51,15.51,0,0,0-4.33-3.62A23.68,23.68,0,0,1,22.09,19Z"/><path class="cls-3" d="M22.14,13.48s-.62,6.05-2,7.16-.45,2.54,2.24,3.47c3.09,1.07,5.32,1.94,7,1.26-.27-1,.35-7.49.35-7.49Z"/><path class="cls-4" d="M20.82,5.24a7.26,7.26,0,0,1,12,.28c4.38,5.82.58,15.31-3.4,15.31-2,0-5.77-1.65-7.9-4.77C19.08,12.55,19.32,7.38,20.82,5.24Z"/><path class="cls-5" d="M30.38,9.55c-.61,1.22-.53,1.94-.07,3.49-.2.39-.9.51-.9.51-.64-1.38-2.13-2.35-3-1.08s-.16,2.16.69,3.64c.15,3.8-5.38,5.1-5.38,5.1a58.9,58.9,0,0,0-3.49-6.84c-1.77-2.79-1.59-8.18,2.06-10,1.51-3.71,5.49-5.31,9-3.22C30.91,2.08,34.33,8.65,30.38,9.55Z"/><path class="cls-4" d="M34.59,36s4,11.32,5.69,15.79S44,62.06,45.3,63c2.1,1.59,6.37,2.09,5.66,5.69-.61,3.13-.88,5.94-2.31,4.7-.73-.63-.33-3-.68-3.72S45.22,69,43.3,67.85c-1.54-.94-1.28-1.61-2.5-4.43-.61-1.4-3-3-4.54-6.1a166.6,166.6,0,0,1-7.85-19.16C27.64,35.29,34.59,36,34.59,36Z"/><path class="cls-2" d="M43.48,59.05c.1-6.13-5.42-19.32-8.35-25.83-2-4.41-3.2-5.32-4.45-5-4,.92-7.57,6.4-4.86,11.93.54,1.1,4.43,9.34,8.14,16.07,1.26,2.3,2.79,5.35,4.4,6.34a6.73,6.73,0,0,0,3.28-.67A3.52,3.52,0,0,0,43.48,59.05Z"/><path class="cls-2" d="M45.3,63c-.27-1.08-1.33-2.3-1.82-4a3.52,3.52,0,0,1-1.84,2.81,6.73,6.73,0,0,1-3.28.67c.81,1.79,1,2.8,1.33,3.21C42.26,66.59,45,65,45.3,63Z"/><path class="cls-1" d="M24.88,58.19a22.49,22.49,0,0,1-6-.08c-2.46-.52-5.06-1.38-5.06-1.38a6.7,6.7,0,0,0,4.79,2.91A10.1,10.1,0,0,0,24.88,58.19Z"/><path class="cls-1" d="M16.35,52.11a15.21,15.21,0,0,0,4.19,2.42,33.54,33.54,0,0,0,4.74,1.39,14.78,14.78,0,0,0-4.27-3A10.16,10.16,0,0,0,16.35,52.11Z"/><path class="cls-2" d="M30,23.21c-1.54.12-7.64-.65-8.24-2-.37-.84-.81-1.8-.81-1.8a5,5,0,0,0-2,2.18c-.64,1.45,1.48,3.74,4.31,4.5a15.54,15.54,0,0,0,6.75.33C30,26.26,30.79,23.84,30,23.21Z"/><path class="cls-1" d="M27.28,61.89s-3.1,2.29-5.52,3.67-8.27,2.8-8.27,2.8a11.45,11.45,0,0,0,8.77-1.31C26.88,64,27.28,61.89,27.28,61.89Z"/><path class="cls-1" d="M28.19,62.87a33.25,33.25,0,0,1-1.07,4.79A30.48,30.48,0,0,1,24.81,73a9.82,9.82,0,0,0,3.43-5.25C29.23,64.12,28.19,62.87,28.19,62.87Z"/><path class="cls-2" d="M19,15.68s5.11,2.11,9.41-.52c5.69-3.49,5.82-7.09,5.82-7.09S33.08,2.53,28.46.45a7.32,7.32,0,0,0-6.51.8A13.35,13.35,0,0,0,16.7,7.51C15.52,11,19,15.68,19,15.68Z"/></g></g></svg>