<svg xmlns="http://www.w3.org/2000/svg" viewBox="0 0 60.54 96.98"><defs><style>.cls-1{fill:#e6e6e6;}.cls-2{fill:#fff;}.cls-3{fill:#737373;}.cls-4{fill:#7c7c7c;}.cls-5{fill:#e9e9e9;}.cls-6{fill:#f9f9f9;}</style></defs><g id="Layer_2" data-name="Layer 2"><g id="_1April-Crowd01" data-name="1April-Crowd01"><path class="cls-1" d="M31.15,96.5s-5,2.39-12.22-3.57S8.71,76.46,5.71,72.41,0,64.23,0,64.23s.6-5.43,8.11-7.1,8-.93,8-.93Z"/><path class="cls-1" d="M38.18,17c1.14.25,3,1.06,5.47,4.21s2.72,8.11,3.57,13.37S49.51,47.46,50,50.85a43.77,43.77,0,0,1,.47,4.48s-9.24,3.28-12.26-2.89-2.56-34.55-2.56-34.55Z"/><path class="cls-2" d="M36.75,18.49s2.31-.6,4.57,3C43,24.17,43.68,34,42,44.55c-.44,2.82.86,9.33,2.67,10.93A55.94,55.94,0,0,1,55,68.05c3.23,5.25,5.57,7.51,5.56,13.48,0,2.45-3.84,5.41-7.26,5.88s-10,2.75-12.43,5.22-9.2,6.46-15.53,2.19c-4-2.68-12.78-22.61-13.64-28.45s2.56-14.69,2.77-19,.72-12.61.72-15.63c0-2.1-.61-4.15.9-6,2.65-3.26,8.48-5.94,11.55-7.28A11.64,11.64,0,0,1,36.75,18.49Z"/><path class="cls-1" d="M36.42,19.39a15.21,15.21,0,0,1,.76,4.72c-.08,2.33-.6,3.12-.76,3.36a2,2,0,0,1-2.62-.75,31,31,0,0,1-1.34-4.59Z"/><path class="cls-3" d="M26.44,13.48a50.74,50.74,0,0,1-.4,5.68,19.57,19.57,0,0,1-.72,2.37s4.25,7.43,8.24,6.71,1.09-7,1.09-7l.05-6.1Z"/><path class="cls-4" d="M26.14,16.2c1.5,3.45,5.7,5.86,7.62,6.45,3.45,1.06,8.6-8.14,5.4-14.65A7.22,7.22,0,0,0,27.51,5.5C25.64,7.31,24.44,12.32,26.14,16.2Z"/><path class="cls-5" d="M47.92,70.25c-.16.4,0,5.89-2,8.06a8.8,8.8,0,0,1-4.57,2.56,14.25,14.25,0,0,0,3-7.51C45,68.48,46,67.55,46,67.55Z"/><path d="M29,9.9v3.31s-2-1.7-2.66-.51-.51,2.1.43,3.71C27,17.74,25.75,20,25.75,20S24.7,15.1,24,12.64,29,9.9,29,9.9Z"/><path class="cls-6" d="M40.07,11.07a35.23,35.23,0,0,1-8.92,2.07,37.21,37.21,0,0,1-7.19-.5,83.3,83.3,0,0,1-1.73-8.27C22,2,24.79.74,30.78.23c6.25-.53,8-.5,8.72,4.14A37.31,37.31,0,0,1,40.07,11.07Z"/><path class="cls-5" d="M29.44,62.64s4,3.68,6.6,6.43S39.45,72.48,40,74a13.14,13.14,0,0,1,.5,3.49,17.57,17.57,0,0,0-7.71-7.21C28,68,29.44,62.64,29.44,62.64Z"/><path class="cls-4" d="M48.61,61.27a47.61,47.61,0,0,0,2,6.06c1.29,3.06,2.75,7.64,2.49,9.79s-4.4,1.47-6.53-2.72-1.08-4.15-2-7.4a25.85,25.85,0,0,1-1-4.62S46.63,60.57,48.61,61.27Z"/><path class="cls-1" d="M45.14,44.32s3.41,1.11,4,3.2a27.35,27.35,0,0,1,1.29,7.81c-.15,2.26,0,10,0,10S48,64,46.7,64.23s-3.05,2.36-3.05,2.36-3.13-7.8-2.13-13.9a55.83,55.83,0,0,0,.59-8.37Z"/><path class="cls-4" d="M32.45,66.88s2.41,4.68,3.92,8a18.2,18.2,0,0,1,1.81,7.75c0,1.9-2.82,1.9-4.79,0S32,79.41,31.48,78.22c-.84-1.87-2.2-3.72-3.54-6.66C26.69,68.83,26.59,69,26.59,69S30.1,66.66,32.45,66.88Z"/><path class="cls-1" d="M19,23s4.67,5.48,5.12,10.2-.25,9.71.43,12,4.09,10.09,6.63,15.42a35,35,0,0,1,2.41,8.51s-2.41-1-7.09,3.34c-3.21-1.39-6.19-5.6-7.83-9.25a69.16,69.16,0,0,1-6-21.62C11.74,32.83,12.45,25.26,19,23Z"/><path class="cls-1" d="M25.46,18.64A16.82,16.82,0,0,0,28.39,24c1.54,1.72,3,2.52,5.78,1.77a3.39,3.39,0,0,0,2.58-3.51v4.46s-.64,2.87-4.83,2.87c-5.45,0-8-9.36-8-9.36Z"/><path class="cls-1" d="M35.4,27.2s.79,4.43,1.21,10.17.57,11.73.57,11.73l-2.36.63a118.71,118.71,0,0,0-.57-13.14c-.38-3.07-1.51-8.86-1.51-8.86Z"/><path class="cls-5" d="M47.92,85.24s-4.21.19-9,4S31,91.52,31,91.52A38.66,38.66,0,0,0,38.88,87,10.34,10.34,0,0,1,47.92,85.24Z"/><path class="cls-5" d="M11.77,61.11a44.22,44.22,0,0,0,2.65,11.3c2.1,5,4.41,9.77,5.21,11.67a27.1,27.1,0,0,1,1.3,4.76A102.81,102.81,0,0,1,13.52,74C11,67.15,10.8,65.55,11.77,61.11Z"/></g></g></svg>