<svg xmlns="http://www.w3.org/2000/svg" viewBox="0 0 80.19 107.71"><defs><style>.cls-1{fill:#fff;}.cls-2{fill:#f2f2f2;}.cls-3{fill:#eee;}.cls-4{fill:#7c7c7c;}.cls-5{fill:#afafaf;}</style></defs><g id="Layer_2" data-name="Layer 2"><g id="_1April-Crowd11" data-name="1April-Crowd11"><path class="cls-1" d="M24.72,63.43c-1.91-.67-10.06-.74-16,4.48S0,74.44,0,74.44s8.1,7.88,14,11,8.27,5.27,12.36,7.93,9.27-6,10.83-9.22S24.72,63.43,24.72,63.43Z"/><path class="cls-1" d="M53.26,22.05s2.43-.59,5.88,2.3,4.76,15.12,7.35,20.49,3.34,9.45,4.27,14.64-3.14,9.45-3.33,9.82-10.16-2.59-10.92-5.74S53.26,22.05,53.26,22.05Z"/><path class="cls-1" d="M50.06,21.16s2.72-.32,6.71,6.23c2.26,3.72,4.06,13,4.14,21.35.06,6.63-1.18,7.46,1.86,13.68,1.47,3,9.25,8.07,15.15,18.53,3.8,6.73,2.62,12.89-2,15.84-2.3,1.46-9.64,1.26-14.33,3.46s-7.5,7.62-11.87,7.46c-12.4-.47-27.4-19.78-33.7-23.56.14-11.54,12.7-8.09,12.7-8.09s-3.51-4.64-4.12-14.45c-.5-8,1.08-21.29,2.46-29.69.74-4.53,5-5.09,6.81-5.61C40.4,24.45,50.06,21.16,50.06,21.16Z"/><path class="cls-2" d="M56.09,98.7c-4,3.52-10.39,2.78-10.39,2.78a117.68,117.68,0,0,0,10.47-5.87c4.35-3,9.83-1.75,9.83-1.75S60.08,95.18,56.09,98.7Z"/><path class="cls-2" d="M65.08,76.35c.17.67,1.5,9.75,0,12.16s-5.39-1.23-10.95-6.08a84.58,84.58,0,0,0-7.47-6.09s9.19,5.55,10.11,2.15a21.76,21.76,0,0,1,5.3-9.16Z"/><path class="cls-3" d="M36.29,21.16s-.51,1.23-1.48,3.19l-1,2S39.64,37.91,46.4,36s7.52-7.51,6.49-11S36.29,21.16,36.29,21.16Z"/><path class="cls-4" d="M41.66,7.39c2.83-2.63,10-4.09,13.37,3.13,3.54,7.56-2.59,18.05-6.54,16.76-2.2-.72-7-3.59-8.64-7.59C38,15.18,39.47,9.43,41.66,7.39Z"/><path class="cls-1" d="M36.11,25c1.79,6,7,6.29,10.52,6.92s5.77-3.45,7.88-7.12c1.29-2.25,2.36-7.67,1.88-12.14a36.07,36.07,0,0,0-.69-4.77,10.27,10.27,0,0,0-4.93-6.25C44.4-1.65,37.22.2,34.41,5.23,32.25,9.1,33.53,16.38,36.11,25Zm5.46-10.49C41.72,11.25,46,10,49.34,9.39c4-.69,5.5,1.23,5.57,2.94a36.71,36.71,0,0,1-.37,7.78c-1,3.43-2.76,7.72-7,6.21C42.72,24.59,41.25,21.61,41.57,14.54Z"/><path class="cls-1" d="M30.27,27.48a158.2,158.2,0,0,1,3.57,16.59c.78,6.33,0,12.63,1.9,15.23s6,5.65,7.81,7.27a57.26,57.26,0,0,1,4.69,5.2s-2,.68-2.78,4.29l-.83,3.62A18.64,18.64,0,0,1,30,79.12c-7.41-3.7-9.63-14.91-10-18.34s.92-16.47,2.4-23.24S26.66,27.48,30.27,27.48Z"/><path class="cls-1" d="M60.91,48.74s-3,7.56-3.31,11.62c-.49,6.88,2.92,10,2.92,10l3.75,1.75s6.64-1.72,6.62-6.53.44-12.21-3.46-15S60.91,48.74,60.91,48.74Z"/><path class="cls-5" d="M46.85,71.61S51.39,75.13,54,77a25,25,0,0,1,5.79,5.48c2.13,2.57,3.43,4,.71,4.81-2.2.67-3.82-.49-6.37-2S48.65,84,46.43,80.84l-2.22-3.19Z"/><path class="cls-3" d="M46.85,70.38l3.21,3.39a14.61,14.61,0,0,0-2.44,2.93,9.45,9.45,0,0,0-1.37,3.47l-2.91,0s-2.46-2-.6-6.14S46.85,70.38,46.85,70.38Z"/><path class="cls-4" d="M66.66,67.58s.57,4.23,1.38,8.47.16,6.11,0,8.15-3.45,1.57-4.86-1.41S59.92,72.13,60.7,69.15,66.66,67.58,66.66,67.58Z"/><path class="cls-3" d="M60.54,71.61c0-.33-1.94-4.37-1.94-4.37s.61-2.75,4.44-2.63,4.82,1.37,5.87,2.63.36,2.09.36,2.09l-1.92,2.8a4.59,4.59,0,0,0-3.44-1.77A4.39,4.39,0,0,0,60.54,71.61Z"/><path class="cls-2" d="M39,51.33s3.79,6.08,7,9,6.41,5.42,6.41,5.42a13.68,13.68,0,0,1-9.94-4.32A13.13,13.13,0,0,1,39,51.33Z"/><path class="cls-2" d="M34.67,93.59A142.86,142.86,0,0,0,21.1,85.44a48.88,48.88,0,0,1-10.51-7A76,76,0,0,1,22.4,82.58C26.89,84.81,33.38,91.82,34.67,93.59Z"/><path class="cls-2" d="M55.85,38.77S58,47.16,55,52a36.46,36.46,0,0,1-4.9,6.57s1.41-3.77,3.2-8S55.85,38.77,55.85,38.77Z"/></g></g></svg>