<svg xmlns="http://www.w3.org/2000/svg" viewBox="0 0 61.24 86.56"><defs><style>.cls-1{fill:#e6e6e6;}.cls-2{fill:#fff;}.cls-3{fill:#7c7c7c;}.cls-4{fill:#f9f9f9;}</style></defs><g id="Layer_2" data-name="Layer 2"><g id="_1April-Crowd08" data-name="1April-Crowd08"><path class="cls-1" d="M32.88,48.35C26.79,44.67,24,20,24,20l1.08-1.49s4.07-1.76,7.29,5.78c1.72,4,4.28,8.89,5.42,13.76.48,2-.66,4-1.5,5.4C35.3,45.19,35.46,49.92,32.88,48.35Z"/><path class="cls-2" d="M31.15,58.8a18.07,18.07,0,0,1-14.21,5.14,19.87,19.87,0,0,1-9.51-4A43.62,43.62,0,0,0,8,50.37c-1-7.56-2.45-19.78-2.18-21.78.44-3.34,8-7,8-7s5.38-4.17,11-2c0,0,6,4.82,6.66,11.62.36,3.38-.53,14.86,1.28,21.21C33.12,53.69,30.94,56.69,31.15,58.8Z"/><path class="cls-2" d="M28.8,48.16s4.26.73,5.86,2.55,3.77-.09,5.52.41,2.3.45,4.37-.41,10.28,0,10.77,7.71c.18,2.8-1.3,5.34-3.72,7.65-1.08,1,1.1,4.55-1.2,5.55s-7.24,1.79-9.75,3.07C35.52,77.32,34,82.78,30.14,84.2c-3.21,1.16-5.4-2.15-6.88-.74-4.83,4.59-13,3.82-19.52-.58S-.22,68,7.43,60,28.8,48.16,28.8,48.16Z"/><path class="cls-1" d="M21.77,20.88c.45-.24,2.06,1.72,2.75,3.41s0,3.58-2.75,4.28-5.82-1.4-7.45-2.79A35.65,35.65,0,0,1,11.41,23a33.3,33.3,0,0,1,5.36-2.87C19,19.29,21.77,20.88,21.77,20.88Z"/><path class="cls-3" d="M22.71,19.45l.36,5.24s-.05,1.36-2.26,2.09c-2.72.89-6.93-4.38-6.93-4.38l1.9-8Z"/><path class="cls-3" d="M15.08,15.76c1.87,3.06,6.14,4.79,8,5.09C26,21.31,29,15.69,27.64,9.38c-.31-1.42-.39-2.84-1-3.78C22.92.14,16.94,3,15,5.47,13.44,7.43,13,12.32,15.08,15.76Z"/><path d="M15.08,18.34a2.73,2.73,0,0,0,1-2.37,3.66,3.66,0,0,1-.47-3.76,28.38,28.38,0,0,1,2.31-3s8.74-1.37,8.12-3.5-1.47-4.5-5.25-4.48A9.69,9.69,0,0,0,13.09,5c-2.1,2.67-1,4.72-.2,7.51A51.85,51.85,0,0,0,15.08,18.34Z"/><path class="cls-1" d="M33.93,53.94S31.4,59,27.37,60.28,16.1,61.53,16.1,61.53s.79-1.24,3.36-1.69,4.69.43,7.91-1S32.75,54,33.93,53.94Z"/><path class="cls-1" d="M30.14,54.48c-2.77.79-5.45,2.65-8.87,3s-7.39.31-7.39.31a26.56,26.56,0,0,1,6.93-1.63C24,56.06,28,53.94,30.14,54.48Z"/><path class="cls-1" d="M17.8,62.81s3,1.17,9,0,10.63-4.41,13.13-5.14a7,7,0,0,1,3.58-.41,42.92,42.92,0,0,0-6.76,4.37,42.09,42.09,0,0,1-9.06,6.26c-2.94,1.32-8.65-.52-9.88-2.11A2.27,2.27,0,0,1,17.8,62.81Z"/><path class="cls-4" d="M27.37,7.93a14.41,14.41,0,0,0-8.67,2.49c-3.29,2.32-4.38,2.88-5,4.3-.24-.53-5.55-7.89,1-12.15S24.87.06,26.1,2.76A15.53,15.53,0,0,1,27.37,7.93Z"/><path class="cls-3" d="M51.08,47.9s6.54,1.21,8.89,3.8,1,4.55-.35,6.39S57.84,61.46,56.89,61s-.22-1.68-.71-3.07-5.84-3.54-6.75-5.53S51.08,47.9,51.08,47.9Z"/><path class="cls-3" d="M19.66,62.8c.63.12,1.74,1.49,4,4.25,1,1.15,2.76,3.17,2.76,5.65s0,6.35-1.27,7.4-3,.29-3.75-2.47-2.81-4.32-3-6-1.34-2.6-2.23-4.47S19.66,62.8,19.66,62.8Z"/><path class="cls-1" d="M34.86,38s1.83-1.8,2.71-.9,2.61,1.34,3.08,1.67,1.17,2.27,2.11,2.74,8.09,5,9.54,5.74A19.64,19.64,0,0,1,55.12,49,3.25,3.25,0,0,0,53,51.63a24,24,0,0,0-.62,3.88s-4.24-.1-6.1-.84-12.21-5.13-13.4-6.32S34.86,38,34.86,38Z"/><path class="cls-1" d="M1.75,37.51c.53-6.64,1.93-10.32,5.3-11.14,1.66.73,4.44,4.76,4.93,10.44a75.37,75.37,0,0,0,1.68,11.57c.66,2.33,1.52,1.76,2,3.35.21.67-.13,1.61.37,2.21s1.18,2.39,2.66,4.76c1,1.53,3.83,5.27,3.54,5.32a5.36,5.36,0,0,0-4.15,2.68c-.65,1.13-1.52,2.92-1.12,3.24,0,0-5.87-3.74-7.46-5.92A45.42,45.42,0,0,1,3.15,50.71,41.54,41.54,0,0,1,1.75,37.51Z"/><path class="cls-1" d="M23,26.88a34.33,34.33,0,0,1,3,7.26c.91,3.58.74,12,.74,12L24.7,47.26s.74-10.54-.74-14.21a44.11,44.11,0,0,0-2.69-5.67Z"/><path class="cls-1" d="M12.79,51.77a12.51,12.51,0,0,1-3.41.47A2.09,2.09,0,0,1,7.7,50.82a9.94,9.94,0,0,1,2.92,0A4.46,4.46,0,0,1,12.79,51.77Z"/><path class="cls-1" d="M13.88,53.82a12.06,12.06,0,0,1-2.75,2.51A4.24,4.24,0,0,1,9,56.7s1.26-1.06,2.45-1.94A5,5,0,0,1,13.88,53.82Z"/><path class="cls-1" d="M21.54,81.18a39,39,0,0,0-6.74-.26,14,14,0,0,1-6.07-1.25,7.48,7.48,0,0,0,5.6,2.48A20.46,20.46,0,0,0,21.54,81.18Z"/><path class="cls-1" d="M51.6,62.72a18.83,18.83,0,0,1-6.41,6.34C41,71.42,37.35,74,37.35,74a48.89,48.89,0,0,1,7-5.9C47.69,66,51.6,62.72,51.6,62.72Z"/><path class="cls-1" d="M41.43,68.09c-.5,0-4.08,3.2-6.07,5.9A23.46,23.46,0,0,1,31,78.46a26.08,26.08,0,0,1,4.39-6.79A17.42,17.42,0,0,1,41.43,68.09Z"/></g></g></svg>