<svg xmlns="http://www.w3.org/2000/svg" viewBox="0 0 53.22 74.71"><defs><style>.cls-1{fill:#e6e6e6;}.cls-2{fill:#fff;}.cls-3{fill:#7c7c7c;}.cls-4{fill:#f9f9f9;}</style></defs><g id="Layer_2" data-name="Layer 2"><g id="_1April-Crowd23" data-name="1April-Crowd23"><path class="cls-1" d="M25,39.4c5.72-2.21,11.75-22.71,11.75-22.71l-.69-1.42s-3.19-2.1-7,3.81c-2.06,3.15-5,6.9-6.66,10.86-.71,1.66,0,3.46.47,4.8C23.43,36.36,22.59,40.34,25,39.4Z"/><path class="cls-2" d="M24.92,48.52A15.54,15.54,0,0,0,36.21,55a17.09,17.09,0,0,0,8.65-1.94,37.82,37.82,0,0,1,.92-8.24c2-6.27,5-16.41,5.11-18.14.12-2.91-5.76-7.11-5.76-7.11s-3.94-4.34-9-3.31c0,0-5.77,3.19-7.39,8.85-.81,2.81-1.77,12.68-4.25,17.8C24,43.9,25.42,46.77,24.92,48.52Z"/><path class="cls-2" d="M28.51,39.85s-3.72,0-5.36,1.29-3.18-.65-4.74-.48-2,0-3.64-1S6.05,38.12,4.48,44.59c-.58,2.35.3,4.72,2,7,.76,1-1.62,3.7.18,4.89s5.88,2.6,7.82,4.06c4,3,4.4,7.85,7.49,9.64,2.54,1.46,4.9-1,5.95.4,3.41,4.62,10.43,5.18,16.64,2.43s5.58-12,.29-20S28.51,39.85,28.51,39.85Z"/><path class="cls-1" d="M38.55,17.77c-.34-.27-2,1.15-2.85,2.48s-.49,3,1.7,4S42.54,24,44.13,23A32.2,32.2,0,0,0,47,21.1a28.56,28.56,0,0,0-4.11-3.24C41.12,16.83,38.55,17.77,38.55,17.77Z"/><path class="cls-3" d="M38,16.41,36.88,20.8s-.16,1.17,1.6,2.11C40.66,24.07,45,20.23,45,20.23l-.42-7Z"/><path class="cls-3" d="M46.62,5.72C45.32,3.29,40.67,0,36.73,4.08a9.9,9.9,0,0,0-1.44,3.06c-2.1,5.14-.35,10.36,2.12,10.4,1.65,0,5.54-.8,7.58-3.12C47.29,11.82,47.62,7.6,46.62,5.72Z"/><path d="M44.6,16.61a2.38,2.38,0,0,1-.51-2.17,3.12,3.12,0,0,0,1-3.11,24.65,24.65,0,0,0-1.51-2.9S36.34,6,37.18,4.25s1.92-3.59,5.12-3a8.34,8.34,0,0,1,6,4.36c1.37,2.58.13,4.15-1,6.39A43.79,43.79,0,0,1,44.6,16.61Z"/><path class="cls-1" d="M23.29,44s1.39,4.66,4.62,6.36,9.37,2.74,9.37,2.74a4.29,4.29,0,0,0-2.6-1.94c-2.12-.76-4-.34-6.55-2S24.27,44.25,23.29,44Z"/><path class="cls-1" d="M26.42,45c2.24,1.09,4.23,3.07,7.08,3.83s6.22,1.36,6.22,1.36a22.74,22.74,0,0,0-5.63-2.41C31.38,47.26,28.35,44.88,26.42,45Z"/><path class="cls-1" d="M35.64,53.92s-2.71.55-7.61-1.37-8.36-5.33-10.37-6.33a6.15,6.15,0,0,0-3-.89,36.84,36.84,0,0,1,5.07,4.73,36.75,36.75,0,0,0,6.75,6.66c2.3,1.56,7.42.85,8.69-.31A2,2,0,0,0,35.64,53.92Z"/><path class="cls-4" d="M35.74,6a12.4,12.4,0,0,1,7,3.4c2.44,2.46,3.28,3.1,3.63,4.41.28-.42,5.88-5.87.95-10.47S39-.36,37.59,1.75A13.35,13.35,0,0,0,35.74,6Z"/><path class="cls-3" d="M9.65,36.3s-5.73.05-8.11,1.89S0,41.91.88,43.66s1,3.12,1.89,2.85S3.2,45.12,3.83,44s5.48-2.13,6.55-3.68S9.65,36.3,9.65,36.3Z"/><path class="cls-3" d="M34.07,53.63c-.55,0-1.7,1-4.05,3-1,.83-2.81,2.27-3.18,4.38s-.95,5.39,0,6.46,2.52.7,3.55-1.53,3-3.25,3.41-4.68,1.53-2,2.57-3.46S34.07,53.63,34.07,53.63Z"/><path class="cls-1" d="M24.88,30.34s-1.28-1.8-2.16-1.17a10.84,10.84,0,0,1-2.86.95c-.46.21-1.33,1.75-2.2,2S10,35.2,8.71,35.58a16.18,16.18,0,0,0-2.65,1,2.81,2.81,0,0,1,1.4,2.56,20.36,20.36,0,0,1,0,3.38,21.46,21.46,0,0,0,5.3.2c1.7-.36,11.12-2.52,12.31-3.36S24.88,30.34,24.88,30.34Z"/><path class="cls-1" d="M53,34.87c.55-5.71-.09-9-2.83-10.24C48.7,25,45.74,28,44.47,32.74a65,65,0,0,1-3.15,9.56c-.91,1.88-1.56,1.27-2.22,2.54-.27.54-.13,1.39-.64,1.82s-1.35,1.85-3,3.64c-1,1.16-4,3.9-3.79,4a4.62,4.62,0,0,1,3.12,2.89c.38,1.07.85,2.71.47,2.92,0,0,5.53-2.29,7.21-3.9a39.09,39.09,0,0,0,7.38-10.34A35.55,35.55,0,0,0,53,34.87Z"/><path class="cls-1" d="M36.61,22.67A29.59,29.59,0,0,0,33,28.37c-1.32,2.9-2.44,10.11-2.44,10.11l1.6,1.22s.94-9.05,2.76-11.94A38.29,38.29,0,0,1,38,23.35Z"/><path class="cls-1" d="M41.55,45.31a11.09,11.09,0,0,0,2.81.91,1.82,1.82,0,0,0,1.65-1,8.92,8.92,0,0,0-2.48-.44A3.87,3.87,0,0,0,41.55,45.31Z"/><path class="cls-1" d="M40.31,46.88a10.3,10.3,0,0,0,2,2.55,3.71,3.71,0,0,0,1.78.63s-.9-1.08-1.78-2A4.27,4.27,0,0,0,40.31,46.88Z"/><path class="cls-1" d="M29.73,68.94a32.9,32.9,0,0,1,5.75.79,12.11,12.11,0,0,0,5.34-.15,6.47,6.47,0,0,1-5.12,1.26A17.58,17.58,0,0,1,29.73,68.94Z"/><path class="cls-1" d="M7,48.79a16.22,16.22,0,0,0,4.49,6.34c3.18,2.62,5.91,5.35,5.91,5.35a42.61,42.61,0,0,0-5.06-6.06A77.39,77.39,0,0,1,7,48.79Z"/><path class="cls-1" d="M14.82,54.86c.41.12,3,3.33,4.26,5.92a20,20,0,0,0,3.06,4.44,22.43,22.43,0,0,0-2.71-6.41A15.14,15.14,0,0,0,14.82,54.86Z"/></g></g></svg>