<svg xmlns="http://www.w3.org/2000/svg" viewBox="0 0 57.45 88.46"><defs><style>.cls-1{fill:#bbb;}.cls-2{fill:#fff;}.cls-3{fill:#cfcfcf;}.cls-4{fill:#929292;}.cls-5{fill:#e6e6e6;}</style></defs><g id="Layer_2" data-name="Layer 2"><g id="_1April-Crowd16" data-name="1April-Crowd16"><path class="cls-1" d="M34.85,28.44c.64.44,5,12.47,6,14.12,3.12,1.5,6.64,2.68,11,6,2.49,1.9,6.59,7.67,5.37,9.6-3,4.75-7.21-2.6-8.3-3.81-2.39-2.65-2.58-3.91-5-4.2a16.91,16.91,0,0,1-12.7-8.44A46.14,46.14,0,0,1,28,31.48Z"/><path class="cls-2" d="M30.1,16.16c1.19.33,2.68,1,4,3.82,1.15,2.32,5,17.92,7,22.84,1.29-.44,2.65.1,2.09.9,2.69.59,9,2,11.25,2.27-.89,1-1.68,6.06-.9,7.55-2,.44-5.37.5-10.26.47-4.33,0-7.16-1-8.08-2-6.65-7.41-10.6-17.13-10.73-17.35S23.16,19,23.12,19,30.1,16.16,30.1,16.16Z"/><path class="cls-2" d="M21.34,17.8h0Z"/><path class="cls-2" d="M21.34,17.8Z"/><path class="cls-2" d="M21.34,17.8Z"/><path class="cls-2" d="M1.19,68.87a25.34,25.34,0,0,1,4.33-7.43,5,5,0,0,0,1-2,29,29,0,0,1,1.77-5l0,0S7.07,42.48,7.47,36.5s.64-11,7.72-15.13l5.08-2.95a5.12,5.12,0,0,1,2.59-.71A6.51,6.51,0,0,1,27.11,19c2,1.75,6.46,8.07,7.52,11.12A6,6,0,0,1,34,35.82a5.27,5.27,0,0,0-1.05,3.72c.15,1.25,1.18,3.45,1.29,5.11.16,2.46,1.87,3.21,4.31,3.6,3.71.58,8.15,2.22,12.4,3.52,3.36,1,9.4,7.78,4.18,14.94l0,0A5.65,5.65,0,0,0,53.9,71.2v0c.39,2.22-5.06,6.2-10.58,6.79s-10.18,4-16.71,8.86c-3.4,2.5-6.33,1.75-7.9-.16a5.16,5.16,0,0,0-4-1.95c-6.59.06-10.44-2-12.74-4.85C-1.21,76,.19,72.19,1.19,68.87Z"/><path class="cls-3" d="M15.07,63.23a31.52,31.52,0,0,0,13,1.79c6.66-.69,16-7,16-7a34.71,34.71,0,0,0-9.8,0c-3.72.64-10.32,2.7-16.35,2.35a31.37,31.37,0,0,1-5.39-.69Z"/><path class="cls-3" d="M30.11,80.56s-6.57,2.15-10.92,2.25S7.68,81.05,7.68,81.05s6.66-.1,11.51-.49A90.7,90.7,0,0,1,30.11,80.56Z"/><path class="cls-3" d="M53.61,65.48s-1.07,3.33-6.07,6.27a42.82,42.82,0,0,1-9.3,4.11s4.8-3.33,8.32-5.19A38.18,38.18,0,0,0,53.61,65.48Z"/><path class="cls-3" d="M32.66,76.66c-.39,0-6.44-1.83-11.26-1.75s-11.75-.19-11.75-.19,8.08,1.71,12,2.13A75.94,75.94,0,0,0,32.66,76.66Z"/><path class="cls-3" d="M53.61,61.07c-1.07,2.61-3.82,5.22-7.15,7.31s-6.17,3.56-6.17,3.56,3.33-3.13,7-6.07S53.61,61.07,53.61,61.07Z"/><path class="cls-4" d="M15.07,23.91a6.24,6.24,0,0,0,.79-2,15,15,0,0,0-.31-5l7.72,1.61A17.18,17.18,0,0,0,25.69,24,2.8,2.8,0,0,1,23,26.8C19,27.48,15.07,23.91,15.07,23.91Z"/><path class="cls-1" d="M26.45,6.15c3.36,3.5,2,15.59-2.94,16.38-3.2.52-7.71-2.33-9.33-7.93C12.82,9.91,20.08-.47,26.45,6.15Z"/><path class="cls-3" d="M28.3,40a5.8,5.8,0,0,1-3.63,3.83,8.58,8.58,0,0,1-5.48-.38s3.8-.26,5.48-1.13S26.5,40.32,28.3,40Z"/><path class="cls-1" d="M12.29,39.1c.35.7-1.74,13.34-1.68,15.26,2,2.85,4.46,5.61,6.61,10.6,1.24,2.88,2,9.92,0,11-4.95,2.66-5-5.81-5.36-7.4-.77-3.48-.32-4.67-2.28-6.12A16.86,16.86,0,0,1,2.63,48.85,46.48,46.48,0,0,1,4.8,38.36Z"/><path class="cls-2" d="M11.17,25.36c3.9,1.16,4.52,6.66,4.26,12a36.7,36.7,0,0,1-2.34,8.24,30.89,30.89,0,0,0-2,6.27s3.6,6.24,6.08,9.47a7.18,7.18,0,0,0-9.3,5.74A26,26,0,0,1,1.94,53.85c-.27-2,1-15.74,1.55-18.54C4.68,29.7,7.82,25.36,11.17,25.36Z"/><path class="cls-2" d="M9.64,17.25c.33,1.38.52,3.4-.14,4.65a6.89,6.89,0,0,0-.93,4.46,3.27,3.27,0,0,1,2.88-.44C16.13,27,22.76,36.14,27.76,33.16a6.2,6.2,0,0,0,3.33-5.68c.06-3.52-1.59-7.38-1.6-7.69-.09-2.23.52-8.43.23-10.77-.24-1.94-.46-4.34-4.9-6.9-7.52-4.34-12-1.7-14.66,5.09A18.9,18.9,0,0,0,9.64,17.25Zm8.49-5.39c2.59-5,9.47-3.42,9.47-3.42a19.43,19.43,0,0,1,0,8.33c-.6,2.19-1.91,4.74-3.86,5.37-3.74,1.23-7.3-3.35-7.3-3.35S15.55,16.9,18.13,11.86Z"/><path class="cls-5" d="M33.93,48.73a11.07,11.07,0,0,1-7.35,6.86c-5.87,2-8.15,1.27-8.15,1.27a71.57,71.57,0,0,0,9.62-3.77A28.88,28.88,0,0,0,33.93,48.73Z"/></g></g></svg>