<svg xmlns="http://www.w3.org/2000/svg" viewBox="0 0 57.73 88.89"><defs><style>.cls-1{fill:#bbb;}.cls-2{fill:#fff;}.cls-3{fill:#cfcfcf;}.cls-4{fill:#929292;}.cls-5{fill:#e6e6e6;}</style></defs><g id="Layer_2" data-name="Layer 2"><g id="_1April-Crowd02" data-name="1April-Crowd02"><path class="cls-1" d="M35,28.58c.65.44,5.06,12.53,6.07,14.18,3.14,1.51,6.67,2.7,11,6,2.5,1.9,6.62,7.7,5.4,9.64-3,4.77-7.25-2.61-8.35-3.83-2.4-2.66-2.58-3.92-5-4.22-6.35-.78-11-5-12.77-8.48A46.5,46.5,0,0,1,28.1,31.63Z"/><path class="cls-2" d="M30.24,16.24c1.2.33,2.69,1,4.08,3.83,1.15,2.34,5,18,7,23,1.29-.45,2.66.1,2.09.9,2.71.59,9.1,2,11.31,2.29-.89,1-1.68,6.08-.9,7.58-2,.44-5.39.5-10.31.48-4.35,0-7.19-1-8.12-2C28.7,44.84,24.73,35.08,24.6,34.85s-1.33-15.76-1.37-15.79S30.24,16.24,30.24,16.24Z"/><path class="cls-2" d="M21.44,17.88l0,0h0Z"/><path class="cls-2" d="M21.44,17.88h0Z"/><path class="cls-2" d="M21.45,17.88Z"/><path class="cls-2" d="M1.19,69.2a25.57,25.57,0,0,1,4.36-7.46,5,5,0,0,0,1-2.06,28.71,28.71,0,0,1,1.78-5l0,0S7.1,42.69,7.51,36.67s.64-11.07,7.75-15.2l5.11-3A5.16,5.16,0,0,1,23,17.8a6.57,6.57,0,0,1,4.27,1.25c2,1.76,6.5,8.11,7.55,11.18A6,6,0,0,1,34.11,36a5.33,5.33,0,0,0-1,3.75c.15,1.25,1.18,3.46,1.3,5.13.16,2.47,1.88,3.22,4.32,3.61,3.73.59,8.2,2.23,12.47,3.54,3.37,1,9.45,7.82,4.2,15l0,0a5.71,5.71,0,0,0-1.16,4.48v0c.39,2.23-5.08,6.22-10.63,6.82s-10.23,4.07-16.79,8.9c-3.42,2.51-6.36,1.76-7.93-.16a5.21,5.21,0,0,0-4.07-2c-6.62.06-10.49-2-12.8-4.88C-1.22,76.36.19,72.54,1.19,69.2Z"/><path class="cls-3" d="M15.15,63.53a31.49,31.49,0,0,0,13,1.8c6.69-.69,16-7,16-7a35,35,0,0,0-9.84,0C30.65,59,24,61,18,60.68A31.66,31.66,0,0,1,12.54,60Z"/><path class="cls-3" d="M30.25,81s-6.59,2.16-11,2.26S7.72,81.44,7.72,81.44s6.69-.1,11.56-.49A91.54,91.54,0,0,1,30.25,81Z"/><path class="cls-3" d="M53.87,65.8s-1.08,3.34-6.1,6.29a42.57,42.57,0,0,1-9.35,4.14s4.82-3.35,8.37-5.22A38.68,38.68,0,0,0,53.87,65.8Z"/><path class="cls-3" d="M32.82,77c-.4,0-6.48-1.84-11.31-1.76S9.7,75.08,9.7,75.08s8.11,1.71,12,2.14A76.67,76.67,0,0,0,32.82,77Z"/><path class="cls-3" d="M53.87,61.37C52.79,64,50,66.62,46.69,68.71s-6.2,3.58-6.2,3.58,3.34-3.15,7-6.1S53.87,61.37,53.87,61.37Z"/><path class="cls-4" d="M15.15,24a6.74,6.74,0,0,0,.79-2,15,15,0,0,0-.32-5l7.76,1.62a17.26,17.26,0,0,0,2.43,5.56,2.81,2.81,0,0,1-2.68,2.77C19.07,27.62,15.15,24,15.15,24Z"/><path class="cls-1" d="M26.57,6.18c3.39,3.51,2,15.67-2.95,16.46-3.22.52-7.74-2.34-9.37-8C12.88,10,20.18-.47,26.57,6.18Z"/><path class="cls-3" d="M28.44,40.23a5.81,5.81,0,0,1-3.65,3.85,8.68,8.68,0,0,1-5.51-.38s3.82-.26,5.51-1.14S26.63,40.52,28.44,40.23Z"/><path class="cls-1" d="M12.35,39.29c.35.7-1.75,13.4-1.69,15.34,2,2.85,4.49,5.63,6.64,10.64,1.25,2.9,2,10,0,11-5,2.68-5-5.83-5.39-7.43-.78-3.5-.32-4.69-2.29-6.15A16.92,16.92,0,0,1,2.64,49.09,46.27,46.27,0,0,1,4.83,38.55Z"/><path class="cls-2" d="M11.22,25.48c3.93,1.17,4.54,6.69,4.29,12.09a37.58,37.58,0,0,1-2.36,8.28,31.1,31.1,0,0,0-2,6.3s3.62,6.27,6.11,9.51a7.22,7.22,0,0,0-9.35,5.78A26.16,26.16,0,0,1,2,54.11c-.27-2,1-15.81,1.56-18.63C4.7,29.85,7.85,25.48,11.22,25.48Z"/><path class="cls-2" d="M9.69,17.33c.33,1.39.52,3.42-.15,4.67a7,7,0,0,0-.93,4.49,3.29,3.29,0,0,1,2.9-.45c4.7,1.07,11.36,10.27,16.38,7.28a6.23,6.23,0,0,0,3.35-5.7c.06-3.55-1.59-7.42-1.61-7.73-.08-2.25.52-8.47.23-10.82-.24-1.95-.45-4.36-4.92-6.94-7.56-4.36-12-1.71-14.73,5.12A18.85,18.85,0,0,0,9.69,17.33Zm8.53-5.41c2.6-5.07,9.51-3.44,9.51-3.44a19.3,19.3,0,0,1,0,8.37c-.6,2.2-1.92,4.76-3.87,5.4-3.76,1.23-7.34-3.37-7.34-3.37S15.62,17,18.22,11.92Z"/><path class="cls-5" d="M34.09,49a11.12,11.12,0,0,1-7.38,6.89c-5.9,2-8.19,1.28-8.19,1.28a71.15,71.15,0,0,0,9.67-3.8A28.85,28.85,0,0,0,34.09,49Z"/></g></g></svg>