<svg xmlns="http://www.w3.org/2000/svg" viewBox="0 0 63.59 83.48"><defs><style>.cls-1{fill:#b9b9b9;}.cls-2{fill:#d0d0d0;}.cls-3{fill:#d5d5d5;}.cls-4{fill:#fff;}.cls-5{fill:#cfcfcf;}.cls-6{fill:#2d2d2d;}</style></defs><g id="Layer_2" data-name="Layer 2"><g id="_1April-Crowd18" data-name="1April-Crowd18"><path class="cls-1" d="M42.35,48s5.62,2.59,9.53,2.49c2.94-.07,3.76-2,4.32-.43.46,1.28-.31,2.2-.78,4.4-.38,1.76-3.34.39-4.17,1.1s-12-2-12.94-3.29S42.35,48,42.35,48Z"/><path class="cls-2" d="M49.35,67s8.53.14,10.6-3.65c2.16-4,1.62-9.7-4.28-10.17a107.09,107.09,0,0,1-14.86-2.75S33.76,59.29,35,61.77,49.35,67,49.35,67Z"/><path class="cls-3" d="M24,39.34A7.72,7.72,0,0,1,31,42L44.3,55.07,55.16,55s1.62.15,3,3.74a7.3,7.3,0,0,1-1.22,6.95s-9.14,4.92-19.4,3.43c-9-1.32-14.35-4.28-16.73-8.79h0C16.86,53.24,19.46,40,24,39.34Z"/><path class="cls-2" d="M24.16,29.94s-7.82,11.59-9,13.4-4.48,7.72-5.15,8C7.8,52.4-1.91,51,.34,54.52,2,57.11,6.14,56,8.21,55.85c2.69-.15,3.72-.53,4.72-2.36.19-.36,2.37-2.32,4.71-4.93,2.68-3,5.58-6.69,6.23-7.62,1.23-1.73,2.89-6.16,3.18-6.28S24.16,29.94,24.16,29.94Z"/><path class="cls-4" d="M35.28,22.45s-4.34-3.54-7.54.13a26.49,26.49,0,0,0-2.68,3.73c-.33.54-5.16,8.9-7.72,12.37S8.76,50.15,8.76,50.15a6.83,6.83,0,0,0,3.72,4.05c2.89,1.21,4.46.79,4.46.79Z"/><path class="cls-2" d="M50.84,8.44c-1.4-7.13-3.16-2.78-4-3.54A6.84,6.84,0,0,0,37,6.25c-1.55,2.06-1.19,7-2.22,11.24-.33,1.37-1.27,5.57-1.27,5.57s-.17-.57,2.77,1.21a7.58,7.58,0,0,0,5.66,1l.69-4.4a32.35,32.35,0,0,0,3.55-.15C47.65,20.41,52.2,15.29,50.84,8.44Z"/><path class="cls-4" d="M56.09,52.47c-1.87-.33-5.14-1.32-7.48-1.32a2.77,2.77,0,0,1-2.92-3.48c1.3-6.73,2.24-12.15,1.07-15.94-1.56-5.11-1.76-4.94-3.91-6.1S32,23.1,32,23.1s-3.26.63-4.79,7.77c-1,4.89-3.37,7.5-4.39,9.84-2.26,5.18-4.22,5.14-6.69,10.74a11.32,11.32,0,0,0,4.39,13.44c3.48,2.43,8.54,4,10.41,4.78a21.82,21.82,0,0,0,11.53,2,69.75,69.75,0,0,0,14.16-3.43c4.62-1.43,6.57-4.89,7-8.84S59.41,53.05,56.09,52.47Z"/><path class="cls-5" d="M32.34,23.38S34.48,27,38.18,26.7l5.89-.4a3.65,3.65,0,0,0-2.61-2.63,64,64,0,0,1-7.93-3Z"/><path class="cls-2" d="M45.76,38.29s-5.61,12.9-5.92,16.26c-.43,4.82-2.29,15.73-2.36,18.61,0,1.51,4.49,3.36,3.75,4-1.21,1-2.79-.81-3.56-.4-1.93,1-1.35,6.23-3.79,6.65-3.49.61-6.06-3.43-4.07-6.63s2.69-4.8,3-6.33c.36-2.09-.36-14.52,1-20.6S38.91,35.6,38.91,35.6Z"/><path class="cls-4" d="M47.42,35.21c.42-2.88.3-5.85-1.63-6.88-3-1.6-6.13,1.12-7.41,4.89-1,3-5.9,17.05-6.27,19.14s-.74,16-1.22,17.31A14.67,14.67,0,0,1,29.83,72s2.67,3.56,5.39,2.84a12.13,12.13,0,0,0,4.27-2s.69-7,1.12-12.46.51-7.87,2-11.62S46.94,38.51,47.42,35.21Z"/><path class="cls-5" d="M44.72,65.88s4.13,1.24,7,.25a36,36,0,0,0,6.65-3.52s-5,1.57-8.49,2.23S44.72,65.88,44.72,65.88Z"/><path class="cls-5" d="M23.41,45.37s-3.71,4.54-4.51,7.35a22.07,22.07,0,0,0-.77,5.67,50.86,50.86,0,0,0,3.61-6.34A44.84,44.84,0,0,0,23.41,45.37Z"/><path class="cls-5" d="M23.67,53.86s-.11,6.09,1.93,9a10.7,10.7,0,0,0,4,3.69,23.82,23.82,0,0,1-3.07-5.78A73.2,73.2,0,0,0,23.67,53.86Z"/><path class="cls-6" d="M50.14,6.33,50,8.61A17.55,17.55,0,0,1,44.7,15c-2.28,4.39-9.1,5.7-9.1,5.7a40.85,40.85,0,0,1-.67-8.2c.11-2.21-.3-3.1.28-5.35C36.52,2,40,1.2,44.7,1.8A6.09,6.09,0,0,1,50.14,6.33Z"/><path class="cls-2" d="M48.64,12.81a2,2,0,0,0-3.39-.09c-1.42,1.53.35,3.82.35,3.82Z"/><path class="cls-4" d="M34.45,13.12s5.36,2.31,9.82.66c5.9-2.17,6.57-5.34,6.57-5.34s0-.17-.05-.46A10.35,10.35,0,0,0,46.5.75c-1.63-1-4-.85-6.27-.33a11,11,0,0,0-6.38,4.06C32.22,6.71,34.45,13.12,34.45,13.12Z"/></g></g></svg>