<svg xmlns="http://www.w3.org/2000/svg" viewBox="0 0 43.05 86.11"><defs><style>.cls-1{fill:#a9a9a9;}.cls-2{fill:#fff;}.cls-3{fill:#bebebe;}.cls-4{fill:#757575;}.cls-5{fill:#8f8f8f;}.cls-6{fill:#121212;}.cls-7{fill:#e6e6e6;}</style></defs><g id="Layer_2" data-name="Layer 2"><g id="_1April-Crowd21" data-name="1April-Crowd21"><path class="cls-1" d="M31.88,73.2s2.06,2.14,3.74.8c2.73-2.19,1.08-7,1-7.14s-.92-2.08-.92-2.08l-4.89,1.43-.92,4.49Z"/><path class="cls-2" d="M31.78,71.27s2.47,3.22,2.78,4.51c.21.84-1.67.93-1.67,1.91a1.61,1.61,0,0,0,1.71,1.74c1.11,0,5.68-1.71,6-3.39s-.54-4-.81-5.46-.15-3.25-.91-4.24-3.19-1.56-3.19-1.56L32,65.39l-1.42,3.38Z"/><path class="cls-2" d="M33.27,64.34a9.88,9.88,0,0,0,2.46.44c-5,2.81-3.85,8.42-3.85,8.42a26,26,0,0,0-9.16-4.51C21.67,68.35,33.27,64.34,33.27,64.34Z"/><path class="cls-1" d="M21.05,80.26s2.06,2.15,3.73.81c2.74-2.19,1.09-7,1-7.14s-1.7-3-1.7-3l-3.56-.38-1.48,7.18Z"/><path class="cls-2" d="M20.87,76.88s2.3,2.51,2.5,3.83c.31,2.05-.79,2.81-.79,3.79s1.07,1.61,2.19,1.61,4.52-2.41,4.78-3.53-1.23-4-1.5-5.44.05-3.66-.71-4.64S24.12,71,24.12,71l-2.58.56L20,75.85Z"/><path class="cls-2" d="M14.42,56.11A37.56,37.56,0,0,0,.64,64.94c-1.71,1.78.36,7,2.07,7.49a61.67,61.67,0,0,1,18.34,7.83s-1.36-8,3.07-9.3a35.62,35.62,0,0,0-5.49-1.6s12.59-.27,18.63-7.07C37.24,61.12,14.42,56.11,14.42,56.11Z"/><path class="cls-3" d="M13.79,56.31l23.47,6s-10,9.26-20.33,3.55C11.53,62.86,13.79,56.31,13.79,56.31Z"/><path class="cls-3" d="M18.63,69.36S5.39,67.48,5.32,68.18,18.63,69.36,18.63,69.36Z"/><path class="cls-4" d="M22.65,6.28a6.34,6.34,0,0,1-.31.65c-.1.09-.89.73-.92,1.06s.85,1.3.85,1.3l.38.18.62-2.61Z"/><path class="cls-5" d="M25.26,15.81a28,28,0,0,1,0,5.82l.25,1.26,10.08-3.54V17.74s-1-.19-1.32-1.75-2.34-3.09-2.34-3.09l-5.72.94S25.77,14.7,25.26,15.81Z"/><path class="cls-2" d="M17,29.1l7.85-7.37s7-1.4,10.79-4C38,18,43.38,21.42,43,27.15S40.5,43.24,40.59,57.6c0,4.29-10.39,9.4-15.53,9.37-13.85-.08-11.24-11.24-11.24-11.24s3.3-4.37,3-17.85C16.81,35.43,17,29.1,17,29.1Z"/><path class="cls-2" d="M17,29.1a47.94,47.94,0,0,1,7.85-7.37s6.33,1.07,9.36-.44,1.93-3.55,1.93-3.55,6,.16,6.66,5.15c1,8.17-1,29.89-1,29.89s-6.19,8.13-15.57,8.12c-11.5,0-11.5-6.92-11.5-6.92S16.41,42.17,17,29.1Z"/><path class="cls-3" d="M24.21,35c0,3.3-1.66,6-3.71,6s-3.7-2.68-3.7-6,1.65-6,3.7-6S24.21,31.67,24.21,35Z"/><path class="cls-5" d="M22.92,6.7S21.83,7.5,21.76,8s.81,1.52.81,1.52Z"/><path class="cls-5" d="M23.87,3.63a5.39,5.39,0,0,0-1.28,3.65s-1.55,5.56-.78,6.58a4.71,4.71,0,0,0,3.45,2,5,5,0,0,0,3-.56l2.54-3.17-2.38-7.3A36.19,36.19,0,0,0,23.87,3.63Z"/><path class="cls-6" d="M28.9.23c-4.74-.94-5.59,2.92-5.21,4.32s1.67,5.69,1.07,6.86a1.93,1.93,0,0,1,2.47,1.25c.3.83-.08,4.56,1.38,4.74a8.23,8.23,0,0,0,8.1-4.1S30.1.33,28.9.23Z"/><path class="cls-2" d="M28.21.5c-1,.58-4.48,5.17-.4,10.17,3.67,4.5,7.58,3.79,8.9,2.63s1.95-2.92,1.95-5.44c0-3.43-2.67-7-5.14-7.62C32-.14,29.17-.08,28.21.5Z"/><path class="cls-5" d="M9.7,51.51A26.11,26.11,0,0,0,5.46,54.8a10.79,10.79,0,0,0-3,4.47,9.6,9.6,0,0,0-.51,5.1A2.47,2.47,0,0,0,5.34,66c1.16-.56,1.72-5.16,3.4-5.73s5.57-4.62,5.32-5.77S9.7,51.51,9.7,51.51Z"/><path class="cls-7" d="M20.32,28.05s-2.86,1.3-3.6,3.89a111.63,111.63,0,0,0-2.36,11.94,52.61,52.61,0,0,0-8.49,8.41A4.9,4.9,0,0,1,9.8,54.17a12.54,12.54,0,0,1,1.67,3.23s9.85-6.28,11.13-9.78a50.27,50.27,0,0,0,1.66-16C23.88,27.81,22.68,28.78,20.32,28.05Z"/></g></g></svg>