<svg xmlns="http://www.w3.org/2000/svg" viewBox="0 0 57.79 100.36"><defs><style>.cls-1{fill:#707070;}.cls-2{fill:#ececec;}.cls-3{fill:#eee;}.cls-4{fill:#e3e3e3;}.cls-5{fill:#d7d7d7;}</style></defs><g id="Layer_2" data-name="Layer 2"><g id="_1April-Crowd13" data-name="1April-Crowd13"><path class="cls-1" d="M9.73,66.27c-.08-.26-3.64.91-6,2.79C0,72,0,74.84,0,74.84l1.61,3.91A55.57,55.57,0,0,1,8.9,75.1c2.47-.81,4-4.08,4-4.08Z"/><path class="cls-2" d="M35.48,25.47s2.27-3.53,6,8.91c1.92,6.36,1.55,21.49,2.59,28.34s-5.34,3.93-7.53-2.65-4-19-4-19Z"/><path class="cls-3" d="M17.12,25.34s-5.48,4.58-5.48,9c0,3,2,11,1.1,16.23-1.36,8.23-5.48,12.27-3.11,19.63-5.17,1.7-7.85,4-8.67,7.17,2.19,5,4.21,6.76,7.4,11,6.52,8.71,20.23,11.61,25.66,12,6.31.41,10.61-5.27,15.26-7.49s7.36-3.74,8.24-6.64c1.43-4.7-3-12.67-9.89-19.8-3.79-3.88-10-10.27-10.23-14.23-.25-4.18.76-9.07,1.8-13.27,1.3-5.24-.61-9.43-4.27-13.44C32.19,22.47,17.12,25.34,17.12,25.34Z"/><path class="cls-4" d="M27.5,72s7.38,3.76,10.14,6.31a31.57,31.57,0,0,1,4.14,4.5A41.5,41.5,0,0,0,34,78c-4.29-2-4.68-1.75-5.72-3.14A4.13,4.13,0,0,1,27.5,72Z"/><path class="cls-4" d="M33.35,60a26.41,26.41,0,0,0,2.87,5.8c2.14,3.06,5.14,5.62,6.84,7.79a14.15,14.15,0,0,1,3.1,10.76,7.06,7.06,0,0,1-1.59,4s.41-8.49-2.51-12.46-4.66-4.71-7.13-9S33.35,60,33.35,60Z"/><path class="cls-1" d="M22.71,66.91s3.46,3.75,5.51,5.75a22.33,22.33,0,0,1,4.3,5.67c1.51,2.57,2.45,4,0,4.39-2,.3-3.24-1-5.25-2.64s-4.61-1.84-6.11-5a54,54,0,0,1-2.44-6Z"/><path class="cls-1" d="M24.39,6.29c2.32-2.23,8.19-3.47,11,2.65,2.91,6.41-2.12,15.31-5.35,14.21-1.82-.61-5.74-3-7.1-6.44C21.37,12.89,22.59,8,24.39,6.29Z"/><path class="cls-2" d="M17.12,35.65s.47,7.59.52,11.93,0,7.37,0,7.37l9.43,16a10,10,0,0,0-4.86.62A3.29,3.29,0,0,0,20,75.1S12.7,66.18,8.27,59.35C5.75,55.46,7,49.76,8.36,40.06c1.72-12.67,5.25-11.54,5.25-11.54Z"/><path class="cls-3" d="M34,20.1a2.85,2.85,0,0,1,2.18,3.48c2.65.52,3.09,1.68,3.54,2.73,1,2.24-.89,8.92-6.38,12.6-5.16,3.46-14.21,2.42-18.78.33s-6.21-4-6.21-4,2.12-7,3.92-9,3.24-1.73,3.24-1.73,1.55-4.13,3.9-4.45S23,24.92,27,24.33,34,20.1,34,20.1Z"/><path class="cls-3" d="M19.42,20.1c1.47,5.11,6.13,6.47,9,7s4.74-2.93,6.47-6c1.06-1.91,1.93-6.51,1.55-10.3a31.7,31.7,0,0,0-.58-4,8.59,8.59,0,0,0-4-5.29C26.63-1.37,22.13.22,20.57,3.71A23.17,23.17,0,0,0,19.42,20.1Zm6.34-8.62A5.29,5.29,0,0,1,30.69,8c2.1,0,3.33.49,3.74,1.7.65,1.92,0,3.91-.14,4.85-.42,3-2.66,7.79-6.27,7C25,20.94,23.74,17.11,25.76,11.48Z"/><path class="cls-5" d="M36.57,27.52a42,42,0,0,0-4.87,4.56c-2.34,2.61-4.5,5.42-7.11,5.36A16.59,16.59,0,0,1,20,36.73s4.41-.28,6.15-1.39,4.17-4,6.15-6A5.74,5.74,0,0,1,36.57,27.52Z"/><path class="cls-5" d="M28.66,30.94s-3.51,3.26-7.93,2a15.48,15.48,0,0,1-7.12-4.46s.14-1.29,1.09-1.35,1.31,1.74,3.56,3a9.41,9.41,0,0,0,5.81,1.56A22,22,0,0,0,28.66,30.94Z"/><path class="cls-5" d="M34.93,24.6S29.56,29,24.56,28.05s-6-2.61-6.53-3.82.48-1.77.91-1.3,1.48,2.7,4,3.35a11.32,11.32,0,0,0,7-.42A23.17,23.17,0,0,1,34.93,24.6Z"/><path class="cls-1" d="M43,63.11s.5,3.82,1.21,7.65a20.55,20.55,0,0,1,0,7.36c-.14,1.84-3,1.41-4.25-1.28s-2.85-9.62-2.16-12.31S43,63.11,43,63.11Z"/><path class="cls-2" d="M37.48,48.24s-1.1,2.56-.91,7.79.55,11.47.55,11.47,1.77-2.21,3.69-2.21a5.67,5.67,0,0,1,3.41,1.35s-.68-9.88-.87-13.86S37.48,48.24,37.48,48.24Z"/><path class="cls-4" d="M34.93,42.73a69.8,69.8,0,0,0-6,4.53,66.53,66.53,0,0,1-6,4.53,14.55,14.55,0,0,1,4.19-6C30,43.56,34.93,42.73,34.93,42.73Z"/><path class="cls-4" d="M9.09,63.66c-.09.69,3,10.53,5.29,15.09a36.67,36.67,0,0,0,8.5,11.54,54.23,54.23,0,0,0,4.19,3.54s-6-1.13-11.18-7.93-7-12.17-7.53-15.57A14.34,14.34,0,0,1,9.09,63.66Z"/></g></g></svg>