<svg xmlns="http://www.w3.org/2000/svg" viewBox="0 0 212.46 100.26"><defs><style>.cls-1{fill:#f4f4f4;}.cls-2{fill:#efedea;}.cls-3,.cls-7{fill:#fff;}.cls-3{opacity:0.48;}.cls-4{fill:#d9dadb;}.cls-5{fill:#f2f2f2;}.cls-6{fill:#fcfcfc;}</style></defs><g id="Layer_2" data-name="Layer 2"><g id="Artwork"><path class="cls-1" d="M45.25,42.58c6.64-3.58,13.48-6.8,20-10.52A198.46,198.46,0,0,0,96.49,9.51c1.93-1.66,4.1-3.44,6.67-3.39a10.49,10.49,0,0,1,5,2l18.07,11.09c29.83,18.31,59.81,34.21,86.22,57,0,5.79-15.05,4.26-18.37,10.24a18.26,18.26,0,0,1-2.18,3.83c-1.46,1.55-3.75,2-5.88,2.35-27.46,4.48-55.29,6.36-83.1,7.57a29.48,29.48,0,0,1-9.24-.57c-3-.83-5.71-2.6-8.55-4-6.92-3.31-14.75-4.2-22.4-5.13q-14.52-1.78-29-4.07c-4.42-.7-8.9-1.45-12.9-3.41-3.78-1.86-7.08-4.76-11.18-5.8-3-.75-12.77,0-8.71-5.36,3.13-4.11,10-7.39,14.24-10.38A303.07,303.07,0,0,1,45.25,42.58Z"/><path class="cls-2" d="M212.46,76.23c-26.41-22.77-56.39-38.67-86.22-57L108.17,8.16a13.67,13.67,0,0,0-3.8-1.81c.83,1.16,1.86,2.57,1.9,3.9.08,2.49-1,4.87-1.21,7.35-.47,6,4.21,11,8.55,15.3l9.6,9.38c2.65,2.59,5.48,5.55,5.63,9.22.13,3.18-1.84,6.28-1.27,9.42.84,4.7,6.43,6.63,10.65,9,5.12,2.92,9.12,7.62,14.61,9.79,5.29,2.09,11.36,1.58,16.66,3.64,4.83,1.88,8.83,5.82,14,6.56,2.48.35,5.22,0,7.32,1.27a5.84,5.84,0,0,0,1.13-.92,18.26,18.26,0,0,0,2.18-3.83C197.41,80.49,212.46,82,212.46,76.23Z"/><path class="cls-2" d="M77.91,60.9c-3.09,3.67-7.19,6.55-9.58,10.68-1.56,2.69-2.32,5.8-4.12,8.34a20.42,20.42,0,0,1-6.48,5.43,55.64,55.64,0,0,1-6.5,3.27l-.63.25q6.23.85,12.47,1.63A113.79,113.79,0,0,1,78.17,93a20.64,20.64,0,0,0,2.35-5.49,53.38,53.38,0,0,1,3.24-7.64c1.17-2.26,2.53-4.5,2.91-7s-.26-5.14-.52-7.72c-.66-6.62,1.34-13.23,4.08-19.31C84.61,49.28,82.11,55.9,77.91,60.9Z"/><path class="cls-3" d="M69.34,32.92c-4.17,2.88-8.56,6-10.38,10.68a1.64,1.64,0,0,0-.05,1.49,1.61,1.61,0,0,0,1.39.54c2.2,0,4.19-1.19,6.13-2.22a46.58,46.58,0,0,1,16.19-5c3.48-.41,7.32-.33,10.07,1.79,1.28,1,2.22,2.36,3.57,3.27a6.7,6.7,0,0,0,7.41-.14A6.31,6.31,0,0,0,106,36.42a20.23,20.23,0,0,0-2.61-4.36A17.09,17.09,0,0,1,101,19c.28-1.19.67-2.49.07-3.55-2.48-4.37-10.14,2.33-12.43,4C82.41,24.2,75.78,28.47,69.34,32.92Z"/><path class="cls-3" d="M46.44,48.48c-9,4.57-18.09,9.14-26.68,14.45a27.29,27.29,0,0,0-7.29,5.87,2.43,2.43,0,0,0-.6,1.21c-.08,1,1,1.72,2,1.95,3.21.75,6.39-1.08,9.24-2.71a103.76,103.76,0,0,1,15.46-7.17c5-1.82,10.75-3.53,14.14-7.8C57.08,48.77,51.81,45.77,46.44,48.48Z"/><polygon class="cls-4" points="25.54 56.6 38.89 45.59 40.07 46.04 44.93 44.05 46.97 37.27 58.82 34.59 67.02 30.26 80.33 21.72 100.29 6.33 104.11 0 111.3 6.3 121.37 5.1 127.85 7.92 135.8 12.22 146.38 14.06 149.13 20.74 152.92 22.16 160.02 31.62 162.72 37.24 168.94 45.02 177.84 49.97 182.82 55.48 187.29 71.46 171.21 74.3 162.91 81.05 150.89 80.57 132.31 84.02 117.63 87.03 105.1 88.54 89.28 81.24 75.22 83.4 60.12 85.55 60.12 85.55 46.44 83.31 34.08 74.64 25.54 56.6"/><polygon class="cls-5" points="46.86 63.97 38.44 74.71 45.05 83.39 60.19 82.5 64.73 68.03 53.35 59.04 46.86 63.97"/><polygon class="cls-6" points="38.44 74.71 36.77 85.12 50.06 90.09 63.59 87.17 64.73 68.03 60.19 82.5 48.59 82.06 38.44 74.71"/><polygon class="cls-5" points="75.27 31.98 61.77 33.99 60.6 44.84 72.21 54.61 85.45 47.22 83.37 32.87 75.27 31.98"/><polygon class="cls-6" points="61.77 33.99 53.4 40.4 59.63 53.15 71.47 60.33 85.45 47.22 72.21 54.61 64.08 46.31 61.77 33.99"/><polygon class="cls-5" points="141.11 81.86 151.28 84.69 155.52 77.4 150.4 66.85 138.72 67.89 135.67 78.68 141.11 81.86"/><polygon class="cls-6" points="151.28 84.69 159.21 82.8 158.82 71.84 152.73 63.04 138.72 67.89 150.4 66.85 153.53 75.26 151.28 84.69"/><polygon class="cls-5" points="126.56 89.02 136.72 91.85 140.96 84.56 135.84 74 124.16 75.04 121.11 85.83 126.56 89.02"/><polygon class="cls-6" points="136.72 91.85 144.65 89.96 144.26 78.99 138.17 70.19 124.16 75.04 135.84 74 138.97 82.42 136.72 91.85"/><polygon class="cls-5" points="81.06 83.59 91.22 86.42 95.47 79.13 90.35 68.58 78.67 69.62 75.62 80.41 81.06 83.59"/><polygon class="cls-6" points="91.22 86.42 99.15 84.53 98.77 73.57 92.68 64.77 78.67 69.62 90.35 68.58 93.47 76.99 91.22 86.42"/><polygon class="cls-5" points="110.91 62.42 121.07 65.26 125.31 57.96 120.19 47.41 108.51 48.45 105.46 59.24 110.91 62.42"/><polygon class="cls-6" points="121.07 65.26 129 63.37 128.62 52.4 122.52 43.6 108.51 48.45 120.19 47.41 123.32 55.83 121.07 65.26"/><polygon class="cls-5" points="119.78 33.93 129.95 36.76 134.19 29.47 129.07 18.92 117.39 19.96 114.34 30.75 119.78 33.93"/><polygon class="cls-6" points="129.95 36.76 137.88 34.87 137.49 23.91 131.4 15.11 117.39 19.96 129.07 18.92 132.19 27.33 129.95 36.76"/><polygon class="cls-5" points="80.83 27.21 90.99 30.05 95.23 22.75 90.12 12.2 78.44 13.24 75.38 24.03 80.83 27.21"/><polygon class="cls-6" points="90.99 30.05 98.92 28.16 98.54 17.19 92.44 8.39 78.44 13.24 90.12 12.2 93.24 20.61 90.99 30.05"/><polygon class="cls-5" points="171.21 74.3 181.37 77.13 185.61 69.84 180.49 59.29 168.81 60.33 165.76 71.12 171.21 74.3"/><polygon class="cls-6" points="181.37 77.13 189.3 75.24 188.91 64.28 182.82 55.48 168.81 60.33 180.49 59.29 183.62 67.7 181.37 77.13"/><polygon class="cls-5" points="21.93 68.39 32.09 71.22 36.33 63.93 31.22 53.37 19.54 54.41 16.49 65.2 21.93 68.39"/><polygon class="cls-6" points="32.09 71.22 40.02 69.33 39.64 58.36 33.55 49.56 19.54 54.41 31.22 53.37 34.34 61.79 32.09 71.22"/><polygon class="cls-5" points="149.11 48.49 159.27 51.32 163.51 44.03 158.4 33.48 146.72 34.52 143.67 45.31 149.11 48.49"/><polygon class="cls-6" points="159.27 51.32 167.2 49.43 166.82 38.47 160.73 29.67 146.72 34.52 158.4 33.48 161.52 41.89 159.27 51.32"/><polygon class="cls-7" points="28.12 47.95 31.39 52.67 36.97 48.76 36.58 42.11 28.12 47.95"/><polygon class="cls-6" points="28.12 47.95 30.17 56.62 36.83 59.59 41.26 50.38 36.58 42.11 36.97 48.76 31.39 52.67 28.12 47.95"/><polygon class="cls-5" points="58.97 80.69 62.25 85.41 67.83 81.51 67.44 74.85 58.97 80.69"/><polygon class="cls-6" points="58.97 80.69 61.02 89.36 67.69 92.33 72.11 83.12 67.44 74.85 67.83 81.51 62.25 85.41 58.97 80.69"/><polygon class="cls-5" points="97.66 56.04 100.94 60.76 106.52 56.86 106.13 50.2 97.66 56.04"/><polygon class="cls-6" points="97.66 56.04 99.71 64.71 106.38 67.68 110.8 58.48 106.13 50.2 106.52 56.86 100.94 60.76 97.66 56.04"/><polygon class="cls-5" points="113.84 80.84 117.12 85.56 122.69 81.65 122.31 75 113.84 80.84"/><polygon class="cls-6" points="113.84 80.84 115.89 89.5 122.56 92.48 126.98 83.27 122.31 75 122.69 81.65 117.12 85.56 113.84 80.84"/><polygon class="cls-5" points="162.6 55.8 165.88 60.52 171.45 56.61 171.06 49.95 162.6 55.8"/><polygon class="cls-6" points="162.6 55.8 164.65 64.46 171.31 67.44 175.74 58.23 171.06 49.95 171.45 56.61 165.88 60.52 162.6 55.8"/><polygon class="cls-7" points="92.73 27.57 96.01 32.29 101.58 28.39 101.19 21.73 92.73 27.57"/><polygon class="cls-6" points="92.73 27.57 94.78 36.24 101.44 39.22 105.87 30.01 101.19 21.73 101.58 28.39 96.01 32.29 92.73 27.57"/><polygon class="cls-5" points="89.44 7.19 92.72 11.91 98.29 8 97.9 1.34 89.44 7.19"/><polygon class="cls-6" points="89.44 7.19 91.49 15.85 98.15 18.83 102.58 9.62 97.9 1.34 98.29 8 92.72 11.91 89.44 7.19"/><polygon class="cls-5" points="132.6 32.79 135.88 37.51 141.45 33.61 141.06 26.95 132.6 32.79"/><polygon class="cls-6" points="132.6 32.79 134.65 41.46 141.32 44.44 145.74 35.23 141.06 26.95 141.45 33.61 135.88 37.51 132.6 32.79"/><polygon class="cls-7" points="63.9 24.23 67.17 28.95 72.75 25.05 72.36 18.39 63.9 24.23"/><polygon class="cls-6" points="63.9 24.23 65.95 32.9 72.61 35.87 77.04 26.66 72.36 18.39 72.75 25.05 67.17 28.95 63.9 24.23"/><polygon class="cls-7" points="62.31 60.91 65.59 65.63 71.16 61.73 70.77 55.07 62.31 60.91"/><polygon class="cls-6" points="62.31 60.91 64.36 69.58 71.03 72.55 75.45 63.34 70.77 55.07 71.16 61.73 65.59 65.63 62.31 60.91"/><polygon class="cls-5" points="109.28 10.2 113.59 10.11 113.47 5 109.15 2.48 109.28 10.2"/><polygon class="cls-6" points="109.28 10.2 115.55 12.52 120.19 9.59 116.27 2.99 109.15 2.48 113.47 5 113.59 10.11 109.28 10.2"/><polygon class="cls-5" points="97.78 21.05 102.09 20.97 101.97 15.86 97.64 13.33 97.78 21.05"/><polygon class="cls-6" points="97.78 21.05 104.05 23.38 108.69 20.45 104.77 13.85 97.64 13.33 101.97 15.86 102.09 20.97 97.78 21.05"/><polygon class="cls-5" points="124.85 50.07 129.16 49.98 129.04 44.87 124.71 42.35 124.85 50.07"/><polygon class="cls-6" points="124.85 50.07 131.12 52.39 135.75 49.46 131.83 42.86 124.71 42.35 129.04 44.87 129.16 49.98 124.85 50.07"/><polygon class="cls-5" points="87.1 49.75 91.42 49.67 91.3 44.56 86.97 42.03 87.1 49.75"/><polygon class="cls-6" points="87.1 49.75 93.38 52.08 98.01 49.14 94.09 42.55 86.97 42.03 91.3 44.56 91.42 49.67 87.1 49.75"/><polygon class="cls-5" points="81.07 34.36 85.39 34.28 85.26 29.17 80.94 26.64 81.07 34.36"/><polygon class="cls-6" points="81.07 34.36 87.34 36.69 91.98 33.75 88.06 27.16 80.94 26.64 85.26 29.17 85.39 34.28 81.07 34.36"/><polygon class="cls-5" points="42.41 52.89 46.73 52.8 46.61 47.69 42.28 45.17 42.41 52.89"/><polygon class="cls-6" points="42.41 52.89 48.69 55.21 53.32 52.28 49.4 45.68 42.28 45.17 46.61 47.69 46.73 52.8 42.41 52.89"/><polygon class="cls-5" points="28.68 75.73 32.99 75.65 32.87 70.54 28.54 68.01 28.68 75.73"/><polygon class="cls-6" points="28.68 75.73 34.95 78.06 39.58 75.12 35.66 68.53 28.54 68.01 32.87 70.54 32.99 75.65 28.68 75.73"/><polygon class="cls-5" points="98.96 91.8 102.97 90.2 101.06 85.46 96.13 84.61 98.96 91.8"/><polygon class="cls-6" points="98.96 91.8 105.65 91.78 108.96 87.41 102.98 82.6 96.13 84.61 101.06 85.46 102.97 90.2 98.96 91.8"/><polygon class="cls-5" points="135.61 76.03 139.62 74.44 137.72 69.7 132.78 68.85 135.61 76.03"/><polygon class="cls-6" points="135.61 76.03 142.3 76.01 145.61 71.64 139.63 66.83 132.78 68.85 137.72 69.7 139.62 74.44 135.61 76.03"/><polygon class="cls-5" points="133.1 62.47 137.12 60.88 135.21 56.13 130.27 55.28 133.1 62.47"/><polygon class="cls-6" points="133.1 62.47 139.79 62.45 143.11 58.08 137.12 53.27 130.27 55.28 135.21 56.13 137.12 60.88 133.1 62.47"/><polygon class="cls-5" points="166.62 78.92 171.67 76.92 169.27 70.95 163.06 69.88 166.62 78.92"/><polygon class="cls-6" points="166.62 78.92 175.04 78.89 179.21 73.39 171.68 67.34 163.06 69.88 169.27 70.95 171.67 76.92 166.62 78.92"/><polygon class="cls-5" points="159.49 83.94 163.79 83.61 163.39 78.52 158.93 76.24 159.49 83.94"/><polygon class="cls-6" points="159.49 83.94 165.88 85.91 170.34 82.73 166.07 76.36 158.93 76.24 163.39 78.52 163.79 83.61 159.49 83.94"/><path class="cls-5" d="M134.75,8.88a51,51,0,0,1-3.81,3.45l4.21,3.33,12.32-5.73-8.41-1.31Z"/><polygon class="cls-6" points="130.94 12.33 130.21 15.95 136.46 19.68 145.5 17.35 147.47 9.93 135.15 15.66 130.94 12.33"/><path class="cls-7" d="M71.63,78.1a51.42,51.42,0,0,1-3.81,3.46L72,84.88l12.32-5.73-8.41-1.3Z"/><polygon class="cls-6" points="67.82 81.56 67.09 85.17 73.34 88.91 82.38 86.58 84.35 79.15 72.03 84.88 67.82 81.56"/><path class="cls-7" d="M106.78,84.59A51.2,51.2,0,0,1,103,88.05l4.2,3.32,12.32-5.73-8.41-1.3Z"/><polygon class="cls-6" points="102.97 88.05 102.24 91.66 108.48 95.4 117.53 93.07 119.49 85.64 107.17 91.37 102.97 88.05"/><path class="cls-7" d="M85.76,54.17A49.27,49.27,0,0,1,82,57.63L86.16,61l12.32-5.73-8.41-1.3Z"/><polygon class="cls-6" points="81.95 57.63 81.22 61.24 87.46 64.98 96.51 62.65 98.48 55.22 86.16 60.95 81.95 57.63"/><path class="cls-5" d="M147.84,52.56A51.2,51.2,0,0,1,144,56l4.2,3.33,12.32-5.74-8.4-1.3Z"/><polygon class="cls-6" points="144.03 56.02 143.3 59.63 149.54 63.37 158.59 61.04 160.55 53.61 148.23 59.34 144.03 56.02"/><path class="cls-5" d="M103.9,35.44a51,51,0,0,1-3.81,3.45l4.21,3.33,12.32-5.73-8.41-1.31Z"/><polygon class="cls-6" points="100.09 38.89 99.36 42.51 105.61 46.24 114.65 43.91 116.62 36.49 104.3 42.22 100.09 38.89"/><path class="cls-5" d="M48.13,39A50.91,50.91,0,0,1,47.37,44L52.73,44l5.92-12.23L51.31,36Z"/><polygon class="cls-6" points="47.37 44.04 49.08 47.3 56.29 46.25 61.82 38.73 58.65 31.73 52.73 43.96 47.37 44.04"/><polygon class="cls-7" points="51.59 62.47 46.73 68.58 49.18 72.8 55.72 73.13 60.6 69.71 51.59 62.47"/><path class="cls-7" d="M38.75,61.12c0,.41-.5,3.34-.5,3.34l3.51-.06,3.89-8-4.81,2.83Z"/><polygon class="cls-6" points="38.25 64.46 39.37 66.6 44.1 65.91 47.73 60.98 45.65 56.38 41.76 64.41 38.25 64.46"/><path class="cls-7" d="M105.13,71.8c-.14.39-1.93,2.76-1.93,2.76l3.17,1.52,7-5.46-5.57.39Z"/><polygon class="cls-6" points="103.2 74.56 103.25 76.98 107.8 78.47 113.24 75.66 113.42 70.62 106.37 76.08 103.2 74.56"/><path class="cls-5" d="M118,39.89c-.14.39-1.94,2.76-1.94,2.76l3.18,1.52,7-5.46-5.57.39Z"/><polygon class="cls-6" points="116.08 42.66 116.14 45.07 120.68 46.56 126.13 43.75 126.31 38.71 119.26 44.17 116.08 42.66"/><path class="cls-5" d="M104.37,30.53a32.44,32.44,0,0,1-1.93,2.77l3.18,1.51,7-5.46-5.57.39Z"/><polygon class="cls-6" points="102.44 33.3 102.5 35.72 107.04 37.2 112.49 34.39 112.67 29.35 105.62 34.81 102.44 33.3"/><path class="cls-5" d="M117.39,14.59a33.13,33.13,0,0,1-1.93,2.77l3.17,1.52,7.05-5.47-5.57.4Z"/><polygon class="cls-6" points="115.46 17.36 115.51 19.78 120.06 21.26 125.5 18.45 125.68 13.41 118.63 18.88 115.46 17.36"/><path class="cls-7" d="M100.64,9.32a32.44,32.44,0,0,1-1.93,2.77l3.18,1.51,7-5.46-5.57.39Z"/><polygon class="cls-6" points="98.71 12.09 98.77 14.51 103.31 15.99 108.76 13.18 108.93 8.14 101.89 13.6 98.71 12.09"/><path class="cls-5" d="M135.52,24.42a32.44,32.44,0,0,1-1.93,2.77l3.17,1.51,7.05-5.46-5.57.4Z"/><polygon class="cls-6" points="133.59 27.19 133.65 29.61 138.19 31.09 143.63 28.28 143.81 23.24 136.76 28.7 133.59 27.19"/><path class="cls-5" d="M73.58,65.73c-.14.39-1.94,2.76-1.94,2.76L74.82,70l7.05-5.46-5.57.39Z"/><polygon class="cls-6" points="71.64 68.49 71.7 70.91 76.24 72.39 81.69 69.59 81.87 64.55 74.82 70.01 71.64 68.49"/><polygon class="cls-7" points="125.31 21.05 119.49 26.58 121.54 31.09 126.31 33.09 129 27.84 125.31 21.05"/></g></g></svg>