<svg xmlns="http://www.w3.org/2000/svg" viewBox="0 0 58.26 82.34"><defs><style>.cls-1{fill:#e6e6e6;}.cls-2{fill:#fff;}.cls-3{fill:#7c7c7c;}.cls-4{fill:#f9f9f9;}</style></defs><g id="Layer_2" data-name="Layer 2"><g id="_1April-Crowd14" data-name="1April-Crowd14"><path class="cls-1" d="M31.27,46C25.48,42.5,22.85,19,22.85,19l1-1.42s3.88-1.67,6.94,5.5c1.64,3.82,4.07,8.46,5.16,13.09.45,1.94-.63,3.77-1.43,5.13C33.58,43,33.74,47.48,31.27,46Z"/><path class="cls-2" d="M29.63,55.93a17.14,17.14,0,0,1-13.52,4.89,18.76,18.76,0,0,1-9-3.77,41.5,41.5,0,0,0,.58-9.14C6.72,40.72,5.32,29.1,5.57,27.2,6,24,13.21,20.57,13.21,20.57s5.11-4,10.41-1.87c0,0,5.67,4.58,6.35,11.05.33,3.21-.51,14.13,1.21,20.17C31.51,51.07,29.43,53.93,29.63,55.93Z"/><path class="cls-2" d="M27.4,45.81s4.05.7,5.58,2.43,3.58-.09,5.24.39,2.19.42,4.16-.39,9.77,0,10.25,7.33c.17,2.67-1.24,5.08-3.54,7.28-1,1,1,4.33-1.14,5.28s-6.89,1.7-9.28,2.92c-4.88,2.5-6.29,7.69-10,9-3.05,1.11-5.14-2-6.55-.7C17.53,83.76,9.79,83,3.55,78.84S-.21,64.7,7.07,57.05,27.4,45.81,27.4,45.81Z"/><path class="cls-1" d="M20.7,19.86c.43-.22,2,1.64,2.63,3.25s0,3.4-2.63,4.06-5.53-1.32-7.08-2.65a34.12,34.12,0,0,1-2.77-2.66A32.22,32.22,0,0,1,16,19.13C18.09,18.35,20.7,19.86,20.7,19.86Z"/><path class="cls-3" d="M21.6,18.5l.34,5s0,1.3-2.14,2c-2.59.85-6.59-4.16-6.59-4.16L15,13.71Z"/><path class="cls-3" d="M14.34,15c1.78,2.91,5.85,4.56,7.66,4.85,2.69.43,5.58-4.92,4.29-10.92a10.89,10.89,0,0,0-1-3.6C21.8.13,16.12,2.82,14.24,5.21,12.79,7.06,12.34,11.72,14.34,15Z"/><path d="M14.34,17.45a2.63,2.63,0,0,0,1-2.26,3.46,3.46,0,0,1-.45-3.58,28,28,0,0,1,2.2-2.86s8.31-1.3,7.72-3.33-1.39-4.27-5-4.26a9.2,9.2,0,0,0-7.35,3.6c-2,2.54-.94,4.49-.19,7.14A49.26,49.26,0,0,0,14.34,17.45Z"/><path class="cls-1" d="M32.27,51.31s-2.4,4.8-6.24,6-10.71,1.19-10.71,1.19.75-1.18,3.2-1.61S23,57.33,26,56,31.16,51.41,32.27,51.31Z"/><path class="cls-1" d="M28.67,51.82c-2.64.76-5.18,2.53-8.43,2.81s-7,.29-7,.29a25.29,25.29,0,0,1,6.59-1.55C22.85,53.32,26.61,51.31,28.67,51.82Z"/><path class="cls-1" d="M16.94,59.75s2.84,1.11,8.54,0S35.6,55.52,38,54.82a6.7,6.7,0,0,1,3.4-.39A40.31,40.31,0,0,0,35,58.59a40.19,40.19,0,0,1-8.62,6c-2.79,1.25-8.23-.5-9.39-2A2.13,2.13,0,0,1,16.94,59.75Z"/><path class="cls-4" d="M26,7.55a13.64,13.64,0,0,0-8.24,2.36c-3.13,2.21-4.17,2.74-4.8,4.1-.22-.51-5.27-7.51,1-11.57s9.7-2.39,10.86.19A14.59,14.59,0,0,1,26,7.55Z"/><path class="cls-3" d="M48.59,45.57s6.22,1.15,8.46,3.61.93,4.33-.34,6.07S55,58.46,54.11,58s-.2-1.6-.67-2.92S47.89,51.7,47,49.81,48.59,45.57,48.59,45.57Z"/><path class="cls-3" d="M18.7,59.74c.6.12,1.65,1.42,3.83,4,.91,1.1,2.62,3,2.62,5.37s0,6-1.2,7-2.89.28-3.57-2.34-2.68-4.12-2.82-5.75-1.27-2.48-2.13-4.25S18.7,59.74,18.7,59.74Z"/><path class="cls-1" d="M33.16,36.16s1.74-1.71,2.58-.86,2.48,1.28,2.93,1.59,1.11,2.16,2,2.6S48.37,44.3,49.75,45a18.19,18.19,0,0,1,2.68,1.64,3.08,3.08,0,0,0-2,2.52,24.09,24.09,0,0,0-.6,3.68A23.52,23.52,0,0,1,44,52c-1.78-.71-11.61-4.87-12.75-6S33.16,36.16,33.16,36.16Z"/><path class="cls-1" d="M1.66,35.69c.51-6.32,1.84-9.82,5-10.6,1.58.69,4.23,4.52,4.69,9.93A72.2,72.2,0,0,0,13,46c.63,2.22,1.45,1.68,1.92,3.19.2.64-.12,1.53.35,2.1s1.12,2.28,2.53,4.53c.91,1.46,3.65,5,3.36,5.06a5.11,5.11,0,0,0-3.94,2.54c-.62,1.09-1.44,2.78-1.07,3.09,0,0-5.58-3.55-7.09-5.63A43,43,0,0,1,3,48.24,39.76,39.76,0,0,1,1.66,35.69Z"/><path class="cls-1" d="M21.88,25.57a32.37,32.37,0,0,1,2.88,6.91c.87,3.4.71,11.45.71,11.45l-2,1s.7-10-.71-13.52a43.15,43.15,0,0,0-2.55-5.39Z"/><path class="cls-1" d="M12.17,49.25a12.2,12.2,0,0,1-3.24.44,2,2,0,0,1-1.61-1.35,9.79,9.79,0,0,1,2.78,0A4.28,4.28,0,0,1,12.17,49.25Z"/><path class="cls-1" d="M13.21,51.2a11.43,11.43,0,0,1-2.63,2.39,4,4,0,0,1-2.05.35s1.19-1,2.32-1.85A4.72,4.72,0,0,1,13.21,51.2Z"/><path class="cls-1" d="M20.49,77.22A36.13,36.13,0,0,0,14.08,77,13.43,13.43,0,0,1,8.3,75.79a7.14,7.14,0,0,0,5.33,2.35A19.49,19.49,0,0,0,20.49,77.22Z"/><path class="cls-1" d="M49.09,59.67a17.87,17.87,0,0,1-6.1,6c-4,2.25-7.46,4.69-7.46,4.69a46.75,46.75,0,0,1,6.67-5.61C45.37,62.74,49.09,59.67,49.09,59.67Z"/><path class="cls-1" d="M39.41,64.77c-.48,0-3.88,3-5.77,5.61a22.06,22.06,0,0,1-4.18,4.25,24.55,24.55,0,0,1,4.18-6.45A16.56,16.56,0,0,1,39.41,64.77Z"/></g></g></svg>