<svg xmlns="http://www.w3.org/2000/svg" viewBox="0 0 48.73 81.88"><defs><style>.cls-1{isolation:isolate;}.cls-2{fill:#fff;}.cls-3{fill:#eaeaea;}.cls-4{fill:#e1e1e1;}.cls-5{fill:#e2e2e2;opacity:0.5;mix-blend-mode:multiply;}.cls-6{fill:#efefef;}.cls-7{fill:#edebec;}</style></defs><g class="cls-1"><g id="Layer_2" data-name="Layer 2"><g id="_1April-Crowd19" data-name="1April-Crowd19"><path class="cls-2" d="M13.36,49.06A14.85,14.85,0,0,1,13.81,43c.85-3.09.54-8.16.17-10.93-.14-1-1.38-10.07-3.71-10.19-1.45-.08-1.88,3.4-6.09,14C.93,44.13-1.26,48.59.8,51.12c.59.72.78.36,2.6,1.62,3.39,2.34,3.67,4.22,6.72,6.82,1,.84,4.16,3.54,5.25,2.78C16.82,61.31,14,54.34,13.36,49.06Z"/><path class="cls-3" d="M19.06,80.08c1.23-1.81-2.35-6.25-1.13-7.93,1.06-1.45,4.68.48,4.84,0s-3.19-1.57-5.64-4.1C12.19,63,13.81,54.9,11.72,54.76,9.26,54.6,6.81,64.9,5.47,71.48A7.78,7.78,0,0,0,6,76.25,4.42,4.42,0,0,0,7.53,78a7.88,7.88,0,0,0,4.28,1.52C18,80.3,18.61,80.75,19.06,80.08Z"/><path class="cls-3" d="M32.56,70.67l0,0a1.24,1.24,0,0,0,.6.31l.27.11a.15.15,0,0,1,.07,0A4.09,4.09,0,0,1,35,72.37,7.42,7.42,0,0,1,36.35,75a9.42,9.42,0,0,1,.31,1.44c0,.12,0,.24,0,.37.11.88.24,1.85.75,2.19s.74-.19,1.36-.5l0,0c1.65-.83,2.64,0,3.74-.45a3.06,3.06,0,0,0,1.55-1.75,7.78,7.78,0,0,0,.51-4.77c-.91-4.45-2.32-10.6-3.9-14.07-.76-1.66-1.56-2.7-2.35-2.65h-.08C37,55,36.05,58.41,35,62.14l-.35,1.19A36.65,36.65,0,0,1,33,68.05C32.77,68.52,32.05,70,32.56,70.67Z"/><path class="cls-4" d="M24.7,79.52h0c.31-.13.6-.24.89-.34s.47-.16.7-.22a10.8,10.8,0,0,1,1.57-.33,7.41,7.41,0,0,1,2.49.08l.3.08a5.46,5.46,0,0,1,1,.36,7.33,7.33,0,0,0,3.2,1.23A4.4,4.4,0,0,0,38.45,79c.14-.17.27-.35.4-.54a6.5,6.5,0,0,0,.37-5.92,3.58,3.58,0,0,0-.34-.57,4.25,4.25,0,0,0-3.8-1.65,10.85,10.85,0,0,0-1.35.14,6.28,6.28,0,0,0-1.14.26,8.13,8.13,0,0,0-1.74.81,9.32,9.32,0,0,0-1.39,1,14.78,14.78,0,0,0-2.35,2.62c-.15.2-.28.4-.42.61-.35.52-.65,1-.91,1.51-.14.26-.27.5-.38.73a.3.3,0,0,0,0,.08c-.33.65-.55,1.17-.65,1.43Z"/><path class="cls-2" d="M33.36,62.34c.37.25,1,.12,1.63-.2a19.72,19.72,0,0,0,3.62-2.58c.27-.23.52-.46.75-.68a18.35,18.35,0,0,0,1.39-1.47,20.2,20.2,0,0,1,4.59-4.67c1.81-1.26,2-.9,2.59-1.62,2.06-2.53-.13-7-3.38-15.2-4.13-10.45-4.62-14-6-14h-.07c-2.33.12-3.57,9.21-3.71,10.19-.37,2.77-.68,7.84.17,10.93a14.85,14.85,0,0,1,.45,6.06c-.15,1.19-.41,2.46-.7,3.73-.05.23-.1.45-.16.66C33.52,57.61,32.29,61.58,33.36,62.34Z"/><path class="cls-2" d="M7.33,64a5.56,5.56,0,0,0,.09,1.16,5.26,5.26,0,0,0,.39,1.2,10.1,10.1,0,0,0,4.76,4.35,20.82,20.82,0,0,0,2.85,1.2c.42.15.84.28,1.27.41s.7.19,1,.27a24.1,24.1,0,0,0,2.72.52c.42.06.84.11,1.26.14.6.06,1.19.08,1.76.09a21,21,0,0,0,3-.19,23.67,23.67,0,0,0,3-.58,24.16,24.16,0,0,0,3.92-1.37l.08,0c.56-.26,1.11-.53,1.62-.82a15.3,15.3,0,0,0,3.64-2.72,6.25,6.25,0,0,0,1.9-3.71A8.12,8.12,0,0,0,40,60.7c-.18-.54-.39-1.13-.61-1.82a34.66,34.66,0,0,1-1-4.11c0-.14,0-.28-.07-.42a27.09,27.09,0,0,0-.61-3,31.65,31.65,0,0,1-1.19-4.18c0-.28-.08-.55-.1-.8-.32-3.58,1.27-5.33,2.51-9.5a29.11,29.11,0,0,0,.9-4.2c.67-4.57,1.09-7.45-.55-9.93a5.72,5.72,0,0,0-.68-.86,2.09,2.09,0,0,0-.2-.22,8.21,8.21,0,0,0-2.22-1.53c-2.61-1.24-6-1.44-9.18-1.51l-1.52,0c-1.5,0-3.25,0-5.05.06h0c-.52,0-1,.07-1.56.13q-.39,0-.78.09c-.3,0-.59.08-.89.13a15,15,0,0,0-4.4,1.38A8.08,8.08,0,0,0,10.59,22h0l-.06.07-.3.34a6.19,6.19,0,0,0-.55.79c-1.19,2-.77,5,.13,11,.17,1.1.33,2.06.5,2.91.84,4.41,1.63,6,2,8.35,0,0,.05.38.09.94,0,.38.07.85.08,1.33.08,3.34-2,7.14-3.55,10.69A17.82,17.82,0,0,0,7.37,63.3C7.35,63.53,7.33,63.74,7.33,64Z"/><path class="cls-2" d="M6.69,68.14a8.76,8.76,0,0,1,.26,1c.1,1-.41,1.45-.59,2.42A3.22,3.22,0,0,0,6.81,74c.13,0-.29-1.43.46-2.28a2.15,2.15,0,0,1,1.33-.63c2.48-.35,10.09,4.48,14.81,5.73,5.76,1.51,14-.42,17-6.1,2.35-4.5,1.31-9.85.79-12-.18.35-2.34,4.61-5.8,4.59a6.39,6.39,0,0,1-4-1.9,12.9,12.9,0,0,1-3.74-5.81,16.83,16.83,0,0,1-10.43,7.53,21.26,21.26,0,0,1-2.46,1A9.77,9.77,0,0,1,7.6,62.65c-.19,1-.37,1.78-.5,2.29C6.72,66.56,6.5,67.21,6.69,68.14Z"/><path class="cls-2" d="M12.11,14.85a1,1,0,0,0,.27.33l1.79,1.49h.24l.2,0,.27,0H15l.7-.06h.07l.16,0H16l.2,0,1-.05.82,0h.12l.75,0h2.94l.79,0h.31l1,.05H24l.3,0,.52,0,.86,0h3.95l1,0,2.19-.09.46,0,1-.05a8.12,8.12,0,0,0,.82-.06l.26,0-.15-.32c-.12-.25-.24-.51-.35-.79s-.25-.63-.35-.93h0c0-.06,0-.12,0-.18a.43.43,0,0,1,0-.11,1.81,1.81,0,0,1,0-.31.13.13,0,0,1,0-.06,2.56,2.56,0,0,1,0-.74h0a2.77,2.77,0,0,1,.13-.48,0,0,0,0,0,0,0,3,3,0,0,1,.22-.4c.06-.1.13-.19.19-.28a5,5,0,0,0,.57-.78.5.5,0,0,0,.05-.13,1.43,1.43,0,0,0,.09-.44.06.06,0,0,0,0,0v-.06c0-.42-.2-.7-.66-1.35a1,1,0,0,1-.08-.11l-.5-.7h0l-.49-.72-.48-.71-.06-.1-.53-.79c-.09-.15-.17-.29-.26-.42-.23-.37-.44-.72-.61-1,0,0-.05-.08-.07-.13L31.77,4h0l0-.06-.07-.14-.11-.24-.07-.15h0a2.68,2.68,0,0,0-.66-.8c-.17-.14-.36-.28-.54-.41A11.78,11.78,0,0,0,22.61.54L22,.61h0a12.78,12.78,0,0,0-4,1.21,8.76,8.76,0,0,0-1.22.79h0a5.75,5.75,0,0,0-1,1,.76.76,0,0,0-.08.11l0,0a6.9,6.9,0,0,0-.39.6.43.43,0,0,0,0,.07h0l-.1.18h0A3.9,3.9,0,0,0,15,5l-.12.22h0l-.26.53-.22.48-.17.4L14.07,7c-.22.51-.4,1-.55,1.41h0a1.31,1.31,0,0,0,0,.15l0,0-.17.51a.24.24,0,0,1,0,.08l0,0h0l-.2.69c-.06.19-.11.39-.17.6l-.09.35c0,.06,0,.12,0,.18l-.12.5c-.07.28-.13.58-.2.89s-.07.39-.11.59a.64.64,0,0,0,0,.07c0,.24-.07.42-.08.47C12.06,14.44,12,14.63,12.11,14.85Z"/><path class="cls-2" d="M10,22.16l.22.2c.64.58,1.25,1.09,1.83,1.55h0c4.17,3.28,7,3.55,8.85,3.07A15.1,15.1,0,0,0,24,25.68c.52-.24,1.16-.52,2-.86,6.05-2.39,11.71-2.45,12.27-3.16a.2.2,0,0,0,0-.13c0-.09-.07-.06-1.25-1.16a2.71,2.71,0,0,1-.77-1.05,4.64,4.64,0,0,1-.12-.54,10.7,10.7,0,0,0-.59-1.7h0a1.11,1.11,0,0,0-.07-.16l0-.1c-.07-.15-.14-.31-.22-.47l0-.09-.57-1.15c-.12-.23-.24-.46-.37-.69l-.18-.31a6.34,6.34,0,0,0-.41-.6h0a3.68,3.68,0,0,0-.32-.37L33.24,13h0l-.05,0a.52.52,0,0,0-.11-.1l0,0-.28-.19a3.42,3.42,0,0,0-.42-.23l-.09,0h0l-.05,0a5.14,5.14,0,0,0-.79-.23h-.06l-.15,0A8.65,8.65,0,0,0,30.3,12h-.48c-.31,0-.63,0-.94,0l-.31,0h0l-.72.05H27.6l-.34,0-.42,0-.41,0-.35,0-1,.1-.66.07h0l-.32.05-.25,0-.89.13-.68.12-.49.1-.58.12h0l-.5.13c-.32.08-.64.17-.95.27s-.47.15-.7.24a12,12,0,0,0-1.92.89h0l-.48.29c-.19.12-.39.26-.58.4l-.19.14s0,0,0,0l-.29.22-.51.45-.1.09-.24.23-.19.19-.16.17-.05.06-.21.22h0l-.11.13-.14.16-.19.23-.27.35c-.15.19-.28.39-.42.59l-.05.07-.22.34-.21.35a9.11,9.11,0,0,1-.63.92,15.21,15.21,0,0,1-1,1.24c-.14.16-.32.34-.55.56l0,0Z"/><path class="cls-5" d="M20.33,18.67c3.18-.53,6.62-.79,7.19.54,0,.1,0,.14.08.25.85,2,8.41,1.56,8.52.62.09-.74-4.31-2.15-8.31-2.37A21.13,21.13,0,0,0,20.33,18.67Z"/><path class="cls-2" d="M15.64,4.05l.62-.33,0,0,.33-.16.18-.09.57-.26.35-.14c.3-.12.63-.24,1-.35h0L19,2.62c.36-.11.73-.21,1.12-.31h.06c.34-.08.7-.15,1.07-.21h.06c.36-.06.73-.1,1.12-.14h.05c.36,0,.72-.05,1.1-.06h.2c.3,0,.6,0,.91,0h.3l.27,0q.51,0,1,.12h0l.61.1h0l.36.07h0a17.26,17.26,0,0,1,2,.53c.38.13.73.26,1.06.4l.06,0c.32.14.61.28.87.41h0l.49.25h0c.06.07.1.07.12.07s.05-.24,0-.39l-.06-.08A8.65,8.65,0,0,0,29.5,1.5,9.6,9.6,0,0,0,26.57.27a11.84,11.84,0,0,0-8.5,1.37L18,1.69a11.92,11.92,0,0,0-1.18.84,2.45,2.45,0,0,0-1.06,1.18.36.36,0,0,0,0,.11A2,2,0,0,0,15.64,4.05Z"/><path class="cls-4" d="M11,79.13a4.38,4.38,0,0,0,3.61,1.38,7.33,7.33,0,0,0,3.2-1.23c1.36-.65,3.53-1,6.93.38-.5-1.21-3.51-8.24-9-9.07-1-.16-3.71-.57-5.16,1.51A6.24,6.24,0,0,0,11,79.13Z"/><path class="cls-6" d="M12.19,76.4c.44,1,1.32,1.55,3.53,2.24.87.28,1.57.47,2.18.61s1,.2,1.38.28l.85.15c.49.09,1,.2,1.63.35.86.22,1.59.44,2.21.66.4.14.75.28,1.07.41,1.63.66,2.36,1.07,3.35.51a4.51,4.51,0,0,0,1.93-2.77.74.74,0,0,0,0-.14,3.37,3.37,0,0,0,0-1.58.14.14,0,0,0,0-.06,1.61,1.61,0,0,0-.66-.9,5.87,5.87,0,0,0-1.24-.57h0l-1.32-.44L25,74.45,23.87,74c-.84-.3-1.54-.58-2.15-.82s-1.33-.52-1.9-.71A12.18,12.18,0,0,0,18,72c-.39-.06-.8-.11-1.27-.14l-.73,0c-.22,0-.42,0-.6,0a6.45,6.45,0,0,0-1.65.25,3,3,0,0,0-.71.31,2,2,0,0,0-.61.56A3.89,3.89,0,0,0,12.19,76.4Z"/><path class="cls-7" d="M12.19,76.4c.44,1,1.32,1.55,3.53,2.24.87.28,1.57.47,2.18.61s1,.2,1.38.28l.85.15c.49.09,1,.2,1.63.35.86.22,1.59.44,2.21.66.4.14.75.28,1.07.41,1.63.66,2.36,1.07,3.35.51a4.51,4.51,0,0,0,1.93-2.77.74.74,0,0,0,0-.14,3.37,3.37,0,0,0,0-1.58.14.14,0,0,0,0-.06,1.61,1.61,0,0,0-.66-.9,3,3,0,0,0-1,1.15,6.87,6.87,0,0,1-.85,1.31,1.53,1.53,0,0,1-.66.45A1.22,1.22,0,0,1,26.3,79a2.06,2.06,0,0,1-.71-.64A3.21,3.21,0,0,1,25.4,78a5.46,5.46,0,0,1-.35-.82c-.09-.26-.17-.53-.24-.8h-.06l-.4.05a9.63,9.63,0,0,1-1.2,0A11.5,11.5,0,0,1,22,76.4a11,11,0,0,1-1.15-.19,12,12,0,0,1-1.18-.31,13.22,13.22,0,0,1-4.59-2.56,14.69,14.69,0,0,1-1.28-1.22,3,3,0,0,0-.71.31,2,2,0,0,0-.61.56A3.89,3.89,0,0,0,12.19,76.4Z"/><path class="cls-6" d="M19.65,78.75a5.11,5.11,0,0,0,.48.93,3.69,3.69,0,0,0,1.25,1.21c.82.47,1.46.26,2.59-.2.43-.17.93-.38,1.54-.61a24.28,24.28,0,0,1,2.5-.76c.9-.23,1.6-.35,2.31-.48l.34-.06a26.27,26.27,0,0,0,3.39-.85,9.46,9.46,0,0,0,2.65-1.15,2.46,2.46,0,0,0,.87-1.09,3.84,3.84,0,0,0,.27-1.79,3.5,3.5,0,0,0-.53-1.62A2.18,2.18,0,0,0,36,71.4a7.65,7.65,0,0,0-2.47-.24h-.15l-.37,0a11.65,11.65,0,0,0-2.16.34c-1.24.31-2.4.84-4.41,1.59l-1.7.62-.87.3-1.75.58-.21.07a7.38,7.38,0,0,0-1.81.77,1.24,1.24,0,0,0-.18.14,1.38,1.38,0,0,0-.28.31,2,2,0,0,0-.2.44A3.72,3.72,0,0,0,19.65,78.75Z"/><path class="cls-7" d="M19.65,78.75a5.11,5.11,0,0,0,.48.93,3.69,3.69,0,0,0,1.25,1.21c.82.47,1.46.26,2.59-.2.43-.17.93-.38,1.54-.61a24.28,24.28,0,0,1,2.5-.76c.9-.23,1.6-.35,2.31-.48l.34-.06a26.27,26.27,0,0,0,3.39-.85,9.46,9.46,0,0,0,2.65-1.15,2.46,2.46,0,0,0,.87-1.09,3.84,3.84,0,0,0,.27-1.79,3.5,3.5,0,0,0-.53-1.62A2.18,2.18,0,0,0,36,71.4c-.31.34-.64.66-1,1a13.3,13.3,0,0,1-6.59,3.22h0a11.23,11.23,0,0,1-3.47.07c-.07.24-.14.49-.21.72s-.09.25-.13.37l-.15.34a2.72,2.72,0,0,1-.29.5,2.17,2.17,0,0,1-.24.29,1.4,1.4,0,0,1-1.38.47c-.81-.25-1.23-1.34-1.74-2.14-.08-.12-.17-.24-.26-.35a1.47,1.47,0,0,0-.46-.41,1.24,1.24,0,0,0-.18.14,1.38,1.38,0,0,0-.28.31,2,2,0,0,0-.2.44A3.72,3.72,0,0,0,19.65,78.75Z"/><path class="cls-5" d="M10.28,21.91c.7.33,1.29.6,1.57.7,1.27.45,1.38.41,2.85.92a14.13,14.13,0,0,0,3.53,1.14,8.13,8.13,0,0,0,1.9-.15c1.25-.19,3-.5,5.45-.85a17.34,17.34,0,0,1-9.37-1.55,31.39,31.39,0,0,0-4.32-2c-.27.35-.62.78-1,1.24Z"/><path class="cls-5" d="M13,18.4a7.19,7.19,0,0,1,2.34.06c1.62.31,2.76,1.12,2.91.91s-.45-.74-1.08-1.41c-.83-.88-1.11-1-1.18-1.34a1.06,1.06,0,0,1,0-.26,15.25,15.25,0,0,1,8.28-3.09,14.85,14.85,0,0,1,9,3.1,13.86,13.86,0,0,0-5.45-4.32A9.56,9.56,0,0,0,24,11.31c-3.41.07-6,2.27-8,4-.7.58-1.23,1.1-1.56,1.43l-.21.22h0l-.11.13-.14.16-.19.23-.27.35C13.27,18,13.14,18.2,13,18.4Z"/></g></g></g></svg>