<?xml version="1.0" encoding="utf-8"?>
<!-- Generator: Adobe Illustrator 25.0.1, SVG Export Plug-In . SVG Version: 6.00 Build 0)  -->
<svg version="1.1" id="Layer_1" xmlns="http://www.w3.org/2000/svg" xmlns:xlink="http://www.w3.org/1999/xlink" x="0px" y="0px"
	 viewBox="0 0 46.2 108.6" style="enable-background:new 0 0 46.2 108.6;" xml:space="preserve">
<style type="text/css">
	.st0{fill:#ADACAC;}
	.st1{fill:#BFBFBF;}
	.st2{fill:#F8F8F8;}
	.st3{fill:#B2B2B2;}
	.st4{fill:#9F9F9F;}
	.st5{fill:#DBDBDB;}
	.st6{fill:#FFFFFF;}
	.st7{fill:url(#SVGID_1_);}
	.st8{fill:#CCCCCC;}
	.st9{fill:#454545;}
	.st10{fill:#595857;}
	.st11{fill:#666666;}
	.st12{fill:#A3A09D;}
	.st13{fill:#A4A4A4;}
	.st14{fill:#C1BFBD;}
	.st15{fill:#8C8A85;}
	.st16{fill:#BDBDBD;}
	.st17{opacity:0.5;fill:#FFFFFF;}
	.st18{fill:#8E8D8D;}
</style>
<g>
	<g id="Layer_2_1_">
		<g id="_1April-Gandhi">
			<path class="st0" d="M14.2,34.4c-0.5-0.5-2.2-2.6-3.2-3.5c-0.2-0.2-0.7-1.8-1.2-2.4s-1.8-1.5-2.2-2s-0.8-1.1-1.3-1.8
				s-1.5-0.8-1.3,0.1c0.4,0.9,0.9,1.7,1.5,2.5c0.2,0.5-0.4,0.9-1.1,0.9c-0.7,0-1.3-0.1-1.9-0.3c-0.4-0.2-0.7-0.5-1.1-0.8
				c-0.6-0.4-1.3,0-0.5,0.7s1,1.2,1.3,1.3c0.4,0.1,0.8,0.2,1.1,0.4c0,0.1-0.9,0.2-1,0.2c-0.6-0.1-1.2-0.8-1.4-0.9
				c-0.6-0.2-0.7,0.7,0.5,1.5c-0.3,0.5,1,1.7,1.5,1.6c0,0.3,0.4,0.9,1.2,1.2s3.2,0.2,3.4,0.4C9.3,34.1,12.4,37.1,14.2,34.4z"/>
			<path class="st1" d="M4,31.9c0-0.1,0-0.2,0.1-0.3c0.1,0,0.1,0,0.2,0h0.1h0.1c0.2,0.1,0.4,0.2,0.6,0.3c0.2,0,0.4,0,0.6,0
				c0.2,0,0.4-0.1,0.6-0.1c-0.2,0.1-0.4,0.1-0.6,0.2H5.3C5.2,32,5.1,32,5,32c-0.2-0.1-0.4-0.2-0.6-0.3c0,0-0.1-0.1-0.1-0.1
				c0,0-0.1,0-0.1,0C4.1,31.6,4,31.8,4,31.9z"/>
			<path class="st1" d="M2.5,30.2c0-0.1,0-0.1,0.1-0.2c0-0.1,0.1-0.1,0.2-0.1c0.1,0,0.1,0,0.2,0.1l0.2,0.1c0.2,0.2,0.4,0.4,0.6,0.5
				c0.1,0.1,0.2,0.1,0.3,0.2c0.1,0,0.1,0,0.2,0h0.2c0.3,0,0.5-0.1,0.8-0.1c-0.3,0.1-0.5,0.1-0.8,0.2H4.2c-0.1,0-0.1,0-0.2,0
				c-0.1,0-0.2-0.1-0.4-0.2c-0.2-0.2-0.4-0.3-0.6-0.5L2.9,30c-0.1,0-0.1,0-0.2,0c-0.1,0-0.1,0-0.1,0.1C2.6,30.1,2.5,30.2,2.5,30.2z"
				/>
			<path class="st1" d="M8,31.5c-0.1-0.4-0.4-0.7-0.6-1c-0.1-0.2-0.3-0.3-0.4-0.4l-0.5-0.4c0.1,0,0.2,0.1,0.2,0.2
				C6.8,29.9,6.9,30,7,30c0.2,0.1,0.3,0.3,0.4,0.4c0.1,0.2,0.3,0.3,0.4,0.5C7.9,31.1,8,31.3,8,31.5z"/>
			<path class="st1" d="M9.4,30.1c-0.2,0-0.5,0-0.7,0c-0.2,0-0.5-0.1-0.7-0.2c-0.2-0.1-0.5-0.2-0.7-0.3c-0.2-0.1-0.4-0.3-0.6-0.5
				c0.2,0.2,0.4,0.3,0.6,0.4c0.2,0.1,0.4,0.2,0.7,0.3C8.2,30,8.5,30,8.7,30.1C9,30.1,9.2,30.1,9.4,30.1z"/>
			<path class="st0" d="M14.3,44.5c4.8,1.3,3.4-3.6,3-4.9s-3.2-5.4-4-6.4c-0.4,1.6-3.1,2.2-4.6,0.1C9.1,34.6,12.9,44.1,14.3,44.5z"
				/>
			<path class="st0" d="M26.1,20.4c0,0-2.8-0.7-4.2,0.8s-1.7,3.7-2.1,4.9c0,0-2.2,3.6-3.7,6.6c-0.7,1.5-1.3,5.6-1.6,6.5
				s0.3,3,2.7,1.4c0,0,3.2-4.4,3.8-5.4c1.5-2.4,3.1-4.6,4.9-6.7c0.6-0.7,0.5-1.8,0.9-3S29,21.5,26.1,20.4"/>
			<path class="st2" d="M19,26.6c0,0-4.5,8-4.6,8.3s1.7,3.6-2.9,10.7c0,0,0.5,2.1,1.8,1.6c3.7-1.2,3.7-3.9,4.3-4.1
				c1.2-0.6,2.3-1.5,3-2.6l2.1-6.8L19,26.6"/>
			<path class="st2" d="M11.8,39.3c0,0-1.8,6.4,1,8l1.6-4.6C13.1,41.9,12.1,40.7,11.8,39.3z"/>
			<path class="st3" d="M12,39.9c0.3,0.8,0.9,1.5,1.6,2c0,0-0.4,5.1-1.1,4.5S11.1,42.8,12,39.9z"/>
			<path class="st4" d="M14.7,36.6c0,0.2,0,0.3,0,0.5l0,0V36.6L14.7,36.6"/>
			<path class="st5" d="M14.8,35.7c0,0,2.2,1.9,5.4,5.1L20,41.3c-2.1-2.2-4-3.8-5.3-4.2c0-0.2,0-0.4,0-0.5
				C14.8,36.3,14.8,36,14.8,35.7"/>
			<path class="st0" d="M18.5,36.2l0.2,3.8l0,0l0.6,10.3c0.5,5.3,1,10.6,1.5,15.8h5.8l-0.8-16v-0.3l-0.1-2.4l0,0L25.4,43l-0.3-6.3
				L23,36.5h-0.1l-1.3-0.1h-0.2c-0.5,0-1-0.1-1.4-0.1l0,0C19.5,36.3,19,36.2,18.5,36.2z"/>
			<path class="st6" d="M0,67.5c0,9.1,1.3,21.4,1.6,24l4.3-0.1l3.8-0.1l3.3-0.1c0,0,0-0.1,0.1-0.1s0.1,0.5,0.3,1
				c0.1,0.3,0.3,0.6,0.6,0.9c5-0.4,7.7-0.4,9.4-0.4c0.5,0,1.9,0,3.6-0.2c1,0,2-0.2,3-0.5c0.7-0.8,2.8-22.5,2.8-22.5
				c0.2,0,0.5,0,0.8-0.1s0.7-0.1,1-0.2c2.6,0,5.2-1,7.1-2.8c0.2-0.2,0.4-0.4,0.5-0.6c1.3-1.7,1.8-3.8,1.5-6l-0.1-7.1v-3v-1.1
				c-3.6-3.6-7.9-6.4-12.7-8.1c-0.3-0.1-0.6-0.2-1-0.3c-1.4-0.4-2.8-0.8-4.2-1.1c-0.3-0.1-0.6-0.1-0.9-0.2l-1.2,15
				c-4.6,1.7-9.3,3.1-14.1,4.3c-3.3,0.8-6.2,1.4-8,3.7C0.4,63.5-0.1,65.5,0,67.5z"/>
			
				<linearGradient id="SVGID_1_" gradientUnits="userSpaceOnUse" x1="-1395.1702" y1="46.7899" x2="-1410.4701" y2="77.2499" gradientTransform="matrix(-1 0 0 -1 -1364.73 110)">
				<stop  offset="0" style="stop-color:#FFFFFF"/>
				<stop  offset="1" style="stop-color:#BDB595"/>
			</linearGradient>
			<path class="st7" d="M24.4,48c0.2,1.1,0.7,2.2,1.3,3.2c1.5,2.4,7.4,10.5,15.7,21.4c0.2-0.3,0.4-0.5,0.6-0.8
				c1.5-2.1,2.1-4.7,1.7-7.3l-0.1-8.7L29.1,44.7c-1.5-0.6-3-1-4.6-1.3C24.1,44.8,24,46.5,24.4,48z"/>
			<path class="st6" d="M18.7,39.8c-0.5-1.5-0.7-3.1-0.8-4.8c0.1-0.6,0.3-1.2,0.4-1.7c0.2-0.8,0.4-1.6,0.6-2.3
				c0.2-0.9,0.6-1.8,1.2-2.5c0.2-0.2,0.5-0.4,0.7-0.6l0,0c0.6-0.4,1.2-0.8,1.8-1.2c0.4-0.2,0.9-0.5,1.4-0.6l0.3,0.5
				c1.6,3,4.3,5.2,7.5,6.3c1.7,0.7,3.3,1.7,4.7,3c1.2,1.1,2.3,2.2,3.3,3.3c2.8,3.2,5.2,6.3,6.4,6.5c0,0.3,0,0.7,0,1
				c0,2.1-0.2,4.3-0.6,6.4c-0.4,1.5-0.7,3-0.7,4.6c0,2.1,0.4,2.6,0.3,3.9c-0.1,1.3-0.7,2.6-1.6,3.6c-0.3,0.4-0.6,0.7-1,1h-2l-1-1.3
				c-0.8-1.1-1.6-2.1-2.4-3c-1.7-2.1-3.7-4-5.8-5.7l-1-0.9c0,0-1.3-1.3-2.7-2.9C26.5,51,23,46.3,18.7,39.8z"/>
			<path class="st6" d="M26.6,41.6c0.1,1.1,1.2,1.7,1.5,2l2.3,2.4c5.6,5.6,10.3,9.8,7.2,9.3c-3.6-0.6-7.3-3.7-2.3,2.1
				c2.6,3,2.7,3.7,2.2,4.2l-0.1,0.1L37.2,62c0.8,0.9,1.6,1.9,2.4,3l1,1.3h2.1c0.4-0.3,0.7-0.6,1-1c0.9-1,1.4-2.3,1.6-3.6
				c0.1-1.2-0.3-1.8-0.3-3.9c0.1-1.6,0.3-3.1,0.7-4.6c0.5-2.1,0.7-4.2,0.6-6.4c0-0.3,0-0.6,0-1c-1.2-0.3-3.5-3.4-6.4-6.5
				c-1-1.2-2.2-2.3-3.3-3.3c0.9,2.7,1.7,4.9,2.3,6.8c1,3,1.6,5.2,2,6.8c0.3,1,0.5,2,0.5,3c0,0.3-0.1,0.4-0.2,0.5s-0.3,0-0.6-0.3
				c-0.4-0.4-0.7-0.8-1-1.3c-2.7-3.9-7.9-13.5-11-12.5C27.5,39.3,26.7,40.4,26.6,41.6z"/>
			<path class="st0" d="M29,14.8h6c-0.2,6.7,3.5,8.1,3.5,8.1c-2.8,3.6-8,4.2-11.6,1.4c-0.5-0.4-1-0.9-1.4-1.4
				C25.5,22.9,29.2,21.5,29,14.8z"/>
			<path class="st0" d="M26.3,9c0,0-0.8-1.9-1.8-1.3c-0.5,0.3,0,5.2,1.8,5c0,0,0.3-0.1,0.4-0.9L26.3,9"/>
			<path class="st8" d="M25,8.3c0.4,0,0.8,2.1,0.8,2.1c-0.2,0.5-0.4,0.5-0.1,0.7s0,0.8,0,0.8S25.7,12,25.7,12c-0.2,0-0.3-1-0.3-1.2
				s-0.2-0.3-0.2-0.3C24.6,10.1,25,8.3,25,8.3L25,8.3"/>
			<path class="st0" d="M38.3,9c0,0,0.8-1.9,1.8-1.3c0.5,0.3,0,5.2-1.8,5c0,0-0.3-0.1-0.3-0.9L38.3,9"/>
			<path class="st8" d="M39.2,8.3L39.2,8.3c0.1,0,0.6,1.9-0.1,2.3c0,0-0.4,0.1-0.4,0.4s-0.1,1.2-0.4,1.2c-0.1,0-0.1,0-0.2-0.1
				c0,0-0.3-0.6,0.1-0.9s0.1-0.2-0.2-0.7C37.9,10.5,38.5,8.2,39.2,8.3"/>
			<path class="st0" d="M33,18.7c1.5-1,2.9-2.2,4.1-3.5c0.9-1.2,1.5-6.8,1.6-7.7V7.3l0,0c0-0.2,0-0.4,0-0.6c0.2-3.6-2.5-6.6-6.1-6.8
				S26,2.4,25.8,6c0,0.2,0,0.5,0,0.7c0,0.2,0,0.5,0,0.7l0,0c0,0,0.6,6.4,1.6,7.8c1.2,1.3,2.6,2.5,4.1,3.5C32,18.9,32.6,18.9,33,18.7
				z"/>
			<path class="st8" d="M30.1,7.6c0.3,0.3,0.5,0.6,0.8,0.9c0.3,0.3,0.4,0.6,0.6,1C31.4,9,31.2,8.6,31,8.3c-0.2-0.3-0.4-0.7-0.7-1
				L30.1,7.6z"/>
			<path class="st9" d="M33.1,6.8c0,0,0.1,1,0.4,1C34.4,8,36,7,37.3,8.1c0,0-0.3-1.1-1-1.4S33.4,6.9,33.1,6.8z"/>
			<path class="st9" d="M31.1,6.8c0,0-0.1,1-0.4,1C29.8,8,28.2,7,26.9,8.1c0,0,0.3-1.1,1-1.4S30.8,6.9,31.1,6.8z"/>
			<path class="st8" d="M31.4,10.5c0,0,0.1,1.4,0,2.3c-0.1,0.4,0.1,0.7,0.5,0.8c-0.5,0.1-1-0.2-1.2-0.8
				C30.6,12.2,31.2,11.5,31.4,10.5z"/>
			<path class="st8" d="M32.4,13.5c0,0,1-0.3,0.8,0S32.4,13.5,32.4,13.5z"/>
			<path class="st8" d="M38.2,9.9c-0.3-0.1-0.5-0.1-0.8-0.2s-0.5-0.1-0.8-0.2c0.2,0.2,0.5,0.3,0.8,0.3C37.7,9.9,38,9.9,38.2,9.9z"/>
			<path class="st8" d="M37.7,10.1l-0.4-0.2c-0.1-0.1-0.3-0.1-0.4-0.2c0,0.1,0.1,0.1,0.2,0.2c0.1,0.1,0.1,0.1,0.2,0.1
				C37.4,10.1,37.5,10.1,37.7,10.1z"/>
			<path class="st8" d="M25.6,9.9c0.3,0,0.6,0,0.8-0.1c0.3-0.1,0.5-0.2,0.8-0.3c-0.3,0.1-0.5,0.1-0.8,0.2S25.9,9.8,25.6,9.9z"/>
			<path class="st8" d="M26.1,10.1c0.2,0,0.3,0,0.5-0.1c0.1,0,0.1-0.1,0.2-0.1c0.1-0.1,0.1-0.1,0.2-0.2c-0.2,0.1-0.3,0.1-0.4,0.2
				L26.1,10.1z"/>
			<path class="st10" d="M25,6V5.8V6z"/>
			<path class="st9" d="M33.4,9.2c0.1,0,0.3,0,0.4,0c0.2,0,1-0.6,1.5-0.4s0.8,0.5,0.9,0.5c0,0-0.4,0.2-0.6,0.1
				c-0.5-0.4-1.2-0.4-1.7-0.1C33.8,9.4,33.6,9.4,33.4,9.2z"/>
			<path class="st9" d="M30.5,9.2c-0.1,0-0.3,0-0.4,0c-0.2,0-1-0.6-1.6-0.4s-0.8,0.5-0.9,0.5c0,0,0.4,0.2,0.6,0.1
				c0.5-0.4,1.2-0.4,1.7-0.1C30.1,9.4,30.3,9.4,30.5,9.2z"/>
			<path class="st11" d="M29.1,14.4c0.2-0.2,0.4-0.3,0.7-0.4c0.5-0.2,1-0.2,1.5-0.2h1.2c0.5,0,1,0.1,1.5,0.2
				c0.2,0.1,0.5,0.2,0.7,0.4c0.2,0.2,0.3,0.4,0.3,0.7c0,0,0,0.1,0,0.1c0,0-0.1,0-0.1,0c-0.2,0-0.3-0.1-0.5-0.3
				c0,0.1-0.1,0.2-0.2,0.2c-0.1,0-0.2-0.1-0.3-0.2c0,0.1-0.1,0.2-0.2,0.2c-0.1-0.1-0.2-0.2-0.2-0.3c0,0.1-0.2,0.2-0.3,0.2
				c0,0,0,0,0,0c-0.1,0-0.2-0.1-0.3-0.2c0,0.1-0.1,0.2-0.2,0.2c-0.1,0-0.2-0.1-0.2-0.2c0,0.1-0.1,0.2-0.2,0.2
				c-0.1,0-0.2-0.1-0.2-0.2v-0.1c0,0,0,0,0,0.1c0,0.1-0.1,0.2-0.2,0.2c-0.1,0-0.2-0.1-0.2-0.2c0,0.1-0.1,0.2-0.2,0.2
				c-0.1,0-0.2-0.1-0.2-0.2c-0.1,0.1-0.2,0.2-0.3,0.2c-0.1,0-0.3,0-0.3-0.2c0,0,0,0,0,0c0,0.1-0.1,0.2-0.2,0.3
				c-0.1,0-0.3-0.1-0.2-0.2c-0.1,0.1-0.1,0.2-0.3,0.2c-0.1,0-0.3-0.1-0.2-0.2c-0.1,0.1-0.3,0.3-0.5,0.3c0,0-0.1,0-0.1,0
				c0,0,0-0.1,0-0.1C28.8,14.8,28.9,14.5,29.1,14.4z"/>
			<path class="st12" d="M22.7,24.9L22.7,24.9z"/>
			<path class="st0" d="M18,66.3c0,0,3.6,2.4,11,3.1c4.7,0.3,9.5-0.2,14.1-1.5c0,0-2.1-26.1,1.2-34.6c0-6.1-0.1-9.2-2.3-9.9
				c-1.7-0.5-3.4-1.1-5-1.8c-0.4-0.3-0.8-0.7-1.2-1.1c-0.7-0.5-0.5-1.1-2.1-1.1c-1.2-0.1-2.3,0.4-3.2,1.2c-0.2,0.2-0.8,0.6-0.8,1.1
				c-0.7,0.2-1.4,0.4-2.2,0.5c-1.6,0.2-3.9,0.7-4.6,2.6s-0.2,19.9-1.4,26.1S18,66.3,18,66.3z"/>
			<path class="st13" d="M40,33c0.8,2.5,1.2,5.2,1.3,7.8C41.2,44,40,44,40,44l-3.5-4.5C36.5,39.5,39.6,38.8,40,33z"/>
			<path class="st6" d="M17.6,36.2c0,0-2.9,0.1-1.9,5.2c0.8,4.2,3.6,14,4.4,15.2s6.4-9.4,3.8-12.9c-1.5-2.1-3.6-9.3-5.5-9
				S17.6,36.2,17.6,36.2z"/>
			<path class="st6" d="M16.5,67.8c1.6,0.9,1.7,9.9,4,13.1c1.6,2.2,4.2,2.1,7.3,4.3c1.7,1.2,3.2,2.8,4.4,4.5l0,0l0.3,0.5
				c5.2,7.7,12.7,5.4,13.4,5.5s-1.4-15.4-2.3-19.4c-0.2-0.8-0.3-1.5-0.4-2.3c-0.1-1.1-0.2-2.3-0.3-3.6c-0.3-5.1-0.5-11.3-0.9-13.3
				c-0.3-1.2-0.3-4.5-0.4-8.1l0,0c-0.1-1.8-0.2-2.5-0.3-4.2c-0.1-0.8-0.2-2.2-0.2-3.2c0-0.4-0.1-0.8-0.1-1.1l-0.1-0.6
				c-0.1-0.7-0.3-1.4-0.7-2.1c-0.1-0.3-0.3-0.5-0.6-0.7C37,35.5,28.7,20.1,28,20c-1.7-0.2-5-0.5-6.1,6c-0.8,4.3-4.3,7.1-4.8,8.6
				c1.3-0.5,3.9,0.9,4.5,3c0.4,1.2,0.5,2.4,0.4,3.7C20.9,51,15.4,67.2,16.5,67.8z"/>
			<path class="st14" d="M27.5,20.7c0-0.1-0.1-0.1-0.2-0.1s-0.1,0.2-0.1,0.3c0.2,1.3,0.6,2.5,1.2,3.7c0.1-0.4,0.2-0.8,0.1-1.1
				c0.5,0.5,1,1,1.5,1.5c0.1-0.5-0.9-1.6-1.1-2.1C28.4,22.1,28,21.4,27.5,20.7z"/>
			<path class="st14" d="M21,53.8c-0.5,0.1-1.6,4.1-1.7,4.6c-0.7,2.6-1.1,5.2-1.3,7.8c-0.1,1,0.5,2,0.9,0.6c0.3-1,0.4-2.2,0.6-3.2
				C19.5,62.9,20.9,53.8,21,53.8z"/>
			<path class="st14" d="M27.8,85.2c1.7,1.2,3.2,2.8,4.4,4.5C32,86.2,30.8,76.4,31.1,73c0.4-4-1.4-0.4-1.8,3.3
				C29,79.1,28.1,83.4,27.8,85.2z"/>
			<path class="st14" d="M34.9,54.5c0.5,4.6,3.6,11,6.3,15.5c0.8,1.3,1.4,2.6,2,4c-0.1-1.1-0.2-2.3-0.3-3.6
				c-1.4-2.8-3.1-7.6-4.8-14.2C36,48.3,34.5,49.9,34.9,54.5z"/>
			<path class="st14" d="M27,33.5c0,0,0.6,15.2,1.4,20.6s-3.6-5.7-3-10.3S26.3,29.3,27,33.5z"/>
			<path class="st14" d="M22,41.3c0,0,0.9-5.8,1.3-8.2s-0.4,0-1,1.9c-0.1,0.5-0.2,1-0.2,1.5c-0.1,0.5-0.1,1,0,1.4
				C22.2,39.1,22.2,40.2,22,41.3z"/>
			<path class="st14" d="M22.3,26.6c0,0,1.2-0.9,1.2,1.5S23.7,27,22.3,26.6z"/>
			<path class="st14" d="M26.2,33.2c0.1,0.1,2.6,5.7,6.1,8.9c2.1,1.8,4.7,15.1,5.2,15s-1.5-11.9-0.7-11.4s3.5,0.6,4.4,4.2
				c1,4.3,1.1,10.9,1.8,11.2s-0.3-12.9-0.3-12.9c0.6,0,1.1-0.1,1.6-0.4c-0.1-0.5-0.1-1-0.2-1.4S44,45.8,44,45.5
				c-0.2-0.9-0.4-1.9-0.8-2.7l-0.3-0.3l-2.1-1H40c0,0-5.9-8.9-6.9-10.1s3.3,7.5,3.9,8.5s-5.6-2-5.6-2L26.2,33.2z"/>
			<path class="st0" d="M24.5,26.9c0.3-0.2,0.5,0,0.5,0c0-0.3,0.1-0.6,0.4-0.7c0.1-0.1,0.3,0,0.4,0.1c0,0,0-0.6,0.4-0.7
				c0.5-0.2,0.6,0.5,0.6,0.5c0.1-0.2,0.3-0.3,0.5-0.2c0,0,0,0,0.1,0c0.3,0.2,0.4,1.6,0.6,2.7s0.5,2.8,1,4.7c0.3,0.6,0.6,1.1,1,1.6
				l0,0c1.1,1.3,2.3,2.5,3.6,3.5c1.9,1.4,4,2.5,6.3,3.2c0.8-4.6,0.5-9.3-1-13.8c-0.7-1.5,0.2-3,1.5-4.2c1.4-1.3,3.9,0.5,4.3,2.2
				c2,7,1.5,14.4-1.4,21.1c-5.4,1.3-11.3-4.8-14-7.9l0,0L29.1,39c-0.8-0.9-1.2-1.5-1.2-1.5c-0.6-0.7-1.2-1.6-1.6-2.3
				c-1.2-0.2-1.4-1.9-1.5-2.5s-0.3-3.1-0.3-3.5S24.2,27.2,24.5,26.9z"/>
			<path class="st15" d="M27.3,20.9c-0.5-0.1-1.1-0.1-1.6,0c-0.3,0.6,0,1.3,0.1,1.9c0.1,0.8,0.1,1.7,0.1,2.5c0,1.3,0.4,2.7,0.3,4
				c0.6,0,1.1,0,1.7,0.1c0.1-1.4,0-2.7-0.2-4.1C27.6,23.8,28.1,22.2,27.3,20.9C27.1,21,27.1,20.9,27.3,20.9z"/>
			<path class="st16" d="M28.4,28.5c0,0-0.1-0.4-0.5-0.3s-0.1,0.4-0.1,0.4L28.4,28.5z"/>
			<path class="st0" d="M28.1,29.2c0,0-0.2-0.8,0.3-0.8s0.5,1.3,0.7,2c0.2,0.5,0,1.1-0.4,1.4C28.4,31.9,28.1,29.2,28.1,29.2z"/>
			<path class="st16" d="M27.4,29L27.4,29C27.4,29,27.4,29,27.4,29C27.4,28.9,27.4,28.9,27.4,29l-0.1-0.2c0-0.1-0.1-0.9-0.2-1.4
				S26.7,26,26.7,26c0,0-0.1,0-0.1,0c0,0-0.1,0-0.1,0.1c0,0,0,0,0,0c0,0,0.3,1,0.4,1.5s0.2,1.4,0.2,1.4l0,0l0.1,0.1L27.4,29z"/>
			<path class="st16" d="M26.5,29.1L26.5,29.1C26.5,29.1,26.5,29,26.5,29.1l-0.1-0.2c0-0.1-0.1-1-0.2-1.3s-0.4-1.4-0.4-1.5
				c0,0-0.1,0-0.1,0c0,0-0.1,0-0.1,0.1s0.4,1,0.5,1.4s0.2,1.3,0.2,1.4l0,0l0.1,0.2C26.3,29.1,26.4,29.1,26.5,29.1
				C26.4,29.1,26.5,29.1,26.5,29.1z"/>
			<path class="st16" d="M25.6,29.3L25.6,29.3C25.6,29.3,25.6,29.3,25.6,29.3C25.6,29.2,25.6,29.2,25.6,29.3L25.5,29
				c0-0.1-0.1-1-0.2-1.3c-0.1-0.4-0.2-0.8-0.3-1.2c0,0-0.1,0-0.1,0s-0.1,0,0,0.1c0.1,0.4,0.3,0.8,0.4,1.2c0.1,0.4,0.2,1.3,0.2,1.3
				l0,0L25.6,29.3C25.5,29.3,25.6,29.3,25.6,29.3z"/>
			<path class="st16" d="M27.1,25.8c-0.1,0-0.2,0-0.3,0c0,0-0.1,0-0.1,0.1h0h0h0.1v-0.1v-0.1c0-0.1-0.1-0.1-0.1-0.2
				c-0.1-0.1-0.1-0.1-0.2-0.1c-0.1,0-0.2,0-0.2,0h0h-0.1c0,0-0.1,0-0.1,0.1c-0.1,0-0.1,0.1-0.1,0.1c0,0.1-0.1,0.1-0.1,0.2
				c0,0.1,0,0.1,0,0.2h0.1c0,0-0.1-0.1-0.1-0.1c-0.1,0-0.1,0-0.2,0c-0.1,0-0.2,0.1-0.3,0.1c0,0,0,0,0,0v0c0,0-0.1,0.1-0.1,0.1
				c0,0.1,0,0.2,0,0.3l0,0h0.1h-0.1c0,0-0.1,0-0.1,0c-0.1,0-0.1,0-0.2,0c-0.2,0-0.4,0.2-0.4,0.4c0,0,0,0,0,0.1c0,0,0,0,0,0.1v0
				c0,0.1,0,0.3,0,0.4l0,0.4c0.1,0.6,0.1,1.2,0.2,1.8l0.1,0.9c0,0.3,0.1,0.6,0.2,0.9c0,0.2,0.1,0.3,0.2,0.4c0.1,0.1,0.1,0.3,0.2,0.4
				c0.1,0.1,0.2,0.3,0.4,0.3c0.2,0.1,0.4,0.1,0.5,0.1c-0.1,0-0.2,0-0.3-0.1H26h-0.1h-0.1c-0.1-0.1-0.3-0.2-0.4-0.3
				c-0.1-0.1-0.2-0.3-0.2-0.4c-0.1-0.1-0.1-0.3-0.1-0.4c0-0.1,0-0.1,0-0.2v-0.2L25,30.6c0-0.3-0.1-0.6-0.1-0.9
				c-0.1-0.6-0.1-1.2-0.2-1.8c0-0.3-0.1-0.6-0.1-0.9c0-0.1,0-0.1,0-0.2c0-0.1,0.1-0.1,0.1-0.2c0.1-0.1,0.1-0.1,0.2-0.1
				c0.1,0,0.1,0,0.2,0H25c0,0,0,0,0,0l0,0c0-0.1,0-0.1,0-0.2l0.1-0.1c0,0,0,0,0,0l0,0c0.1,0,0.2-0.1,0.2-0.1h0.1l0.1,0.1l0,0
				c0,0,0.1,0,0.1,0l0,0c0-0.1,0-0.2,0.1-0.3c0,0,0.1-0.1,0.1-0.1H26H26c0.1,0,0.1,0,0.2,0c0.1,0,0.1,0,0.1,0.1c0,0,0.1,0.1,0.1,0.1
				c0,0,0,0.1,0,0.1v0.1c0,0,0.1,0,0.1,0l0,0l0,0l0,0l0,0c0,0,0.1-0.1,0.1-0.1c-0.1-0.2,0-0.4,0.2-0.4C27,25.7,27.1,25.7,27.1,25.8z
				"/>
			<path class="st16" d="M24.8,32.5L24.8,32.5c0.2-0.2,0.4-0.4,0.4-0.6c0,0,0-0.1-0.1-0.1c0,0-0.1,0-0.1,0.1
				C25,32.1,24.9,32.3,24.8,32.5C24.7,32.5,24.7,32.5,24.8,32.5L24.8,32.5z"/>
			<path class="st16" d="M24.5,29.5c0.1,0,0.1,0,0.2,0 M24.6,29.5C24.6,29.5,24.6,29.5,24.6,29.5c-0.2,0-0.3,0-0.4,0c0,0,0,0-0.1,0
				v0L24.6,29.5z"/>
			<path class="st16" d="M28,28.7c0.1,0.4,0.2,0.9,0.4,1.3c0.1,0.4,0.2,0.9,0.4,1.3c-0.1-0.4-0.2-0.9-0.3-1.3s-0.2-0.9-0.3-1.3
				C28.1,28.6,28.1,28.6,28,28.7C28,28.6,28,28.6,28,28.7C28,28.7,28,28.7,28,28.7z"/>
			<path class="st15" d="M27.7,34.2c0.4,4.7-0.4,9.6-0.1,14.3c0.2,5.5-0.6,11.1-0.1,16.6c0.9,11.3,1.1,22.6,0.5,33.9l-0.2,6.6
				c0,1.5,0.3,3.1-1.5,3c-0.6-3.2,0.1-7.1,0.1-10.4c0.1-5.2-0.3-10.4-0.1-15.6c0.4-11.2-0.4-22.4-0.6-33.6
				c-0.1-4.7,0.9-10.2-0.1-14.9C26.3,33.9,27,34,27.7,34.2z"/>
			<g>
				<path class="st17" d="M30.3,8.5l-0.1,0.2l-1.7,3l-0.1,0.2c-0.3-0.1-0.6-0.3-0.9-0.6l0.1-0.2l1.6-2.8l0.1-0.2
					C29.6,8.2,30,8.3,30.3,8.5z"/>
				<path class="st17" d="M30.7,8.9L30.6,9L29,11.8L28.9,12c-0.1,0-0.2,0-0.3,0l0.1-0.2l1.7-3l0.1-0.2C30.5,8.7,30.6,8.8,30.7,8.9z"
					/>
				<path class="st18" d="M30.7,8.9c-0.1-0.1-0.1-0.1-0.2-0.2c-0.1,0-0.1-0.1-0.2-0.1c-0.3-0.2-0.6-0.3-1-0.3c-0.1,0-0.1,0-0.2,0
					C27.9,8.2,27,9,27,10.1c0,0.5,0.2,0.9,0.5,1.3c0.2,0.2,0.5,0.4,0.9,0.6c0.1,0,0.1,0,0.2,0.1c0.1,0,0.2,0,0.3,0
					c0.1,0,0.1,0,0.2,0c1.2,0,2.1-0.9,2.1-1.9C31.2,9.6,31,9.2,30.7,8.9z M29.1,11.8c0,0-0.1,0-0.1,0c-0.1,0-0.2,0-0.3,0
					c-0.1,0-0.1,0-0.2-0.1c-0.3-0.1-0.6-0.3-0.9-0.6c-0.3-0.3-0.4-0.7-0.4-1.1c0-1,0.8-1.7,1.9-1.7c0,0,0.1,0,0.1,0
					c0.4,0,0.7,0.1,1,0.3c0.1,0,0.1,0.1,0.2,0.1C30.4,8.9,30.5,9,30.6,9c0.2,0.3,0.4,0.7,0.4,1.1C31,11.1,30.1,11.8,29.1,11.8z"/>
				<path class="st18" d="M33,10.4h-0.2c0-0.4-0.4-0.7-0.9-0.7c-0.5,0-0.9,0.4-0.9,0.7h-0.2c0-0.6,0.5-0.9,1.1-0.9
					C32.6,9.5,33,9.8,33,10.4z"/>
				<path class="st17" d="M33.7,8.5l0.1,0.2l1.7,3l0.1,0.2c0.3-0.1,0.6-0.3,0.9-0.6l-0.1-0.2l-1.6-2.8l-0.1-0.2
					C34.3,8.2,34,8.3,33.7,8.5z"/>
				<path class="st17" d="M33.3,8.9L33.4,9l1.6,2.8l0.1,0.2c0.1,0,0.2,0,0.3,0l-0.1-0.2l-1.7-3l-0.1-0.2C33.4,8.7,33.4,8.8,33.3,8.9
					z"/>
				<path class="st18" d="M32.8,10.1c0,1.1,0.9,1.9,2.1,1.9c0.1,0,0.1,0,0.2,0c0.1,0,0.2,0,0.3,0c0.1,0,0.1,0,0.2-0.1
					c0.3-0.1,0.6-0.3,0.9-0.6c0.3-0.3,0.5-0.8,0.5-1.3C37,9,36,8.2,34.9,8.2c-0.1,0-0.1,0-0.2,0c-0.4,0-0.7,0.2-1,0.3
					c-0.1,0-0.1,0.1-0.2,0.1c-0.1,0.1-0.2,0.1-0.2,0.2C33,9.2,32.8,9.6,32.8,10.1z M33,10.1c0-0.4,0.1-0.8,0.4-1.1
					c0.1-0.1,0.1-0.1,0.2-0.2c0.1,0,0.1-0.1,0.2-0.1c0.3-0.2,0.6-0.3,1-0.3c0,0,0.1,0,0.1,0c1,0,1.9,0.8,1.9,1.7
					c0,0.4-0.1,0.8-0.4,1.1c-0.2,0.3-0.5,0.5-0.9,0.6c-0.1,0-0.1,0-0.2,0.1c-0.1,0-0.2,0-0.3,0c0,0-0.1,0-0.1,0
					C33.8,11.8,33,11.1,33,10.1z"/>
			</g>
		</g>
	</g>
</g>
</svg>
