<svg xmlns="http://www.w3.org/2000/svg" viewBox="0 0 49.67 74.95"><defs><style>.cls-1{fill:#bbb;}.cls-2{fill:#fff;}.cls-3{fill:#cfcfcf;}.cls-4{fill:#929292;}.cls-5{fill:#e6e6e6;}</style></defs><g id="Layer_2" data-name="Layer 2"><g id="_1April-Crowd22" data-name="1April-Crowd22"><path class="cls-1" d="M24,21.86c-.62.28-6.17,9.87-7.27,11.12-2.89.81-6.07,1.29-10.25,3.45C4.05,37.67-.31,42,.44,43.8c1.84,4.5,6.53-1.13,7.65-2C10.52,39.9,10.87,38.86,13,39a14.62,14.62,0,0,0,12.09-5.28,39.7,39.7,0,0,0,4.31-8.21Z"/><path class="cls-2" d="M29.87,12.1c-1.07.11-2.43.47-4,2.65-1.33,1.81-6.92,14.53-9.36,18.42-1-.57-2.27-.31-1.91.45-2.39.1-8,.32-9.93.25.6,1,.51,5.41-.37,6.57a48.88,48.88,0,0,0,8.67,2c3.69.63,6.24.25,7.19-.48A59.89,59.89,0,0,0,31.87,28.74c.15-.17,3.49-13.17,3.53-13.19S29.87,12.1,29.87,12.1Z"/><path class="cls-2" d="M37.09,14.82l0,0h0Z"/><path class="cls-2" d="M37.09,14.82Z"/><path class="cls-2" d="M37.09,14.82Z"/><path class="cls-2" d="M46.59,61.37a22,22,0,0,0-2.58-7,4.35,4.35,0,0,1-.58-1.9A25,25,0,0,0,42.68,48l0,0S45.54,38,46.1,32.84s1.11-9.48-4.31-14.05l-3.88-3.28a4.39,4.39,0,0,0-2.1-1,5.64,5.64,0,0,0-3.82.42c-1.94,1.2-6.71,5.9-8.07,8.35a5.18,5.18,0,0,0-.29,5A4.62,4.62,0,0,1,24,31.62c-.31,1-1.52,2.76-1.87,4.15-.51,2.07-2.08,2.46-4.21,2.42-3.25-.06-7.28.67-11.1,1.14-3,.37-9.18,5.22-5.81,12.1l0,0a4.88,4.88,0,0,1,.31,4v0c-.67,1.83,3.37,6,8,7.37s8.07,5,12.91,10.06c2.52,2.65,5.13,2.45,6.75,1a4.48,4.48,0,0,1,3.74-1c5.61,1,9.2-.13,11.59-2.22C47.56,67.81,46.94,64.35,46.59,61.37Z"/><path class="cls-3" d="M35.6,54.48a27.13,27.13,0,0,1-11.33-.43C18.7,52.47,11.72,45.7,11.72,45.7a30.1,30.1,0,0,1,8.34,1.48c3.07,1.1,8.39,3.85,13.59,4.46a27.1,27.1,0,0,0,4.69.22Z"/><path class="cls-3" d="M20.18,67s5.28,2.82,9,3.56,10.07.23,10.07.23-5.65-1.09-9.73-2.15A78.5,78.5,0,0,0,20.18,67Z"/><path class="cls-3" d="M2.42,50.61s.42,3,4.23,6.25A37.11,37.11,0,0,0,14,61.76s-3.59-3.56-6.31-5.67A33.25,33.25,0,0,1,2.42,50.61Z"/><path class="cls-3" d="M18.59,63.28c.34.08,5.77-.59,9.86.2s10.05,1.6,10.05,1.6-7.14.25-10.53,0A65.63,65.63,0,0,1,18.59,63.28Z"/><path class="cls-3" d="M3.08,46.85c.53,2.38,2.47,5,5,7.31s4.73,4,4.73,4-2.37-3.17-5-6.21S3.08,46.85,3.08,46.85Z"/><path class="cls-4" d="M41.51,21a5.78,5.78,0,0,1-.37-1.83,12.82,12.82,0,0,1,1-4.22l-6.82.22a14.79,14.79,0,0,1-2.9,4.35,2.42,2.42,0,0,0,1.87,2.75C37.65,23.43,41.51,21,41.51,21Z"/><path class="cls-1" d="M34.49,4.12c-3.4,2.48-4.06,13,0,14.41,2.65.92,6.92-.83,9.14-5.36C45.54,9.37,40.91-.56,34.49,4.12Z"/><path class="cls-3" d="M27.82,32.72a5,5,0,0,0,2.51,3.81,7.42,7.42,0,0,0,4.73.51,16.83,16.83,0,0,1-4.5-1.79C29.25,34.25,29.31,33.24,27.82,32.72Z"/><path class="cls-1" d="M41.6,34.34c-.4.54-.52,11.62-.86,13.25-2.12,2.13-4.65,4.11-7.23,8C32,57.9,30.34,63.79,31.89,65c3.82,3,5.14-4.2,5.68-5.5,1.18-2.85,1-3.93,2.86-4.87A14.63,14.63,0,0,0,48.37,44.1a40,40,0,0,0-.28-9.27Z"/><path class="cls-2" d="M44.62,22.79c-3.5.4-4.85,5-5.44,9.62a32.05,32.05,0,0,0,.76,7.37,27.2,27.2,0,0,1,.75,5.64s-4,4.77-6.61,7.15a6.23,6.23,0,0,1,7.07,6.3,22.62,22.62,0,0,0,7.06-10.41c.52-1.62,1.54-13.56,1.46-16C49.5,27.47,47.48,23.3,44.62,22.79Z"/><path class="cls-2" d="M48.21,7.48C46.93,1.28,43.54-1.64,36.48.93c-4.17,1.52-4.72,3.53-5.21,5.15-.6,1.95-1,7.32-1.43,9.22-.05.25-2,3.29-2.52,6.31a5.4,5.4,0,0,0,2,5.34c3.81,3.28,10.84-3.53,15-3.73a2.87,2.87,0,0,1,2.4.82,6.13,6.13,0,0,0-.12-3.95,6.39,6.39,0,0,1,.57-4A16.39,16.39,0,0,0,48.21,7.48ZM41.12,16.4s-3.73,3.37-6.73,1.76c-1.56-.83-2.3-3.2-2.48-5.16a16.89,16.89,0,0,1,1.25-7.1s6.11-.34,7.55,4.34S41.12,16.4,41.12,16.4Z"/><path class="cls-5" d="M21.71,39.29a9.58,9.58,0,0,0,5.23,7c4.71,2.55,6.76,2.31,6.76,2.31a60.75,60.75,0,0,1-7.63-4.67A24.94,24.94,0,0,1,21.71,39.29Z"/></g></g></svg>