<svg xmlns="http://www.w3.org/2000/svg" viewBox="0 0 73.14 103.37"><defs><style>.cls-1{fill:#e6e6e6;}.cls-2{fill:#fff;}.cls-3{fill:#7c7c7c;}.cls-4{fill:#f9f9f9;}</style></defs><g id="Layer_2" data-name="Layer 2"><g id="_1April-Crowd10" data-name="1April-Crowd10"><path class="cls-1" d="M39.26,57.74C32,53.35,28.69,23.9,28.69,23.9L30,22.12S34.84,20,38.68,29c2.06,4.81,5.11,10.62,6.48,16.44.57,2.44-.8,4.73-1.79,6.44C42.16,54,42.35,59.61,39.26,57.74Z"/><path class="cls-2" d="M37.2,70.22a21.53,21.53,0,0,1-17,6.14A23.79,23.79,0,0,1,8.87,71.62c.63-4.4,1.07-8.93.74-11.47-1.18-9-2.93-23.62-2.62-26,.54-4,9.59-8.32,9.59-8.32s6.42-5,13.08-2.36c0,0,7.12,5.75,8,13.87.42,4-.63,17.74,1.52,25.33C39.55,64.12,37,67.7,37.2,70.22Z"/><path class="cls-2" d="M34.39,57.51s5.09.87,7,3.05,4.49-.11,6.58.49,2.75.53,5.22-.49,12.27,0,12.87,9.21c.21,3.34-1.56,6.37-4.45,9.14-1.29,1.24,1.32,5.43-1.43,6.62s-8.64,2.13-11.64,3.67c-6.13,3.14-7.9,9.65-12.55,11.35-3.83,1.39-6.46-2.56-8.23-.88C22,105.15,12.29,104.23,4.46,99S-.26,81.23,8.87,71.62,34.39,57.51,34.39,57.51Z"/><path class="cls-1" d="M26,24.93c.54-.28,2.46,2.06,3.3,4.08s-.06,4.27-3.3,5.1-6.94-1.66-8.89-3.32a43.91,43.91,0,0,1-3.48-3.35A40.35,40.35,0,0,1,20,24C22.7,23,26,24.93,26,24.93Z"/><path class="cls-3" d="M27.12,23.22l.43,6.26s-.06,1.63-2.69,2.5c-3.26,1.06-8.28-5.23-8.28-5.23l2.27-9.53Z"/><path class="cls-3" d="M18,18.82c2.24,3.65,7.35,5.72,9.61,6.08,3.38.55,7-6.16,5.39-13.7-.37-1.7-.46-3.39-1.22-4.52C27.37.16,20.23,3.54,17.88,6.54,16.05,8.87,15.49,14.71,18,18.82Z"/><path d="M18,21.91a3.32,3.32,0,0,0,1.22-2.84,4.35,4.35,0,0,1-.56-4.49A33.59,33.59,0,0,1,21.43,11s10.43-1.64,9.7-4.19-1.76-5.36-6.27-5.34A11.56,11.56,0,0,0,15.63,6c-2.5,3.19-1.19,5.64-.24,9A62.06,62.06,0,0,0,18,21.91Z"/><path class="cls-1" d="M40.52,64.42s-3,6-7.84,7.57-13.45,1.49-13.45,1.49.94-1.48,4-2,5.59.51,9.44-1.2S39.11,64.54,40.52,64.42Z"/><path class="cls-1" d="M36,65.06c-3.32,1-6.52,3.17-10.6,3.52s-8.82.37-8.82.37,5-1.89,8.28-2C28.69,66.94,33.4,64.42,36,65.06Z"/><path class="cls-1" d="M21.26,75S24.83,76.41,32,75s12.7-5.26,15.69-6.14S52,68.33,52,68.33a50.83,50.83,0,0,0-8.07,5.22A50.07,50.07,0,0,1,33.06,81c-3.51,1.58-10.33-.62-11.8-2.52A2.7,2.7,0,0,1,21.26,75Z"/><path class="cls-4" d="M32.68,9.47a17.25,17.25,0,0,0-10.35,3c-3.93,2.77-5.23,3.45-6,5.14C16,16.94,9.69,8.16,17.53,3.06s12.17-3,13.63.24A18.5,18.5,0,0,1,32.68,9.47Z"/><path class="cls-3" d="M61,57.21s7.81,1.44,10.61,4.53,1.17,5.43-.42,7.63-2.11,4-3.26,3.43-.25-2-.84-3.67-7-4.23-8.06-6.6S61,57.21,61,57.21Z"/><path class="cls-3" d="M23.47,75c.76.15,2.08,1.79,4.81,5.08,1.14,1.38,3.3,3.79,3.3,6.75s0,7.58-1.52,8.83-3.62.35-4.48-2.94-3.35-5.17-3.53-7.21-1.6-3.12-2.67-5.34S23.47,75,23.47,75Z"/><path class="cls-1" d="M41.63,45.39s2.19-2.15,3.23-1.07,3.12,1.6,3.69,2,1.39,2.71,2.52,3.27,9.66,6,11.39,6.86a22.91,22.91,0,0,1,3.36,2.06s-1.88.43-2.52,3.16a28.65,28.65,0,0,0-.75,4.63s-5.06-.11-7.29-1-14.58-6.11-16-7.54S41.63,45.39,41.63,45.39Z"/><path class="cls-1" d="M2.09,44.8c.63-7.93,2.31-12.32,6.33-13.3,2,.87,5.3,5.67,5.88,12.46.26,2.92.87,9.82,2,13.81.79,2.79,1.81,2.11,2.41,4,.25.8-.16,1.92.44,2.64s1.4,2.85,3.17,5.68c1.15,1.83,4.58,6.3,4.22,6.35a6.43,6.43,0,0,0-4.95,3.2c-.77,1.36-1.81,3.49-1.34,3.87,0,0-7-4.46-8.9-7.07a54.13,54.13,0,0,1-7.6-15.89A49.73,49.73,0,0,1,2.09,44.8Z"/><path class="cls-1" d="M27.47,32.1a40.83,40.83,0,0,1,3.61,8.67C32.17,45,32,55.15,32,55.15L29.5,56.44s.89-12.58-.89-17A52.68,52.68,0,0,0,25.4,32.7Z"/><path class="cls-1" d="M15.27,61.83a15.48,15.48,0,0,1-4.06.56,2.52,2.52,0,0,1-2-1.7,11.82,11.82,0,0,1,3.49,0A5.29,5.29,0,0,1,15.27,61.83Z"/><path class="cls-1" d="M16.58,64.28a14.37,14.37,0,0,1-3.29,3,5.06,5.06,0,0,1-2.59.44s1.5-1.26,2.92-2.32A5.91,5.91,0,0,1,16.58,64.28Z"/><path class="cls-1" d="M25.72,96.94a45.57,45.57,0,0,0-8-.3,16.81,16.81,0,0,1-7.25-1.5s2,2.71,6.69,3A24.39,24.39,0,0,0,25.72,96.94Z"/><path class="cls-1" d="M61.62,74.91A22.46,22.46,0,0,1,54,82.47c-5,2.82-9.37,5.89-9.37,5.89a59.12,59.12,0,0,1,8.37-7C57,78.76,61.62,74.91,61.62,74.91Z"/><path class="cls-1" d="M49.47,81.31c-.59.06-4.87,3.83-7.24,7A28.25,28.25,0,0,1,37,93.7s2.28-5.2,5.25-8.11A20.9,20.9,0,0,1,49.47,81.31Z"/></g></g></svg>