<svg xmlns="http://www.w3.org/2000/svg" viewBox="0 0 51.32 78.25"><defs><style>.cls-1{fill:#fff;}.cls-2{fill:#c1c1c1;}.cls-3{fill:#d4d4d4;}.cls-4{fill:#2d2d2d;}.cls-5{fill:#cfcfcf;}</style></defs><g id="Layer_2" data-name="Layer 2"><g id="_1April-Crowd20" data-name="1April-Crowd20"><path class="cls-1" d="M47.67,51.74s5,8.94,3.28,14.93c-.56,1.9-2.59,3.48-5.67,5.7-3.54,2.54-4.19,5-11.66,5.78-7.07.72-25.84-2.48-30.08-8.25C-.11,65,3.3,59.42,8.07,59.42c6.67,0,17.85-.16,17.72-.24Z"/><path class="cls-1" d="M37,19.45s3.58,0,4.93,1.16A18.27,18.27,0,0,1,47.36,32c.56,4.68-.63,9.07-.63,13.41s3.08,9,3.91,13.77c-2.1,4.12-8.12,4.91-12.78,5.78-6.73,1.26-13.52-1.9-15.3-4.91a6.46,6.46,0,0,1,.94-5.15c.85-1.24-1.09-10.39-1.1-15.11,0-4.46-.66-9.53,2.35-12.33a15.5,15.5,0,0,1,4.89-2.81A23.41,23.41,0,0,0,37,19.45Z"/><path class="cls-2" d="M37.87,14s-.44,6.05.69,7.37,0,2.58-2.8,3c-3.22.51-5.57,1-7.07,0,.44-.95.95-7.42.95-7.42Z"/><path class="cls-3" d="M38.06,16.68c-2.63,2.69-6.59,3.67-8.58,3.32-3.91-.69-6-10.67-.69-15.62a7.23,7.23,0,0,1,11.79,1.8C41.69,8.53,41,13.65,38.06,16.68Z"/><path class="cls-4" d="M30.45,8.76c.39,1.29.18,2-.53,3.43.13.42.79.65.79.65.87-1.24,2.5-1.93,3.11-.54s-.22,2.15-1.31,3.46c-.81,3.7,4.4,5.94,4.4,5.94a58.36,58.36,0,0,1,4.61-6.11c2.21-2.44,3-7.76-.29-10.21C40.39,1.49,36.76-.78,33,.67,31.23,1.33,26.73,7.18,30.45,8.76Z"/><path class="cls-3" d="M21.74,34S15.81,44.39,13.42,48.5,8,58,6.55,58.67C4.2,59.87-.07,59.62,0,63.28c.06,3.18-.17,6,1.45,5,.83-.49.84-2.85,1.32-3.53s2.81-.17,4.9-1c1.68-.66,1.53-1.35,3.22-3.91.84-1.28,3.48-2.38,5.52-5.21a166.54,166.54,0,0,0,11-17.45C28.68,34.5,21.74,34,21.74,34Z"/><path class="cls-1" d="M9,55.09c1-6,8.67-18,12.68-23.92,2.7-4,4.06-4.66,5.24-4.17,3.8,1.61,6.33,7.59,2.71,12.55-.73,1-6,8.42-10.78,14.38-1.64,2-3.66,4.77-5.42,5.46a6.7,6.7,0,0,1-3.1-1.22A3.52,3.52,0,0,1,9,55.09Z"/><path class="cls-1" d="M6.55,58.67c.44-1,1.69-2,2.46-3.58a3.52,3.52,0,0,0,1.33,3.08,6.7,6.7,0,0,0,3.1,1.22C12.34,61,12,62,11.58,62.31,8.91,62.7,6.55,60.68,6.55,58.67Z"/><path class="cls-5" d="M27.43,57.47a22.68,22.68,0,0,0,5.92,1c2.5-.08,5.21-.48,5.21-.48a6.7,6.7,0,0,1-5.21,2A10,10,0,0,1,27.43,57.47Z"/><path class="cls-5" d="M36.86,53a14.94,14.94,0,0,1-4.53,1.65,33.44,33.44,0,0,1-4.9.55A14.87,14.87,0,0,1,32.14,53,10.29,10.29,0,0,1,36.86,53Z"/><path class="cls-1" d="M28.47,22.23c1.5.39,7.61.69,8.44-.53.51-.77,1.11-1.63,1.11-1.63a5,5,0,0,1,1.6,2.49c.38,1.53-2.1,3.42-5,3.67a15.18,15.18,0,0,1-6.68-.85C27.91,25.22,27.58,22.71,28.47,22.23Z"/><path class="cls-5" d="M24.44,60.69s2.64,2.78,4.78,4.56,7.64,4.18,7.64,4.18a11.43,11.43,0,0,1-8.39-2.81C24.46,62.81,24.44,60.69,24.44,60.69Z"/><path class="cls-5" d="M23.37,61.49a32.7,32.7,0,0,0,.23,4.89A31,31,0,0,0,24.94,72a9.87,9.87,0,0,1-2.46-5.76C22.13,62.54,23.37,61.49,23.37,61.49Z"/><path class="cls-1" d="M40.53,16.74s-5.38,1.18-9.14-2.15c-5-4.41-4.5-8-4.5-8S29,1.39,33.91.15a7.3,7.3,0,0,1,6.26,1.91,13.27,13.27,0,0,1,4.06,7.06C44.8,12.71,40.53,16.74,40.53,16.74Z"/></g></g></svg>