<svg xmlns="http://www.w3.org/2000/svg" viewBox="0 0 70.32 94.45"><defs><style>.cls-1{fill:#fff;}.cls-2{fill:#f2f2f2;}.cls-3{fill:#eee;}.cls-4{fill:#7c7c7c;}.cls-5{fill:#afafaf;}</style></defs><g id="Layer_2" data-name="Layer 2"><g id="_1April-Crowd06" data-name="1April-Crowd06"><path class="cls-1" d="M21.68,55.62C20,55,12.86,55,7.66,59.55S0,65.28,0,65.28s7.11,6.9,12.31,9.65,7.24,4.62,10.83,6.95,8.13-5.23,9.5-8.08S21.68,55.62,21.68,55.62Z"/><path class="cls-1" d="M46.71,19.34s2.12-.52,5.15,2,4.17,13.26,6.45,18,2.92,8.29,3.74,12.84-2.75,8.29-2.92,8.61-8.91-2.27-9.58-5S46.71,19.34,46.71,19.34Z"/><path class="cls-1" d="M43.9,18.56s2.39-.28,5.88,5.46c2,3.26,3.56,11.38,3.63,18.72.06,5.81-1,6.54,1.63,12,1.29,2.66,8.11,7.08,13.29,16.26,3.33,5.89,2.3,11.3-1.78,13.89-2,1.28-8.46,1.1-12.57,3s-6.58,6.68-10.41,6.54C32.7,94,19.55,77.11,14,73.8c.12-10.13,11.14-7.1,11.14-7.1S22.08,62.63,21.54,54c-.43-7,1-18.67,2.16-26,.65-4,4.37-4.47,6-4.92C35.43,21.44,43.9,18.56,43.9,18.56Z"/><path class="cls-2" d="M49.18,86.55C45.68,89.64,40.07,89,40.07,89a101,101,0,0,0,9.18-5.15c3.82-2.65,8.62-1.53,8.62-1.53A22.56,22.56,0,0,0,49.18,86.55Z"/><path class="cls-2" d="M57.07,67c.14.59,1.32,8.55,0,10.67s-4.73-1.08-9.6-5.33A71.79,71.79,0,0,0,40.91,67s8.07,4.86,8.87,1.88a19.09,19.09,0,0,1,4.65-8Z"/><path class="cls-3" d="M31.82,18.56s-.44,1.08-1.3,2.79l-.85,1.72s5.09,10.17,11,8.5,6.59-6.59,5.69-9.65S31.82,18.56,31.82,18.56Z"/><path class="cls-4" d="M36.53,6.48A7.3,7.3,0,0,1,48.25,9.22c3.11,6.64-2.27,15.84-5.73,14.7-1.93-.63-6.12-3.15-7.58-6.66C33.3,13.31,34.61,8.27,36.53,6.48Z"/><path class="cls-1" d="M31.66,22c1.58,5.29,6.12,5.51,9.23,6.07S46,25,47.8,21.78c1.13-2,2.07-6.73,1.65-10.65A32.16,32.16,0,0,0,48.84,7a9,9,0,0,0-4.32-5.48C38.93-1.45,32.64.17,30.17,4.59,28.28,8,29.4,14.37,31.66,22Zm4.8-9.2c.13-2.88,3.89-4,6.81-4.51,3.47-.61,4.82,1.07,4.88,2.57a32.09,32.09,0,0,1-.32,6.82c-.85,3-2.42,6.77-6.14,5.45C37.46,21.56,36.17,19,36.46,12.75Z"/><path class="cls-1" d="M26.55,24.1a138.52,138.52,0,0,1,3.12,14.55c.69,5.55,0,11.07,1.67,13.35s5.25,5,6.85,6.37a50.71,50.71,0,0,1,4.11,4.56s-1.71.6-2.44,3.77l-.72,3.17a16.36,16.36,0,0,1-12.84-.49c-6.5-3.25-8.45-13.08-8.77-16.08s.81-14.44,2.11-20.38S23.38,24.1,26.55,24.1Z"/><path class="cls-1" d="M53.41,42.74s-2.64,6.63-2.9,10.19c-.43,6,2.56,8.78,2.56,8.78l3.29,1.54s5.82-1.51,5.81-5.73.38-10.7-3-13.15S53.41,42.74,53.41,42.74Z"/><path class="cls-5" d="M41.08,62.8s4,3.08,6.3,4.71a21.56,21.56,0,0,1,5.08,4.8c1.86,2.25,3,3.5.62,4.22-1.93.58-3.35-.43-5.59-1.76s-4.83-1.08-6.78-3.88l-1.94-2.8Z"/><path class="cls-3" d="M41.08,61.71l2.82,3a13,13,0,0,0-2.15,2.57,8.32,8.32,0,0,0-1.19,3l-2.56,0s-2.15-1.78-.52-5.39S41.08,61.71,41.08,61.71Z"/><path class="cls-4" d="M58.46,59.26S59,63,59.67,66.69a19.41,19.41,0,0,1,0,7.15c-.14,1.78-3,1.37-4.27-1.24s-2.86-9.35-2.17-12S58.46,59.26,58.46,59.26Z"/><path class="cls-3" d="M53.09,62.8c0-.3-1.7-3.83-1.7-3.83s.53-2.42,3.89-2.31,4.23,1.2,5.15,2.31.32,1.83.32,1.83l-1.69,2.45a4,4,0,0,0-3-1.55A3.83,3.83,0,0,0,53.09,62.8Z"/><path class="cls-2" d="M34.2,45s3.32,5.33,6.18,7.92S46,57.68,46,57.68a11.94,11.94,0,0,1-8.71-3.79A11.5,11.5,0,0,1,34.2,45Z"/><path class="cls-2" d="M30.41,82.07A123.18,123.18,0,0,0,18.5,74.93a43,43,0,0,1-9.22-6.1,66.2,66.2,0,0,1,10.36,3.59C23.58,74.37,29.27,80.52,30.41,82.07Z"/><path class="cls-2" d="M49,34s1.9,7.36-.78,11.59a32.11,32.11,0,0,1-4.29,5.76s1.24-3.3,2.81-7S49,34,49,34Z"/></g></g></svg>