<svg xmlns="http://www.w3.org/2000/svg" viewBox="0 0 62.2 99.63"><defs><style>.cls-1{fill:#e6e6e6;}.cls-2{fill:#fff;}.cls-3{fill:#737373;}.cls-4{fill:#7c7c7c;}.cls-5{fill:#e9e9e9;}.cls-6{fill:#f9f9f9;}</style></defs><g id="Layer_2" data-name="Layer 2"><g id="_1April-Crowd15" data-name="1April-Crowd15"><path class="cls-1" d="M32,99.14s-5.15,2.45-12.56-3.67S9,78.55,5.86,74.39,0,66,0,66s.62-5.58,8.33-7.29,8.19-.95,8.19-.95Z"/><path class="cls-1" d="M39.22,17.45c1.17.25,3.09,1.08,5.62,4.32s2.8,8.33,3.67,13.73,2.35,13.25,2.83,16.74a42.36,42.36,0,0,1,.47,4.6s-9.48,3.38-12.59-3-2.63-35.5-2.63-35.5Z"/><path class="cls-2" d="M37.76,19s2.37-.62,4.69,3.12c1.68,2.71,2.42,12.77.74,23.65-.45,2.89.89,9.58,2.74,11.22A58,58,0,0,1,56.49,69.91c3.31,5.39,5.71,7.71,5.71,13.84,0,2.52-4,5.57-7.46,6S44.42,92.63,42,95.16,32.51,101.8,26,97.41C22,94.66,12.88,74.18,12,68.19s2.63-15.1,2.84-19.49.74-13,.74-16.06c0-2.15-.63-4.25.93-6.17,2.72-3.34,8.71-6.09,11.86-7.47A12,12,0,0,1,37.76,19Z"/><path class="cls-1" d="M37.42,19.91a15.57,15.57,0,0,1,.77,4.86c-.08,2.4-.61,3.2-.77,3.45a2.12,2.12,0,0,1-2.7-.77,32.61,32.61,0,0,1-1.37-4.72Z"/><path class="cls-3" d="M27.16,13.85a51.48,51.48,0,0,1-.41,5.83A18.8,18.8,0,0,1,26,22.12s4.35,7.63,8.46,6.89,1.11-7.24,1.11-7.24l.06-6.26Z"/><path class="cls-4" d="M26.85,16.64c1.55,3.55,5.85,6,7.84,6.63,3.53,1.09,8.82-8.37,5.54-15a7.43,7.43,0,0,0-12-2.57C26.34,7.51,25.11,12.66,26.85,16.64Z"/><path class="cls-5" d="M49.23,72.17c-.16.41,0,6-2.09,8.28a9,9,0,0,1-4.69,2.63,14.58,14.58,0,0,0,3.12-7.72c.62-5,1.71-6,1.71-6Z"/><path d="M29.83,10.17v3.4s-2.08-1.74-2.73-.52-.52,2.16.44,3.81c.22,1.36-1.09,3.64-1.09,3.64s-1.08-5-1.83-7.52S29.83,10.17,29.83,10.17Z"/><path class="cls-6" d="M41.16,11.37A36,36,0,0,1,32,13.49,36.85,36.85,0,0,1,24.62,13a83.11,83.11,0,0,1-1.78-8.49C22.63,2.08,25.47.76,31.62.23c6.43-.54,8.25-.51,9,4.26A37.7,37.7,0,0,1,41.16,11.37Z"/><path class="cls-5" d="M30.24,64.36S34.38,68.14,37,71s3.5,3.5,4,5a13.51,13.51,0,0,1,.51,3.58,18.09,18.09,0,0,0-7.92-7.41C28.76,69.83,30.24,64.36,30.24,64.36Z"/><path class="cls-4" d="M49.93,63A50.84,50.84,0,0,0,52,69.17c1.32,3.15,2.83,7.85,2.56,10s-4.52,1.52-6.7-2.79-1.11-4.26-2-7.6a26.19,26.19,0,0,1-1-4.75S47.9,62.22,49.93,63Z"/><path class="cls-1" d="M46.37,45.53s3.5,1.14,4.12,3.29a27.77,27.77,0,0,1,1.32,8c-.15,2.33,0,10.29,0,10.29S49.31,65.71,48,66s-3.13,2.43-3.13,2.43-3.22-8-2.19-14.28a55.83,55.83,0,0,0,.61-8.6Z"/><path class="cls-4" d="M33.34,68.7s2.47,4.81,4,8.25a18.76,18.76,0,0,1,1.85,8c0,2-2.9,2-4.91,0s-1.42-3.32-2-4.54c-.86-1.92-2.26-3.83-3.64-6.84-1.28-2.81-1.38-2.63-1.38-2.63S30.92,68.48,33.34,68.7Z"/><path class="cls-1" d="M19.49,23.62s4.8,5.63,5.26,10.48-.25,10,.44,12.27S29.39,56.73,32,62.22A35.83,35.83,0,0,1,34.48,71s-2.48-1-7.29,3.43c-3.3-1.43-6.36-5.76-8-9.5A71.2,71.2,0,0,1,13,42.67C12.06,33.73,12.79,26,19.49,23.62Z"/><path class="cls-1" d="M26.15,19.14a17.35,17.35,0,0,0,3,5.52c1.58,1.76,3.06,2.58,5.94,1.81a3.49,3.49,0,0,0,2.66-3.6v4.58s-.67,2.95-5,2.94c-5.6,0-8.24-9.61-8.24-9.61Z"/><path class="cls-1" d="M36.36,27.94s.82,4.55,1.25,10.45.59,12,.59,12l-2.43.65a119.41,119.41,0,0,0-.59-13.5c-.38-3.16-1.54-9.1-1.54-9.1Z"/><path class="cls-5" d="M49.23,87.57s-4.33.19-9.29,4.05S31.88,94,31.88,94a39.75,39.75,0,0,0,8.06-4.61A10.64,10.64,0,0,1,49.23,87.57Z"/><path class="cls-5" d="M12.1,62.78a44.57,44.57,0,0,0,2.71,11.61c2.16,5.09,4.53,10,5.35,12a27.22,27.22,0,0,1,1.34,4.89A105.46,105.46,0,0,1,13.89,76C11.32,69,11.1,67.34,12.1,62.78Z"/></g></g></svg>