<svg xmlns="http://www.w3.org/2000/svg" viewBox="0 0 30.03 117.3"><defs><style>.cls-1{isolation:isolate;}.cls-2{fill:#e4e4e4;}.cls-3{fill:#eee;}.cls-4,.cls-7,.cls-8{fill:#b7b7b7;}.cls-5{fill:#a1a1a1;}.cls-6{fill:#cacaca;}.cls-7{opacity:0.68;}.cls-7,.cls-8,.cls-9{mix-blend-mode:multiply;}.cls-8{opacity:0.28;}.cls-9{fill:#d8d8d8;opacity:0.6;}.cls-10{fill:#e2e2e2;}.cls-11{fill:#f4f4f4;}.cls-12{fill:#9b9b9b;}</style></defs><g class="cls-1"><g id="Layer_2" data-name="Layer 2"><g id="_29March-IceCream-Hand" data-name="29March-IceCream-Hand"><path class="cls-2" d="M20.53,99.67s1-2.5-1-26.78c0,0-.74-12.67-.53-17.86l-8.46-.89L6,70.79,5.53,74S1.64,84,1.3,89.07c0,0,.12,3.15.36,4.38,0,0-1.25,10.39-1.64,14.45s6.78,9,8.13,9.4C8.15,117.3,20.63,114,20.53,99.67Z"/><path class="cls-3" d="M19.55,72.89S18.85,61,19,55.53c-2.56-.08-6.33-.19-8.79-.15L9.06,59.59a18.63,18.63,0,0,1,3,1.14c.26.3,2.65,3.46,2.91,3.63s3.33,5,3.33,5a1.59,1.59,0,0,1-.76.74c-.52.2-5.22-6.13-5.57-6.38s.18.31.18,1,6.15,10.41,6.15,10.92-1.88,1.28-2.22,1.62-.34,4.12.09,4.46a12.19,12.19,0,0,1,2.13,4.36c.18,1.28-.94,1.25-2,1.05s-3.17-2.25-3.85-2.55,4.79,8.17,5.05,8.85.68,3.35,0,3.9-2.77,3.7-3.18,4.05-2,6-2,6-2.88,3.24-3.62,3.5-7.25-3.5-7.25-3.5l-1-4.35C.33,104.94.13,106.7,0,107.9c-.4,4.06,6.78,9,8.13,9.4,0,0,12.48-3.28,12.38-17.63C20.53,99.67,21.54,97.17,19.55,72.89Z"/><path class="cls-2" d="M9,59l-.25-1,.61-4.42a17.59,17.59,0,0,1,10.71,1.29L19.77,60l-.44.72S16.65,59.66,9,59Z"/><path class="cls-4" d="M26,35.57,25.12,39l-1,3.82-.11.41-.67,2.62-.11.43-.16.64-.11.42-.29,1.13-.17.66-.59,2.32-.11.43-1,4-.11.42-.54,2.09L20,59,19.4,61.3l-.1.4-.13.52,0,.13a2.54,2.54,0,0,1-.16.38,2.7,2.7,0,0,1-4.61-.06,2.5,2.5,0,0,1-.15-.38.64.64,0,0,0,0-.07L14,61.63l-.1-.4-.53-2-.14-.57L13,57.38v0l-.26-1-.11-.42-1-4-.11-.43-.51-2-.17-.65-.37-1.43-.11-.43-.16-.63L10,45.83l-.66-2.58-.12-.48-.87-3.4L8.24,39l-.3-1.17h0l-.31-1.2L7.47,36l-.06-.23,0-.19Z"/><path class="cls-5" d="M26,35.57a.53.53,0,0,0-.2.39,11.58,11.58,0,0,1-.41,2.11h0q-.15.48-.33,1a14.14,14.14,0,0,1-1.46,2.81,21.25,21.25,0,0,1-3-1.71l.23-.3.2-.28c.23-.32.44-.64.64-1h0c.14-.23.27-.47.4-.7a12.9,12.9,0,0,0,1-2.31H21.89A11.81,11.81,0,0,1,20.74,38c-.14.22-.28.44-.43.66h0c-.19.27-.38.53-.59.79-.29-.23-.58-.46-.86-.71l-.59-.53c-.32-.3-.64-.61-.94-.93l.21-.24c.4-.49.79-1,1.15-1.51H17.35c-.24.32-.49.63-.74.94-.26-.31-.51-.62-.75-.94H14.52c.36.52.75,1,1.15,1.51l.21.24c-.34.35-.68.69-1,1-.16.15-.32.3-.49.44l-.86.71c-.21-.26-.41-.53-.6-.8h0l-.26-.4a11.75,11.75,0,0,1-1.31-2.72H10.2a13.37,13.37,0,0,0,1.13,2.64l.21.35h0c.2.33.41.66.63,1l.22.3.23.3a21.25,21.25,0,0,1-3,1.71c-.17-.25-.33-.51-.48-.77a13.42,13.42,0,0,1-.84-1.7l.87,3.4.12.48A20.69,20.69,0,0,0,10.82,45a5.55,5.55,0,0,0,.42.42l.33.33a11.07,11.07,0,0,1-1.47.5l.16.63.11.43a12.42,12.42,0,0,0,2.08-.77c.78.68,1.6,1.32,2.44,1.92l.37.25.36.25c-.65.38-1.31.72-2,1a15.48,15.48,0,0,1-1.6.61,16,16,0,0,1-1.13-1.21l.51,2,.11.43.18,0a31.33,31.33,0,0,0,3.18,2.57l.37.25.36.25c-.65.38-1.31.72-2,1-.31.14-.64.28-1,.39l.26,1,.34-.12a19.3,19.3,0,0,0,3.33-1.69,19.67,19.67,0,0,0,2.91,1.53l.42.17.35.13a27,27,0,0,1-3.65,2.81l-.74-.5a29.48,29.48,0,0,1-3-2.29l.32,1.23.14.57c.49.38,1,.75,1.48,1.11l.37.26.36.24c-.52.3-1,.58-1.58.84l.15.59,0,.06a2.26,2.26,0,0,0,.15.39,22.35,22.35,0,0,0,2.25-1.23A22.4,22.4,0,0,0,19,62.73a2.54,2.54,0,0,0,.16-.38l0-.13.13-.52c-.58-.28-1.14-.59-1.69-.92l.1-.06.25-.18c.69-.48,1.37-1,2-1.51l.14-.58.54-2.09a16.64,16.64,0,0,1-3.06-1.49l.1-.07.25-.17a31.84,31.84,0,0,0,3.53-2.82l.33.08.11-.43.59-2.32c-.33.4-.67.78-1,1.15l-.32.33A16.46,16.46,0,0,1,17.61,49l.1-.07.25-.17a30.79,30.79,0,0,0,2.8-2.17,12,12,0,0,0,2.22.8l.11-.42.16-.64a10.5,10.5,0,0,1-1.61-.54l.33-.32a19.9,19.9,0,0,0,2-2.24l.1.05.11-.41,1-3.82.24-.95h0L26,35.57Zm-9.34,7-.22-.18a18.8,18.8,0,0,1-2.2-2.08l.24-.19.5-.41c.33-.29.66-.58,1-.89s.34-.32.5-.49l.21-.21.19.2.51.51c.32.3.64.6,1,.88l.49.41.24.19a20.44,20.44,0,0,1-2.19,2.08Zm-6.06,0A21.88,21.88,0,0,0,13.31,41,20.83,20.83,0,0,0,15.45,43l.17.14.11.09a20.93,20.93,0,0,1-3.11,2,19.83,19.83,0,0,1-2.32-2.53Zm6.09,11.65-.74-.5a30.15,30.15,0,0,1-3-2.32l.36-.13a19.35,19.35,0,0,0,3.33-1.7,19.72,19.72,0,0,0,2.91,1.54l.42.17.35.13A27,27,0,0,1,16.64,54.26Zm0-5.91-.74-.5c-.83-.57-1.64-1.18-2.41-1.83l.32-.18a25,25,0,0,0,2.8-1.9,25.21,25.21,0,0,0,2.81,1.91l.32.18A28.11,28.11,0,0,1,16.64,48.35Zm4.85-4c-.29.3-.59.59-.9.89a21.82,21.82,0,0,1-3.11-2l.11-.09.17-.14A20.83,20.83,0,0,0,19.9,41a22.61,22.61,0,0,0,2.76,1.65l.25.12A17.15,17.15,0,0,1,21.49,44.38ZM7.46,36a.42.42,0,0,0,0-.2l.06.23Z"/><path class="cls-6" d="M25.74,35.57a11.23,11.23,0,0,1-.56,2.52h0c-.11.33-.23.66-.37,1a14.51,14.51,0,0,1-1.26,2.32,20.47,20.47,0,0,1-2.73-1.56l-.23-.16.07-.09c.25-.32.48-.64.7-1s.29-.46.43-.7a12.38,12.38,0,0,0,1.07-2.34H21.73a11.92,11.92,0,0,1-1.31,2.5c-.14.22-.3.44-.46.65h0l-.24.31-.35-.27h0l-.63-.54c-.42-.36-.82-.75-1.2-1.14l-.21-.22c.36-.41.7-.85,1-1.29H17l-.39.48-.4-.48H14.85c.33.44.67.88,1,1.29l-.21.22c-.42.44-.87.86-1.33,1.26l-.49.41h0l-.36.28a3.92,3.92,0,0,1-.25-.32h0l-.3-.41a12,12,0,0,1-1.46-2.73H10.35a12.69,12.69,0,0,0,1.26,2.66l.23.36h0a11.4,11.4,0,0,0,.7,1,.44.44,0,0,0,.08.11l-.23.16a20.47,20.47,0,0,1-2.73,1.56c-.17-.25-.33-.51-.48-.77A13.7,13.7,0,0,1,8.39,39c-.14-.32-.26-.64-.37-1H8c0-.08,0-.15-.07-.22h0a11.72,11.72,0,0,1-.31-1.2c-.07-.35-.12-.7-.16-1.06H7.36l0,.19.06.23a11.46,11.46,0,0,0,.34,1.84l.06.21h0a9.82,9.82,0,0,0,.32,1c.05.13.09.25.15.37l.87,3.4.08,0a18.89,18.89,0,0,0,1.53,1.82c.24.25.49.5.75.74l-.33.13a9.55,9.55,0,0,1-1.25.4l.11.43.16.63a12.76,12.76,0,0,0,2.19-.79c.78.68,1.6,1.31,2.44,1.91.24.18.49.34.73.51l-.36.2a17.58,17.58,0,0,1-1.62.82,13.55,13.55,0,0,1-1.6.62c-.46-.45-.89-.92-1.3-1.41l.17.65.51,2,.29-.07a30,30,0,0,0,3.18,2.57c.24.18.49.34.73.51l-.36.2a17.58,17.58,0,0,1-1.62.82c-.35.16-.71.31-1.07.44l.11.41.26,1h0l0,0,.32,1.23c.53.43,1.07.83,1.62,1.22.24.18.49.34.73.51l-.36.21c-.44.24-.88.46-1.32.68l.1.4.15.59,0,.06a21.47,21.47,0,0,0,2.4-1.3,19.78,19.78,0,0,0,2.52,1.37l0-.13.13-.52.1-.4c-.49-.24-1-.49-1.44-.76l-.35-.21.1-.07c.83-.57,1.64-1.17,2.42-1.81l.54-2.09.11-.41A16.45,16.45,0,0,1,18,54.63l-.35-.21.1-.07a31.82,31.82,0,0,0,3.78-3l.44.1.59-2.32.17-.66c-.38.47-.78.93-1.2,1.36-.1.11-.21.22-.32.32A15.62,15.62,0,0,1,18,48.72l-.35-.21.1-.07a34.26,34.26,0,0,0,3.05-2.34,12.45,12.45,0,0,0,2.33.83l.16-.64.11-.43A10.12,10.12,0,0,1,22,45.43l-.33-.13a20.62,20.62,0,0,0,2.29-2.56l.21.09,1-3.82.24-.95h0L26,35.57ZM15.43,38.81l.51-.47.67-.67.62.63.56.52c.33.3.67.59,1,.87l.2.17-.24.26a20.91,20.91,0,0,1-2,1.82l-.22.18-.22-.18a19.83,19.83,0,0,1-2-1.82c-.08-.09-.17-.17-.24-.26l.21-.17C14.75,39.41,15.09,39.12,15.43,38.81Zm-2.12,1.7a20.78,20.78,0,0,0,2.31,2.19l.11.1-.28.22a21.79,21.79,0,0,1-2.83,1.79,21.48,21.48,0,0,1-2.07-2.2l-.25-.33A22.61,22.61,0,0,0,13.31,40.51Zm6.63,16.72a28.8,28.8,0,0,1-3.3,2.49l-.74-.5c-.9-.62-1.78-1.29-2.62-2l-.36-.32a18.92,18.92,0,0,0,3.69-1.83,20.72,20.72,0,0,0,2.91,1.54c.26.11.51.21.77.3Zm0-5.91a28.8,28.8,0,0,1-3.3,2.49l-.74-.5c-.9-.62-1.78-1.29-2.62-2L12.92,51a19.5,19.5,0,0,0,3.69-1.83,19.72,19.72,0,0,0,2.91,1.54c.26.11.51.21.77.3Zm-.52-5.47a26.54,26.54,0,0,1-2.78,2l-.74-.5c-.71-.49-1.41-1-2.09-1.56l-.32-.27a24.89,24.89,0,0,0,3.12-2.08,24.35,24.35,0,0,0,3.13,2.09Zm3.24-3.24q-.56.69-1.17,1.32c-.29.3-.59.59-.9.88A21.79,21.79,0,0,1,17.76,43l-.28-.22.11-.1a20.78,20.78,0,0,0,2.31-2.19,22.61,22.61,0,0,0,3,1.77Z"/><path class="cls-7" d="M26,35.57,25.12,39,25,39l-.2,0c-1.25.2-2.52.37-3.79.48l-.36,0c-.61.05-1.23.09-1.84.11l-.53,0q-1.68.06-3.36,0l-.53,0c-.62,0-1.24-.07-1.86-.13l-.37,0c-1.26-.11-2.53-.28-3.78-.49l-.15,0H8.19a11.5,11.5,0,0,1-.72-3l-.06-.23,0-.19Z"/><path class="cls-4" d="M28.21,29.74l-.66,4.79-.21,1.52A2.24,2.24,0,0,1,27,37a1.7,1.7,0,0,1-.15.22,1.9,1.9,0,0,1-.19.21,2.25,2.25,0,0,1-.52.4l-.3.14h0a1.89,1.89,0,0,1-.34.09l-.13,0h0l-.16,0c-.62.11-1.25.21-1.88.3l-.55.07-1.09.12-.3,0-.81.07-.24,0-.35,0-.59,0-.48,0h0l-1.07,0H15.43l-1.08,0-.5,0-.61,0-.35,0h0l-.63-.06-.42,0-.3,0-.93-.1-.55-.07c-.68-.1-1.36-.2-2-.32H8l-.13,0h0L7.7,38l-.09,0-.08,0h0l-.08,0-.13-.06,0,0-.09,0A2.42,2.42,0,0,1,6,36.05c-.07-.52-.15-1-.22-1.55-.22-1.59-.43-3.17-.65-4.76a1.73,1.73,0,0,1,0-.76,1.18,1.18,0,0,1,.07-.2l0-.07,0-.06,0-.06,0-.06,0-.06,0,0h0l0-.05,0-.05.11-.09.06,0,.06,0,.06,0,.06,0H6l.2-.07.07,0h.08l.07,0a1.48,1.48,0,0,1,.42,0A.69.69,0,0,1,7,28a49.66,49.66,0,0,0,19.36,0A1.49,1.49,0,0,1,28.21,29.74Z"/><path class="cls-8" d="M28.21,29.74l-.66,4.79-.21,1.52A2.24,2.24,0,0,1,27,37l-.15.22-.19.21a2.25,2.25,0,0,1-.52.4l-.3.14h0a1.89,1.89,0,0,1-.34.09l-.13,0h0l-.16,0c-.62.12-1.25.21-1.88.3l-.55.07-1.09.12-.3,0-.81.07-.24,0-.35,0-.59,0-.48,0h0l-1.07,0H15.43l-1.08,0-.5,0-.61,0-.35,0h0l-.63-.06-.42,0-.3,0-.2,0-.73-.08-.55-.07c-.68-.09-1.36-.2-2-.32H8l-.13,0h0L7.7,38l-.09,0-.08,0h0l-.08,0-.13-.06,0,0-.09,0-.09-.06.72.11.13,0H8c1.12.16,2.25.28,3.38.36l.28,0,1,.06h.31l1.4,0H16.8l.43,0,1,0,.47,0q.84-.06,1.68-.15l.32,0,1.05-.13.27,0,1.43-.22a2.17,2.17,0,0,0,1.77-1.72l.06-.37c0-.22.06-.44.1-.66.22-1.47.44-2.94.67-4.41A1.37,1.37,0,0,0,24.33,29,51.93,51.93,0,0,1,5.89,29a2,2,0,0,0-.69,0h0a1.19,1.19,0,0,1,.08-.2l0-.07,0-.06,0-.06,0-.06,0-.06,0,0h0l0-.05,0-.05.11-.09.06,0,.06,0,.06,0,.06,0H6l.2-.07.07,0h.08l.07,0H6.8A.69.69,0,0,1,7,28a49.66,49.66,0,0,0,19.36,0A1.49,1.49,0,0,1,28.21,29.74Z"/><path class="cls-9" d="M28.21,29.74l-.66,4.79a1.14,1.14,0,0,1-.18.3,1,1,0,0,1-.39.3,1.67,1.67,0,0,1-.3.08h-.24a1.57,1.57,0,0,1-.37,0,3,3,0,0,1-.65-.26c-.22-.1-.43-.22-.65-.31l-.3-.12a4,4,0,0,0-.66-.16,4.07,4.07,0,0,0-.59-.06h-.09a2.14,2.14,0,0,0-.75.12.76.76,0,0,0-.18.09,1.32,1.32,0,0,0-.2.12l-.16.1-.15.1a4,4,0,0,1-3.46.32,5.12,5.12,0,0,1-.62-.31,7.85,7.85,0,0,0-1.2-.73h0A3.68,3.68,0,0,0,15,33.94a4.92,4.92,0,0,0-1.87.33,2,2,0,0,0-.44.27,6.4,6.4,0,0,1-.51.4A1,1,0,0,1,12,35l0,0-.1,0a2.09,2.09,0,0,1-.65-.07L11,35h-.11c-1.09-.15-2.21.31-3.31.19A4.47,4.47,0,0,1,5.8,34.5c-.22-1.59-.43-3.17-.65-4.76a1.73,1.73,0,0,1,0-.76h0a1.19,1.19,0,0,1,.08-.2l0-.07,0-.06,0-.06,0-.06,0-.06,0,0h0l0-.05,0-.05.11-.09.06,0,.06,0,.06,0,.06,0H6l.2-.07.07,0h.08l.07,0H6.8A.69.69,0,0,1,7,28a49.66,49.66,0,0,0,19.36,0A1.49,1.49,0,0,1,28.21,29.74Z"/><path class="cls-3" d="M30,30.09a1.45,1.45,0,0,1-.51,1.09,2.41,2.41,0,0,1-.36.29,5,5,0,0,0-1.1.84,1.34,1.34,0,0,0-.16.23,7.74,7.74,0,0,1-.53,1.17A1,1,0,0,1,27,34a1.11,1.11,0,0,1-.3.08h-.06a1.71,1.71,0,0,1-.55-.05,7.89,7.89,0,0,1-1.3-.57,4.26,4.26,0,0,0-1.64-.34,2.14,2.14,0,0,0-.75.12l-.18.09-.2.12-.16.1-.15.1a3.92,3.92,0,0,1-3.46.32,3.26,3.26,0,0,1-.62-.31,7.78,7.78,0,0,0-1.2-.72h0A3.68,3.68,0,0,0,15,32.81a5.12,5.12,0,0,0-1.87.33,2,2,0,0,0-.44.27,6.4,6.4,0,0,1-.51.4.65.65,0,0,1-.17.08l-.05,0a2.13,2.13,0,0,1-.9-.07l-.11,0h0c-1.09-.15-2.21.31-3.31.2A6.28,6.28,0,0,1,4.78,32.7,3.08,3.08,0,0,1,3.38,31a2.36,2.36,0,0,1,.8-2.23,1,1,0,0,0,.31-.38,1,1,0,0,0,0-.42v0a6.93,6.93,0,0,1-.2-1.86s0-.06,0-.09h0A1.58,1.58,0,0,1,5,24.86a.76.76,0,0,1,.34-.11c.42,0,.76.27,1.15.37a1.28,1.28,0,0,0,.27.05,1.41,1.41,0,0,0,.29,0H7c.22,0,.44-.08.69-.11a6.75,6.75,0,0,1,1.73.24,1.22,1.22,0,0,0,.33,0,1.27,1.27,0,0,0,.28,0c.59-.07,1.18-.31,1.76-.39a15.6,15.6,0,0,1,1.93-.1h.86a7.29,7.29,0,0,1,2.41.3c.26.09.52.21.78.32h0l.05,0a3,3,0,0,0,.5.17l.1,0a4.88,4.88,0,0,0,2.67-.49h0l.53-.18h0a5,5,0,0,1,1.05-.24,13.76,13.76,0,0,1,2.12.11h.57a3.65,3.65,0,0,1,2.05.08,1.15,1.15,0,0,1,.26.19,3,3,0,0,1,.78,1.48l.09.35c.08.32.17.65.28,1a3.14,3.14,0,0,0,.3.64C29.48,29.05,30,29.47,30,30.09Z"/><path class="cls-10" d="M26.62,34.09a1.71,1.71,0,0,1-.55-.05,8.38,8.38,0,0,1-1.31-.57,4.18,4.18,0,0,0-1.63-.34,2.14,2.14,0,0,0-.75.12l-.18.09-.2.12L21.58,33l.17-.08c.3-.1.67,0,.86-.32a.94.94,0,0,0,.12-.38,3.72,3.72,0,0,0-.32-2.06,7.08,7.08,0,0,0-.65-1,3.66,3.66,0,0,1-.37-.49c-.05-.11,0-.2.13-.19s.77.59,1,.75a20.48,20.48,0,0,1,1.92,1.7A11.36,11.36,0,0,1,26,32.86.61.61,0,0,1,26,33l0,0A8.8,8.8,0,0,1,26.62,34.09Z"/><path class="cls-11" d="M11.93,33.91a2.13,2.13,0,0,1-.9-.07l-.11,0h0l-.53-.25c-.36-.17-.73-.36-1.1-.58l-.57-.34c-.19-.12-.38-.24-.57-.38C7.77,32,7.4,31.73,7,31.42a10.69,10.69,0,0,1-1-1c-.16-.18-.32-.36-.46-.55s-.28-.4-.4-.59a7.69,7.69,0,0,1-.62-1.21.69.69,0,0,0,0-.13,6.93,6.93,0,0,1-.2-1.86s0-.06,0-.09c0,.25.11.52.19.8a7.72,7.72,0,0,0,.42,1.08A8.06,8.06,0,0,0,5.53,29a3.16,3.16,0,0,0,.2.27c.06.09.13.17.2.26l.44.51a12.61,12.61,0,0,0,1,.94c.35.29.71.57,1.07.83l.55.39.54.36,1,.64,1,.53Z"/><path class="cls-11" d="M18.23,34a3.26,3.26,0,0,1-.62-.31,7.78,7.78,0,0,0-1.2-.72h0l-.6-.49c-.36-.31-.73-.62-1.1-1s-.74-.68-1.1-1-.72-.74-1.06-1.11-.67-.76-1-1.14-.54-.68-.77-1a1,1,0,0,1-.08-.11A8.74,8.74,0,0,1,10.07,26a4.6,4.6,0,0,1-.3-.64,1.27,1.27,0,0,0,.28,0l.28.48c.21.32.45.66.71,1l.32.39c.18.22.37.43.57.66s.32.36.48.54l.5.54c.35.37.7.73,1.06,1.08s.71.71,1.08,1.05.71.68,1.06,1c.7.64,1.35,1.23,1.9,1.75Z"/><path class="cls-10" d="M16.51,26.44a2.48,2.48,0,0,0,0,1.24,3.91,3.91,0,0,0,.26.75h0c.11.24.23.47.36.7a15.69,15.69,0,0,1-2.44-2.81c-.28-.41-.54-.84-.79-1.29a.94.94,0,0,1-.1-.23h.82a7.29,7.29,0,0,1,2.41.3c.26.09.52.21.78.32h0l.05,0s0,0,0,.06l0,.09a1.05,1.05,0,0,0-1.24.52A2.22,2.22,0,0,0,16.51,26.44Z"/><path class="cls-11" d="M22.2,33.34l-.2.12-.16.1-.3-.24-1.08-.89c-.37-.32-.76-.63-1.15-1l-1.18-1L17,29.4c-.38-.35-.74-.73-1.08-1.1A13.4,13.4,0,0,1,15,27.17a9.75,9.75,0,0,1-.54-.83l-.16-.3c-.1-.18-.19-.35-.27-.53s-.14-.35-.2-.51l-.06-.2H14s0,.07,0,.11a6.73,6.73,0,0,0,.54.94,5.53,5.53,0,0,0,.32.46c.13.18.28.37.43.56.28.35.6.69.94,1,.17.18.35.35.53.52h0l.55.51q.57.52,1.17,1l1.16,1c.39.34.76.68,1.12,1l1,.92a.08.08,0,0,1,0,0Z"/><path class="cls-11" d="M27,34a1.11,1.11,0,0,1-.3.08h0L26.61,34a10.67,10.67,0,0,0-.56-1l0,0a.61.61,0,0,0-.07-.1,5.44,5.44,0,0,0-.39-.55L25.35,32l-.24-.26a12.8,12.8,0,0,0-1.06-1c-.37-.33-.77-.65-1.17-1s-.8-.63-1.2-.93l-.29-.22L20.51,28l-.57-.46-.5-.43c-.17-.14-.33-.29-.48-.43l-.44-.43q-.37-.36-.66-.69l-.06-.09.05,0a3,3,0,0,0,.5.17l.36.31c.3.24.62.5,1,.76s.55.42.85.63l.25.19c.38.28.79.56,1.19.86s.82.6,1.23.92.8.65,1.18,1a10.1,10.1,0,0,1,1.08,1.09l.24.29.21.3c.14.21.27.41.39.61.23.41.42.81.59,1.19Z"/><path class="cls-11" d="M28.85,27.91c-.15-.13-.31-.26-.48-.38L27,26.48c-.15-.1-.29-.21-.42-.31L26.32,26l-.58-.43c-.36-.27-.66-.51-.86-.67l-.06,0h.26c.22.1.5.23.82.4l.63.35.28.16.41.25.72.47.63.46C28.65,27.27,28.74,27.6,28.85,27.91Z"/><path class="cls-10" d="M13.1,33.14a2,2,0,0,0-.44.27,6.4,6.4,0,0,1-.51.4L12,33.73a17.18,17.18,0,0,1-4.43-6c-.13-.27-.26-.55-.37-.84a8.87,8.87,0,0,1-.5-1.71,1.41,1.41,0,0,0,.29,0H7a15.39,15.39,0,0,0,.85,2A15.34,15.34,0,0,0,13.1,33.14Z"/><path class="cls-10" d="M29.52,31.18a2.41,2.41,0,0,1-.36.29,5,5,0,0,0-1.1.84,1.73,1.73,0,0,1-.29-.75,8.42,8.42,0,0,0-1-2.35,8.68,8.68,0,0,0-1.18-1.31c-.19-.17-.37-.35-.57-.52a8.64,8.64,0,0,0-3.86-2.21l.53-.18h0a4.75,4.75,0,0,1,1,.4c.89.45,1.76.94,2.62,1.47.21.14.43.27.63.43l.17.13a8.11,8.11,0,0,1,.77.78C27.74,29.19,28.63,30.19,29.52,31.18Z"/><path class="cls-9" d="M27.7,25.12a4.72,4.72,0,0,0-.89.65l-.06.08a.9.9,0,0,0-.14.2l-.06.12a4.43,4.43,0,0,1-.41.91.79.79,0,0,1-.24.21l-.11.05a.77.77,0,0,1-.26.07h-.06a1.36,1.36,0,0,1-.49,0,8.89,8.89,0,0,1-1.15-.5,3.46,3.46,0,0,0-1.45-.3,1.86,1.86,0,0,0-.66.1l-.16.08-.18.11-.13.09-.14.08a2.86,2.86,0,0,1-.58.29,4.36,4.36,0,0,1-.59.17,3.5,3.5,0,0,1-1.89-.18,2.73,2.73,0,0,1-.54-.27,8.62,8.62,0,0,0-1-.61l-.07,0h0a3.22,3.22,0,0,0-1.27-.12l-.32,0h-.18l-.24,0a2.92,2.92,0,0,0-.92.25,2.22,2.22,0,0,0-.39.23,5.07,5.07,0,0,1-.45.36l-.15.07h0a2,2,0,0,1-.8-.06l-.09,0h0l-.23,0a5.09,5.09,0,0,0-.55,0,11.94,11.94,0,0,1-2.15.19,3.5,3.5,0,0,1-.79-.19,5.24,5.24,0,0,1-.64-.29,10.76,10.76,0,0,1-1.07-.68A2.92,2.92,0,0,1,5,24.86a.76.76,0,0,1,.34-.11c.42,0,.76.27,1.15.37a1.28,1.28,0,0,0,.27.05,1.41,1.41,0,0,0,.29,0H7c.22,0,.44-.08.69-.11a6.75,6.75,0,0,1,1.73.24,1.22,1.22,0,0,0,.33,0,1.27,1.27,0,0,0,.28,0c.59-.07,1.18-.31,1.76-.39a15.6,15.6,0,0,1,1.93-.1h.86a7.29,7.29,0,0,1,2.41.3c.26.09.52.21.78.32h0l.05,0a3,3,0,0,0,.5.17l.1,0a4.88,4.88,0,0,0,2.67-.49h0l.53-.18h0a5,5,0,0,1,1.05-.24,13.76,13.76,0,0,1,2.12.11h.57a3.65,3.65,0,0,1,2.05.08A1.15,1.15,0,0,1,27.7,25.12Z"/><path class="cls-3" d="M28.49,23.12a1.24,1.24,0,0,1-.45,1,1.92,1.92,0,0,1-.32.26,4.45,4.45,0,0,0-1,.74.9.9,0,0,0-.14.2,8.21,8.21,0,0,1-.47,1,1,1,0,0,1-.35.26,1.11,1.11,0,0,1-.26.07h-.06a1.35,1.35,0,0,1-.49,0,9,9,0,0,1-1.15-.51,3.62,3.62,0,0,0-1.45-.3,1.67,1.67,0,0,0-.66.11l-.16.07-.18.11-.13.09-.14.09a3.48,3.48,0,0,1-3.06.28,2.73,2.73,0,0,1-.54-.27,6.18,6.18,0,0,0-1.07-.64h0a3.21,3.21,0,0,0-1.27-.11,4.24,4.24,0,0,0-1.66.29,2.22,2.22,0,0,0-.39.23,3.74,3.74,0,0,1-.45.36.51.51,0,0,1-.15.07l0,0a1.82,1.82,0,0,1-.8-.07h-.09c-1-.14-2,.27-2.93.17a5.4,5.4,0,0,1-2.5-1.16,2.78,2.78,0,0,1-1.25-1.51,2.14,2.14,0,0,1,.71-2,.84.84,0,0,0,.28-.34.77.77,0,0,0,0-.37h0a6.19,6.19,0,0,1-.18-1.65s0-.05,0-.08h0c.08-.53.43-1,.9-1.09a.79.79,0,0,1,.22,0c.28.06.52.24.8.32l.24,0h.25c.2,0,.4-.07.62-.09a5.21,5.21,0,0,1,1.52.21,1.51,1.51,0,0,0,.3,0h.25c.52-.07,1-.28,1.56-.35a12,12,0,0,1,1.7-.09h.76a6.66,6.66,0,0,1,2.13.26c.23.08.46.2.7.29h0l0,0a4,4,0,0,0,.45.16l.09,0a4.32,4.32,0,0,0,2.36-.43h0l.46-.16h0a4.93,4.93,0,0,1,.92-.22,13.16,13.16,0,0,1,1.88.1h.5a3.3,3.3,0,0,1,1.82.06l.09.06A2.46,2.46,0,0,1,27.12,20c0,.1.05.21.08.31a8.42,8.42,0,0,0,.24.86,2.89,2.89,0,0,0,.27.56C28,22.2,28.46,22.57,28.49,23.12Z"/><path class="cls-10" d="M25.47,26.65a1.35,1.35,0,0,1-.49,0,9,9,0,0,1-1.15-.51,3.62,3.62,0,0,0-1.45-.3,1.67,1.67,0,0,0-.66.11l-.16.07-.18.11L21,25.7a.48.48,0,0,1,.16-.08c.26-.08.59,0,.76-.28A1,1,0,0,0,22,25a3.35,3.35,0,0,0-.28-1.83,6,6,0,0,0-.58-.9,4.37,4.37,0,0,1-.32-.43c-.05-.11,0-.18.11-.17s.68.52.86.66a20,20,0,0,1,1.7,1.5,10.53,10.53,0,0,1,1.37,1.73l.06.09,0,0A7.3,7.3,0,0,1,25.47,26.65Z"/><path class="cls-11" d="M12.48,26.5a1.82,1.82,0,0,1-.8-.07h-.09l-.48-.22c-.31-.15-.64-.32-1-.52l-.5-.3a5.39,5.39,0,0,1-.5-.33,11.7,11.7,0,0,1-1-.75,9.56,9.56,0,0,1-.91-.89,6.12,6.12,0,0,1-.4-.49c-.13-.16-.25-.35-.36-.51a6.41,6.41,0,0,1-.54-1.08,1.17,1.17,0,0,1-.05-.11,6.19,6.19,0,0,1-.18-1.65s0-.05,0-.08c0,.23.1.46.17.72a7.69,7.69,0,0,0,.37.95,7.25,7.25,0,0,0,.56,1l.17.24.18.23.39.45a11.51,11.51,0,0,0,.88.83c.3.26.62.51.94.74l.49.34.48.31c.31.21.62.4.92.57l.84.48Z"/><path class="cls-11" d="M18.05,26.56a2.73,2.73,0,0,1-.54-.27,6.18,6.18,0,0,0-1.07-.64h0l-.53-.43c-.32-.28-.65-.56-1-.86s-.66-.61-1-.92-.63-.66-.93-1-.59-.68-.86-1-.38-.48-.55-.71l-.2-.29a8,8,0,0,1-.59-1,4.8,4.8,0,0,1-.26-.57h.25l.24.42a10.73,10.73,0,0,0,.64.88c.13.18.27.34.42.52l.36.41c.14.17.28.32.42.48l.45.48c.3.32.61.64.93.95s.63.63,1,.93l.94.88,1.69,1.55Z"/><path class="cls-10" d="M16.49,20.08a2.33,2.33,0,0,0,0,.91,4.67,4.67,0,0,0,.23.66h0c.1.22.21.42.32.62a14.07,14.07,0,0,1-2-2.27c-.3-.44-.59-.89-.85-1.35a1.89,1.89,0,0,1-.09-.21h.73a6.66,6.66,0,0,1,2.13.26c.23.08.46.2.7.29h0l0,0,0,.06s0,.05,0,.08a.92.92,0,0,0-1.09.45A1.33,1.33,0,0,0,16.49,20.08Z"/><path class="cls-11" d="M21.56,26l-.18.11-.13.09L21,26l-1-.79c-.33-.28-.67-.56-1-.86L18,23.44l-1-.93c-.34-.31-.66-.64-1-1a11.84,11.84,0,0,1-.81-1L14.82,20c-.1-.16-.19-.32-.28-.48s-.16-.31-.23-.47-.13-.31-.18-.45a1.21,1.21,0,0,0-.05-.18h.19a.69.69,0,0,0,0,.1,5.17,5.17,0,0,0,.47.83c.13.2.27.41.43.62l.23.28a11.68,11.68,0,0,0,.83.92c.15.16.31.31.47.46h0l.49.46c.33.3.68.6,1,.9l1,.91c.34.29.67.6,1,.89l.89.81,0,0Z"/><path class="cls-11" d="M25.79,26.58a1.11,1.11,0,0,1-.26.07h0a.34.34,0,0,0-.06-.12,9.52,9.52,0,0,0-.49-.84l0,0-.06-.09c-.11-.17-.23-.33-.35-.49l-.2-.24-.2-.24a11.52,11.52,0,0,0-.94-.89c-.33-.29-.68-.57-1-.85s-.71-.55-1.07-.82l-.25-.19-.78-.61-.4-.33-.55-.46-.43-.38-.39-.38-.57-.61L17.67,19l0,0a4,4,0,0,0,.45.16l.32.27.85.68.82.6.16.11c.34.26.69.5,1.05.77l1.08.81c.36.29.71.58,1,.88a9.66,9.66,0,0,1,1,1,2.65,2.65,0,0,1,.21.26l.19.26c.13.19.24.36.35.54a11.31,11.31,0,0,1,.52,1.05Z"/><path class="cls-11" d="M27.44,21.2c-.13-.12-.28-.24-.42-.35l-1.24-.92-.57-.43,0,0-.49-.36-.76-.59-.05,0h.23a7.57,7.57,0,0,1,.72.35l.56.3.12.08.49.29.64.42.56.4A8.42,8.42,0,0,0,27.44,21.2Z"/><path class="cls-10" d="M13.51,25.82a2.22,2.22,0,0,0-.39.23,3.74,3.74,0,0,1-.45.36l-.1-.08A15,15,0,0,1,8.65,21c-.14-.28-.27-.57-.39-.88a8.94,8.94,0,0,1-.38-1.37h.25a17.57,17.57,0,0,0,.73,1.73A13.75,13.75,0,0,0,13.51,25.82Z"/><path class="cls-10" d="M28,24.08a1.92,1.92,0,0,1-.32.26,4.45,4.45,0,0,0-1,.74,1.5,1.5,0,0,1-.26-.66,7.94,7.94,0,0,0-.92-2.08,8.2,8.2,0,0,0-1-1.16l-.33-.3a8,8,0,0,0-3.59-2.11l.46-.16h0A4.14,4.14,0,0,1,22,19c.78.4,1.56.84,2.32,1.31a3.87,3.87,0,0,1,.37.24,3.69,3.69,0,0,1,.34.25,7.4,7.4,0,0,1,.68.69Z"/><path class="cls-9" d="M26.29,18.61a.75.75,0,0,1-.15.16,1.32,1.32,0,0,1-.26.22l-.37.24a1.91,1.91,0,0,0-.33.25.69.69,0,0,0-.11.13,1,1,0,0,0-.12.16c-.13.23-.18.51-.3.74l-.09.13a.75.75,0,0,1-.29.21l-.07,0-.15,0h0a1.12,1.12,0,0,1-.41,0,5.82,5.82,0,0,1-1-.42,3.2,3.2,0,0,0-1.21-.25,1.51,1.51,0,0,0-.55.09l-.13.07-.15.08-.12.08-.11.07-.22.13a2.34,2.34,0,0,1-.48.18,2.93,2.93,0,0,1-1.85-.07,2.73,2.73,0,0,1-.45-.23,6.23,6.23,0,0,0-.88-.53h0A2.7,2.7,0,0,0,15.42,20h-.37l-.23,0a2.56,2.56,0,0,0-.78.2,1.55,1.55,0,0,0-.32.2c-.13.09-.25.21-.38.29a.31.31,0,0,1-.13.06h0a1.53,1.53,0,0,1-.67-.05h-.07l-.32,0a4.19,4.19,0,0,0-.5,0,7.38,7.38,0,0,1-1.62.13,3.16,3.16,0,0,1-1.14-.36q-.3-.16-.6-.36l-.35-.24a2.39,2.39,0,0,1-1-1.26l0-.23c.28.06.52.24.8.32l.24,0h.25c.2,0,.4-.07.62-.09a5.21,5.21,0,0,1,1.52.21,1.51,1.51,0,0,0,.3,0h.25c.52-.07,1-.28,1.56-.35a12,12,0,0,1,1.7-.09h.76a6.66,6.66,0,0,1,2.13.26c.23.08.46.2.7.29h0l0,0a4,4,0,0,0,.45.16l.09,0a4.32,4.32,0,0,0,2.36-.43h0l.46-.16h0a4.93,4.93,0,0,1,.92-.22,13.16,13.16,0,0,1,1.88.1h.5a3.3,3.3,0,0,1,1.82.06Z"/><path class="cls-3" d="M26.52,17.33a1,1,0,0,1-.38.81,1.71,1.71,0,0,1-.26.21,3.29,3.29,0,0,0-.81.62,1,1,0,0,0-.12.16,5.74,5.74,0,0,1-.39.87.66.66,0,0,1-.29.21.9.9,0,0,1-.22.06h0a1.12,1.12,0,0,1-.41,0,5.82,5.82,0,0,1-1-.42,3.2,3.2,0,0,0-1.21-.25,1.76,1.76,0,0,0-.55.09l-.13.07-.15.09-.12.07a.41.41,0,0,1-.11.07,2.88,2.88,0,0,1-2.55.24,2.73,2.73,0,0,1-.45-.23,5.8,5.8,0,0,0-.89-.53h0a2.53,2.53,0,0,0-1.06-.1,3.55,3.55,0,0,0-1.38.24,2.14,2.14,0,0,0-.32.2c-.13.1-.25.22-.38.3l-.13.06h0a1.7,1.7,0,0,1-.67-.06h-.07c-.81-.11-1.63.23-2.44.15a4.55,4.55,0,0,1-2.09-1,2.35,2.35,0,0,1-1-1.26,1.79,1.79,0,0,1,.59-1.65.62.62,0,0,0,.23-.28.55.55,0,0,0,0-.31h0a5,5,0,0,1-.15-1.38s0,0,0-.06h0c.07-.44.35-.87.74-.91h0c.31,0,.56.19.85.27l.2,0h.21l.51-.08a4.93,4.93,0,0,1,1.27.18h.46c.43-.06.86-.23,1.29-.29a11.43,11.43,0,0,1,1.43-.08h.63a5.59,5.59,0,0,1,1.77.22c.2.07.39.16.58.24h0l0,0a2.72,2.72,0,0,0,.37.13l.08,0a3.59,3.59,0,0,0,2-.36h0l.39-.14h0a3.51,3.51,0,0,1,.78-.17,9.07,9.07,0,0,1,1.56.08h.42a3.26,3.26,0,0,1,1.39,0l.12.06a2,2,0,0,1,.77,1.23l.06.25a5.46,5.46,0,0,0,.21.72,2.86,2.86,0,0,0,.22.47C26.11,16.57,26.5,16.88,26.52,17.33Z"/><path class="cls-10" d="M24,20.28a1.39,1.39,0,0,1-.41,0,6.86,6.86,0,0,1-1-.43,3.2,3.2,0,0,0-1.21-.25,1.76,1.76,0,0,0-.55.09l-.13.07a1.19,1.19,0,0,0-.15.09c-.1-.12-.21-.23-.31-.34a.31.31,0,0,1,.13-.06c.22-.07.49,0,.63-.24a.86.86,0,0,0,.09-.27,2.76,2.76,0,0,0-.24-1.53,4.55,4.55,0,0,0-.48-.75,3.05,3.05,0,0,1-.27-.36c0-.08,0-.15.1-.14s.57.44.71.56a13.81,13.81,0,0,1,1.42,1.25,8.84,8.84,0,0,1,1.14,1.43.35.35,0,0,1,.05.08l0,0Q23.82,19.86,24,20.28Z"/><path class="cls-11" d="M13.18,20.15a1.7,1.7,0,0,1-.67-.06h-.07L12,19.9c-.26-.13-.53-.27-.81-.43l-.42-.25c-.13-.09-.28-.18-.41-.28-.28-.19-.56-.4-.83-.62a10.59,10.59,0,0,1-.76-.74c-.11-.14-.23-.27-.33-.41s-.21-.29-.3-.43a6.2,6.2,0,0,1-.45-.89,1,1,0,0,0,0-.1,5,5,0,0,1-.15-1.38s0,0,0-.06a4.56,4.56,0,0,0,.14.59,5.71,5.71,0,0,0,.31.8,6,6,0,0,0,.47.8,1.43,1.43,0,0,0,.14.2l.15.19c.1.13.21.25.32.38s.48.47.73.69.52.42.79.61l.4.29.4.26c.27.17.52.33.77.47l.71.4Z"/><path class="cls-11" d="M17.82,20.2a2.73,2.73,0,0,1-.45-.23,5.8,5.8,0,0,0-.89-.53h0L16,19.07c-.27-.23-.54-.46-.81-.71l-.82-.77c-.26-.27-.52-.54-.77-.82s-.49-.56-.72-.84-.44-.56-.62-.83l0,0a7.54,7.54,0,0,1-.47-.8,3.92,3.92,0,0,1-.22-.47h.21l.2.35c.15.24.33.48.53.74l.05.06c.19.24.39.47.6.71s.23.26.35.4.25.26.37.4.51.53.78.79.53.52.8.77l.78.74,1.4,1.29Z"/><path class="cls-10" d="M16.66,14.41a1.62,1.62,0,0,0-.12,1.15,1.42,1.42,0,0,0,.07.22c0,.11.08.22.12.33h0a5.12,5.12,0,0,0,.27.52,10.9,10.9,0,0,1-1.23-1.31,13.18,13.18,0,0,1-1.16-1.71,1.34,1.34,0,0,1-.07-.18h.61a5.59,5.59,0,0,1,1.77.22c.2.07.39.16.58.24h0l0,0a.06.06,0,0,1,0,0,.19.19,0,0,1,0,.07A.78.78,0,0,0,16.66,14.41Z"/><path class="cls-11" d="M20.75,19.73l-.15.09-.12.07-.22-.18-.8-.65c-.27-.24-.56-.47-.84-.72l-.87-.74-.86-.78c-.28-.26-.54-.53-.79-.8a10,10,0,0,1-.68-.84l-.22-.32q-.16-.25-.3-.51L14.7,14c0-.13-.1-.26-.14-.38a.83.83,0,0,1,0-.15h.15l0,.08a4.16,4.16,0,0,0,.39.7c.16.24.35.49.56.75a7.64,7.64,0,0,0,.61.68l.08.09.39.38h0l.41.38.86.75.85.76.83.74.74.68,0,0Z"/><path class="cls-11" d="M24.27,20.21a.9.9,0,0,1-.22.06h0L24,20.18c-.12-.23-.26-.47-.41-.71l0,0a.35.35,0,0,0-.05-.08c-.09-.14-.19-.27-.29-.4l-.16-.21-.17-.19a9.32,9.32,0,0,0-.79-.74c-.27-.25-.56-.48-.86-.71l-.88-.68-.22-.17-.65-.5-.57-.48-.22-.18-.35-.32L18,14.47q-.27-.27-.48-.51l-.05-.06,0,0a2.72,2.72,0,0,0,.37.13l.27.22c.21.18.45.37.71.57.1.07.19.15.3.22l.51.38.88.63.9.68c.3.24.59.48.87.73a8.73,8.73,0,0,1,.8.81l.17.22a1.77,1.77,0,0,1,.16.22c.11.15.2.3.29.45.17.3.31.6.43.87Z"/><path class="cls-11" d="M25.65,15.73c-.11-.1-.23-.19-.36-.29l-1-.77L24,14.48l-.22-.16L23.36,14l-.64-.49,0,0h.19l.6.29.47.26.29.17.21.13.54.35.46.33A5.46,5.46,0,0,0,25.65,15.73Z"/><path class="cls-10" d="M14,19.58a2.14,2.14,0,0,0-.32.2c-.13.1-.25.22-.38.3L13.25,20A12.53,12.53,0,0,1,10,15.58c-.1-.19-.19-.4-.28-.61a6.74,6.74,0,0,1-.36-1.26h.21a13.47,13.47,0,0,0,.62,1.47A11.39,11.39,0,0,0,14,19.58Z"/><path class="cls-10" d="M26.14,18.14a1.71,1.71,0,0,1-.26.21,3.29,3.29,0,0,0-.81.62,1.41,1.41,0,0,1-.22-.55,5.87,5.87,0,0,0-.77-1.73,6.15,6.15,0,0,0-.86-1,12.7,12.7,0,0,0-1.19-1,5.41,5.41,0,0,0-2.08-1l.39-.14h0a3.7,3.7,0,0,1,.74.3c.58.3,1.16.62,1.73,1L23,15a4.86,4.86,0,0,1,.59.42,6.13,6.13,0,0,1,.57.57C24.83,16.67,25.49,17.4,26.14,18.14Z"/><path class="cls-9" d="M24.49,13.47a.5.5,0,0,1,0,.12,1.81,1.81,0,0,1-.24.61,1.56,1.56,0,0,1-.23.28,1.34,1.34,0,0,1-.37.25,1.64,1.64,0,0,1-.82.1c-.25,0-.49-.07-.73-.11h0l-.19,0-.18,0-.52-.05-.22,0h-.33a3.31,3.31,0,0,0-.44,0,1.54,1.54,0,0,0-.52.14,1.78,1.78,0,0,0-.44.32l-.07.06-.19.17-.12.1a2.27,2.27,0,0,1-1.48.5,2.4,2.4,0,0,1-.6-.07l-.12,0a1.06,1.06,0,0,1-.25-.09l-.1,0-.18-.1-.31-.22c-.19-.16-.38-.32-.57-.46a1.49,1.49,0,0,0-1-.39,3.22,3.22,0,0,0-1.22.3l-.43.18-.3.13a3.32,3.32,0,0,1-1,.26,2.66,2.66,0,0,1-1-.16h0A4,4,0,0,1,9.71,15a3.14,3.14,0,0,1-1-.84,3,3,0,0,1-.42-.73h0c.31,0,.56.19.85.27l.2,0h.21l.51-.08a4.93,4.93,0,0,1,1.27.18h.46c.43-.06.86-.23,1.29-.29a11.43,11.43,0,0,1,1.43-.08h.63a5.59,5.59,0,0,1,1.77.22c.2.07.39.16.58.24h0l0,0a2.72,2.72,0,0,0,.37.13l.08,0a3.59,3.59,0,0,0,2-.36h0l.39-.14h0a3.51,3.51,0,0,1,.78-.17,9.07,9.07,0,0,1,1.56.08h.42A3.26,3.26,0,0,1,24.49,13.47Z"/><path class="cls-3" d="M24.47,13.08a1.58,1.58,0,0,1-.84,1.14,2.82,2.82,0,0,1-1.55,0l-.24,0-.18,0c-.17,0-.34,0-.52-.06h-.55a3.31,3.31,0,0,0-.44,0,1.54,1.54,0,0,0-.52.14,2.05,2.05,0,0,0-.51.38l-.31.27a2.48,2.48,0,0,1-2.08.43l-.37-.13a1.51,1.51,0,0,1-.28-.15c-.62-.39-1.12-1.09-1.85-1.08a3.23,3.23,0,0,0-1.22.31,5.67,5.67,0,0,1-1.76.57,2.86,2.86,0,0,1-1-.16,3.28,3.28,0,0,1-1.5-1.05,3.12,3.12,0,0,1-.58-1.2h0s0-.07,0-.1a.51.51,0,0,1,0-.13l0-.2s0-.06,0-.08v-.09a3.25,3.25,0,0,1,0-.54,2.77,2.77,0,0,1,.34-.88c.16-.38.22-.82.35-1.21a25.82,25.82,0,0,1,1.6-3.56,12.19,12.19,0,0,1,1.56-2.44A10.89,10.89,0,0,1,15.2.77,4.61,4.61,0,0,1,18.1,0a3.22,3.22,0,0,1,2.2,1.89l.06.13.08.21-.06,0-.12,0A2.52,2.52,0,0,0,19.37,2a.74.74,0,0,0-.21,0,1.06,1.06,0,0,0-.69.34l-.06.08a1.46,1.46,0,0,0,.13,1.42c.85,1.61,2.38,2.71,3.76,3.91A7.1,7.1,0,0,1,23.52,9a6.33,6.33,0,0,1,.91,2.58A4,4,0,0,1,24.47,13.08Z"/><path class="cls-11" d="M20.44,2.27l-.06,0,0-.06A3.19,3.19,0,0,0,18.15.3a4.6,4.6,0,0,0-2.9.72A11.06,11.06,0,0,0,12,3.43a12.48,12.48,0,0,0-1.56,2.44,26.36,26.36,0,0,0-1.6,3.56c-.13.39-.19.83-.35,1.21a2.83,2.83,0,0,0-.34.89,3.32,3.32,0,0,0,0,.89,3.18,3.18,0,0,1-.06-1.15,2.77,2.77,0,0,1,.34-.88c.16-.38.22-.82.35-1.21a25.82,25.82,0,0,1,1.6-3.56,12.19,12.19,0,0,1,1.56-2.44A10.89,10.89,0,0,1,15.2.77,4.61,4.61,0,0,1,18.1,0a3.22,3.22,0,0,1,2.2,1.89l.06.13Z"/><path class="cls-11" d="M21.66,14.15c-.17,0-.34,0-.52-.06h-.55a3.31,3.31,0,0,0-.44,0,1.72,1.72,0,0,1,.38-.7,4.65,4.65,0,0,0,1-3,2.79,2.79,0,0,0-.16-.86,3.57,3.57,0,0,0-.56-.85L18.62,6a6.14,6.14,0,0,1-1-1.59,2.71,2.71,0,0,1-.17-1.25h0c0-.16,0-.32.06-.48s0-.26.07-.39a2,2,0,0,1,.09-.22,1.37,1.37,0,0,1,.19-.24l.1-.11,0-.05c.11-.11.2-.2.21-.17a1.06,1.06,0,0,1,0,.19s0,.07,0,.1a1.27,1.27,0,0,1,0,.28c0,.14-.08.29-.12.43a2.48,2.48,0,0,0-.15.64,2.54,2.54,0,0,0,.45,1.37,11.44,11.44,0,0,0,1.23,1.9c.32.36.67.67,1,1a9.11,9.11,0,0,1,1.29,1.8,5.87,5.87,0,0,1,.65,1.53A3.81,3.81,0,0,1,21.66,14.15Z"/><path class="cls-11" d="M18,1.8c0,.2-.3.38-.43.47l0,0c-1.72,1.13-1.69,3.15-1.26,5,.21.93.52,1.82.75,2.74a15.61,15.61,0,0,1,.43,4.76,1.86,1.86,0,0,1-.13.62,2.4,2.4,0,0,1-.6-.07l-.37-.13a10.56,10.56,0,0,1-.13-1.68,13.07,13.07,0,0,0-.08-2c-.28-1.83-1.62-3.43-1.6-5.27a6.63,6.63,0,0,1,.28-1.6L15,4.22a3.39,3.39,0,0,1,.78-1.43,2.2,2.2,0,0,1,.63-.43,9.57,9.57,0,0,0,1.07-.52l.05-.05c.14-.12.33-.35.48-.12l0,0s0,0,0,0A.29.29,0,0,1,18,1.8Z"/><path class="cls-10" d="M19.46,12.4a2.67,2.67,0,0,1-.34,2.21l-.31.27a2.48,2.48,0,0,1-2.08.43.57.57,0,0,1,0-.18,10.56,10.56,0,0,1,0-1.49,10.87,10.87,0,0,0-1.11-5.29,3.64,3.64,0,0,1-.57-2.64,9.82,9.82,0,0,1,.76-2.56l.13-.22a3.35,3.35,0,0,1,.42-.57l.18-.17a2.35,2.35,0,0,1,.94-.4l.44-.07H18l.22,0A3.46,3.46,0,0,1,19.93,2a1.2,1.2,0,0,1,.33.25A2.52,2.52,0,0,0,19.37,2a.74.74,0,0,0-.21,0,1.06,1.06,0,0,0-.69.34,1.76,1.76,0,0,0-.4.16,1.54,1.54,0,0,0-.59.54v0l-.06.1a3,3,0,0,0-.26,1.29,10.18,10.18,0,0,0,.75,4.19A23.13,23.13,0,0,1,19.46,12.4Z"/><path class="cls-10" d="M24.47,13.08a1.58,1.58,0,0,1-.84,1.14,2.82,2.82,0,0,1-1.55,0l-.24,0-.18,0c-.17,0-.34,0-.52-.06h-.52a2.86,2.86,0,0,1,.52-1,4,4,0,0,0,.8-2.38,4.67,4.67,0,0,0-1.07-2.5c-1-1.34-2.1-2.54-3-3.94A2.35,2.35,0,0,1,17.48,3a.93.93,0,0,1,.05-.29,1.22,1.22,0,0,1,.66-.68A2.17,2.17,0,0,1,18.55,2l.33,0a4.21,4.21,0,0,1,1.05,0l.34.08.09,0,.08.21-.06,0-.12,0A2.52,2.52,0,0,0,19.37,2a.74.74,0,0,0-.21,0,1.06,1.06,0,0,0-.69.34l-.06.08a1.46,1.46,0,0,0,.13,1.42c.85,1.61,2.38,2.71,3.76,3.91A7.1,7.1,0,0,1,23.52,9a6.33,6.33,0,0,1,.91,2.58A4,4,0,0,1,24.47,13.08Z"/><path class="cls-10" d="M20.44,2.27l-.18-.07A2.52,2.52,0,0,0,19.37,2a.74.74,0,0,0-.21,0,1.31,1.31,0,0,0-.28-.09,3.15,3.15,0,0,0-.42-.09,2.81,2.81,0,0,0-2.22.92c-.15.13-.29.27-.43.41a13.23,13.23,0,0,0-2.57,4.61,14,14,0,0,0-.8,3,5.7,5.7,0,0,0,.36,3l.21.49a5.67,5.67,0,0,1-1.76.57,2.86,2.86,0,0,1-1-.16A3.93,3.93,0,0,1,10,11.73,12.16,12.16,0,0,1,11.29,9Q12.18,7.4,13,5.79A11.06,11.06,0,0,1,15.74,2a3.57,3.57,0,0,1,2-.93,4,4,0,0,1,2.4.75l.17.12.06.13Z"/><path class="cls-12" d="M26.59,40.77c-3.94.06-5.32,5.07-4.18,8.23.73,2,.76,4.06-.59,5.66a6.51,6.51,0,0,0,4.63-6.41C26.33,45.74,24.76,43,26.59,40.77Z"/><path class="cls-12" d="M21.28,55.38a.24.24,0,0,1-.18,0c-.27.15-.62-.26-.38-.49A4.77,4.77,0,0,0,22.28,52a6.47,6.47,0,0,0-.56-3,7,7,0,0,1-.11-4.19c.59-2.15,2.44-5.19,5.12-4.32a.13.13,0,0,1,.05.19.08.08,0,0,1,0,.08c-1.72,3.13,1.05,6.54,0,9.84A6.94,6.94,0,0,1,21.28,55.38Zm.54-.72a6.51,6.51,0,0,0,4.63-6.41c-.12-2.51-1.69-5.26.14-7.48-3.94.06-5.32,5.07-4.18,8.23C23.14,51,23.17,53.06,21.82,54.66Z"/><path class="cls-12" d="M14.59,52.91s2.28-2.52-.48-2.83c0,0,2.9-2.06,2.54-3.29s-4.15-.94-4.15-.94,2.5-1.62,1.82-2.72-4.8-.37-4.8-.37,1.8-1.22,1.32-2.18-2.14-1-5.34.2-3,2.47-2.76,2.68A4.11,4.11,0,0,0,6.09,44s-2.47,1.43-2,2.38S8,47.29,8,47.29s-2.47,1.89-2.2,2.81,3.32,1,3.32,1S5.89,53,6.36,54,11.72,55,14.59,52.91Z"/><path class="cls-12" d="M3.87,46c.36-1.35,2.57-2.33,3.8-2.85a13.26,13.26,0,0,1,1.68-.5c2.36-.83,6.13-1.33,5.09,1.43-.5,1.34-2.28,2.2-3.61,2.71a11.13,11.13,0,0,1-5.08.77C4.8,47.46,3.57,47.1,3.87,46Zm3.87,1c1.77-.17,4.63-.93,5.81-2.48A1.51,1.51,0,0,0,14,43.34c0,.11.14-1.57-3.74-.55a17.1,17.1,0,0,0-2.76,1c-.82.38-3.94,1.88-2.63,3C5.42,47.21,6.91,47.05,7.74,47Z"/><path class="cls-12" d="M2.44,42.86c.29-1.08,2.05-1.87,3-2.28a9.73,9.73,0,0,1,1.34-.4c1.89-.67,4.9-1.07,4.07,1.14-.4,1.07-1.82,1.76-2.89,2.17a9.14,9.14,0,0,1-4.06.62C3.18,44,2.2,43.74,2.44,42.86Zm3.09.78c1.41-.14,3.71-.74,4.64-2a1.18,1.18,0,0,0,.34-.92c0,.09.12-1.25-3-.44a14.38,14.38,0,0,0-2.2.78c-.66.31-3.15,1.51-2.11,2.37C3.68,43.83,4.87,43.7,5.53,43.64Z"/><path class="cls-12" d="M5.33,49.65c.37-1.43,2.72-2.45,4.05-3a13.6,13.6,0,0,1,1.8-.51c2.53-.85,6.59-1.33,5.53,1.61-.51,1.42-2.41,2.31-3.84,2.84a12.19,12.19,0,0,1-5.47.74C6.37,51.24,5,50.83,5.33,49.65Zm4.2,1.11c1.91-.16,5-.92,6.22-2.56A1.55,1.55,0,0,0,16.18,47c0,.12.12-1.67-4-.64a18,18,0,0,0-3,1C8.3,47.73,5,49.29,6.4,50.46,7,51,8.64,50.83,9.53,50.76Z"/><path class="cls-12" d="M6,53.6C6.3,52.37,8.32,51.46,9.45,51A14.59,14.59,0,0,1,11,50.53c2.16-.76,5.62-1.22,4.67,1.31-.46,1.23-2.09,2-3.31,2.49A10.42,10.42,0,0,1,7.69,55C6.82,55,5.69,54.62,6,53.6Zm3.55.9c1.62-.16,4.25-.85,5.32-2.27a1.38,1.38,0,0,0,.39-1.06c0,.11.13-1.43-3.43-.5a15.13,15.13,0,0,0-2.52.9c-.75.35-3.61,1.72-2.42,2.71C7.38,54.72,8.75,54.58,9.51,54.5Z"/></g></g></g></svg>