<svg xmlns="http://www.w3.org/2000/svg" viewBox="0 0 29.94 48.79"><defs><style>.cls-1{fill:#e4e4e4;}.cls-2{fill:#eee;}</style></defs><g id="Layer_2" data-name="Layer 2"><g id="_29March-IceCream-Arm" data-name="29March-IceCream-Arm"><path class="cls-1" d="M22.37,0s-5.6,2.46-7,6.19S7.7,21.9,7.7,21.9L0,44.94l.41,3s4.72,4.16,14.13-5.35a55.88,55.88,0,0,0,5.82-1.43c1.37-.56,3.6-4.72,3.6-4.72a22.84,22.84,0,0,0,5.64-.75C31.83,34.91,22.37,0,22.37,0Z"/><path class="cls-2" d="M29.76,35.49c-1.32-3.93-3.67-11.09-3.67-11.09l-.59,4-2.14-1.82L20.11,15.88s-1.2-1.25-1.12-.39,2.83,13.34,2.66,14.11-2.23,6.08-2.23,6.08-.6-3.85-.77-4.54-1.62-7.7-2-7.95S16,23.1,16,23.1s.94,8.56.51,10.1A30.08,30.08,0,0,1,14.12,38c.51-1.63.17-15,0-15.83s-2.23-5.85-2.23-5.85L7.75,21.8l0,.1L0,44.94l.41,3s4.72,4.16,14.13-5.35a55.88,55.88,0,0,0,5.82-1.43c1.37-.56,3.6-4.72,3.6-4.72a22.84,22.84,0,0,0,5.64-.75A.29.29,0,0,0,29.76,35.49Z"/></g></g></svg>