<svg xmlns="http://www.w3.org/2000/svg" viewBox="0 0 80.25 336.07"><defs><style>.cls-1{fill:#e4e4e4;}.cls-2{fill:#eee;}.cls-3{fill:#fdfdfd;}.cls-4{fill:#8b8b8b;}.cls-5{fill:#262626;}.cls-6{fill:#858585;}.cls-7{fill:#707070;}.cls-8{fill:#e8e8e8;}.cls-9{fill:#9b9b9b;}.cls-10,.cls-13{fill:#757575;}.cls-10{opacity:0.4;}.cls-11{fill:#646464;}.cls-12{fill:#f0f0f0;}.cls-14{fill:#1a1a1a;}.cls-15{fill:#010101;}.cls-16{fill:#6f6f6f;}.cls-17{fill:none;stroke:#1c1c1c;stroke-miterlimit:10;stroke-width:1.28px;}.cls-18{fill:#4b4b4b;opacity:0.3;}.cls-19{fill:#191919;}.cls-20{fill:#b9b9b9;}</style></defs><g id="Layer_2" data-name="Layer 2"><g id="_29March-Base" data-name="29March-Base"><path class="cls-1" d="M67.92,164.29a227.61,227.61,0,0,1,4.91,43.29s-.75,19.31,0,21.9c3.36,11.64,2.17,28.75,2,37.65s2.23,49.28,2.57,52l2.83,9.58s-1.45,8.21-28.15,5.82c0,0-7.53-2.21-22.24.43S7.42,335,0,332.15c0,0,4.18-14.47,5.05-20.29s1.75-68.79,3.19-88l1-8.9s-2.35-34.64,1.86-49.18Z"/><path class="cls-2" d="M74.85,267.13c.15-8.9,1.34-26-2-37.65-.75-2.59,0-21.9,0-21.9-.17-8.66-.83-16.58-1.61-23.21-.42,17.67-2,48.76-2,48.76s4.76,15.29,3.58,18.71-9.55,22.36-7.72,28.52,12.31,38.79,12.31,38.79C77.08,316.41,74.69,276,74.85,267.13Z"/><path class="cls-2" d="M79.74,329.78c-4.56,3.17-9.47,1.69-11.89,1.91s-8-6.16-8-6.16l-3.65-42s-6.39,6.39-8,8.9-11.4,35.82-13.91,37.65c-1.59,1.15-7.74,3.95-12,5.85a69.54,69.54,0,0,0,7.59-1c14.71-2.64,22.24-.43,22.24-.43C72.72,336.4,78.28,331.92,79.74,329.78Z"/><path class="cls-2" d="M62.84,247.5c-4.09-3.87-33.32-37.64-34.24-40.15S21.3,179,21.3,179c.68,2.21,14.6,23.58,16.89,27s19.22,13.69,19.22,13.69C52.91,215.33,24.27,179,24.27,179c18.76,2.62,37.38-4.6,45-8.08-.76-4.25-1.33-6.67-1.33-6.67l-56.77,1.54C6.94,180.37,9.29,215,9.29,215l-1,8.9c-.66,8.8-1.21,28-1.68,46.73,1.73-12.39,4.1-28.07,4.59-32.72.81-7.53,1.48-26.23,1.49-29.57s3-29.31,3-29.31l.05.93c.28,5.3,1.75,31.67,3.57,35.36,1.17,2.38,7,11.68,11.61,19.11-9.94-20.34-11.61-50.13-11.61-50.13s3,24.64,6.42,28.06S62.84,247.5,62.84,247.5Z"/><path class="cls-1" d="M30.46,208.35s36.7,42.34,39.44,44.57C69.9,252.92,47.23,220.16,30.46,208.35Z"/><path class="cls-1" d="M27.55,181c-.21-.15,31.65,39.7,38.67,46.29C66.22,227.26,38.84,189.36,27.55,181Z"/><path class="cls-1" d="M26.86,221.7s18.57,41.15,19.42,42.18C46.28,263.88,39.35,236.33,26.86,221.7Z"/><path class="cls-3" d="M29.86,335c14.71-2.64,22.24-.43,22.24-.43,26.7,2.39,28.15-5.82,28.15-5.82l-2.83-9.58c0-.34-.11-1.24-.2-2.57a12.14,12.14,0,0,1-3.58,5.53c-2.41.92-20.85-2.51-20.85-2.51-3.42-.45-10.73,2.51-16.22,4.11S12.64,323,12.64,323c-1.6-1.15-5.48-6.39-6.08-8a24.89,24.89,0,0,0-1.51-3.18c-.87,5.82-5,20.29-5,20.29C7.42,335,15.14,337.62,29.86,335Z"/><path class="cls-4" d="M79.74,329.78c-4.56,3.17-9.47,1.69-11.89,1.91s-8-6.16-8-6.16l-.42-4.78c-3.7-.6-6.65-1.15-6.65-1.15-3.25-.43-10,2.21-15.34,3.85-1.36,3.6-2.49,6.18-3.14,6.65-1.59,1.15-7.74,3.95-12,5.85a69.54,69.54,0,0,0,7.59-1c14.71-2.64,22.24-.43,22.24-.43C72.72,336.4,78.28,331.92,79.74,329.78Z"/><path class="cls-1" d="M8.75,314.35s2.88,5,5.48,7.08c0,0,15.66.61,19.92,0s15-48.41,14.78-50.79c0,0-25,13.37-26.66,15.2Z"/><path class="cls-5" d="M58.72,41.27s-.62,5.48-5.14,6.82L55,40.5Z"/><path class="cls-5" d="M22.05,41.81s1.37,5.82,3.88,6.62-1-7.93-1-7.93Z"/><path class="cls-6" d="M47.41,48.09H32.47c.37,16.59-8.69,20-8.69,20C29.53,76.49,39.94,76,39.94,76s10.41.51,16.16-7.87C56.1,68.11,47,64.68,47.41,48.09Z"/><path class="cls-7" d="M50.49,62.62a25.08,25.08,0,0,1-3-11.11H32.4A28.79,28.79,0,0,1,31,59.09C34.49,60.83,42,63.81,50.49,62.62Z"/><path class="cls-1" d="M76.27,74.1c-1-.35-23-8-23-8L39.94,71.36,26.65,66.12S2.69,72,1.73,72.32,3,92.23,6.8,105.58a118.11,118.11,0,0,1,4,20.19c.55,5.36-.09,12.15-.14,16.5,0,0-1.28,26.62-1,30a93.3,93.3,0,0,0,27.66,6.2l2.6-6.54,2.62,6.58a82.63,82.63,0,0,0,27.63-6.24c.32-3.42-1-30-1-30-.14-13.27,3.84-36.69,3.84-36.69C76.91,92.23,77.24,74.44,76.27,74.1Z"/><path class="cls-2" d="M76.73,77.7h0c-1-1.37-3.59,14.2-5.81,14.37S63.55,76,62.53,80.26s5.81,24.46,4.68,24.52-6.74-13.06-8-13.57.39,5.13,2,8,7.61,12.37,8,13.8-1.42,3.31-1.85,4.85.6,5,0,6.33-11.9-2.39-10.56,0,10,3.77,10,5-2.08,5.31-2.25,7,2.39,6.67,1,6.55-16.68-8.94-16.68-8.94S54.48,146,56.66,147.5s10,2.4,10.17,3.94,1.51,7.87-.71,10.27-1.54,8-1.54,8c.12,2.28-9.08,6.06-14.6,8.13a83.74,83.74,0,0,0,20.21-5.57c.32-3.42-1-30-1-30-.14-13.27,3.84-36.69,3.84-36.69A110,110,0,0,0,76.73,77.7Z"/><path class="cls-2" d="M16.32,141.17c-2.22-1.71-1.88-10.09-1.55-10.61s9.42-9.41,10.12-12.66-8.74,7.19-10.62,6.5,7.7-20,7.53-25.66S15,115.85,13.58,114.48s3.25-29.6,1.71-29.26-3.58,21.94-5.81,22.24c-1.12.15-2.33-1.94-3.26-4.07.18.74.38,1.47.58,2.19a118.11,118.11,0,0,1,4,20.19c.55,5.36-.09,12.15-.14,16.5,0,0-1.28,26.62-1,30A95.21,95.21,0,0,0,30,177.76a43.46,43.46,0,0,1-12.47-6.14c-.34-2.24-1.54-6-3.08-7.86s-.69-5.48-.69-5.48c5.82-2.55,16.22-13.21,18.44-15.52-2.56,2.32-13.81,7.14-13.81,7.14S18.55,142.88,16.32,141.17Z"/><path class="cls-8" d="M32.19,142.76a2.27,2.27,0,0,0,.22-.22C32.76,142.16,32.65,142.28,32.19,142.76Z"/><path class="cls-1" d="M37.65,74.75l-.88,95.68-2.64,7.84c1.06.1,2.13.19,3.21.24l2.6-6.54V76.83Z"/><path class="cls-2" d="M24.89,76.79s6.44-6.63,15,2C39.94,78.8,32.49,61.41,24.89,76.79Z"/><path class="cls-2" d="M55,77.14s-6.44-7-15.05,1.66C39.94,78.8,47.39,61.75,55,77.14Z"/><path class="cls-1" d="M31,59.18s1,8.5,9,12.18V78.8s-6.23-7.89-9.41-7.2S25,77,25,77s-3.38-9.45-1.18-11.64S30.18,58,31,59.18Z"/><path class="cls-1" d="M48.92,59.18s-1,8.5-9,12.18V78.8s6.23-7.89,9.41-7.2S54.92,77,54.92,77s3.38-9.45,1.18-11.64S49.7,58,48.92,59.18Z"/><path class="cls-9" d="M56.78,33.19s2.34-4.65,5-3.28c1.51.77.13,13-5,12.39,0,0-.91-.33-1-2.3Z"/><path class="cls-10" d="M60.63,31.45s1.46,4.67-.53,5.77c0,0-1.06.36-1,.87S58.69,42,57.49,40.9c0,0-.92-1.54.23-2.12s.34-.6-.58-1.82C57.14,37,58.85,31.1,60.63,31.45Z"/><path class="cls-11" d="M61.11,34.89a14.23,14.23,0,0,0-.35-2.49,2.09,2.09,0,0,0-.21-.52c-.11-.15-.16-.15-.22-.12s-.14.08-.19.11L60,32a5.73,5.73,0,0,0-.39.45A11.77,11.77,0,0,0,58.3,34.6a8.32,8.32,0,0,0-.47,1.12c-.07.19-.11.38-.16.57a3.09,3.09,0,0,0,0,.51l-.1-.19a5,5,0,0,1,.87,1.23,1.22,1.22,0,0,1,.13.42.65.65,0,0,1-.18.58.84.84,0,0,1-.45.17l-.17,0-.08,0a.75.75,0,0,0-.19.17,1,1,0,0,0-.11.26,1.64,1.64,0,0,0,0,.63A1.48,1.48,0,0,0,58,41.27,1.53,1.53,0,0,1,57,40.19a1.76,1.76,0,0,1-.07-.76,1.42,1.42,0,0,1,.12-.4,1.21,1.21,0,0,1,.29-.35l.23-.13.17,0c.16,0,.17,0,.2-.07s0,0,0-.08a1.07,1.07,0,0,0-.1-.23,5.58,5.58,0,0,0-.82-1L57,37l0-.11a2.41,2.41,0,0,1,0-.76,4.54,4.54,0,0,1,.16-.66,8.92,8.92,0,0,1,.5-1.24A10.51,10.51,0,0,1,59,32.06a3.69,3.69,0,0,1,.48-.49,2,2,0,0,1,.3-.23,1.1,1.1,0,0,1,.38-.15l.08,0a.31.31,0,0,1,.18,0,.47.47,0,0,1,.25.1,1,1,0,0,1,.3.34,2.58,2.58,0,0,1,.19.68,6.4,6.4,0,0,1,0,1.31A10.88,10.88,0,0,1,61.11,34.89Z"/><path class="cls-11" d="M60.27,36A6.24,6.24,0,0,0,60,34.25a2.07,2.07,0,0,0-.59-.9,1,1,0,0,0-.27-.12l-.1,0,.22-.73.19.09a1.37,1.37,0,0,1,.41.33,2.45,2.45,0,0,1,.51,1.27A6.25,6.25,0,0,1,60.27,36Z"/><path class="cls-9" d="M23.09,33.19s-2.34-4.65-5-3.28c-1.52.77-.13,13,5,12.39,0,0,.92-.33,1-2.3Z"/><path class="cls-10" d="M19.25,31.45s-1.46,4.67.53,5.77c0,0,1.06.36,1,.87s.41,3.89,1.6,2.81c0,0,.93-1.54-.22-2.12s-.34-.6.58-1.82C22.74,37,21,31.1,19.25,31.45Z"/><path class="cls-11" d="M18.77,34.89a10.89,10.89,0,0,1-.14-1.28,6.41,6.41,0,0,1,.05-1.31,2.58,2.58,0,0,1,.19-.68,1,1,0,0,1,.3-.34.47.47,0,0,1,.25-.1.29.29,0,0,1,.18,0l.08,0a1.18,1.18,0,0,1,.38.15,2,2,0,0,1,.3.23,3.69,3.69,0,0,1,.48.49,10.51,10.51,0,0,1,1.43,2.2,7.8,7.8,0,0,1,.49,1.24,4.55,4.55,0,0,1,.17.66,2.41,2.41,0,0,1,0,.76l0,.11-.08.08a5.19,5.19,0,0,0-.82,1,.73.73,0,0,0-.1.23c0,.08,0,.06,0,.08s0,0,.2.07l.17,0,.23.13a1.21,1.21,0,0,1,.29.35,1.42,1.42,0,0,1,.12.4,1.93,1.93,0,0,1-.07.76,1.53,1.53,0,0,1-.92,1.08,1.48,1.48,0,0,0,.65-1.13,1.64,1.64,0,0,0-.05-.63,1,1,0,0,0-.12-.26.58.58,0,0,0-.18-.17l-.08,0L22,39a.84.84,0,0,1-.45-.17.69.69,0,0,1-.19-.58,1.9,1.9,0,0,1,.13-.42,5.55,5.55,0,0,1,.87-1.23l-.09.19a2.37,2.37,0,0,0,0-.51,4,4,0,0,0-.15-.57,9.85,9.85,0,0,0-.47-1.12,12.44,12.44,0,0,0-1.27-2.11,5.63,5.63,0,0,0-.38-.45c-.07-.05-.15-.14-.19-.17s-.07-.09-.2-.11-.1,0-.21.12a2.09,2.09,0,0,0-.21.52A13.34,13.34,0,0,0,18.77,34.89Z"/><path class="cls-11" d="M19.61,36a6.25,6.25,0,0,1-.05-1.84,2.45,2.45,0,0,1,.51-1.27,1.37,1.37,0,0,1,.41-.33l.18-.09.23.73-.1,0a1,1,0,0,0-.27.12,2.07,2.07,0,0,0-.59.9A6.24,6.24,0,0,0,19.61,36Z"/><path class="cls-9" d="M37.94,59.46s-8.9-6-11.64-9.59C23.8,46.59,22.08,31.56,21.8,29l0-.26c0-.08,0-.13,0-.13h0c-.05-.53-.08-1.07-.08-1.62A18.14,18.14,0,0,1,58,27c0,.65,0,1.29-.1,1.92h0s-1.78,17.41-4.52,21S41.7,59.46,41.7,59.46A4.81,4.81,0,0,1,37.94,59.46Z"/><path class="cls-12" d="M39.94,48.42c-3.25-.05-5.91-.33-5.91-.33.35,1.63,3.3,2.2,5.91,2.21s5.55-.58,5.9-2.21C45.84,48.09,43.19,48.37,39.94,48.42Z"/><path class="cls-13" d="M38.25,51.24a12,12,0,0,0,4.44,0A3.08,3.08,0,0,1,38.25,51.24Z"/><path class="cls-11" d="M46.09,29.7s-.29.25-.7.63-1,.93-1.46,1.5c-.26.28-.47.6-.69.88a3.61,3.61,0,0,0-.29.43l-.24.39a2.6,2.6,0,0,0-.16.35l-.11.28c-.06.16-.1.25-.1.25l.06-.26q0-.12.06-.3a1.59,1.59,0,0,1,.11-.38c0-.14.11-.29.17-.44a3.52,3.52,0,0,1,.22-.49c.18-.32.34-.68.56-1a21.53,21.53,0,0,1,1.22-1.78c.36-.47.62-.77.62-.77Z"/><path class="cls-5" d="M37.58,27.75s-.3,2.35-1.18,2.55c-2.45.55-6.82-2.05-10.47.76,0,0,.8-2.77,2.94-3.48S36.86,28.14,37.58,27.75Z"/><path class="cls-5" d="M43.38,27.75s.3,2.35,1.17,2.55c2.45.55,6.83-2.05,10.48.76,0,0-.81-2.77-2.94-3.48S44.09,28.14,43.38,27.75Z"/><path class="cls-13" d="M41.64,36.91a54.27,54.27,0,0,0-.1,5.68c.08,1.25-.55,2-1.15,2.1,0,0,2.51.39,2.88-2C43.53,41.13,42,39.39,41.64,36.91Z"/><path class="cls-11" d="M39.08,44.45s-2.4-.84-2-.1S39.08,44.45,39.08,44.45Z"/><path class="cls-5" d="M47.94,46.79c-1.66-1.28-7.66-1.67-7.66-1.67s-5.4.23-7.29,1.13a4.48,4.48,0,0,0-2,2.63,7.64,7.64,0,0,1,3.08-.4c.67.13,6.25,1.37,6.25-.52,0,1.89,5.47.49,6.16.52a10,10,0,0,1,2.56.74S49.6,48.07,47.94,46.79Z"/><path class="cls-11" d="M24.51,35.4l.18,0,.44-.12c.37-.09.86-.19,1.34-.34a5.4,5.4,0,0,0,.72-.16c.22-.08.43-.12.61-.18l.63-.14a6.32,6.32,0,0,1-.56.32l-.59.29c-.23.09-.48.13-.73.21s-.5.11-.74.14-.46,0-.66.05A3.45,3.45,0,0,1,24.51,35.4Z"/><path class="cls-11" d="M25.82,36l.34-.2.71-.38a1.93,1.93,0,0,0,.38-.19,2.87,2.87,0,0,1,.34-.18,2.2,2.2,0,0,1,.37-.14,2.36,2.36,0,0,1-.25.29,2.4,2.4,0,0,1-.69.52l-.42.18a2.08,2.08,0,0,1-.39.08A1.08,1.08,0,0,1,25.82,36Z"/><path class="cls-12" d="M35.58,35.29a1.47,1.47,0,0,0,.15-1c-.13-.49-4.6-4.24-7.58.33C28.15,34.64,30.84,36.79,35.58,35.29Z"/><path class="cls-14" d="M33.17,35.78A1.91,1.91,0,0,0,34,34.2a1.89,1.89,0,0,0-.81-1.55h0a3,3,0,0,0-.4-.12h0l-.43-.08h0a3.11,3.11,0,0,0-.43,0h-.48A1.91,1.91,0,0,0,31,35.72,9.11,9.11,0,0,0,33.17,35.78Z"/><path class="cls-15" d="M33,34.2a.9.9,0,1,1-.9-.9A.89.89,0,0,1,33,34.2Z"/><path class="cls-12" d="M31.75,33.55a.45.45,0,1,1-.45-.45A.45.45,0,0,1,31.75,33.55Z"/><path class="cls-15" d="M35.74,34.83a1.07,1.07,0,0,0-.15-.53,4.67,4.67,0,0,0-.44-.31,9.33,9.33,0,0,0-1-.5,5.86,5.86,0,0,0-2.09-.5,3.84,3.84,0,0,0-1,.08c-.17,0-.33.08-.5.14a4.89,4.89,0,0,0-.48.2,5.52,5.52,0,0,0-.92.56c-.31.21-.59.48-.9.73h0l0-.15.75.61-.87-.43-.09,0,.06-.1h0a4.26,4.26,0,0,1,1.55-1.95A3.84,3.84,0,0,1,32.12,32a4.93,4.93,0,0,1,2.38.86,5.22,5.22,0,0,1,.94.81,2.13,2.13,0,0,1,.38.55A1.09,1.09,0,0,1,35.74,34.83Z"/><path class="cls-11" d="M56,35.4a3.53,3.53,0,0,1-.65,0c-.19,0-.41,0-.65-.05s-.49-.09-.74-.14-.5-.12-.73-.21l-.6-.29c-.34-.18-.55-.32-.55-.32l.63.14c.18.06.39.1.61.18a5.4,5.4,0,0,0,.72.16c.48.15,1,.25,1.34.34l.44.12Z"/><path class="cls-11" d="M54.65,36a1.08,1.08,0,0,1-.39,0,2.35,2.35,0,0,1-.4-.08l-.42-.18a2.49,2.49,0,0,1-.68-.52,2.36,2.36,0,0,1-.25-.29,2.81,2.81,0,0,1,.7.32,2,2,0,0,0,.39.19l.71.38Z"/><path class="cls-12" d="M44.88,35.29a1.49,1.49,0,0,1-.14-1c.13-.49,4.6-4.24,7.58.33C52.32,34.64,49.63,36.79,44.88,35.29Z"/><path class="cls-14" d="M47.3,35.78a1.91,1.91,0,0,1-.86-1.58,1.89,1.89,0,0,1,.81-1.55h0a3,3,0,0,1,.4-.12h0l.43-.08h0a3.11,3.11,0,0,1,.43,0H49a1.91,1.91,0,0,1,.48,3.31A9.11,9.11,0,0,1,47.3,35.78Z"/><path class="cls-15" d="M47.45,34.2a.9.9,0,1,0,.9-.9A.89.89,0,0,0,47.45,34.2Z"/><path class="cls-12" d="M48.72,33.55a.45.45,0,1,0,.45-.45A.45.45,0,0,0,48.72,33.55Z"/><path class="cls-15" d="M44.73,34.83a1,1,0,0,1-.08-.63,2.13,2.13,0,0,1,.38-.55A5.21,5.21,0,0,1,48.35,32a3.84,3.84,0,0,1,2.51.65,4.26,4.26,0,0,1,1.55,1.95h0l.06.1-.09,0-.87.43.75-.61,0,.15h0c-.31-.25-.59-.52-.9-.73a5.52,5.52,0,0,0-.92-.56,4.89,4.89,0,0,0-.48-.2c-.17-.06-.33-.09-.5-.14a3.84,3.84,0,0,0-1-.08,6.08,6.08,0,0,0-2.09.5,9.33,9.33,0,0,0-1,.5,4.67,4.67,0,0,0-.44.31A1.07,1.07,0,0,0,44.73,34.83Z"/><path class="cls-16" d="M60.47,25.85c0-.16.05-.31.08-.47C60.52,25.54,60.5,25.7,60.47,25.85Z"/><path class="cls-17" d="M25.8,31.61s5.12-2.43,12.36,0v2s-.08,3.68-3,4.93c-3.9,1.66-8.12-.06-8.58-.9C25.48,35.71,25.1,32.83,25.8,31.61Z"/><path class="cls-17" d="M54.45,31.61s-5.12-2.43-12.36,0v2s.08,3.68,3,4.93c3.91,1.66,8.12-.06,8.58-.9C54.77,35.71,55.15,32.83,54.45,31.61Z"/><path class="cls-17" d="M38.16,32.09a4.26,4.26,0,0,1,4.26,0"/><path class="cls-5" d="M20.18,34a26.49,26.49,0,0,0,2.57,3.16c.34.09,1.14-1.55,1.28-5s.29-10.6,3.64-11.18,12.08,3.43,22.82.8A3.42,3.42,0,0,1,54.81,24c1.18,3.2.34,17.52,2.64,12.18L59.69,34s2.3-16.53-.82-19.27c0,0,.82-3.08-2.91-6.39-1.28-1.12-8-4.72-17.71-4.56C31.81,3.88,24.5,7.58,23.16,9.7s-1.86,5.88-1.48,6.62C21.68,16.32,17,25.44,20.18,34Z"/><path class="cls-18" d="M58.74,12.46A8.68,8.68,0,0,0,56,8.33c-1.28-1.12-8-4.72-17.71-4.56C31.81,3.88,24.5,7.58,23.16,9.7c-.05.08-.1.16-.14.24,5.66-2.41,20.48-7.72,26.22-.18C53.91,15.88,57.64,15.3,58.74,12.46Z"/><path class="cls-19" d="M20.18,29.94a26.49,26.49,0,0,0,2.57,3.16c.34.09,1.14-1.56,1.28-5s.29-10.61,3.64-11.18,12.08,3.42,22.82.8a3.42,3.42,0,0,1,4.32,2.17c1.18,3.19.34,17.52,2.64,12.18l2.24-2.15s.14-1,.3-2.47c-2.07.76-3.1-4.81-2.85-8.76.3-4.62-4.57-3.93-9.69-2.74s-14.22-2.39-19.3-2.91-5.41,12.79-5.41,12.79c-.85-1-1.9-6.15-2.55-9.71C19.16,19.59,18.28,24.87,20.18,29.94Z"/><path class="cls-1" d="M60.1,1,40,1.28,19.81,1h0l1.63,10.62c0,.11.28.2.81.31s1,.17,1.8.25h0l1,.09h0l2.32.18c2.57.17,5.81.31,9.4.4l1.82,0,.93,0h.94l.93,0,1.82,0c3.59-.09,6.83-.23,9.39-.4l2.32-.18h0l1-.09h0c.77-.08,1.36-.17,1.8-.25s.82-.2.81-.31L60.1,1Z"/><path class="cls-20" d="M40,0C30,0,19.85.51,19.81,1h0c0,.5,10.11.9,20.09.9,9.47,0,20.2-.4,20.2-.9h0C60.06.51,49.94,0,40,0Z"/></g></g></svg>