<svg xmlns="http://www.w3.org/2000/svg" viewBox="0 0 53.12 98.96"><defs><style>.cls-1{fill:#e4e4e4;}.cls-2{fill:#eee;}.cls-3{fill:#9b9b9b;}.cls-4{fill:#7f7f7f;}.cls-5{fill:#f2f2f2;}.cls-6{fill:#fcfcfc;}.cls-7{fill:#fff;}</style></defs><g id="Layer_2" data-name="Layer 2"><g id="_29March-Salt" data-name="29March-Salt"><path class="cls-1" d="M7.58,0s5.59,2.46,7,6.19,7.7,15.71,7.7,15.71l7.7,23-.4,3s.14,25.28-9.27,15.78c0,0-6.74-11.61-8.11-12.16S6,36.39,6,36.39a22.9,22.9,0,0,1-5.65-.75C-1.89,34.91,7.58,0,7.58,0Z"/><path class="cls-2" d="M3.88,37.12c2.87-1,8.06-3,8.06-3l-1.59,2.41,2.38.57L20.31,34s1.45.2,1,.57-8.61,4.72-8.88,5.22-1.51,4.56-1.51,4.56,2.34-1.51,2.8-1.73,5-2.73,5.37-2.58.47.39.47.39S14.6,44,14.12,45.09a19.41,19.41,0,0,0-.75,4c.46-1.16,7.37-7.59,7.91-7.9s4.45-1.39,4.45-1.39l4.68,5.58s-4.59.1-4.59.1l-5.55,22.2-4.05-6.08s-3.71.68-5.42-10.54c0,0-2.61-3.49-3.28-4.71s-.11-4.82-.11-4.82a30.92,30.92,0,0,1-3.5-4.27A.27.27,0,0,1,3.88,37.12Z"/><path class="cls-1" d="M43.43,77.29c0-1.53,0-3.06-.12-4.59-.64-1.24-1.18-2.09-1.18-2.09a72.19,72.19,0,0,0-3.88-13.38C35.85,51.68,33,43.2,27,43.83S15.18,51,15.15,56.74s10,20.84,15.3,24c4.73,2.79,10.22,3.46,13,2.07C43.36,81,43.4,79.12,43.43,77.29Z"/><path class="cls-1" d="M44.32,82.18a9.67,9.67,0,0,1-4.11,1.2,15.81,15.81,0,0,1-4-.45A18.23,18.23,0,0,1,29.7,80a26.19,26.19,0,0,1-5.52-6c-1.57-2.19-3.1-4.42-4.46-6.75a55,55,0,0,1-3.2-6.77,16.18,16.18,0,0,1-.95-3.71,9.05,9.05,0,0,1,1.51-5.68c1.74-3,4.37-5.81,7.79-6.85a6.82,6.82,0,0,1,5.12.24,9.7,9.7,0,0,1,3.79,4.08,90.67,90.67,0,0,1,4.85,10.32,84.17,84.17,0,0,1,3.12,9.9c.18.83.36,1.67.5,2.52a11.19,11.19,0,0,0,1,2.47.11.11,0,0,0,.21,0,1.14,1.14,0,0,0-.14-.93,6.24,6.24,0,0,1-.69-1.94,11.5,11.5,0,0,0-.68-2.7,48.63,48.63,0,0,0-4-12c-.85-1.93-1.76-3.83-2.7-5.72a21.34,21.34,0,0,0-3.59-5.38C29.13,42.57,26.05,43,23,44.51A16.38,16.38,0,0,0,15.8,52.6a8.25,8.25,0,0,0-.55,4.88A17,17,0,0,0,16.2,61a37.21,37.21,0,0,0,3.93,7.79,79.65,79.65,0,0,0,5.13,7.38A20.25,20.25,0,0,0,31,81.35a19,19,0,0,0,7.06,2.34c2.14.26,4.64.29,6.25-1C44.38,82.66,44.39,82.15,44.32,82.18Z"/><path class="cls-3" d="M48.12,79.81c-1.19-.83-2.51-2.13-4.06-2.12l-.06,0a.15.15,0,0,0-.21.15c.35,3.36.7,6.72,1.11,10.07.2,1.61.42,3.2.65,4.8.13.9.3,2-.41,2.7-1.18,1.19-2-.36-2.33-1.31t0,0c-.17-.77-.29-1.55-.43-2.33-.32-1.8-.58-3.6-.83-5.4a.28.28,0,0,0-.05-.11,1.59,1.59,0,0,0,.43-.3.06.06,0,0,0-.06-.1c-.26.08-.5.18-.76.24s-.47,0-.62.17a.09.09,0,0,0,0,.12c.17.16.44.08.64,0a69.13,69.13,0,0,0,1.3,7.7,5.34,5.34,0,0,0,.38,1.08c0,.6.09,1.2.06,1.8a5.67,5.67,0,0,1-.1,1,2.21,2.21,0,0,1-.15.5c-.49.8-1.05.45-1.41,0s-.41-1.61-.49-2.08-.21-1.19-.32-1.78c-.49-2.5-1.08-5-1.68-7.45l.21-.11c.05,0,0-.13,0-.12s-.78.12-.83.22a.06.06,0,0,0,0,.08.25.25,0,0,0,.25,0c.47,2,.95,3.89,1.36,5.85.2.94.39,1.88.55,2.83.11.62.14,1.33.32,2-.47,1.48-1.72.12-2-.43a8.21,8.21,0,0,1-.5-1.36c-.3-.89-.56-1.8-.8-2.7s-.49-1.85-.69-2.79-.26-1.77-.5-2.61a1.32,1.32,0,0,0,.44,0c.06,0,.09-.09,0-.12L36,87.71c-.17-.07-.9-.22-1-.28a.21.21,0,0,0-.32.23c.15,1.17.29,2.33.42,3.5a21.73,21.73,0,0,1-.16,2.78c-.27.63-1,.39-1.32-.07a4.23,4.23,0,0,1-.34-1.23c-.47-2.31-2.49-11.59-2.89-14a15.94,15.94,0,0,1,.72-7.28.11.11,0,0,0,0-.08,9.29,9.29,0,0,1,2.34-2.17,6.33,6.33,0,0,1,1.64-.83l.49-.14a3.18,3.18,0,0,1,2.63.71l-.09.06c1.1.25,2.39,1.34,3.71,1.67a11.37,11.37,0,0,1,4.7,2.89,46.15,46.15,0,0,1,3.26,3.72,7.34,7.34,0,0,0,3.33,2.44C52.05,81.63,49.63,80.85,48.12,79.81Z"/><path class="cls-4" d="M36.49,75.49c0,2.13-1.42,4.25-3,5.53-.07.06-.14,0-.08-.1a9.17,9.17,0,0,0,1.9-2.6,15.78,15.78,0,0,0,.87-2.84C36.22,75.33,36.48,75.3,36.49,75.49Z"/><path class="cls-4" d="M41.59,78.67c-1.59.23-3.88-1.39-4.46-2.83,0-.06,0-.11.1-.07a22.7,22.7,0,0,0,1.91,1.62c.79.5,1.69.64,2.49,1.08A.1.1,0,0,1,41.59,78.67Z"/><polygon class="cls-5" points="35.04 90.6 35.89 92.43 37.47 92.14 38.37 90.09 36.77 88.52 34.82 89.41 35.04 90.6"/><polygon class="cls-6" points="35.89 92.43 37.14 93.35 38.69 91.93 39.22 89.95 36.77 88.52 38.37 90.09 37.54 91.59 35.89 92.43"/><polygon class="cls-5" points="32.19 89.37 33.04 91.2 34.63 90.91 35.52 88.86 33.92 87.29 31.98 88.18 32.19 89.37"/><polygon class="cls-6" points="33.04 91.2 34.3 92.12 35.84 90.7 36.37 88.72 33.92 87.29 35.52 88.86 34.69 90.36 33.04 91.2"/><polygon class="cls-5" points="39.36 81.55 40.21 83.38 41.8 83.09 42.7 81.04 41.09 79.47 39.15 80.36 39.36 81.55"/><polygon class="cls-6" points="40.21 83.38 41.47 84.3 43.02 82.88 43.54 80.9 41.09 79.47 42.7 81.04 41.86 82.54 40.21 83.38"/><polygon class="cls-5" points="35.5 75.05 36.35 76.88 37.94 76.59 38.84 74.54 37.24 72.97 35.29 73.86 35.5 75.05"/><polygon class="cls-6" points="36.35 76.88 37.61 77.8 39.16 76.38 39.68 74.41 37.24 72.97 38.84 74.54 38 76.04 36.35 76.88"/><polygon class="cls-5" points="39.87 94.04 40.72 95.87 42.31 95.58 43.21 93.53 41.6 91.96 39.66 92.85 39.87 94.04"/><polygon class="cls-6" points="40.72 95.87 41.98 96.79 43.52 95.37 44.05 93.39 41.6 91.96 43.21 93.53 42.37 95.02 40.72 95.87"/><polygon class="cls-5" points="40.88 87.62 41.73 89.45 43.32 89.16 44.22 87.11 42.62 85.54 40.67 86.44 40.88 87.62"/><polygon class="cls-6" points="41.73 89.45 42.99 90.37 44.54 88.95 45.06 86.97 42.62 85.54 44.22 87.11 43.38 88.61 41.73 89.45"/><polygon class="cls-5" points="41.49 90.49 41.21 91.55 42.47 91.88 43.39 91 41.49 90.49"/><polygon class="cls-6" points="41.49 90.49 40.49 91.86 40.88 93.2 42.77 92.7 43.39 91 42.47 91.88 41.21 91.55 41.49 90.49"/><polygon class="cls-5" points="39.48 73.82 39.2 74.88 40.46 75.21 41.38 74.32 39.48 73.82"/><polygon class="cls-6" points="39.48 73.82 38.48 75.19 38.87 76.53 40.76 76.03 41.38 74.32 40.46 75.21 39.2 74.88 39.48 73.82"/><polygon class="cls-5" points="41.12 83.27 40.84 84.33 42.09 84.66 43.02 83.78 41.12 83.27"/><polygon class="cls-6" points="41.12 83.27 40.11 84.65 40.5 85.98 42.39 85.49 43.02 83.78 42.09 84.66 40.84 84.33 41.12 83.27"/><polygon class="cls-5" points="41.51 77.08 42.05 77.69 42.78 77.04 42.61 76.1 41.51 77.08"/><polygon class="cls-6" points="41.51 77.08 41.95 78.28 42.95 78.59 43.42 77.2 42.61 76.1 42.78 77.04 42.05 77.69 41.51 77.08"/><polygon class="cls-5" points="38.5 76.75 39.05 77.37 39.78 76.72 39.61 75.77 38.5 76.75"/><polygon class="cls-6" points="38.5 76.75 38.94 77.95 39.94 78.26 40.42 76.87 39.61 75.77 39.78 76.72 39.05 77.37 38.5 76.75"/><polygon class="cls-5" points="37.64 84.29 38.19 84.91 38.92 84.25 38.75 83.31 37.64 84.29"/><polygon class="cls-6" points="37.64 84.29 38.08 85.49 39.08 85.8 39.56 84.41 38.75 83.31 38.92 84.25 38.19 84.91 37.64 84.29"/><polygon class="cls-5" points="35.2 89.08 35.93 89.46 36.38 88.6 35.89 87.77 35.2 89.08"/><polygon class="cls-6" points="35.2 89.08 36.03 90.05 37.08 89.99 37.04 88.52 35.89 87.77 36.38 88.6 35.93 89.46 35.2 89.08"/><polygon class="cls-5" points="36.86 87.03 37.59 87.41 38.05 86.55 37.56 85.72 36.86 87.03"/><polygon class="cls-6" points="36.86 87.03 37.7 88 38.74 87.94 38.7 86.47 37.56 85.72 38.05 86.55 37.59 87.41 36.86 87.03"/><polygon class="cls-5" points="38.63 93.94 39.55 94.43 40.12 93.34 39.5 92.3 38.63 93.94"/><polygon class="cls-6" points="38.63 93.94 39.68 95.17 40.99 95.09 40.94 93.24 39.5 92.3 40.12 93.34 39.55 94.43 38.63 93.94"/><polygon class="cls-5" points="37.01 93.53 37.59 94.12 38.29 93.42 38.06 92.49 37.01 93.53"/><polygon class="cls-6" points="37.01 93.53 37.52 94.7 38.54 94.96 38.93 93.55 38.06 92.49 38.29 93.42 37.59 94.12 37.01 93.53"/><path class="cls-5" d="M44.86,80.62a8.86,8.86,0,0,1-1-.13l0,1,2.37,1.08-.86-1.39Z"/><polygon class="cls-6" points="43.89 80.49 43.27 80.83 43.5 82.21 44.96 83.23 46.29 82.6 43.92 81.52 43.89 80.49"/><path class="cls-5" d="M40.13,87.94a9.14,9.14,0,0,1-1-.12l0,1,2.37,1.08-.86-1.38Z"/><polygon class="cls-6" points="39.16 87.82 38.54 88.16 38.77 89.53 40.23 90.56 41.56 89.92 39.19 88.84 39.16 87.82"/><path class="cls-5" d="M38.27,82a5.86,5.86,0,0,1-.64.06l.18.65,1.66.35-.74-.76Z"/><polygon class="cls-6" points="37.63 82.09 37.29 82.4 37.63 83.25 38.72 83.69 39.47 83.09 37.8 82.74 37.63 82.09"/><path class="cls-5" d="M41.87,78.8a5.86,5.86,0,0,1-.64.06l.18.65,1.66.35-.74-.76Z"/><polygon class="cls-6" points="41.23 78.86 40.89 79.17 41.24 80.02 42.32 80.46 43.08 79.86 41.41 79.51 41.23 78.86"/><path class="cls-7" d="M40.56,75.71a5.86,5.86,0,0,1-.64.06l.17.65,1.67.35L41,76Z"/><polygon class="cls-6" points="39.92 75.78 39.58 76.08 39.92 76.93 41.01 77.37 41.76 76.77 40.09 76.42 39.92 75.78"/><path class="cls-5" d="M42.69,82.66a5.86,5.86,0,0,1-.64.06l.18.65,1.67.35L43.15,83Z"/><polygon class="cls-6" points="42.05 82.72 41.71 83.03 42.06 83.87 43.14 84.32 43.9 83.72 42.23 83.37 42.05 82.72"/><polygon class="cls-7" points="41.92 80.76 40.39 80.6 39.99 81.45 40.29 82.39 41.39 82.13 41.92 80.76"/></g></g></svg>