<?xml version="1.0" encoding="utf-8"?>
<!-- Generator: Adobe Illustrator 25.0.1, SVG Export Plug-In . SVG Version: 6.00 Build 0)  -->
<svg version="1.1" id="Layer_1" xmlns="http://www.w3.org/2000/svg" xmlns:xlink="http://www.w3.org/1999/xlink" x="0px" y="0px"
	 viewBox="0 0 98.2 389.6" style="enable-background:new 0 0 98.2 389.6;" xml:space="preserve">
<style type="text/css">
	.st0{fill:#ADACAC;}
	.st1{fill:#CCCCCC;}
	.st2{fill:#454545;}
	.st3{fill:#595857;}
	.st4{fill:#666666;}
	.st5{fill:#A3A09D;}
	.st6{fill:#A4A4A4;}
	.st7{fill:#BDBDBD;}
	.st8{opacity:0.5;fill:#FFFFFF;}
	.st9{fill:#8E8D8D;}
</style>
<g id="Layer_2_1_">
	<g id="_5May-Base">
		<path class="st0" d="M44.3,252.6c-0.2,1.9-0.5,4-0.8,6.1c-1.3,8.9-3.3,19.4-3.4,21.9c-0.5,10.1-1.6,20.2-3.4,30.2
			c-0.9,4.5-3.7,26.4-4.3,36.7c-0.1,1.2-0.5,7.6-0.5,7.7s0.3,10.7,1.2,15.6c0.4,2,0.2,4.1-0.7,6c-0.8,1.6-2.2,2.7-3.9,3.1
			c-2,0.4-13.5,7.3-18.1,9.3s-12.1-5.3-10-7.1s17.1-18.4,18.1-22.2c0.2-0.9,1-17.1,1-21c0-4.6-2.1-40.3-2-44s3.2-36.5,3.6-45
			c0.2-4.2,0.5-11.3,5.5-14.6c2-1.3,4.3-1.9,6.6-1.8c0.7,0,1.4,0.1,2.1,0.2C43.2,235.7,44.9,247.6,44.3,252.6z"/>
		<path class="st0" d="M87.8,389.3c-4.6-2-16.1-8.9-18.1-9.3c-2-0.5-3.6-1.9-4.3-3.9l0,0c-0.6-1.7-0.7-3.4-0.3-5.1
			c1.1-6.3,0.9-22.2,1-23.4c0.2-8.5-3.5-32.2-4.3-36.7c-1.8-10-3-20.1-3.4-30.2c0-2.5-2-13-3.4-21.9c-0.3-2.2-0.6-4.3-0.8-6.2
			c-0.5-4.8,1-16.2,8.5-18.5c0.9-0.3,1.9-0.4,2.8-0.4c3.9,0,6.5,1.3,8.3,3.2l0,0c3.4,3.6,3.7,9.5,3.8,13.1c0.3,8.5,3.4,41.4,3.5,45
			s-1.1,39.5-2,44c-0.5,2.4,0.5,20.1,0.7,21c0.2,0.6,0.5,1.2,0.8,1.7c2.8,4.8,12,15.1,15.8,19c0.7,0.7,1.2,1.2,1.5,1.4
			C100,384,92.4,391.2,87.8,389.3z"/>
		<path class="st0" d="M49.8,43.9H32c0.4,19.8-10.4,23.9-10.4,23.9c6.8,10,19.3,9.4,19.3,9.4s12.4,0.6,19.2-9.4
			C60.1,67.7,49.3,63.7,49.8,43.9z"/>
		<path class="st0" d="M57.8,26.6c0,0,2.5-5.5,5.3-3.9c1.6,0.9,0.1,15.5-5.3,14.8c0,0-1-0.4-1-2.7L57.8,26.6"/>
		<path class="st1" d="M61.6,24.5c-1.3,0-2.4,6.3-2.4,6.3c0.7,1.4,1.3,1.4,0.4,2.1s-0.2,2.4-0.2,2.4c0.1,0.2,0.2,0.2,0.3,0.2
			c0.6,0,0.9-3,0.8-3.5s0.7-1,0.7-1c1.5-1.3,0.4-6.6,0.4-6.6L61.6,24.5"/>
		<path class="st0" d="M22.4,26.6c0,0-2.5-5.6-5.3-3.9c-1.6,0.9-0.1,15.5,5.3,14.8c0,0,1-0.4,1-2.7L22.4,26.6"/>
		<path class="st1" d="M19.7,24.5h-0.2c0,0-1.6,5.6,0.6,6.9c0,0,1.2,0.4,1.1,1s0.3,3.6,1.3,3.6c0.2,0,0.4-0.1,0.5-0.3
			c0,0,1-1.8-0.2-2.5s-0.4-0.7,0.6-2.2C23.4,31,21.6,24.4,19.7,24.5"/>
		<path class="st0" d="M38,55.5c0,0-9.4-6.6-12.3-10.5c-2.6-3.6-4.4-20.1-4.7-22.9v-0.3v-0.1l0,0c0-0.6-0.1-1.2-0.1-1.8
			C20.9,8.9,29.4,0,40,0s19,8.9,19,19.9c0,0.7,0,1.4-0.1,2.1l0,0c0,0-1.9,19.1-4.8,23S41.9,55.5,41.9,55.5C40.7,56,39.2,56,38,55.5z
			"/>
		<path class="st1" d="M46.5,22.4c-0.8,0.8-1.6,1.7-2.3,2.6c-0.7,0.9-1.3,1.9-1.7,3c0.2-1.2,0.6-2.4,1.2-3.4c0.6-1,1.2-2,2-3
			L46.5,22.4z"/>
		<path class="st2" d="M37.6,20.1c0,0-0.3,2.8-1.2,3c-2.6,0.7-7.2-2.4-11,0.9c0,0,0.8-3.3,3.1-4.1S36.8,20.5,37.6,20.1z"/>
		<path class="st2" d="M43.7,20.1c0,0,0.3,2.8,1.2,3c2.6,0.7,7.2-2.4,11,0.9c0,0-0.8-3.3-3.1-4.1S44.5,20.5,43.7,20.1z"/>
		<path class="st1" d="M42.9,31c-0.2,2.3-0.2,4.5-0.1,6.8c0.1,1.5-0.7,2.3-1.4,2.5c0,0,3,0.5,3.4-2.3C45.2,36,43.4,34,42.9,31z"/>
		<path class="st1" d="M39.9,40c0,0-2.9-1-2.4-0.1S39.9,40,39.9,40z"/>
		<path class="st1" d="M22.5,29.2c0.8-0.2,1.6-0.4,2.3-0.6s1.5-0.4,2.3-0.6c-0.7,0.5-1.4,0.8-2.2,1C24.1,29.2,23.3,29.3,22.5,29.2z"
			/>
		<path class="st1" d="M24.1,29.9c0.4-0.3,0.9-0.4,1.3-0.7s0.8-0.4,1.3-0.6c-0.1,0.2-0.3,0.4-0.5,0.6c-0.2,0.2-0.4,0.3-0.6,0.4
			C25.1,29.8,24.6,29.9,24.1,29.9z"/>
		<path class="st1" d="M60,29.2c-0.8,0.1-1.7,0-2.5-0.2c-0.8-0.2-1.6-0.5-2.2-1c0.8,0.2,1.5,0.4,2.3,0.6S59.2,29,60,29.2z"/>
		<path class="st1" d="M58.4,29.9c-0.5,0-1-0.1-1.4-0.3c-0.2-0.1-0.4-0.3-0.6-0.4c-0.2-0.2-0.4-0.4-0.5-0.6c0.5,0.2,0.9,0.4,1.3,0.6
			S58,29.6,58.4,29.9z"/>
		<path class="st3" d="M61.7,17.8c0-0.2,0-0.4,0.1-0.6C61.7,17.5,61.7,17.6,61.7,17.8z"/>
		<path class="st2" d="M36.8,27.4c-0.4,0.1-0.9,0.1-1.3,0c-0.5-0.1-2.8-1.7-4.6-1.1s-2.2,1.5-2.7,1.6c0,0,1.2,0.5,1.7,0.2
			s2-1.6,5.1-0.2C35.7,27.9,36.4,27.8,36.8,27.4z"/>
		<path class="st2" d="M45.4,27.4c0.4,0.1,0.9,0.1,1.3,0c0.5-0.1,2.9-1.7,4.6-1.1s2.2,1.5,2.7,1.6c0,0-1.2,0.5-1.7,0.2
			s-2-1.6-5.1-0.2C46.5,27.9,45.9,27.8,45.4,27.4z"/>
		<path class="st4" d="M49.7,42.5c-0.6-0.5-1.3-0.8-2-1c-1.4-0.5-2.9-0.7-4.3-0.7h-3.7c-1.5,0-2.9,0.2-4.3,0.7c-0.7,0.2-1.4,0.5-2,1
			c-0.6,0.5-0.9,1.2-0.8,2c0,0.1,0.1,0.2,0.2,0.3c0.1,0.1,0.2,0.1,0.3,0.1c0.6,0.1,1-0.4,1.4-0.8c-0.1,0.3,0.3,0.7,0.7,0.6
			c0.4-0.1,0.6-0.4,0.8-0.8c-0.2,0.3,0.3,0.7,0.7,0.6c0.4-0.2,0.6-0.5,0.7-0.9c0,0.4,0.5,0.6,0.9,0.5c0.4-0.1,0.7-0.4,1-0.7
			c-0.1,0.3,0.3,0.6,0.7,0.5c0.3-0.1,0.6-0.3,0.8-0.6c-0.1,0.3,0.2,0.6,0.5,0.5c0.3-0.1,0.5-0.4,0.5-0.7c0-0.1,0-0.1,0-0.2
			c0,0.1,0,0.1,0,0.2c0,0.3,0.3,0.6,0.5,0.7c0.3,0.1,0.7-0.2,0.5-0.5c0.2,0.3,0.4,0.5,0.8,0.6c0.3,0.1,0.7-0.2,0.7-0.5
			c0.3,0.3,0.6,0.6,1,0.7c0.4,0.1,0.9-0.2,0.9-0.5c0.1,0.4,0.3,0.7,0.7,0.9c0.4,0.1,0.8-0.2,0.7-0.6c0.2,0.4,0.4,0.6,0.8,0.8
			c0.4,0.1,0.8-0.3,0.7-0.6c0.4,0.4,0.8,0.9,1.4,0.8c0.1,0,0.2,0,0.3-0.1c0.1-0.1,0.1-0.2,0.2-0.3C50.6,43.8,50.3,43,49.7,42.5z"/>
		<path class="st5" d="M68.4,73.7L68.4,73.7z M68.4,73.7L68.4,73.7z"/>
		<path class="st0" d="M82.3,196.2c0,0-10.5,7.2-32.4,9.1S8.2,201,8.2,201s6.3-77.4-3.6-102.4c0-17.9,0.2-27.3,6.7-29.2
			c5.6-1.7,11.7-3.7,14.9-5.3c1.9-1.3,2-2,3.4-3.2c2-1.6,1.6-3.4,6.3-3.3s8.3,1.7,9.5,3.4c0.5,0.7,2.2,1.9,2.2,3.3
			c2.1,0.7,4.2,1.1,6.4,1.4c4.9,0.6,11.6,2,13.5,7.7s0.7,58.8,4.2,77.4S82.3,196.2,82.3,196.2z"/>
		<path class="st6" d="M17.2,97.8c0,0-4.2,14.1-3.9,23.2s3.9,9.1,3.9,9.1l10.5-13.3C27.8,116.9,18.4,115,17.2,97.8z"/>
		<path class="st7" d="M51.4,87.6c0,0,0.3-1.7,1.4-1.2S53,88,53,88L51.4,87.6z"/>
		<g>
			<path class="st8" d="M35.6,23.1l-0.3,0.5l-5.2,9.1l-0.3,0.5c-1-0.3-1.9-0.9-2.6-1.7l0.3-0.5l4.8-8.4l0.3-0.5
				C33.7,22.2,34.7,22.5,35.6,23.1z"/>
			<path class="st8" d="M36.8,24.1l-0.3,0.5L31.7,33l-0.3,0.5c-0.3,0-0.6-0.1-0.9-0.1l0.3-0.5l5.1-8.9l0.3-0.5
				C36.3,23.7,36.6,23.9,36.8,24.1z"/>
			<path class="st9" d="M36.8,24.1c-0.2-0.2-0.4-0.4-0.7-0.6c-0.2-0.1-0.3-0.3-0.5-0.4c-0.9-0.5-1.9-0.9-2.9-1c-0.2,0-0.4,0-0.6,0
				c-3.5,0-6.3,2.6-6.3,5.8c0,1.4,0.6,2.7,1.5,3.8c0.7,0.7,1.6,1.3,2.6,1.7c0.2,0.1,0.4,0.1,0.6,0.2c0.3,0.1,0.6,0.1,0.9,0.1
				c0.2,0,0.4,0,0.6,0c3.5,0,6.3-2.6,6.3-5.8C38.3,26.4,37.7,25.1,36.8,24.1z M32,33c-0.1,0-0.2,0-0.3,0c-0.3,0-0.6-0.1-0.9-0.1
				c-0.2,0-0.4-0.1-0.7-0.2c-1-0.3-1.9-0.9-2.6-1.7c-0.8-0.9-1.2-2-1.2-3.2c0-2.9,2.5-5.2,5.7-5.2c0.1,0,0.2,0,0.3,0
				c1.1,0.1,2.1,0.4,3,1c0.2,0.1,0.4,0.3,0.5,0.4c0.2,0.2,0.4,0.4,0.6,0.6c0.7,0.9,1.2,2,1.2,3.2C37.6,30.7,35.1,33,32,33z"/>
			<path class="st9" d="M43.9,28.6h-0.6c0-1.1-1.2-2.1-2.6-2.1c-1.4,0-2.6,1.1-2.6,2.1h-0.6c0-1.7,1.4-2.6,3.2-2.6
				C42.5,26,43.9,26.9,43.9,28.6z"/>
			<path class="st8" d="M45.9,23.1l0.3,0.5l5.2,9.1l0.3,0.5c1-0.3,1.9-0.9,2.6-1.7L53.9,31l-4.8-8.4l-0.3-0.5
				C47.7,22.2,46.7,22.5,45.9,23.1z"/>
			<path class="st8" d="M44.7,24.1l0.3,0.5l4.8,8.4l0.3,0.5c0.3,0,0.6-0.1,0.9-0.1l-0.3-0.5L45.6,24l-0.3-0.5
				C45.1,23.7,44.9,23.9,44.7,24.1z"/>
			<path class="st9" d="M43.2,27.8c0,3.2,2.8,5.8,6.3,5.8c0.2,0,0.4,0,0.6,0c0.3,0,0.6-0.1,0.9-0.1c0.2-0.1,0.4-0.1,0.6-0.2
				c1-0.3,1.9-0.9,2.6-1.7c0.9-1,1.5-2.3,1.5-3.8c0-3.2-2.8-5.8-6.3-5.8c-0.2,0-0.4,0-0.6,0c-1.1,0.1-2.1,0.5-2.9,1
				c-0.2,0.1-0.4,0.2-0.5,0.4c-0.2,0.2-0.5,0.4-0.7,0.6C43.7,25.1,43.2,26.4,43.2,27.8z M43.8,27.8c0-1.2,0.4-2.3,1.2-3.2
				c0.2-0.2,0.4-0.4,0.6-0.6c0.2-0.1,0.3-0.3,0.5-0.4c0.8-0.6,1.9-0.9,3-1c0.1,0,0.2,0,0.3,0c3.1,0,5.7,2.3,5.7,5.2
				c0,1.2-0.4,2.3-1.2,3.2c-0.7,0.8-1.5,1.4-2.6,1.7c-0.2,0.1-0.4,0.1-0.7,0.2C50.4,33,50.1,33,49.8,33c-0.1,0-0.2,0-0.3,0
				C46.3,33,43.8,30.7,43.8,27.8z"/>
		</g>
	</g>
</g>
</svg>
