<svg xmlns="http://www.w3.org/2000/svg" viewBox="0 0 94.76 336.25"><defs><style>.cls-1{fill:#8c8a85;}.cls-2{fill:#adacac;}.cls-3{fill:#bdbdbd;}</style></defs><g id="Layer_2" data-name="Layer 2"><g id="_5May-Staff" data-name="5May-Staff"><path class="cls-1" d="M54.89.29A13,13,0,0,1,59.57.13c.9,1.67,0,3.76-.27,5.49A46.54,46.54,0,0,0,59,13.17c-.05,3.89-1.27,8.09-1,11.94a30.51,30.51,0,0,0-4.93.2c-.54-4,.2-8.12.56-12.09S52.42,4.28,55,.5C55.57.55,55.5.4,54.89.29Z"/><path class="cls-1" d="M53.46,42.82c-1.22,18.68,1.13,37.83.46,56.55-.77,21.8,1.77,43.73.26,65.49-3.07,44-2.83,89.26-1.71,133.68q.33,12.94.63,25.88c.15,5.87-.81,12.28,4.73,11.81,1.86-12.84-.26-28.14-.48-41.24-.34-20.47.83-41,.31-61.51C56.53,189.2,58.91,145,59.41,100.83c.21-18.65-2.74-40.38.31-58.56C57.47,41.29,55.2,42,53.46,42.82Z"/></g><g id="_5May-ArmL" data-name="5May-ArmL"><path class="cls-2" d="M55.44,16.18s.13-2.17,1.78-1.46a1.45,1.45,0,0,1,2.54-.54,3.52,3.52,0,0,1,.59,1.89A1.14,1.14,0,0,1,61.91,16c.91.56.63,2.12.63,2.12s1-.87,1.92.46.23,5,.42,6.54-.12,4.59.18,5.05,2.29,6.72,2.6,7.92.55,2.63.55,2.63a101.92,101.92,0,0,0,9,7C75.8,51.18,75.5,52.3,75.5,52.3l-4.87.88s-5.42-6.71-9.24-8.84a6.34,6.34,0,0,1-4.17-2.66S53.89,29.53,53.93,29.3,55.44,16.18,55.44,16.18Z"/><path class="cls-3" d="M62.24,41.85a.25.25,0,0,1-.19-.09,3.78,3.78,0,0,1-.89-2.45.24.24,0,0,1,.26-.22.24.24,0,0,1,.23.25,3.26,3.26,0,0,0,.77,2.11.23.23,0,0,1,0,.34A.22.22,0,0,1,62.24,41.85Z"/><path class="cls-3" d="M62.09,44.24a.24.24,0,0,1-.23-.14.25.25,0,0,1,.13-.32A3.06,3.06,0,0,0,63.16,43c.14-.23.47-.27,1-.34a4.1,4.1,0,0,0,3.21-1.73.24.24,0,0,1,.34-.06.23.23,0,0,1,.06.33,4.59,4.59,0,0,1-3.54,1.94,2.19,2.19,0,0,0-.61.12,3.55,3.55,0,0,1-1.39.95A.15.15,0,0,1,62.09,44.24Z"/><path class="cls-3" d="M63.29,30a1,1,0,0,1-.56-.13.17.17,0,0,1,0-.22.15.15,0,0,1,.22-.05,1.37,1.37,0,0,0,1,0,.15.15,0,0,1,.2.11.16.16,0,0,1-.1.2A2.37,2.37,0,0,1,63.29,30Z"/><path class="cls-2" d="M66.53,48.62c4.41-.11,6-1.29,4.52-5.49,0,0,19.69,13.21,19.82,13.31,4,3.14,5.52,9.69,1.61,13C86,74.85,71.14,54,66.53,48.62Z"/></g><g id="_5May-ArmR-Upper" data-name="5May-ArmR-Upper"><path class="cls-2" d="M19.24,68.6a14.14,14.14,0,0,1,.49-7.1,20.29,20.29,0,0,1-2,.61c-4-23,3-40.51,3.11-40.7,2.19-4.61-.67-8.82-4.39-12.32-4.18-3.94-11.51,1.5-12.87,6.43C-1.46,33.6-2,54.3,7.6,78a21.76,21.76,0,0,0,10.83-.39A14.24,14.24,0,0,1,19.24,68.6Z"/></g><g id="_5May-ArmR-Lower" data-name="5May-ArmR-Lower"><path class="cls-2" d="M63.23,18.24c-.94-.75-1.45-.12-1.45-.12a1.84,1.84,0,0,0-1-2,1,1,0,0,0-1.24.22s-.15-1.69-1.13-2.06c-1.62-.61-1.94,1.47-1.94,1.47a1.11,1.11,0,0,0-1.67-.43c-.86.55-1.18,4.62-1.89,7.86s-1.46,8.33-2.82,13.93A27.24,27.24,0,0,1,47,42.21,73.21,73.21,0,0,1,36.29,52.69C32.6,55.55,23,60.86,17.7,62.11c0-.13,0-.25-.06-.38-.33.13-.67.24-1,.35a11.23,11.23,0,0,1-1.35,1l-.5.58c-.06.06-.11.12-.17.17a5.22,5.22,0,0,1-.43.39,3.27,3.27,0,0,1-.35.3l-.42.33-.64.43-.44.26c-.21.12-.43.23-.65.34l-.38.17c-.25.11-.5.2-.75.29l-.3.11c-.35.11-.72.21-1.1.29l-.31.06-.93.14-.37,0c-.23,0-.47,0-.71,0a11.06,11.06,0,0,1-2.7,1.13c1,3.24,2.12,6.53,3.48,9.89,16,3.79,33.5-14.07,41.3-23.31h0l.56-.69c2.24-2.69,3.54-4.49,3.59-4.55,1.64-2.15,3.45-4.63,4.82-6.78,3.62-.52,4.13-5.55,4.36-7.36s.88-9.06,1-10.51S64.17,19,63.23,18.24Z"/><path class="cls-2" d="M52.32,28.51s.76-3.24-.89-3-1.39,5.24-2.1,7.77a5.42,5.42,0,0,0,1.26,5.4C51.44,39.3,52.32,28.51,52.32,28.51Z"/><path class="cls-3" d="M54.42,27.73a.24.24,0,0,1-.14-.05.23.23,0,0,1-.05-.33l.32-.44c0-.51.26-3.69.5-5.38s1.16-5.79,1.17-5.83a.23.23,0,0,1,.28-.18.25.25,0,0,1,.19.29s-.9,4-1.16,5.79S55,27,55,27v.07l-.4.55A.23.23,0,0,1,54.42,27.73Z"/><path class="cls-3" d="M57.22,28.21a.27.27,0,0,1-.12,0,.24.24,0,0,1-.09-.33l.3-.55c0-.45.37-3.78.62-5.29s1.31-5.55,1.36-5.72a.24.24,0,0,1,.29-.17.24.24,0,0,1,.17.3s-1.08,4.08-1.34,5.67-.62,5.27-.62,5.31v.05l-.36.64A.25.25,0,0,1,57.22,28.21Z"/><path class="cls-3" d="M59.76,29.05a.15.15,0,0,1-.09,0,.24.24,0,0,1-.13-.31l.33-.81c0-.38.4-3.82.55-5.17a39.16,39.16,0,0,1,1.13-4.69.26.26,0,0,1,.3-.17.24.24,0,0,1,.16.3A44.31,44.31,0,0,0,60.9,22.8c-.16,1.41-.55,5.16-.56,5.19v0L60,28.9A.24.24,0,0,1,59.76,29.05Z"/><path class="cls-3" d="M52.45,26.51c-.35,1.74-.72,3.47-1.09,5.2s-.76,3.46-1.16,5.18c.33-1.74.63-3.48.92-5.23s.58-3.49.85-5.23a.24.24,0,0,1,.28-.2.24.24,0,0,1,.2.27Z"/><path class="cls-3" d="M55.1,15.16a1.13,1.13,0,0,1,.83,0,1.09,1.09,0,0,1,.39.22c.06,0,.1.1.16.15l.13.18h0l-.34,0,.09-.33a2.26,2.26,0,0,1,.13-.33,2.17,2.17,0,0,1,.37-.61,1.3,1.3,0,0,1,.65-.4,1.58,1.58,0,0,1,.75,0l.17,0,.18.08a1.5,1.5,0,0,1,.31.24,2.39,2.39,0,0,1,.42.58,2.85,2.85,0,0,1,.26.65,2.35,2.35,0,0,1,.11.71l-.34-.12a1.23,1.23,0,0,1,.43-.35,1,1,0,0,1,.56-.09,1.61,1.61,0,0,1,.93.48,1.71,1.71,0,0,1,.18.2l.13.2a3.14,3.14,0,0,1,.25.44,1.55,1.55,0,0,1,.11,1h0L61.65,18a1.54,1.54,0,0,1,.19-.17,1.12,1.12,0,0,1,.24-.13,1,1,0,0,1,.54,0,1.51,1.51,0,0,1,.83.55,2,2,0,0,1,.42.88,1.9,1.9,0,0,1,0,.25,1.76,1.76,0,0,1,0,.23c0,.15,0,.3,0,.45,0,.58-.07,1.17-.12,1.75l-.15,1.75c-.21,2.33-.38,4.65-.61,7-.11,1.16-.23,2.33-.37,3.49s-.3,2.32-.54,3.48a11.08,11.08,0,0,1-.47,1.71,8.73,8.73,0,0,1-.75,1.61,4.43,4.43,0,0,1-1.19,1.32,3.25,3.25,0,0,1-1.66.57,3.49,3.49,0,0,0,.84-.23,2.75,2.75,0,0,0,.38-.2,1.13,1.13,0,0,0,.18-.12L59.6,42a4.46,4.46,0,0,0,1.06-1.34,8.84,8.84,0,0,0,.65-1.59,11.08,11.08,0,0,0,.4-1.68c0-.29.09-.58.14-.86l.11-.87c.07-.58.14-1.15.2-1.73.12-1.16.23-2.33.33-3.49.21-2.32.38-4.66.62-7,.11-1.16.22-2.32.31-3.48a3.78,3.78,0,0,0,0-.82,1.57,1.57,0,0,0-.31-.7,1.16,1.16,0,0,0-.59-.42.65.65,0,0,0-.61.19.18.18,0,0,1-.27,0,.21.21,0,0,1,0-.17h0a1.18,1.18,0,0,0-.09-.8,2.08,2.08,0,0,0-.22-.38,1.27,1.27,0,0,0-.13-.19,1,1,0,0,0-.13-.16,1.32,1.32,0,0,0-.71-.37.72.72,0,0,0-.36,0,.86.86,0,0,0-.29.25h0a.19.19,0,0,1-.27,0,.21.21,0,0,1-.07-.14A2.52,2.52,0,0,0,59,15.17a2.18,2.18,0,0,0-.35-.49,1.63,1.63,0,0,0-.22-.17l-.13,0-.14,0a1.11,1.11,0,0,0-.57,0,1,1,0,0,0-.46.29,1.74,1.74,0,0,0-.31.51c0,.09-.07.2-.11.29l-.09.31a.19.19,0,0,1-.23.13.15.15,0,0,1-.11-.08h0l-.08-.17a.78.78,0,0,0-.1-.15.89.89,0,0,0-.26-.25A1.06,1.06,0,0,0,55.1,15.16Z"/></g></g></svg>