<svg xmlns="http://www.w3.org/2000/svg" viewBox="0 0 112.96 289.56"><defs><style>.cls-1{fill:#eaeaea;}.cls-2{fill:#c1bfbd;}.cls-3{fill:#fff;}</style></defs><g id="Layer_2" data-name="Layer 2"><g id="_5May-Shawl" data-name="5May-Shawl"><path class="cls-1" d="M110,55.91s4.78,5.79-.06,20.37-10.56,46.91-11.84,47.51-9.46-40.9-9.46-40.9S98.21,43,110,55.91Z"/><path class="cls-2" d="M103.69,53.76s8.47.3,5.73,15.54c-2.24,12.48-10.57,41.62-13,44.88S77.57,86.4,85.15,76c4.53-6.24,10.65-27.51,16.25-26.7S103.69,53.76,103.69,53.76Z"/><path class="cls-3" d="M112.38,182.3c-6.26,3.61-6.29,37.86-15.1,49.87-6,8.2-15.94,8-27.89,16.41-5.2,3.66-10.78,8.94-16.59,17.25h0c-.41.57-.81,1.16-1.22,1.77-19.69,29.42-48.16,20.63-51,21s5.23-58.85,8.83-74a78.1,78.1,0,0,0,1.42-8.9c.47-4,.85-8.72,1.18-13.7,1.28-19.28,1.84-43,3.48-50.68,1-4.67,1.17-17.24,1.66-30.87h0c.24-6.73.56-9.7,1.1-16.13.26-3.14.57-8.16.95-12.12.16-1.63.33-3.08.51-4.14.13-.79.28-1.56.43-2.29a30.84,30.84,0,0,1,2.53-8.06,6.55,6.55,0,0,1,2.19-2.6C34.34,59.41,65.75.65,68.64.31,75.22-.46,87.55-1.75,91.93,23c2.9,16.34,16.21,27.17,18.1,32.92-4.88-2-14.89,3.38-17.21,11.41a36.4,36.4,0,0,0-1.41,14.14C95.68,118.37,116.7,179.81,112.38,182.3Z"/><path class="cls-2" d="M70.43,2.88c.16-.25.37-.53.67-.51s.51.65.45,1.08a46,46,0,0,1-4.45,14.1,7.53,7.53,0,0,1-.4-4.3c-2,1.94-3.86,3.95-5.89,5.8-.56-1.93,3.3-6.22,4.39-7.94C66.94,8.37,68.73,5.64,70.43,2.88Z"/><path class="cls-2" d="M95.09,128.75c1.92.37,6,15.51,6.5,17.4a169.73,169.73,0,0,1,5.14,29.68c.3,3.69-2.07,7.65-3.44,2.2-1-4-1.55-8.21-2.19-12.29C100.75,163.56,95.72,128.87,95.09,128.75Z"/><path class="cls-2" d="M69.39,248.58c-5.2,3.66-10.78,8.94-16.59,17.25.74-13.48,5.31-50.83,4.19-63.68-1.33-15.31,5.27-1.4,6.77,12.51C64.91,225.32,68,241.58,69.39,248.58Z"/><path class="cls-2" d="M42.15,131.6c-1.81,17.41-13.82,41.73-23.8,58.84a127.84,127.84,0,0,0-7.51,15.32c.47-4,.85-8.72,1.18-13.7,5.44-10.5,11.82-28.79,18.42-54.18C38.24,107.84,44,114.18,42.15,131.6Z"/><path class="cls-2" d="M72.6,51.44s-2.28,57.87-5.41,78.47,13.68-21.62,11.28-39.24S75.13,35.52,72.6,51.44Z"/><path class="cls-2" d="M91.41,81.46S88,59.54,86.6,50.23s1.36-.14,3.61,7.36a26,26,0,0,1,.89,5.82A26,26,0,0,1,91,68.85,56.07,56.07,0,0,0,91.41,81.46Z"/><path class="cls-2" d="M90.17,25.32s-4.77-3.38-4.77,5.51S85,26.82,90.17,25.32Z"/><path class="cls-2" d="M72.9,39.25c-.21.3-7.75,17-18.22,26.22-6.09,5.37-13.74,44.59-15.43,44.36s4.35-35.31,2-33.87-10.45,1.73-12.9,12.61c-2.89,12.85-3.18,32.3-5.21,33.2s.9-38.28.9-38.28a10.2,10.2,0,0,1-4.84-1.24c.16-1.63.33-3.08.51-4.14.13-.79.28-1.56.43-2.29a30.84,30.84,0,0,1,2.53-8.06c.56-.59.92-.94.92-.94l6.31-2.94h2S49.34,37.52,52.34,33.94,42.45,56,40.68,59.17s16.6-5.84,16.6-5.84Z"/></g></g></svg>