<svg xmlns="http://www.w3.org/2000/svg" viewBox="0 0 134.03 456.15"><defs><style>.cls-1{fill:#bd815a;}.cls-2{fill:#e6e6e6;}.cls-3{fill:#262626;}.cls-4{fill:#383838;}.cls-5{fill:#a8a8a8;}.cls-6{fill:#ccc;}</style></defs><g id="Layer_2" data-name="Layer 2"><g id="Layer_1-2" data-name="Layer 1"><path class="cls-1" d="M75.79,220.93s1.08,17.3,3.66,28.53c-2.15,5.21-19.74,11-19.74,11l-1.44-44.31Z"/><path class="cls-2" d="M7.25,400.38s54.43-69,53.73-79.31-2.71-50.4-7.46-61.22c18.15-3.89,27.62-19.06,27.62-19.06s14.75,70.52,12.16,83.92S46.6,406,41,456.15C21.86,448.21,7.25,400.38,7.25,400.38Z"/><path class="cls-3" d="M70,291.42,69.46,3.64l-12.63,0,.54,287.8A3.13,3.13,0,0,0,59.22,294a9.91,9.91,0,0,0,8.94,0A3.14,3.14,0,0,0,70,291.42Z"/><path class="cls-4" d="M67.62,6.22a9.88,9.88,0,0,1-8.94,0c-2.47-1.42-2.48-3.73,0-5.16a9.86,9.86,0,0,1,8.93,0C70.08,2.48,70.08,4.8,67.62,6.22Z"/><polygon class="cls-5" points="6.93 205.44 134.03 131.28 133.19 4.54 6.08 78.68 6.93 205.44"/><polygon class="cls-6" points="6.93 205.44 0.85 201.95 0 75.2 6.08 78.68 6.93 205.44"/><polygon class="cls-6" points="127.12 1.07 133.19 4.54 6.08 78.68 0 75.2 127.12 1.07"/><path class="cls-1" d="M61.07,212.82c0,6.81-2.27,12.33-5.06,12.33S51,219.63,51,212.82s2.26-12.31,5.06-12.31S61.07,206,61.07,212.82Z"/><path class="cls-1" d="M61.07,204.39c3.25-2.92,9-2.7,9-2.7l.15-3.47s11.58-4.09,14,2.29-2.12,29.8-5,31.66-5.19,5-11.89,2.16S57.81,207.31,61.07,204.39Z"/></g></g></svg>