<svg xmlns="http://www.w3.org/2000/svg" viewBox="0 0 198.21 564.25"><defs><style>.cls-1{fill:#a6714f;}.cls-2{fill:#bd815a;}.cls-3{fill:#fff;}.cls-4{fill:#e6e6e6;}</style></defs><g id="Layer_2" data-name="Layer 2"><g id="Layer_1-2" data-name="Layer 1"><path class="cls-1" d="M83.83,85a21.83,21.83,0,0,1-3.14,14.27v22.2L100,138.74l27.24-3,18.93-13.55L129,86.42,104.39,61H82S82.63,77.05,83.83,85Z"/><path class="cls-2" d="M31.44,511.26c4.31,17.81,27.54,41.74,22.14,49-7.79,10.37-32.43-1.63-38.91-9.08S-.9,519,.07,511.24s6.48-12,7.14-20.11,25.62,8.43,25.62,8.43S30.06,503.82,31.44,511.26Z"/><path class="cls-3" d="M47.74,338.07S44.28,368.34,40,412C9.7,441.85,2.35,482.91,2.35,482.91s-3,28.54,49.29,31.14,142.25,47.13,146.57,16.65c-8.65-33.94-14.38-74.77-15.56-101.84-1.74-39.34,1.73-102.47-10.45-130.14a40.48,40.48,0,0,1-10-28.56L67.84,287.87Z"/><path class="cls-4" d="M80.69,105.23s32.77,21.4,41,17.51S129,95.5,129,95.5l37.4,58.37,5.77,20.75s-6.56,89.78-10.6,97.22c-18.3,23-51.6,21.47-51.6,21.47L75.63,247.47Z"/><path class="cls-3" d="M121.68,95.5s32,44.54,36.32,71.78-9.87,158.63-9.08,161.28c24.21-1.3,32-26.38,32-26.38s-3.86-115.44-3-136.19S150.22,125.77,129,78.64C126,76.9,121.68,95.5,121.68,95.5Z"/><path class="cls-3" d="M80.69,99.25s-12.63,19.6-26.06,32.23c-.25,5.13,8.6,75.94,0,133.52-6,40.64-10.69,72.82-9.73,76.48C52.93,367.9,92.49,353,92.49,353s32.73-5.68,33.08-15.57c3.89-109.2,13.83-129.5,9.73-158.93C127.74,144.79,80.69,99.25,80.69,99.25Z"/><path class="cls-2" d="M145.5,41.2c-.4,2.55.83,5.44-1.12,11.71,1.73,15.78-1.13,37.49-1.73,40.21-.87,3.89-8.65,6-8.65,6s-25.94,1.73-34.59-11.66a102,102,0,0,1-6-11.9s-9.3.65-12.1-6.27,5.83-16.21,5.83-16.21L99.63,33l26.16-10.39,16,6.05S143.6,39,145.5,41.2Z"/><path d="M89.9,5c4.21-.64,12-12.64,41.19,2.92,16.34,8.73,17,31.57,13,36.64-.11-5.51-4.87-5.18-4.87-5.18s-.43,10.27-10.7,12.32c2.7-7.46-2.27-10.7-2.27-10.7S124.7,54.64,106.76,59.5c3.24-4.86-1.3-10.38-1.3-10.38s1.3,6.39-6.8,18.49c-1-1.28-3.83-3.7-6.6-1.72-4.54,3.23-.86,18.37-6.7,20.53C81.68,84,77.57,73,75.2,66.75S40.61,29.13,89.9,5Z"/><path class="cls-2" d="M98.34,345.86s11.82,8.38,15.38,15.85S110.65,376,110.65,376s3.43,21.57-.33,24.49-25.71-5-29.63-13.78,0-33.72,0-33.72Z"/><path class="cls-4" d="M69.14,128.58c-7.42-3.35-20.32,2.58-24,18.8-2.22,9.76,2.29,104.51,3.24,114.15C50.76,285.75,62.88,314.29,73,367.25c10.15-17.08,25.3-21.39,25.3-21.39s-9.11-77.38-11.68-93C79.52,209.75,92.71,139.17,69.14,128.58Z"/></g></g></svg>