<svg xmlns="http://www.w3.org/2000/svg" viewBox="0 0 37.65 38.77"><defs><style>.cls-1{fill:#c7c7c7;}.cls-1,.cls-3{fill-rule:evenodd;}.cls-2,.cls-3{fill:#ababab;}</style></defs><g id="Layer_2" data-name="Layer 2"><g id="Mar18Alt-HandR"><path class="cls-1" d="M29.6,0,24,11.84l-.15.32-.28,0c-4.44.53-12,.49-15.57,1.66-1.62.53-5.19,1.83-6.19,3.08s.64,2.9.64,2.9S-2.35,22,1.49,25.19c0,0-3.75,3.45,1.25,5.34,0,0-1.1,2.25.43,3.53a50.3,50.3,0,0,0,7.62,4.39c2,1,4.69-.52,6-1.25A6.66,6.66,0,0,0,20,34s4.08-2.68,4.75-4.69A47.65,47.65,0,0,0,31,26.93c1.71-1,3.6-4.39,3.6-6.59,0,0,3-3.84,3-6.7C37.65,6.47,32.38,1.9,29.6,0Z"/><path class="cls-2" d="M17.75,35A15.17,15.17,0,0,1,14,34.5C11.78,33.89,3,31.19,2.57,31.08a.59.59,0,0,1-.38-.72A.58.58,0,0,1,2.91,30c.09,0,9.19,2.81,11.41,3.41s4.69.59,5.31.15a.59.59,0,0,1,.81.14.58.58,0,0,1-.14.8A4.72,4.72,0,0,1,17.75,35Z"/><path class="cls-2" d="M21.09,30.43a26.56,26.56,0,0,1-7.45-1.33c-4-1.21-12.21-3.33-12.29-3.35a.58.58,0,1,1,.29-1.12C1.72,24.65,10,26.78,14,28c4.67,1.42,7.93,1.65,10.57.77a.59.59,0,0,1,.73.36.58.58,0,0,1-.37.73A12,12,0,0,1,21.09,30.43Z"/><path class="cls-2" d="M24,24a36,36,0,0,1-6.38-.75C11.14,22,2.34,20.39,2.34,20.39l.2-1.13s8.81,1.58,15.33,2.8,8.28.69,10.7,0a46.09,46.09,0,0,0,5.71-2.16l.32.48.23.53a46.08,46.08,0,0,1-5.92,2.25A15.22,15.22,0,0,1,24,24Z"/><path class="cls-2" d="M28.92,17a.59.59,0,0,1-.5-.29c-2-3.52-4.56-4-4.67-4a.58.58,0,0,1-.48-.66.56.56,0,0,1,.65-.48c.13,0,3.2.5,5.5,4.54a.57.57,0,0,1-.21.78A.6.6,0,0,1,28.92,17Z"/><path class="cls-2" d="M24.4,11.55a.56.56,0,0,1-.52-.33.57.57,0,0,1,.27-.76,9.41,9.41,0,0,1,5.17-.35.59.59,0,0,1,.48.66.57.57,0,0,1-.66.48,8.61,8.61,0,0,0-4.5.25A.69.69,0,0,1,24.4,11.55Z"/><path class="cls-3" d="M27.22,10.15C28.7,8,31,4.59,32.54,2.41A22.63,22.63,0,0,0,29.6,0L25,9.69,24.4,11A6.75,6.75,0,0,1,27,10.52Z"/></g></g></svg>