<svg xmlns="http://www.w3.org/2000/svg" viewBox="0 0 386.89 133.02"><defs><style>.cls-1,.cls-2{fill:#191919;}.cls-1,.cls-10,.cls-12,.cls-3,.cls-5,.cls-6,.cls-7,.cls-9{fill-rule:evenodd;}.cls-3{fill:#262626;}.cls-4{fill:#1c1c1c;}.cls-5{fill:#444;}.cls-6{fill:#323232;}.cls-7,.cls-8{fill:#a09f9f;}.cls-9{fill:#ababab;}.cls-10{fill:#9f9f9f;}.cls-11{fill:#a5a5a5;}.cls-12{fill:#939393;}</style></defs><g id="Layer_2" data-name="Layer 2"><g id="Mar18Alt-Base"><path class="cls-1" d="M311.15,34.49s38.22-30.41,32.79-31.2C273.51-7,211.89,89.93,98.37,17c0,0-2.13,9.26-1.52,12.92s50.58,45.25,50.58,45.25,60.23.66,63.46,2.17S311.15,34.49,311.15,34.49Z"/><rect class="cls-2" x="126.41" y="87.93" width="132" height="43.96"/><path class="cls-3" d="M35,74.08l61.36,40.06,61-.31s29.87-25,13.41-29.26S40.9,62.62,40.9,62.62Z"/><path class="cls-4" d="M96.38,114.31l-.09,0L34.92,74.23a.19.19,0,0,1-.06-.23l5.89-11.46a.16.16,0,0,1,.18-.09c1.13.17,113.6,17.73,129.88,22,2.83.73,4.5,2.13,4.95,4.16,1.9,8.4-17.47,24.72-18.29,25.41a.21.21,0,0,1-.11,0l-61,.3ZM35.25,74,96.44,114l60.85-.3c1.1-.93,19.93-17,18.13-25-.42-1.88-2-3.19-4.69-3.89C154.7,80.59,45.37,63.49,41,62.81Z"/><polygon class="cls-1" points="358.25 51.65 375.71 63.05 315.67 132.97 231.41 108.24 229.41 91.58 358.25 51.65"/><path class="cls-5" d="M25.13,2S1,14.53.13,26.72,3,45,14.76,58.12c36,40.21,93.84,65.3,127.44,73.85,7.45-8.6,91.28-27.37,100.55-34.43C182.14,70.74,141,48.77,88.61,16.29,73.37,6.84,33.13-4.75,25.13,2Z"/><path class="cls-6" d="M110.26,29.49q-4.91-2.94-9.92-6C96.21,27.47,84.21,39,83.7,39.16S103.4,32,110.26,29.49Z"/><path class="cls-6" d="M1.89,40.29C4,45.57,8.13,50.73,14.76,58.12c29.4,32.8,73.27,55.53,106.68,67.44l35.92-11.73L126.42,99.2Z"/><path class="cls-7" d="M215.93,121.58c9.81,2.49,16.5,4.3,18.17,5,6.71,2.74,12.41,5.27,22.21,6.11a5.85,5.85,0,0,0,.77.22c1.94.25,11.45.08,20.14.08h40.85c3.56,0,3.36-2.68,2.86-3.51s-1.77-.93-3.2-1.26-1.68-1.27-1.09-1.32,3,1.48,6.22,2.36,5.57-.38,5.72-2.41-.57-2.37-1.48-2.76-6-.3-6.38-.71-.35-1.57.49-1.57,5.42,2.09,9.12,2.47,5.13-3.82,4.05-5.19-3.58-1.24-5.94-1.21-4.62-.19-4.82-.47a1.51,1.51,0,0,1,.1-1.4c.28-.22,1.21-.11,1.21-.11,1,0,6.91,1.54,10.36,2.25s4.93-5.61,1.43-7-11.42-.42-12-.91-.13-1.71-.13-1.71c1-.33,4.93,1,9.18,1.65s6.9-1.87,6.51-5.5-3.36-5-6.61-5.93-16.08-1.87-24.17-2.32c-3.76-.2-39.19,10-47.93,8.84l-1.83-.25h0q-8.77-3.78-17-7.43C233.48,104.6,223.38,113,215.93,121.58Z"/><path class="cls-8" d="M321.2,109.11a.58.58,0,0,1,0-1.16l3.4,0a.58.58,0,1,1,0,1.15l-3.41,0Z"/><path class="cls-8" d="M323.64,116.46a9.22,9.22,0,0,1-2.59-.35.56.56,0,0,1-.37-.72.58.58,0,0,1,.72-.38,8.61,8.61,0,0,0,2.71.28.54.54,0,0,1,.61.54.58.58,0,0,1-.54.61S324,116.46,323.64,116.46Z"/><path class="cls-8" d="M321.48,122.41a.4.4,0,0,1-.15,0,31.37,31.37,0,0,0-3.12-.74.59.59,0,0,1-.52-.64.58.58,0,0,1,.64-.51,31.83,31.83,0,0,1,3.31.79.57.57,0,0,1,.4.71A.59.59,0,0,1,321.48,122.41Z"/><path class="cls-8" d="M317,127.53h-.15a12.54,12.54,0,0,0-2-.34.57.57,0,0,1-.53-.62A.61.61,0,0,1,315,126a15,15,0,0,1,2.2.37.58.58,0,0,1,.42.7A.58.58,0,0,1,317,127.53Z"/><path class="cls-9" d="M234.65,126.79c6.47,2.64,12.13,5.06,21.66,5.88a5.85,5.85,0,0,0,.77.22c1.94.25,11.45.08,20.14.08H290.8l31.52-30.41s-10.27-3.83-14.27-6c-1.78.28-4.76.94-8.38,1.79Z"/><path class="cls-10" d="M384.69,30.08c.91,12.19-4,17.37-14.63,31.4s-22.87,18.9-47.86,25-155,36.74-163.25,40.09c-6.71,2.74-12.41,5.27-22.22,6.11a5.1,5.1,0,0,1-.77.22c-1.93.25-11.45.08-20.13.08H75c-3.55,0-3.35-2.68-2.86-3.51s1.78-.93,3.21-1.26,1.68-1.27,1.08-1.32-3,1.48-6.21,2.36-5.58-.38-5.72-2.41.56-2.37,1.48-2.76,6-.3,6.38-.71.35-1.57-.49-1.57-5.42,2.09-9.12,2.47-5.13-3.82-4-5.19,3.58-1.24,5.94-1.21,4.62-.19,4.81-.47a1.45,1.45,0,0,0-.1-1.4c-.27-.22-1.2-.11-1.2-.11-1,0-6.91,1.54-10.36,2.25s-4.93-5.61-1.43-7,11.42-.42,12-.91.13-1.71.13-1.71c-1-.33-4.94,1-9.18,1.65s-6.9-1.87-6.51-5.5,3.35-5,6.61-5.93,16.08-1.87,24.17-2.32c3.76-.2,39.19,10,47.92,8.84l1.84-.25h0c70.25-30.33,114-53.25,171.15-88.68,9.26-5.74,24.7-11,37.19-12.79C358.2,1.19,383.56,15.08,384.69,30.08Z"/><path class="cls-11" d="M71.84,109.11h0l-3.4,0a.59.59,0,0,1-.57-.59.57.57,0,0,1,.58-.56h0l3.41,0a.58.58,0,0,1,0,1.16Z"/><path class="cls-11" d="M69.41,116.46c-.32,0-.52,0-.55,0a.57.57,0,0,1-.53-.61.54.54,0,0,1,.61-.54,8.61,8.61,0,0,0,2.71-.28.57.57,0,0,1,.72.38.56.56,0,0,1-.37.72A9.22,9.22,0,0,1,69.41,116.46Z"/><path class="cls-11" d="M71.57,122.41A.58.58,0,0,1,71,122a.57.57,0,0,1,.4-.71,31.83,31.83,0,0,1,3.31-.79.61.61,0,0,1,.64.51.59.59,0,0,1-.52.64,31.37,31.37,0,0,0-3.12.74A.4.4,0,0,1,71.57,122.41Z"/><path class="cls-11" d="M76,127.53a.57.57,0,0,1-.14-1.13,15,15,0,0,1,2.19-.37.6.6,0,0,1,.62.53.57.57,0,0,1-.52.62,12.53,12.53,0,0,0-2,.34Z"/><path class="cls-12" d="M182.84,120.13c-12.89,3.24-21.91,5.62-23.89,6.43-2.66,1.08-5.16,2.14-7.82,3.07l-14.85-24.92.13-1.09q5.91-2.55,11.57-5.05Z"/><path class="cls-5" d="M328,4.52S344,.7,354.17,2.69s24.54,10.82,30.17,20.57S385.88,56,375.71,63c-58.74,40.56-80,68.89-125.25,68.89l-55.73,0c-15.55,0-59.42-27.87-59.42-27.87s-.25-1.23,2.19-2.68,72-32.47,92-43.59S290.45,18.35,328,4.52Z"/><path class="cls-6" d="M328,4.52S344,.7,354.17,2.69A41.51,41.51,0,0,1,364,6.1h0a33.24,33.24,0,0,0-21.44,3.46c-10.57,5.9-33.22,26.66-33.22,26.66l-11.81,1.07-21.85-7.16C292.2,20.58,310.46,11,328,4.52Z"/><path class="cls-6" d="M375.71,63c-58.74,40.56-80,68.89-125.25,68.89l-55.73,0a32.27,32.27,0,0,1-9.49-2C279.15,108.55,375.71,63,375.71,63Z"/></g></g></svg>