<svg xmlns="http://www.w3.org/2000/svg" viewBox="0 0 65.05 190.01"><defs><style>.cls-1{fill:#f9f9f9;}.cls-1,.cls-2,.cls-3,.cls-4,.cls-5{fill-rule:evenodd;}.cls-2{fill:#aaa;}.cls-3{fill:#444;}.cls-4{fill:#191919;}.cls-5{fill:#515151;}</style></defs><g id="Layer_2" data-name="Layer 2"><g id="Mar18Alt-ArmR"><path class="cls-1" d="M33.73,6.76C29,12.38,23.35,20.47,21,29.06,17.4,42.55,6.27,81.7,3,98.1c-3,15.35-5.07,32.59.32,47.41,7.32,20.12,16.62,41.31,22.71,44.05s15.09-7.47,31.86-22.1-1.29-37.57-1.29-37.57l8.09-13.49L58.47,95.82s2.29-2.14-.15-5C69.48,71.56,63.92,8.14,43.91,0A31.25,31.25,0,0,0,33.73,6.76Z"/><path class="cls-2" d="M5,149.88C12,168.6,20.41,187,26.06,189.56c6.1,2.75,15.09-7.47,31.86-22.1,10.76-9.39,7.18-22.2,3.23-30.18-14.73-10.56-30-20.55-30-20.55L20,110.06Z"/><path class="cls-3" d="M54.14,165.38s-10,11.81-17.77,16.84-9.81,1.07-12.57-4.34-27.4-42.94,12-44.58S54.14,165.38,54.14,165.38Z"/><path class="cls-4" d="M54.14,165.38S46.55,174.31,39.49,180L15.37,142.5c2.64-5.05,8.69-8.71,20.4-9.2C75.15,131.65,54.14,165.38,54.14,165.38Z"/><path class="cls-5" d="M62.65,171.85c-3.69-1.64-6.48-2.86-7.89-3.47-9.15-3.89-12.32-10.85-12.32-10.85L41.23,155c2.06-1.62,4.09-3,4.09-3l10.88-5.49Z"/></g></g></svg>