<svg xmlns="http://www.w3.org/2000/svg" viewBox="0 0 60.83 12.15"><defs><style>.cls-1{fill:#f0f0f0;}.cls-2{fill:#1a1a1a;}.cls-3{fill:#010101;}</style></defs><g id="Layer_2" data-name="Layer 2"><g id="Mar18Alt-EyeR"><path class="cls-1" d="M40.87,8.14a3.64,3.64,0,0,1-.35-2.41c.31-1.21,11.36-10.45,18.72.81C59.24,6.54,51,18,40.87,8.14Z"/><path class="cls-2" d="M44.09,5.94a4.71,4.71,0,1,0,4.7-4.7A4.7,4.7,0,0,0,44.09,5.94Z"/><path class="cls-3" d="M46.59,5.94a2.21,2.21,0,1,0,2.2-2.22A2.22,2.22,0,0,0,46.59,5.94Z"/><path class="cls-3" d="M55.77,9.9l2.65-4.33-.24,1.66h0a15.84,15.84,0,0,0-3.44-3.62A8.84,8.84,0,0,0,50.2,2a11.92,11.92,0,0,0-5.07.92,16.82,16.82,0,0,0-2.39,1.22,8.76,8.76,0,0,0-2,1.62v0a9.61,9.61,0,0,0,0,2,9.26,9.26,0,0,1-.37-2.06h0a3.63,3.63,0,0,1,.85-1.24,12.2,12.2,0,0,1,1-1,17.66,17.66,0,0,1,2.36-1.63A13.3,13.3,0,0,1,50.18,0a9.06,9.06,0,0,1,3.06.3A6.7,6.7,0,0,1,54.7.85a5.5,5.5,0,0,1,1.38.72,12.61,12.61,0,0,1,2.39,1.91A22.92,22.92,0,0,1,60.3,5.84h0l.53,1.23-.77.43Z"/><path class="cls-1" d="M49.71,4.34a1.12,1.12,0,1,0,1.12-1.12A1.12,1.12,0,0,0,49.71,4.34Z"/></g><g id="Mar18Alt-EyeL"><path class="cls-1" d="M20,8.14a3.6,3.6,0,0,0,.34-2.41C20,4.52,8.94-4.72,1.58,6.54,1.58,6.54,9.8,18,20,8.14Z"/><path class="cls-2" d="M16.74,5.94A4.71,4.71,0,1,1,12,1.24,4.7,4.7,0,0,1,16.74,5.94Z"/><path class="cls-3" d="M14.25,5.94A2.22,2.22,0,1,1,12,3.72,2.23,2.23,0,0,1,14.25,5.94Z"/><path class="cls-3" d="M5.05,9.9.76,7.51,0,7.08.52,5.85h0A24.17,24.17,0,0,1,2.36,3.48,12.3,12.3,0,0,1,4.75,1.57,5.27,5.27,0,0,1,6.12.85,7.1,7.1,0,0,1,7.58.32,9.14,9.14,0,0,1,10.65,0a13.3,13.3,0,0,1,5.59,1.8,17.55,17.55,0,0,1,2.35,1.63,8.87,8.87,0,0,1,1,1,3.64,3.64,0,0,1,.86,1.24h0a9.87,9.87,0,0,1-.38,2.06,9.61,9.61,0,0,0,0-2v0a8.67,8.67,0,0,0-2-1.62,16.69,16.69,0,0,0-2.38-1.22A11.9,11.9,0,0,0,10.63,2,8.94,8.94,0,0,0,6.07,3.61,16,16,0,0,0,2.64,7.23h0L2.4,5.57Z"/><path class="cls-1" d="M11.12,4.34A1.12,1.12,0,1,1,10,3.22,1.13,1.13,0,0,1,11.12,4.34Z"/></g></g></svg>