<svg xmlns="http://www.w3.org/2000/svg" viewBox="0 0 245.92 114.86"><defs><style>.cls-1{fill:#fff;}.cls-1,.cls-2,.cls-3,.cls-4,.cls-5{fill-rule:evenodd;}.cls-2{fill:#e2e2e2;}.cls-3{fill:#b2b2b2;}.cls-4{fill:#696969;}.cls-5{fill:#757575;}</style></defs><g id="Layer_2" data-name="Layer 2"><g id="Mar18Alt-Book"><path class="cls-1" d="M123,47.22c-6.9-17.86-38-18.07-54.61-23.49C44.05,15.82,21.61.52,21.61.52s-1.47-1-2.32-.18-7.86,8.9-7.86,8.9l91,58.1h41.14l91-58.1s-7-8-7.86-8.9-2.32.18-2.32.18-22.44,15.3-46.75,23.21c-16.64,5.42-47.71,5.63-54.6,23.49Z"/><path class="cls-2" d="M123,67.35h20.57l91-58.1s-7-8-7.86-8.9-2.32.18-2.32.18-22.44,15.3-46.75,23.21c-16.64,5.42-47.71,5.63-54.6,23.49Z"/><path class="cls-3" d="M129.57,56.25c3.29,0,4.57,1.16,8,6.89,2.88,4.73-32.18,4.73-29.31,0,3.48-5.73,4.76-6.89,8-6.89Z"/><path class="cls-4" d="M245.92,18.71,223.43,66.19s-3.17,7-12.31,10.85-75.25,33.56-75.25,33.56c0,3.45-4.57,4.26-6.7,4.26H116.75c-2.13,0-6.7-.81-6.7-4.26,0,0-66.1-29.66-75.25-33.56S22.48,66.19,22.48,66.19L0,18.71l6.2-.08L33.09,36.68l76.46,43.65c28.62,1.57-1.8,1.57,26.82,0l76.45-43.65,26.89-18Z"/><path class="cls-1" d="M133.8,62.29c4.52,0,9-2.08,15.61-6.35S237,4.48,237,4.48s1.18-.85,1.85.06l4.61,6.31s1.08,1.8-1.3,3.22l-1,4.58-105.53,60a193.1,193.1,0,0,0-25.23,0L4.81,18.65l-1-4.58c-2.38-1.42-1.3-3.22-1.3-3.22l4.6-6.31C7.76,3.63,9,4.48,9,4.48s81,47.2,87.55,51.46,11.1,6.35,15.61,6.35Z"/><path class="cls-5" d="M133.18,83.16c4.55,0,6.11-1.4,11.7-4.52,5-2.81,85.52-50.68,101-59.93l-3.79-4.64C226.61,23.32,149.91,69,144.88,71.81c-5.59,3.12-7.15,4.52-11.7,4.52H112.74c-4.55,0-6.11-1.4-11.7-4.52C96,69,19.31,23.32,3.79,14.07L0,18.71C15.52,28,96,75.83,101,78.64c5.59,3.12,7.15,4.52,11.7,4.52Z"/><path class="cls-5" d="M116.75,114.86h12.42a11.42,11.42,0,0,0,2.46-.28c2.06-.47,4.24-1.6,4.24-4l.78-9.9,1.24-15.8s0-2.41,1.43-3.16a12.33,12.33,0,0,1-6.14,1.42H112.74a12.33,12.33,0,0,1-6.14-1.42C108,82.49,108,84.9,108,84.9l1.46,18.48.57,7.22a3.82,3.82,0,0,0,2.69,3.49A11.06,11.06,0,0,0,116.75,114.86Z"/></g></g></svg>