<svg xmlns="http://www.w3.org/2000/svg" viewBox="0 0 40.3 46.47"><defs><style>.cls-1{fill:#828282;}.cls-2{fill:#959595;}.cls-3{fill:#9b9b9b;}.cls-4{fill:#b8b8b8;}</style></defs><g id="Layer_2" data-name="Layer 2"><g id="ArmR"><path class="cls-1" d="M19.37,32.26c0,.34-.07.69-.11,1,.2-.57.3-.9.3-.9l-.19-.12"/><path class="cls-2" d="M11.16,27.05A56.8,56.8,0,0,1,0,35.48c-.13,4.17.71,10,6.23,10.9a6.92,6.92,0,0,0,1.11.09c6.75,0,10.82-10.08,11.91-13.19,0-.33.08-.68.11-1l-8.21-5.21"/><path class="cls-3" d="M5,28.3s1,9.2,4.18,10.4c6.9,2.6,11-5.76,14.47-10.91,5.23-7.9,1.52-10.38.45-10.38s-11,5.56-11,5.56S6.08,27.19,5,28.3Z"/><path class="cls-3" d="M21.14,22.75c1.61,1.53,3.29,2.69,4.62,1.14a17.8,17.8,0,0,1,5-3l4.11-1.74a19.42,19.42,0,0,0,5.05-3.48c.89-.89.14-1.38-1.4-.94s-2.61,1.65-4.8-.4c0,0,1.16-3.09,1.2-3.59C35,9,33.93,6.7,33,4.06c-.6-1.7-1.76-.14-1.36,1.17a12,12,0,0,1,.47,5.56L30.58,13.7s.76-4.7.27-6.19C29.74,4.12,28.34,0,27.23,0c0,0-1.12.37-.27,3.07.23.73,1.4,5.19,1.4,5.19l-1,4.47s-.41.5-1-5c-.2-1.88-2.86-6.14-3.27-6.24,0,0-1.32.45-.54,2.29A44.41,44.41,0,0,1,24,9.35s-.28,4.58-1.11,4.07a15.69,15.69,0,0,0-1.1-4.14c-.74-1.41-1.9-5.22-2.44-4.94a1.58,1.58,0,0,0-.67,1.91,32.76,32.76,0,0,1,1.08,4.47c.16,1.16-.08,7.59.08,8.5A4,4,0,0,0,21.14,22.75Z"/><path class="cls-4" d="M19.68,18.61s-.89,6,3.5,7.18a2.78,2.78,0,0,0,3.21-2.35l.88-.63a12.16,12.16,0,0,1-3.81,6.41c-1.11,1-2.12,2.36-5.2.65S14.65,23.66,15.9,21l3.77-3.59Z"/></g></g></svg>