<svg xmlns="http://www.w3.org/2000/svg" viewBox="0 0 60.18 48.87"><defs><style>.cls-1{fill:#b2b2b2;}.cls-2{fill:#9b9b9b;}.cls-3{fill:#b8b8b8;}</style></defs><g id="Layer_2" data-name="Layer 2"><g id="ArmL"><path class="cls-1" d="M25.62,22.4c.3,3.2-2.42,8.74-2.11,11.61,2.91,6.63,3.22,17.58,31.41,14.25,10.12-1.2,2.54-12.93,2.54-12.93L25.62,22.4"/><path class="cls-2" d="M35.29,28.3s-1,9.2-4.18,10.4c-6.9,2.6-11-5.76-14.46-10.91-5.24-7.9-1.52-10.39-.46-10.39s11,5.57,11,5.57S34.22,27.18,35.29,28.3Z"/><path class="cls-2" d="M19.16,22.75c-1.6,1.53-3.29,2.68-4.62,1.14a17.62,17.62,0,0,0-5-3L5.43,19.17a19.43,19.43,0,0,1-5-3.49c-.88-.88-.14-1.37,1.41-.93s2.61,1.65,4.79-.4c0,0-1.16-3.1-1.2-3.59C5.26,9,6.37,6.7,7.29,4.06c.6-1.7,1.76-.14,1.36,1.17a12,12,0,0,0-.47,5.56l1.54,2.9S9,9,9.45,7.51C10.56,4.12,12,0,13.06,0c0,0,1.13.37.28,3.07-.23.73-1.4,5.18-1.4,5.18l1,4.48s.41.5,1-5c.19-1.88,2.86-6.14,3.26-6.24,0,0,1.32.45.55,2.29a43.16,43.16,0,0,0-1.42,5.57s.28,4.58,1.11,4.07a15.73,15.73,0,0,1,1.1-4.15c.75-1.4,1.9-5.21,2.45-4.93a1.58,1.58,0,0,1,.66,1.91,34.31,34.31,0,0,0-1.08,4.47c-.16,1.16.09,7.59-.08,8.5A3.94,3.94,0,0,1,19.16,22.75Z"/><path class="cls-3" d="M20.62,18.6s.89,6-3.5,7.19a2.76,2.76,0,0,1-3.2-2.35L13,22.81a12.14,12.14,0,0,0,3.82,6.41c1.1,1,2.12,2.36,5.2.65S25.66,23.66,24.4,21l-3.77-3.6Z"/></g></g></svg>