<svg xmlns="http://www.w3.org/2000/svg" viewBox="0 0 111 143.14"><defs><style>.cls-1{fill:#989898;}.cls-2,.cls-5{fill:#757575;}.cls-2{opacity:0.4;}.cls-3{fill:#646464;}.cls-4{fill:#f0f0f0;}.cls-6{fill:#030303;}.cls-7{fill:#0d0d0d;}.cls-8{fill:#ababab;}.cls-10,.cls-11,.cls-8,.cls-9{fill-rule:evenodd;}.cls-9{fill:#191919;}.cls-10{fill:#f9f9f9;}.cls-11{fill:#eee;}</style></defs><g id="Layer_2" data-name="Layer 2"><g id="Mar18Alt-Head"><path class="cls-1" d="M97.1,77.36s5.79-11.48,12.47-8.09c3.75,1.9.32,32.05-12.47,30.59,0,0-2.26-.81-2.42-5.67Z"/><path class="cls-2" d="M106.59,73.05s3.63,11.54-1.3,14.28c0,0-2.62.89-2.46,2.14s-1,9.61-4,6.93c0,0-2.28-3.8.56-5.22s.84-1.48-1.42-4.51C98,86.67,102.21,72.22,106.59,73.05Z"/><path class="cls-3" d="M107.78,81.56A36.27,36.27,0,0,0,107,75.4a5.26,5.26,0,0,0-.52-1.29c-.27-.36-.4-.37-.57-.3-.5.17-.5.36-.93.73a10.18,10.18,0,0,0-1,1.09,26.83,26.83,0,0,0-3.12,5.21c-.83,1.77-1.77,3.85-1.64,5.44L99,85.84a11.88,11.88,0,0,1,2.17,3,3.43,3.43,0,0,1,.31,1,1.6,1.6,0,0,1-.44,1.4,2,2,0,0,1-1,.41l-.83.26a1,1,0,0,1-.32.37l-.29.65a4.62,4.62,0,0,0-.1,1.54,2.71,2.71,0,0,0,.16.8,3.37,3.37,0,0,0,.31.76A3.6,3.6,0,0,0,100,97.32a3.2,3.2,0,0,1-1.44-1,2.93,2.93,0,0,1-.48-.77,2.46,2.46,0,0,1-.34-.86,4.38,4.38,0,0,1-.18-1.88,9.4,9.4,0,0,1,.31-1,5.1,5.1,0,0,1,.83-.91l.79-.34c.53-.16.47-.16.57-.22a3.09,3.09,0,0,0-.32-.79,14.06,14.06,0,0,0-2-2.5l-.22-.21,0-.23c-.22-2.65.76-4.58,1.63-6.56a28,28,0,0,1,3.54-5.45,11,11,0,0,1,1.16-1.21,4.28,4.28,0,0,1,1.68-.94,1.82,1.82,0,0,1,2,1.06,6.69,6.69,0,0,1,.48,1.68A21.65,21.65,0,0,1,107.78,81.56Z"/><path class="cls-3" d="M105.71,84.3a15.44,15.44,0,0,0-.8-4.29,6.6,6.6,0,0,0-.66-1.36,7.1,7.1,0,0,0-.79-.87l-.9-.39.56-1.82a7.75,7.75,0,0,1,1.45,1.05,7.46,7.46,0,0,1,.84,1.44,7.91,7.91,0,0,1,.42,1.71A15.39,15.39,0,0,1,105.71,84.3Z"/><path class="cls-1" d="M13.89,77.36S8.11,65.88,1.43,69.27c-3.75,1.9-.32,32.05,12.46,30.59,0,0,2.27-.81,2.43-5.67Z"/><path class="cls-2" d="M4.4,73.05S.78,84.59,5.7,87.33c0,0,2.62.89,2.47,2.14s1,9.61,4,6.93c0,0,2.28-3.8-.56-5.22S10.75,89.7,13,86.67C13,86.67,8.79,72.22,4.4,73.05Z"/><path class="cls-3" d="M3.22,81.56A21.65,21.65,0,0,1,3,75.17a6.69,6.69,0,0,1,.48-1.68,1.81,1.81,0,0,1,2-1.06,4.18,4.18,0,0,1,1.69.94,10.12,10.12,0,0,1,1.16,1.21A28.92,28.92,0,0,1,11.85,80c.88,2,1.86,3.91,1.63,6.55l0,.24-.21.21a14.13,14.13,0,0,0-2,2.5,2.92,2.92,0,0,0-.31.79c.09.06,0,.06.55.22l.8.34a6,6,0,0,1,.84.91,9.32,9.32,0,0,1,.3,1,4.54,4.54,0,0,1-.17,1.88,2.86,2.86,0,0,1-.34.85,3.43,3.43,0,0,1-.49.78,3.29,3.29,0,0,1-1.43,1,3.67,3.67,0,0,0,1.12-1.24,2.94,2.94,0,0,0,.3-.76,2,2,0,0,0,.16-.8,4,4,0,0,0-.1-1.54l-.27-.65a1.06,1.06,0,0,1-.33-.37l-.82-.26A2.11,2.11,0,0,1,10,91.29a1.57,1.57,0,0,1-.44-1.4,3.26,3.26,0,0,1,.32-1,11.85,11.85,0,0,1,2.16-3l-.23.44c.12-1.59-.82-3.67-1.65-5.44A26.83,26.83,0,0,0,7,75.63a11.4,11.4,0,0,0-1-1.09c-.44-.37-.43-.56-.93-.73-.16-.07-.3-.06-.56.3a5,5,0,0,0-.52,1.3A35,35,0,0,0,3.22,81.56Z"/><path class="cls-3" d="M5.28,84.3a15.54,15.54,0,0,1-.11-4.52,8.88,8.88,0,0,1,.41-1.71,7.28,7.28,0,0,1,.85-1.45,7.4,7.4,0,0,1,1.45-1.05l.55,1.82-.9.39a7.1,7.1,0,0,0-.79.87A8.59,8.59,0,0,0,6.09,80,15.66,15.66,0,0,0,5.28,84.3Z"/><path class="cls-1" d="M50.56,142.25s-22-14.8-28.75-23.68c-6.16-8.1-10.43-45.24-11.12-51.67,0-.2-.06-.41-.08-.63s0-.31,0-.31h0c-.11-1.33-.18-2.67-.18-4a44.8,44.8,0,0,1,89.6,0,44,44,0,0,1-.25,4.76h0s-4.4,43-11.17,51.87-28.73,23.68-28.73,23.68S56.27,144.26,50.56,142.25Z"/><path class="cls-4" d="M55.25,115.42c-8-.13-14.59-.82-14.59-.82.87,4,8.14,5.44,14.59,5.46S69,118.63,69.83,114.6C69.83,114.6,63.27,115.29,55.25,115.42Z"/><path class="cls-5" d="M51.08,122.39a29.24,29.24,0,0,0,11,0S56.75,127.81,51.08,122.39Z"/><path class="cls-6" d="M4.38,67A23.82,23.82,0,0,1,13,81s2.46-4.24,3.31-13.12,3.17-19.12,6.13-22.35C22.45,45.51,7.23,53.79,4.38,67Z"/><path class="cls-6" d="M104.65,68.47a23.93,23.93,0,0,0-8.61,14s-2.47-4.24-3.32-13.12S89.55,50.27,86.59,47C86.59,47,101.81,55.32,104.65,68.47Z"/><path class="cls-3" d="M70.69,68.75A53.36,53.36,0,0,0,65.37,74a25.59,25.59,0,0,0-3,4.19,14.47,14.47,0,0,0-.67,1.56l-.23.62s0-.24.13-.64a14.24,14.24,0,0,1,.41-1.7,27.13,27.13,0,0,1,2.35-4.78A57.23,57.23,0,0,1,68.88,67Z"/><path class="cls-7" d="M47.42,63.87s-.73,5.8-2.9,6.29c-6.05,1.36-16.86-5-25.88,1.89,0,0,.68-5.82,5.95-7.57S45.66,64.82,47.42,63.87Z"/><path class="cls-7" d="M62.94,64.37s.43,5.76,2.51,6.14c5.81,1.09,16.67-5.83,25.08.7,0,0-.35-5.8-5.39-7.3S64.61,65.23,62.94,64.37Z"/><path class="cls-5" d="M59.72,86.55a134.32,134.32,0,0,0-.26,14c.19,3.07-1.37,4.86-2.85,5.17,0,0,6.19,1,7.13-4.85C64.37,97,60.67,92.68,59.72,86.55Z"/><path class="cls-3" d="M53.38,105.17s-5.94-2.08-5-.23S53.38,105.17,53.38,105.17Z"/><path class="cls-8" d="M29,13.13C15.09,18.79,9.07,29.7,7,42.79L6.16,56.4c0,.45,0,.9,0,1.36h.1c0,5.9,22,10.69,49.08,10.69,19.35,0,36.08-2.44,44.08-6,1.22-21.31-2.15-41-22.63-49.34H29Z"/><path class="cls-9" d="M5.26,55.81l-.52.37-.57.4a10.35,10.35,0,0,0-.61,2.25c-.07.92-.14,3.29-.14,3.29s2.81,6.25,5.09,20.62c0,0,2.86-2.3,2.35-9.29A13.25,13.25,0,0,0,18.64,62C19,53.45,5.26,55.81,5.26,55.81Z"/><path class="cls-9" d="M99.66,54.06,101.41,57a11.74,11.74,0,0,1,0,5.45L97.59,80.65a18.57,18.57,0,0,1-1.19-8s-6.5-5.18-4.82-13S99.66,54.06,99.66,54.06Z"/><path class="cls-10" d="M52.91,66C80,66,102,61.23,102,55.32h.22L99.37,10.69H6.46L3.61,55.32h.22C3.83,61.23,25.8,66,52.91,66Z"/><path class="cls-11" d="M52.91,21.38c25.59,0,46.46-4.8,46.46-10.69S78.5,0,52.91,0,6.46,4.8,6.46,10.69,27.32,21.38,52.91,21.38Z"/></g></g></svg>