<svg xmlns="http://www.w3.org/2000/svg" xmlns:xlink="http://www.w3.org/1999/xlink" viewBox="0 0 91.07 292.77"><defs><style>.cls-1{fill:#878787;}.cls-2{fill:#f8f8f8;}.cls-3{fill:#ddd;}.cls-4{fill:#0c0c0c;}.cls-5{fill:#717171;}.cls-6{fill:#9b9b9b;}.cls-7{fill:#646464;}.cls-8{fill:#8c8c8c;}.cls-9{fill:#989898;}.cls-10{fill:#070707;}.cls-11{fill:url(#linear-gradient);}.cls-12{fill:#d0d0d0;}.cls-13{fill:#a2a2a2;}.cls-14{fill:#bebebe;}.cls-15{fill:#b4b4b4;}</style><linearGradient id="linear-gradient" x1="-5477.58" y1="-1776.6" x2="-5475.86" y2="-1776.6" gradientTransform="matrix(0, 378.05, 378.05, 0, 671698.37, 2070469.48)" gradientUnits="userSpaceOnUse"><stop offset="0" stop-color="#d5d5d5"/><stop offset="1" stop-color="#a8a8a8"/></linearGradient></defs><g id="Layer_2" data-name="Layer 2"><g id="Base"><path class="cls-1" d="M57.65,123.49c-5.18-10.95,2.24-23.42,2.24-23.42,9.33-14,9.08-29.2,9.09-33,0-3.49-.74-4.21-.74-4.21-2.08-.72-15.15-4.5-15.15-4.5l-11.76,0H29.44s-13,3.76-15,4.48c0,0-.75.72-.75,4.21,0,3.78-.24,19,9.1,33,0,0,7.42,12.47,2.23,23.42-3.13,6.63-5.7,13.15-6.55,17.9a141,141,0,0,0-.27,41.25c2.14,14.93,6,28.18,5.84,33.75H58.64c-.2-5.57,3.69-18.82,5.83-33.75a140.84,140.84,0,0,0-.26-41.25c-.85-4.75-3.42-11.27-6.56-17.9"/><path class="cls-2" d="M72.37,194.86c-1.26-18.27-2.25-39.79-10.9-63.27L47,142.41l-31.83,54.3s-6,34.58-9.5,92.41c0,0,31.74,10,70.82-3,0,0,0-31.28-4.12-91.24"/><path class="cls-2" d="M0,106.85S11.4,113.52,12.63,118c0,0-1.05,30.85-1,26.37s-4.89,45.1-6,80.1a125.51,125.51,0,0,0,23.42-3.26c10.9-2.84,11.79,1.19,17.31,2.38a38,38,0,0,0,30.09-6.08s-5.92-70.16-8.6-78.07a3.38,3.38,0,0,1,3.59-2c2.72.3,4.44.59,6.55.7s13.43-.61,13-23.19L0,106.85"/><path class="cls-3" d="M69.1,125.39a13.08,13.08,0,0,1-3.2.81s-11.44,3.08-18,11.19h0c-4.68,5.79-10.78,28.84-22.67,40.92A23.63,23.63,0,0,1,19.3,183a19.53,19.53,0,0,1-10,2.79c-.48,0-1,0-1.45,0,0,.38,0,.78-.08,1.17a34.58,34.58,0,0,0,5.4.42c4.84,0,11.71-1,15.81-6.07,6.83-8.44,19.08-45,25.11-48,4.71-2.36,11.13-4.37,15-7.86"/><path class="cls-4" d="M24.61,31.81s.18,11.49,6.16,13.8c0,0-2.9,4-2.15,5.74s8.85,5.3,10.73,4.41,5.24-11.42,5.24-11.42L35.68,31.29l-11.07.52"/><path class="cls-1" d="M47,41.69H36c.27,14.47-6.36,17.45-6.36,17.45a13.65,13.65,0,0,0,23.68,0s-6.64-3-6.37-17.45"/><path class="cls-5" d="M49.24,54.36A24.9,24.9,0,0,1,47,44.67h-5.6L35.34,43.6a58.65,58.65,0,0,1-2,9.49c2.56,1.52,9.64,2.3,15.87,1.27"/><path class="cls-2" d="M56.31,7.76s11.06,21,0,52.79-13.15,44-13.15,44S33.3,64.12,33.24,55.37c0,0,28.3-8.69,23.07-47.61"/><path class="cls-3" d="M47.24,47.72,37.8,55.17c0,.25,0,.49,0,.73,0,.41,0,.83,0,1.27l9.38-9.45"/><path class="cls-6" d="M27.07,27.28s-2.24-3.56-4.5-2.33c-1.26.69.53,10.3,4.95,9.55,0,0,.77-.31.73-1.87l-1.18-5.35"/><path class="cls-7" d="M23.44,28.86a6.33,6.33,0,0,1-.19-2.09,1.54,1.54,0,0,1,.16-.56.59.59,0,0,1,.65-.33,2.17,2.17,0,0,1,1,.61,8.81,8.81,0,0,1,1.33,1.66,3.86,3.86,0,0,1,.72,2.11v.08l-.08.08a4.56,4.56,0,0,0-.64.84l-.09.23c0,.05.27,0,.5.17a1.05,1.05,0,0,1,.4,1.2,1.22,1.22,0,0,1-.74.89c.65-.41.66-1.51.16-1.75-.11-.08-.26,0-.59-.14a.66.66,0,0,1-.11-.82,3.87,3.87,0,0,1,.7-1l-.08.15a3.87,3.87,0,0,0-.68-1.7,8.15,8.15,0,0,0-1.19-1.59,2.47,2.47,0,0,0-.69-.55c-.13-.1-.3.18-.36.5a9.5,9.5,0,0,0-.17,2"/><path class="cls-7" d="M24.21,29.69a4.51,4.51,0,0,1-.12-1.47,1.61,1.61,0,0,1,.86-1.4l.21.6a1.14,1.14,0,0,0-.76.86,4.15,4.15,0,0,0-.19,1.41"/><path class="cls-6" d="M55.88,27.28s2.24-3.56,4.5-2.33c1.27.69-.52,10.3-4.94,9.55,0,0-.78-.31-.74-1.87l1.18-5.35"/><path class="cls-8" d="M59,26.32a.09.09,0,0,0-.06,0,2.25,2.25,0,0,0-.69.54,8.34,8.34,0,0,0-1.18,1.58,4.22,4.22,0,0,0-.69,1.64A3.6,3.6,0,0,1,57,31a.66.66,0,0,1-.11.82c-.33.17-.48.06-.59.14-.44.21-.48,1.07-.06,1.55a.43.43,0,0,0,.23.07c.73,0,1.15-2,1.13-2.33s.89-.63.89-.63a2.13,2.13,0,0,0,1-2,1.29,1.29,0,0,1,0,.19,10.2,10.2,0,0,0-.17-2c-.06-.27-.19-.52-.31-.52"/><path class="cls-7" d="M59.52,28.86a10.2,10.2,0,0,0-.17-2c-.07-.32-.24-.6-.37-.49a2.25,2.25,0,0,0-.69.54,8.34,8.34,0,0,0-1.18,1.58,3.86,3.86,0,0,0-.69,1.71L56.35,30A3.84,3.84,0,0,1,57,31a.66.66,0,0,1-.11.82c-.33.17-.48.06-.59.14-.5.24-.49,1.34.16,1.75a1.22,1.22,0,0,1-.74-.89,1,1,0,0,1,.4-1.2c.23-.13.51-.12.51-.17l-.09-.23a4.21,4.21,0,0,0-.65-.84l-.07-.08v-.08a3.78,3.78,0,0,1,.71-2.11,8.87,8.87,0,0,1,1.34-1.66,2.09,2.09,0,0,1,1-.61.59.59,0,0,1,.65.33,1.79,1.79,0,0,1,.17.56,6.61,6.61,0,0,1-.19,2.09"/><path class="cls-7" d="M58.74,29.69a4.15,4.15,0,0,0-.19-1.41,1.09,1.09,0,0,0-.76-.85l.21-.61a1.63,1.63,0,0,1,.87,1.39A4.81,4.81,0,0,1,58.74,29.69Z"/><path class="cls-6" d="M40.27,48.66S33.35,45,31,40.92C29,38.06,26,24.94,25.79,22.68l0-.23v-.11c0-.46-.06-.94-.06-1.42a15.82,15.82,0,0,1,31.63,0,15.48,15.48,0,0,1-.09,1.68h0S54.16,37.78,52,40.92c-2.51,4.67-9.29,7.74-9.29,7.74a2.46,2.46,0,0,1-2.47,0"/><path class="cls-5" d="M27.08,26.75s1.43-.55,5.82-8.41,8.88-5.62,8.88-5.62,4.79-3,13.71,13.14c2.25,4.09-.86-14.43-.86-14.43L40,10.33,27.83,11.91s-2.78,13-.75,14.84"/><path class="cls-7" d="M46.5,22.56A19,19,0,0,0,43.85,28,19.18,19.18,0,0,1,46,22.22Z"/><path class="cls-4" d="M38.94,22.8s-.71.73-3.49-.38c-3.07-1.22-5.85-.41-6.12-.11C29.33,22.31,33.68,19,38.94,22.8Z"/><path class="cls-4" d="M43.85,22.8s.71.73,3.49-.38c3.07-1.22,5.84-.41,6.12-.11C53.46,22.31,49.11,19,43.85,22.8Z"/><path class="cls-9" d="M27.83,34.33a1.18,1.18,0,1,1-1.18-1.18,1.17,1.17,0,0,1,1.18,1.18"/><path class="cls-5" d="M27.35,34.33a.7.7,0,1,1-.7-.7.7.7,0,0,1,.7.7"/><path class="cls-4" d="M25.48,25.7s1.33,2.71,2.77-1.41C29.48,20.8,36.92,7.05,41.5,11.67v-9A3.27,3.27,0,0,0,37.82,0c-3.39.43-16.11,2.78-13,25l.67.65"/><path class="cls-4" d="M57.53,25.7s-1.32,2.71-2.77-1.41C53.53,20.8,46.09,7.05,41.5,11.67v-9A3.28,3.28,0,0,1,45.19,0c3.39.43,15.86,3.08,13,25Z"/><path class="cls-10" d="M41.5,11.67v-9a3.23,3.23,0,0,0-.16-.53c-.05.33-.11.56-.11.56a6.68,6.68,0,0,0-7,1C39.49,2.47,40.66,6,40.66,6a6.54,6.54,0,0,0-5.3,1.19,5.63,5.63,0,0,1,5.87,2.09c-4.95-2.46-10.46,7.46-10.46,7.46.4-2.16,3-6.39,3-6.39-2.92,2.79-6,9.75-6,9.75,1.71-8.95,5.41-14,5.41-14C26,12.24,26,23.26,26,23.26A32.64,32.64,0,0,1,28.46,4.84c-3,3.5-5.13,9.59-3.65,20.21l.67.65s1.33,2.71,2.77-1.41C29.48,20.8,36.92,7.05,41.5,11.67"/><path class="cls-10" d="M58.59,20.57a20.45,20.45,0,0,0-1.17-3.82,23.46,23.46,0,0,1,.3,6,29.11,29.11,0,0,0-5.32-12c2,2.93,4.47,12.48,3.82,12.48S50.61,13.51,49,11s-6.32-1.43-6.32-1.43a4.52,4.52,0,0,1,4.88-1.79,5.93,5.93,0,0,0-5.22-.94c1.74-2.69,7,0,7,0a7.93,7.93,0,0,0-7-2.64c1.94-1.71,5.54,0,5.54,0C45.7,2.26,42.32,2.92,41.5,3.12v8.55c4.59-4.62,12,9.13,13.26,12.62,1.45,4.12,2.77,1.41,2.77,1.41l.67-.65C58.41,23.45,58.53,22,58.59,20.57Z"/><path class="cls-11" d="M56.89,58.81h0l2.45.72c-.87-.27-1.69-.51-2.45-.72"/><path class="cls-12" d="M53.84,58c.84.21,1.88.49,3,.82h0c-1.18-.34-2.2-.61-3-.82"/><path class="cls-13" d="M50.56,107c-.83,1.42-1.57,2.67-2.19,3.69.65,2.89,1.23,5.61,1.68,7.91a12,12,0,0,0,2.19-2.1L50.56,107"/><path class="cls-2" d="M43.16,104.51s2.08-12.19,13.15-44c.2-.59.39-1.16.58-1.74-3.12-.88-5.31-1.38-5.31-1.38H33.37c1.16,11.72,9.79,47.08,9.79,47.08"/><path class="cls-3" d="M57.32,36.51S47.82,48.38,41,57.43h2.46c4.7-6.9,10.43-15.42,13.88-20.92"/><path class="cls-3" d="M55.07,43.6c-1.59,2-5.49,7.88-9.38,13.83h2.73c3.71-7.5,6.65-13.83,6.65-13.83"/><path class="cls-3" d="M60.78,33.15C59.26,38.26,55,48,50.63,57.43h.95s.74.17,2,.49c3.82-12.87,7.18-24.64,7.22-24.77m0,0h0"/><path class="cls-3" d="M51.58,57.43l1.49.36.49.13h0c-1.24-.32-2-.49-2-.49"/><path class="cls-14" d="M53.07,57.79l.49.13h0l-.49-.13"/><path class="cls-15" d="M22.18,38.36l-.24,1,.24-1h0M24.68,8.1a.83.83,0,0,0-.07.13C22.14,13.36,21.52,20.82,21.53,27c0-6.2.61-13.66,3.08-18.79a.83.83,0,0,1,.07-.13M24.73,8l0,0,0,0"/><path class="cls-4" d="M52.81,27.58a4.38,4.38,0,0,1-1.23.05c-.43-.09-2.7-1.64-4.37-1.07s-2.1,1.41-2.57,1.49c0,0,1.13.46,1.65.2s1.87-1.55,4.86-.2A1.9,1.9,0,0,0,52.81,27.58Z"/><path class="cls-4" d="M29.65,27.1a4.38,4.38,0,0,0,1.23,0c.43-.1,2.7-1.64,4.37-1.07s2.1,1.41,2.57,1.48c0,0-1.14.47-1.65.21s-1.87-1.55-4.87-.2A1.92,1.92,0,0,1,29.65,27.1Z"/><path class="cls-2" d="M45.52,39.5s-3.08,3.91-7.5,0A73.37,73.37,0,0,1,45.52,39.5Z"/><path class="cls-5" d="M43.06,32.15s-.15,2-.09,3.19c0,0-.2,1.13-.66,1.2s-1.48-.13-1.81,0a13,13,0,0,0,1.43.8c.5.2,2.88-.57,2.64-1.4C44.12,34.34,42.93,33,43.06,32.15Z"/></g></g></svg>