<svg xmlns="http://www.w3.org/2000/svg" viewBox="0 0 210.78 239.32"><defs><style>.cls-1{fill:#f9f9f9;}.cls-1,.cls-2,.cls-3,.cls-4{fill-rule:evenodd;}.cls-2{fill:#aaa;}.cls-3{fill:#fff;}.cls-4{fill:#262626;}</style></defs><g id="Layer_2" data-name="Layer 2"><g id="Mar18Alt-TopMid"><path class="cls-1" d="M102.65,0l1.61.43-.9,3.16,88.52,27.23a46.52,46.52,0,0,1,7.94,3c-3.32,4.39-11.75,17.59-14.67,41.38a127.23,127.23,0,0,0-1,14.9l-3.3,10.63-7.61,32.68s3.21,2.13.54,5.79l11.05,48.93,25.91,14c-4.2,10.12-13.44,33.13-38.41,34.26l-64.62,2.93L50.3,235.78C25.36,234.24,4.19,224.65,0,214.54l20.43-26.41L31.48,139.2c-2.67-3.66.53-5.79.53-5.79l-7.95-30L21.11,90.1a131.72,131.72,0,0,0-1-14.9c-2.92-23.79-11.36-37-14.67-41.38a46.61,46.61,0,0,1,7.93-3L101.93,3.59,101,.43Z"/><path class="cls-2" d="M113.87,239l-6.12.28L50.3,235.78C25.36,234.24,4.19,224.65,0,214.54l20.43-26.41,6.05-26.79c29.32,20.38,96.44,63,96.44,63S119.11,231.33,113.87,239Z"/><path class="cls-3" d="M105.39,78.2a4.07,4.07,0,1,0-4.07-4.06A4.06,4.06,0,0,0,105.39,78.2Z"/><path class="cls-4" d="M105.39,73.61a.57.57,0,0,0,.57-.56.58.58,0,0,0-.57-.58.57.57,0,0,0-.57.58A.56.56,0,0,0,105.39,73.61Z"/><path class="cls-4" d="M105.39,75.8a.57.57,0,1,0,0-1.14.57.57,0,1,0,0,1.14Z"/><path class="cls-3" d="M105.39,112.55a4.07,4.07,0,1,0-4.07-4.07A4.07,4.07,0,0,0,105.39,112.55Z"/><path class="cls-4" d="M105.39,108a.57.57,0,0,0,.57-.57.58.58,0,0,0-.57-.57.57.57,0,0,0-.57.57A.56.56,0,0,0,105.39,108Z"/><path class="cls-4" d="M105.39,110.15a.58.58,0,1,0-.57-.57A.57.57,0,0,0,105.39,110.15Z"/><path class="cls-3" d="M105.39,146.89a4.07,4.07,0,1,0-4.07-4.06A4.06,4.06,0,0,0,105.39,146.89Z"/><path class="cls-4" d="M105.39,142.31a.58.58,0,1,0-.57-.57A.57.57,0,0,0,105.39,142.31Z"/><path class="cls-4" d="M105.39,144.49a.57.57,0,0,0,.57-.57.58.58,0,0,0-.57-.57.57.57,0,0,0-.57.57A.56.56,0,0,0,105.39,144.49Z"/></g></g></svg>