<svg xmlns="http://www.w3.org/2000/svg" viewBox="0 0 37.65 38.77"><defs><style>.cls-1{fill:#c7c7c7;}.cls-1,.cls-3{fill-rule:evenodd;}.cls-2,.cls-3{fill:#ababab;}</style></defs><g id="Layer_2" data-name="Layer 2"><g id="Mar18Alt-HandL"><path class="cls-1" d="M8.05,0l5.61,11.84.15.32.28,0c4.44.53,12,.49,15.57,1.66,1.61.53,5.18,1.83,6.19,3.08s-.64,2.9-.64,2.9S40,22,36.15,25.19c0,0,3.75,3.45-1.25,5.34,0,0,1.1,2.25-.42,3.53a51.3,51.3,0,0,1-7.62,4.39c-2,1-4.7-.52-6-1.25A6.62,6.62,0,0,1,17.68,34s-4.08-2.68-4.75-4.69a47.12,47.12,0,0,1-6.28-2.38c-1.71-1-3.6-4.39-3.6-6.59,0,0-3-3.84-3-6.7C0,6.47,5.27,1.9,8.05,0Z"/><path class="cls-2" d="M19.89,35a4.68,4.68,0,0,1-2.54-.54.57.57,0,1,1,.66-.94c.63.44,3,.47,5.32-.15S34.64,30,34.74,30a.58.58,0,1,1,.33,1.11c-.37.11-9.21,2.81-11.44,3.42A15.19,15.19,0,0,1,19.89,35Z"/><path class="cls-2" d="M16.56,30.43a12,12,0,0,1-3.82-.58.58.58,0,1,1,.37-1.09c2.64.88,5.9.65,10.57-.77,4-1.21,12.25-3.34,12.33-3.36a.57.57,0,0,1,.7.42.58.58,0,0,1-.41.7c-.09,0-8.33,2.14-12.29,3.35A26.63,26.63,0,0,1,16.56,30.43Z"/><path class="cls-2" d="M13.6,24a15.16,15.16,0,0,1-4.86-.83A46,46,0,0,1,2.88,20.9a.61.61,0,0,1-.33-.77.54.54,0,0,1,.73-.31A46.14,46.14,0,0,0,9.07,22c2.43.73,4.19,1.26,10.7,0s15.34-2.8,15.34-2.8l.2,1.13S26.51,22,20,23.2A35.78,35.78,0,0,1,13.6,24Z"/><path class="cls-2" d="M8.72,17a.58.58,0,0,1-.5-.86c2.31-4,5.37-4.53,5.5-4.54a.58.58,0,0,1,.66.48.59.59,0,0,1-.49.66c-.13,0-2.66.46-4.67,4A.59.59,0,0,1,8.72,17Z"/><path class="cls-2" d="M13.25,11.55A.49.49,0,0,1,13,11.5h0a8.64,8.64,0,0,0-4.51-.25.58.58,0,0,1-.17-1.14,9.36,9.36,0,0,1,5.16.35.57.57,0,0,1-.24,1.09Z"/><path class="cls-3" d="M4.9,2.61l5.61,7.91.62,0a6.49,6.49,0,0,1,2.12.44l-.42-.88L8.05,0A22.14,22.14,0,0,0,4.9,2.61Z"/></g></g></svg>