<svg xmlns="http://www.w3.org/2000/svg" viewBox="0 0 63.82 132.84"><defs><style>.cls-1{fill:#f8f8f8;}.cls-2{fill:#ddd;}</style></defs><g id="Layer_2" data-name="Layer 2"><g id="Scarf"><path class="cls-1" d="M61,1.92S42.94,1.19,40.61,19.73c-2,15.78,9.9,28.73,10,37.36S51.9,79.84,54.5,86.6s9.28,35.42,9.32,39.59c0,0-8,7.4-23.28,6.59S9.22,113.9,0,111.12c0,0,6.41-40.13,12.78-43.92,0,0,7.11-6,12-10.11S33.47,45.92,35,39.54c0,0-2.54-19.78,2.44-30.12S53.56-1.6,61,1.92"/><path class="cls-2" d="M41.7,3.75a16.86,16.86,0,0,0-4.19,5.43v0l0,.08-.06.13C34.93,14.55,34.31,22,34.31,28.21A101.08,101.08,0,0,0,35,39.54h0q-.1.48-.24,1c0,.06,0,.12,0,.17.43,4.29.92,10.32,1.47,18.9,1.77,28,8.63,34.84,8.63,34.84C43,90.54,41.08,70,41,63.62s-2.8-17.25-4.89-34.44A38.66,38.66,0,0,1,41.7,3.75"/><path class="cls-2" d="M34.31,52.49s-5.71,46.1,1.86,66.69L34.31,52.49"/><path class="cls-2" d="M30,54.05a110.84,110.84,0,0,1-6.42,15.3c-5.38,10.82-5.36,22.83-5.06,34.46s6.87,15.37,6.87,15.37c.14-5.37-1.65-36.25,0-45.8A195.69,195.69,0,0,1,30,54.05m.46-1.56s-.18.57-.46,1.56c.32-1,.46-1.56.46-1.56"/><path class="cls-2" d="M20.4,70.54s-5.73,22.23-6.47,30.29,2.54,18.35,2.54,18.35c-1-16.56,3.93-48.64,3.93-48.64"/></g></g></svg>