<svg xmlns="http://www.w3.org/2000/svg" viewBox="0 0 83.21 128.36"><defs><style>.cls-1{fill:#f8f8f8;}.cls-2{fill:#b6b6b6;}.cls-3{fill:#d0d0d0;}.cls-4{fill:#ddd;}.cls-5{fill:#bdbdbd;}</style></defs><g id="Layer_2" data-name="Layer 2"><g id="Shawl"><path class="cls-1" d="M83.2,49.68S67.91,67.77,58.05,68.77c0,0-11.44,3.08-18,11.19s-17.1,48.49-35.9,47.3c0,0,.91-40.8,1.09-45.56,0,0-1.78-59,0-76.16L23.9,0H43.73s25,5.7,26.45,12.47,6,34.77,13,37.21"/><path class="cls-2" d="M65.76,8.58c-4.13.49-7,8.86-12.83,21.59-3.23,7.08-7.27,14.34-10.22,19.41l1.68,9.5c4.09-4.86,8.83-15.41,11.77-28.31,4-17.51,9.6-22.19,9.6-22.19"/><path class="cls-3" d="M44.39,59.08a12,12,0,0,1-2.19,2.1c.21,1.08.4,2.07.55,2.94a10.54,10.54,0,0,1,2.45-.46l-.81-4.58M45.72.49h0c.89.22,2,.52,3.33.89-.19.58-.38,1.15-.58,1.74-6.16,17.66-9.53,29.27-11.31,36.1,1.14,4.44,2.34,9.46,3.37,14.05.62-1,1.36-2.27,2.19-3.69l-1.32-7.47L51.72,2.17l-.23-.07L49,1.38c-1.17-.33-2.21-.61-3-.82L45.72.49"/><path class="cls-4" d="M35.59,0H33.14c-1.07,1.42-2.08,2.76-3,4,.06,1.17.14,2.38.23,3.61C31.77,5.6,33.59,3,35.59,0"/><path class="cls-4" d="M40.57,0H37.84c-2.63,4-5.25,8.08-7.15,11,.2,2.11.45,4.24.74,6.28C34.26,12.5,37.65,5.89,40.57,0"/><path class="cls-4" d="M43.73,0h-.95C38.4,9.47,34,18.55,32.24,22A38.8,38.8,0,0,0,33.87,28c.4,1.06.91,2.65,1.47,4.6C37,29.34,41.61,14.29,45.71.49L45.23.36,43.73,0h0"/><path class="cls-5" d="M83.2,49.68c.2-1.46-1.88-1.62-4.2-4.7-4,9.73-20.13,18.27-33.39,18.66S32.29,86.48,25.39,99.21C20.14,108.9,5.8,114.75.91,116.68A76.39,76.39,0,0,0,0,128.3C24.15,130,33.48,88.06,40,80s18-11.19,18-11.19c9.86-1,25.15-19.09,25.15-19.09"/><path class="cls-2" d="M66.26,12.37s-7.91,17.91-9.11,28.06a172.67,172.67,0,0,0-1.07,19.68s4.66-3.37,4.31-15.51,5.87-32.23,5.87-32.23"/></g></g></svg>