<svg xmlns="http://www.w3.org/2000/svg" viewBox="0 0 65.05 190.01"><defs><style>.cls-1{fill:#f9f9f9;}.cls-1,.cls-2,.cls-3,.cls-4{fill-rule:evenodd;}.cls-2{fill:#444;}.cls-3{fill:#191919;}.cls-4{fill:#515151;}</style></defs><g id="Layer_2" data-name="Layer 2"><g id="Mar18Alt-ArmL"><path class="cls-1" d="M31.32,6.76C36,12.38,41.7,20.47,44,29.06c3.63,13.49,14.77,52.64,18,69,3,15.35,5.07,32.59-.32,47.41C54.38,165.63,45.08,186.82,39,189.56s-15.09-7.47-31.86-22.1,1.3-37.57,1.3-37.57L.33,116.4,6.58,95.82s-2.29-2.14.15-5C-4.43,71.56,1.13,8.14,21.15,0A31.22,31.22,0,0,1,31.32,6.76Z"/><path class="cls-1" d="M60.87,92.74c.45,2,.84,3.77,1.15,5.36,3,15.35,5.07,32.59-.32,47.41C54.38,165.63,45.08,186.82,39,189.56s-15.09-7.47-31.86-22.1c-7.31-6.38-8-14.34-6.45-21.29l29.74-19.34s29.27-12.6,30.49-17.07S60.88,92.79,60.87,92.74Z"/><path class="cls-2" d="M11.55,165.38s10,11.81,17.77,16.84,9.81,1.07,12.56-4.34,27.41-42.94-12-44.58S11.55,165.38,11.55,165.38Z"/><path class="cls-3" d="M11.55,165.38S21.35,176.91,29,182l22.7-35.24c-1.25-7.17-7-12.89-21.83-13.5C-9.46,131.65,11.55,165.38,11.55,165.38Z"/><path class="cls-4" d="M27.09,160.14A25.5,25.5,0,0,1,18,167.63l-2.93-15.1,11.28-.44S26.83,156.16,27.09,160.14Z"/></g></g></svg>