<!-- Generator: Adobe Illustrator 25.0.0, SVG Export Plug-In  -->
<svg version="1.1" xmlns="http://www.w3.org/2000/svg" xmlns:xlink="http://www.w3.org/1999/xlink" x="0px" y="0px" width="822.9px"
	 height="850.2px" viewBox="0 0 822.9 850.2" style="overflow:visible;enable-background:new 0 0 822.9 850.2;"
	 xml:space="preserve">
<style type="text/css">
	.st0{fill:#FFFFFF;}
</style>
<defs>
</defs>
<g>
	<path class="st0" d="M495.8,425.1c0,7.4-2.9,13.9-8.5,19.6l-397,397c-5.7,5.7-12.2,8.5-19.6,8.5c-7.4,0-13.9-2.8-19.6-8.5
		L8.5,799.1C2.8,793.4,0,786.9,0,779.5c0-7.4,2.8-13.9,8.5-19.6l334.8-334.8L8.5,90.3C2.8,84.6,0,78.1,0,70.7
		c0-7.4,2.8-13.9,8.5-19.6L51.1,8.5C56.8,2.9,63.3,0,70.7,0c7.4,0,13.9,2.9,19.6,8.5l397,397C492.9,411.2,495.8,417.7,495.8,425.1z
		 M822.9,425.1c0,7.4-2.9,13.9-8.5,19.6l-397,397c-5.7,5.7-12.2,8.5-19.6,8.5c-7.4,0-13.9-2.8-19.6-8.5l-42.6-42.6
		c-5.7-5.7-8.5-12.2-8.5-19.6c0-7.4,2.8-13.9,8.5-19.6l334.8-334.8L335.6,90.3c-5.7-5.7-8.5-12.2-8.5-19.6c0-7.4,2.8-13.9,8.5-19.6
		l42.6-42.6c5.7-5.7,12.2-8.5,19.6-8.5c7.4,0,13.9,2.9,19.6,8.5l397,397C820.1,411.2,822.9,417.7,822.9,425.1z"/>
</g>
</svg>
