<!-- Generator: Adobe Illustrator 25.0.0, SVG Export Plug-In  -->
<svg version="1.1" xmlns="http://www.w3.org/2000/svg" xmlns:xlink="http://www.w3.org/1999/xlink" x="0px" y="0px" width="318px"
	 height="107px" viewBox="0 0 318 107" style="overflow:visible;enable-background:new 0 0 318 107;" xml:space="preserve">
<style type="text/css">
	.st0{fill:#FFFFFF;}
</style>
<defs>
</defs>
<g>
	<g id="Text_1_">
		<g>
			<path class="st0" d="M13.2,11.2h12.7c0,4.9-1,8.4-4,11.1c-2.6,2.4-5.5,3.1-8.7,3.1c-4.4,0-7.5-1.6-9.5-3.7
				c-1.8-1.8-3.5-4.8-3.5-8.9c0-3.9,1.6-7.1,3.7-9.2C6,1.6,9.1,0,13.5,0c2.3,0,4.8,0.5,6.7,1.7c1.9,1.2,3.5,3.1,4.4,5.1l-6.1,2.5
				c-0.4-1.1-1.1-2-1.8-2.5c-1.1-0.9-2.2-1.2-3.4-1.2c-1.5,0-3.1,0.6-4.2,1.7C7.6,8.7,6.9,11,6.9,12.9c0,2.3,0.8,4.1,2,5.3
				c1.2,1.3,2.6,1.9,4.5,1.9c1.1,0,2.4-0.2,3.5-1.1c0.6-0.5,1.3-1.4,1.5-2.7h-5.2V11.2z"/>
			<path class="st0" d="M51,21.1H42l-1.7,4.1h-6.8l9.5-24.7h7l9.3,24.7h-6.8L51,21.1z M49.3,16.2l-2.8-8l-2.7,8H49.3z"/>
			<path class="st0" d="M69.6,25.2V0.6H76l11.8,15.1V0.6h6.4v24.7h-6.4L76,10.1v15.1H69.6z"/>
			<path class="st0" d="M106.7,25.2V0.6h8.4c2.5,0,6.6,0.3,9.8,3.4c2.9,2.8,3.4,6.3,3.4,9c0,3.3-0.8,6.1-3.2,8.5
				c-2,2-5.2,3.7-9.5,3.7H106.7z M113.1,19.8h1.3c1.6,0,3.7-0.1,5.4-1.8c0.8-0.8,1.9-2.3,1.9-5.1c0-2.3-0.7-4.3-1.9-5.4
				c-1.5-1.4-3.5-1.6-5.1-1.6h-1.6V19.8z"/>
			<path class="st0" d="M146.2,9.8h9.2V0.6h6.4v24.7h-6.4v-10h-9.2v10h-6.4V0.6h6.4V9.8z"/>
			<path class="st0" d="M180.9,0.6v24.7h-6.4V0.6H180.9z"/>
			<path class="st0" d="M13.7,50.5c-1.4-1.9-3.1-2.1-4-2.1c-2.6,0-3.4,1.6-3.4,2.9c0,0.6,0.2,1.1,0.8,1.7c0.6,0.6,1.4,0.9,3,1.4
				c1.9,0.7,3.7,1.3,5,2.5c1.1,1,2.1,2.7,2.1,5.2c0,4.8-3.5,8.1-8.6,8.1c-4.5,0-7.2-2.8-8.5-4.7l3.1-3c1.2,2.4,3.4,3.3,5.2,3.3
				c2.2,0,3.8-1.3,3.8-3.4c0-0.9-0.3-1.6-1-2.2c-0.9-0.9-2.4-1.3-3.8-1.8c-1.3-0.4-2.8-1-4.1-2.1c-0.8-0.7-2-2.1-2-4.6
				c0-3.6,2.4-7.2,7.9-7.2c1.6,0,4.5,0.3,7,2.9L13.7,50.5z"/>
			<path class="st0" d="M37.4,64.4h-9.9l-2.2,5.2H20l10.6-24.7h3.8l10.3,24.7h-5.2L37.4,64.4z M36,60.5l-3.5-8.9l-3.5,8.9H36z"/>
			<path class="st0" d="M54.3,44.9v20.5h7.6v4.1H49.5V44.9H54.3z"/>
			<path class="st0" d="M74.2,49.1v20.5h-4.8V49.1h-5.5v-4.1h15.9v4.1H74.2z"/>
			<path class="st0" d="M98.4,44.9h3.5l6.5,15.7l6.8-15.7h3.5l4.1,24.7H118l-2.2-15.2l-6.6,15.2h-1.6l-6.3-15.2l-2.5,15.2h-4.9
				L98.4,44.9z"/>
			<path class="st0" d="M143.7,64.4h-9.9l-2.2,5.2h-5.2l10.6-24.7h3.8L151,69.6h-5.2L143.7,64.4z M142.3,60.5l-3.5-8.9l-3.5,8.9
				H142.3z"/>
			<path class="st0" d="M162.9,44.9c3.4,0,5.1,0.9,6.3,1.8c1.9,1.6,2.4,3.7,2.4,5.5c0,2.4-1,4.5-2.9,5.8c-0.6,0.4-1.5,0.9-2.7,1.1
				l7.7,10.4h-6l-6.6-9.9h-0.6v9.9h-4.8V44.9H162.9z M160.6,56.3h1.4c0.9,0,4.7-0.1,4.7-3.7c0-3.7-3.8-3.7-4.7-3.7h-1.4V56.3z"/>
			<path class="st0" d="M196.7,68.7c-1.5,0.8-3.4,1.4-6.1,1.4c-4.3,0-7-1.5-9-3.4c-2.8-2.7-4-5.8-4-9.4c0-4.5,1.8-7.7,4-9.6
				c2.5-2.3,5.5-3.3,9.1-3.3c1.7,0,3.8,0.3,6.1,1.5v5.6c-2.3-2.6-5.1-2.8-6-2.8c-5,0-8.2,4.1-8.2,8.6c0,5.5,4.2,8.4,8.4,8.4
				c2.3,0,4.3-1,5.8-2.7V68.7z"/>
			<path class="st0" d="M207.8,54.5h10.4v-9.5h4.8v24.7h-4.8v-11h-10.4v11H203V44.9h4.8V54.5z"/>
			<path class="st0" d="M248.2,46.4h-3.8l0.7-1.5h4.7v24.7h-1.6V46.4z"/>
			<path class="st0" d="M262.6,69l5.5-7.8c-1.1,0.5-2.3,0.7-3.4,0.7c-4.9,0-8.6-3.6-8.6-8.6c0-4.9,3.6-8.7,8.8-8.7
				c5,0,8.7,3.7,8.7,8.7c0,2.7-1.2,4.4-1.6,5L263.8,70L262.6,69z M257.8,53.2c0,4.2,3,7.2,7.1,7.2c4.1,0,7.1-3.1,7.1-7.2
				c0-4.1-3-7.2-7.1-7.2C260.8,46.1,257.8,49.2,257.8,53.2z"/>
			<path class="st0" d="M281.3,63.6c0,1,0.3,1.9,0.8,2.6c0.9,1.3,2.7,2.3,4.4,2.3c3,0,5.5-2.7,5.5-5.7c0-2.1-1-3.7-2.3-4.5
				c-0.8-0.5-2-0.7-3.1-0.7V56c1.9,0,3.1-0.9,3.3-1.1c1.1-0.9,1.8-2.4,1.8-4c0-2.6-1.7-4.8-4.7-4.8c-1,0-2.4,0.2-3.5,1.4
				c-0.8,0.8-1.2,2.1-1.3,3.3h-1.6c0-1.8,0.8-3.4,1.8-4.4c1.5-1.5,3.2-1.8,4.5-1.8c4.1,0,6.4,2.8,6.4,6.2c0,2.1-0.9,4.8-3.9,6
				c2.7,0.9,4.2,3.2,4.2,6c0,4.1-3.2,7.2-7.2,7.2c-2.2,0-4.7-1.1-5.9-3.2c-0.5-0.8-0.9-1.8-0.9-3.2H281.3z"/>
			<path class="st0" d="M314.9,47.6c1.9,2.3,3.1,5.6,3.1,9.7s-1.2,7.4-3.1,9.7c-1.8,2.1-3.9,3-5.8,3c-1.9,0-4-0.9-5.8-3
				c-1.9-2.3-3.1-5.6-3.1-9.7s1.2-7.4,3.1-9.7c2-2.4,4.2-3,5.8-3C310.6,44.6,312.9,45.2,314.9,47.6z M313.6,66
				c1.6-2,2.7-4.8,2.7-8.7c0-4-1.1-6.8-2.7-8.7c-0.9-1.1-2.4-2.5-4.6-2.5c-2.2,0-3.7,1.4-4.6,2.5c-1.6,2-2.7,4.8-2.7,8.7
				c0,3.9,1.1,6.8,2.7,8.7c1.8,2.3,3.7,2.5,4.6,2.5C309.9,68.5,311.8,68.2,313.6,66z"/>
		</g>
	</g>
	<g>
		<path class="st0" d="M0.4,97.3c0-1.1,0.4-2.1,1.1-2.9C2.2,93.5,3.3,93,4.6,93c1.7,0,3.1,0.8,3.9,2.4c1.2,2.4,0.9,6-0.9,8.4
			c-0.6,0.9-1.4,1.6-2.3,2c-0.9,0.5-2.1,0.6-3.1,0.5v-2.1c0.7,0.1,1.6,0,2.2-0.3c0.6-0.3,1.1-0.7,1.5-1.4c0.4-0.5,0.6-1.1,0.8-1.7
			c-0.6,0.3-1.3,0.5-2.1,0.5c-1.7,0-2.7-0.7-3.2-1.2C0.8,99.4,0.4,98.4,0.4,97.3z M2.5,97.3c0,0.5,0.2,1,0.5,1.3
			c0.4,0.4,0.9,0.6,1.7,0.6c0.9,0,1.5-0.3,1.9-0.9C6.8,98,6.9,97.7,7,97.5c-0.1-0.4-0.2-0.8-0.4-1.2c-0.4-0.8-1.1-1.3-2-1.3
			c-0.8,0-1.2,0.4-1.5,0.7C2.7,96.2,2.5,96.7,2.5,97.3z"/>
		<path class="st0" d="M15.7,105.7c-0.6-0.4-1.2-0.9-1.6-1.6c-0.8-1.2-1.2-2.8-1.2-4.4c0-1.7,0.4-3.3,1.2-4.4c0.5-0.7,1-1.2,1.6-1.6
			c0.7-0.4,1.5-0.6,2.3-0.6c0.8,0,1.6,0.2,2.3,0.6c0.6,0.4,1.2,0.9,1.6,1.6c0.8,1.2,1.2,2.8,1.2,4.4c0,1.7-0.4,3.2-1.2,4.4
			c-0.4,0.7-1,1.2-1.6,1.6c-0.7,0.4-1.5,0.6-2.3,0.6S16.4,106.1,15.7,105.7z M15.8,96.4c-0.5,0.8-0.9,2-0.9,3.3
			c0,1.3,0.3,2.5,0.9,3.3c0.6,0.8,1.3,1.3,2.2,1.3c0.9,0,1.6-0.4,2.2-1.3c0.5-0.8,0.8-2,0.8-3.3c0-1.3-0.3-2.5-0.8-3.3
			c-0.6-0.9-1.3-1.3-2.2-1.3C17.1,95.1,16.4,95.5,15.8,96.4z"/>
		<path class="st0" d="M32,93.7h-2.1v6.7h-1.2v-6.7h-2.1v-1.1H32V93.7z"/>
		<path class="st0" d="M39.8,100.4h-1.2V97h-3.1v3.4h-1.2v-7.8h1.2v3.3h3.1v-3.3h1.2V100.4z"/>
		<path class="st0" d="M57.8,103.5H53l-1.1,2.9h-2.3l5.8-14l5.8,14h-2.3L57.8,103.5z M57,101.6l-1.6-4.1l-1.6,4.1H57z"/>
		<path class="st0" d="M67.1,97.8v8.6H65v-14l8.4,9.2V93h2.1v14L67.1,97.8z"/>
		<path class="st0" d="M82.4,97.8v8.6h-2.1v-14l8.4,9.2V93h2.1v14L82.4,97.8z"/>
		<path class="st0" d="M95.6,106.4V93h2.1v13.4H95.6z"/>
		<path class="st0" d="M107.5,101.8L111,93h2.3l-5.7,14l-6.1-14h2.3L107.5,101.8z"/>
		<path class="st0" d="M119.2,98.4h4.9v1.9h-4.9v4.1h5.9v1.9h-5.9h-2.1V93h2.1h5.9v1.9h-5.9V98.4z"/>
		<path class="st0" d="M138.9,106.4h-2.4l-3.4-4.5h-1.5v4.5h-2.1V93h1.8h2.2c1.8,0,2.8,0.7,3.3,1.3c0.7,0.8,1.1,1.9,1.1,3.1
			c0,1.2-0.4,2.3-1.1,3.1c-0.3,0.4-0.8,0.8-1.5,1L138.9,106.4z M133.5,100c0.9,0,1.5-0.3,1.9-0.7c0.5-0.5,0.6-1.3,0.6-1.8
			c0-0.5-0.1-1.3-0.6-1.8c-0.4-0.5-1.1-0.7-1.9-0.7h-1.9v5.1H133.5z"/>
		<path class="st0" d="M149.7,103.7c-0.4,1.3-1.5,2.3-3,2.6c-0.3,0.1-0.5,0.1-0.8,0.1c-0.5,0-1.1-0.1-1.6-0.3
			c-0.8-0.3-1.6-0.9-2.2-1.7l1.7-1.3c0.4,0.5,0.8,0.9,1.3,1c0.4,0.2,0.8,0.2,1.2,0.1c0.7-0.1,1.2-0.6,1.4-1.1
			c0.2-0.6-0.2-1.2-0.6-1.5c-0.6-0.6-1.6-1.5-1.6-1.6l-1.6-1.5c-0.5-0.5-0.8-1-1-1.6c-0.2-0.6-0.2-1.2,0-1.7c0.2-0.6,0.5-1.1,1-1.5
			c0.5-0.4,1-0.6,1.6-0.8c0.6-0.1,1.3-0.1,2,0.1c0.7,0.3,1.3,0.7,1.8,1.4l-1.6,1.3c-0.7-0.8-1.4-0.8-1.8-0.8c-0.5,0.1-0.9,0.4-1,0.8
			c-0.1,0.3-0.1,0.7,0.5,1.2l2.2,2.1c0.3,0.3,0.7,0.7,1,1c0.6,0.5,1,1.1,1.2,1.7C149.9,102.4,149.9,103.1,149.7,103.7z"/>
		<path class="st0" d="M160.8,103.5h-4.8l-1.1,2.9h-2.3l5.8-14l5.8,14H162L160.8,103.5z M160.1,101.6l-1.6-4.1l-1.6,4.1H160.1z"/>
		<path class="st0" d="M177.2,106.4h-2.4l-3.4-4.5H170v4.5h-2.1V93h1.8h2.2c1.8,0,2.8,0.7,3.3,1.3c0.7,0.8,1.1,1.9,1.1,3.1
			c0,1.2-0.4,2.3-1.1,3.1c-0.3,0.4-0.8,0.8-1.5,1L177.2,106.4z M171.9,100c0.9,0,1.5-0.3,1.9-0.7c0.5-0.5,0.6-1.3,0.6-1.8
			c0-0.5-0.1-1.3-0.6-1.8c-0.4-0.5-1.1-0.7-1.9-0.7H170v5.1H171.9z"/>
		<path class="st0" d="M185.8,99.4v7h-2.1v-7l-4.7-6.4h2.4l3.3,4.6l3.3-4.6h2.4L185.8,99.4z"/>
		<path class="st0" d="M203.8,98.4h4.9v1.9h-4.9v4.1h5.9v1.9h-5.9h-2.1V93h2.1h5.9v1.9h-5.9V98.4z"/>
		<path class="st0" d="M223,106.4l-3.6-5.2l-3.5,5.2h-2.6l4.9-7.1l-4.2-6.2h2.6l2.9,4.3l2.9-4.3h2.6l-4.2,6.2l4.9,7.1H223z"/>
		<path class="st0" d="M239.3,106.4h-2.1v-5.8h-5.3v5.8h-2.1V93h2.1v5.7h5.3V93h2.1V106.4z"/>
		<path class="st0" d="M244,106.4V93h2.1v13.4H244z"/>
		<path class="st0" d="M259.1,102.4c0,0.7-0.1,1.3-0.4,1.8c-0.3,0.5-0.7,0.9-1.2,1.3c-0.9,0.6-2.2,0.9-3.7,0.9h-1.2h-1.8V93h2.1h0.9
			c1.5,0,2.6,0.3,3.3,0.8c0.4,0.3,0.7,0.7,0.9,1.2c0.2,0.4,0.3,0.9,0.3,1.4c0,0.7-0.2,1.6-1,2.4c0.2,0.1,0.4,0.3,0.6,0.5
			c0.4,0.4,0.7,0.8,0.9,1.3C259,101.2,259.1,101.8,259.1,102.4z M252.9,94.9v4.1c0.4-0.1,0.9-0.2,1.4-0.4c0.7-0.3,1.2-0.6,1.5-0.9
			c0.4-0.4,0.6-0.7,0.6-1.2c0-0.6-0.2-0.9-0.4-1c-0.5-0.4-1.5-0.5-2.2-0.5H252.9z M257.3,102.4c0-0.7-0.2-1.3-0.7-1.7
			c-0.3-0.3-0.6-0.5-1-0.7c-0.2,0.1-0.4,0.2-0.6,0.2c-0.7,0.3-1.5,0.5-2,0.6v3.6h0.9c1.1,0,2.1-0.2,2.6-0.6
			C257,103.5,257.3,103.1,257.3,102.4z"/>
		<path class="st0" d="M263.4,106.4V93h2.1v13.4H263.4z"/>
		<path class="st0" d="M278.9,94.9h-3.7v11.5h-2.1V94.9h-3.7V93h9.5V94.9z"/>
		<path class="st0" d="M282.8,106.4V93h2.1v13.4H282.8z"/>
		<path class="st0" d="M293.2,105.8c-0.8-0.3-1.5-0.8-2.1-1.4c-0.6-0.6-1.1-1.3-1.4-2.1c-0.3-0.8-0.5-1.7-0.5-2.6
			c0-0.9,0.2-1.8,0.5-2.6c0.3-0.8,0.8-1.5,1.4-2.1c0.6-0.6,1.3-1.1,2.1-1.4c0.8-0.3,1.7-0.5,2.6-0.5s1.8,0.2,2.6,0.5
			c0.8,0.3,1.5,0.8,2.1,1.4c0.6,0.6,1.1,1.3,1.4,2.1c0.3,0.8,0.5,1.7,0.5,2.6c0,0.9-0.2,1.8-0.5,2.6c-0.3,0.8-0.8,1.5-1.4,2.1
			c-0.6,0.6-1.3,1.1-2.1,1.4c-0.8,0.3-1.7,0.5-2.6,0.5S294.1,106.2,293.2,105.8z M292.6,96.4c-0.9,0.9-1.4,2-1.4,3.2
			c0,1.2,0.5,2.4,1.4,3.2s2,1.4,3.2,1.4s2.4-0.5,3.2-1.4c0.9-0.9,1.4-2,1.4-3.2c0-1.2-0.5-2.4-1.4-3.2c-0.9-0.9-2-1.4-3.2-1.4
			S293.5,95.6,292.6,96.4z"/>
		<path class="st0" d="M308.9,97.8v8.6h-2.1v-14l8.4,9.2V93h2.1v14L308.9,97.8z"/>
	</g>
</g>
</svg>
