<?xml version="1.0" encoding="utf-8"?>
<!-- Generator: Adobe Illustrator 25.0.0, SVG Export Plug-In . SVG Version: 6.00 Build 0)  -->
<svg version="1.1" id="Layer_1" xmlns="http://www.w3.org/2000/svg" xmlns:xlink="http://www.w3.org/1999/xlink" x="0px" y="0px"
	 viewBox="0 0 739.8 327.9" style="enable-background:new 0 0 739.8 327.9;" xml:space="preserve">
<style type="text/css">
	.st0{fill:#FFFFFF;}
	.st1{fill:#F1F1F2;}
</style>
<g>
	<g>
		<path class="st0" d="M0,320.4c0,0,17.6-16,26.6-23.3c9.1-7.2,25.3-12.4,30.8-18.9c5.4-6.5,16.8-10.1,20.2-17.3
			c3.4-7.2,40.8-39.3,40.8-39.3s11.3-18.6,21-20.5c9.7-1.8,11.6-6.7,32.7-24.3s37.1-12,42.7-21c5.6-9.1,13-25.3,31.9-36.2
			s6.9-23.5,27.4-32.6s10.8-21.7,27.4-25.3c16.6-3.6,58.9-50.8,58.9-50.8S385.2-17,405,16.4c4.1,7,14.4,12.7,26.2,25.3
			c11.8,12.7,39.4,35.9,52.1,57.6c12.7,21.7,30.8,38.1,38.1,49s16.4,23.6,24.2,30.3c19.4,16.3,39.2,45,56.9,50.9
			c42.4,13.9,64.9,40.6,77.6,48.7c12.7,8,29,13.4,36.2,22.5s19.9,21.7,23.5,27.2L0,320.4z"/>
	</g>
	<path class="st1" d="M394.3,51.7c0,0,52.4,44.7,72,76.4c19.6,31.6,38.2,75.9,78.5,99.6c40.4,23.7,121.1,72.8,121.1,72.8
		s-63.1,3.7-129.8-27.3c-51.6-24-94.4-113.6-127.6-141.8C357.3,87.7,361.8,42,394.3,51.7z"/>
</g>
</svg>
