<?xml version="1.0" encoding="utf-8"?>
<!-- Generator: Adobe Illustrator 25.0.0, SVG Export Plug-In . SVG Version: 6.00 Build 0)  -->
<svg version="1.1" id="Layer_1" xmlns="http://www.w3.org/2000/svg" xmlns:xlink="http://www.w3.org/1999/xlink" x="0px" y="0px"
	 viewBox="0 0 263.9 263.9" style="enable-background:new 0 0 263.9 263.9;" xml:space="preserve">
<style type="text/css">
	.st0{fill:#6B6B6B;}
	.st1{fill:#3D3D3D;}
	.st2{fill:#212121;}
</style>
<g id="Layer_2_1_">
	<g id="WheelSpin">
		<path class="st0" d="M132,263.9L132,263.9c-6.2,0-11.2-5-11.2-11.2c0,0,0,0,0,0V11.2C120.8,5,125.8,0,132,0c0,0,0,0,0,0l0,0
			c6.2,0,11.2,5,11.2,11.2c0,0,0,0,0,0v241.5C143.2,258.9,138.2,263.9,132,263.9L132,263.9z"/>
		<path class="st0" d="M263.9,131.9L263.9,131.9c0,6.2-5,11.2-11.2,11.2H11.2c-6.2,0-11.2-5-11.2-11.2v0c0-6.2,5-11.2,11.2-11.2
			h241.5C258.9,120.8,263.9,125.8,263.9,131.9z"/>
		<path class="st0" d="M38.7,225.2L38.7,225.2c-4.4-4.4-4.4-11.5,0-15.8L209.4,38.7c4.4-4.4,11.5-4.4,15.8,0l0,0
			c4.4,4.4,4.4,11.5,0,15.8L54.5,225.2C50.1,229.6,43,229.6,38.7,225.2z"/>
		<path class="st0" d="M38.7,38.7L38.7,38.7c4.4-4.4,11.5-4.4,15.8,0l170.8,170.8c4.4,4.4,4.4,11.5,0,15.8l0,0
			c-4.4,4.4-11.5,4.4-15.8,0L38.7,54.5C34.3,50.1,34.3,43,38.7,38.7z"/>
		<path class="st1" d="M129.2,11.2c0,1.2-1,2.1-2.1,2.1s-2.1-1-2.1-2.1s1-2.1,2.1-2.1l0,0C128.3,9.1,129.2,10.1,129.2,11.2z"/>
		<path class="st1" d="M138.9,11.2c0,1.2-1,2.1-2.1,2.1c-1.2,0-2.1-1-2.1-2.1c0-1.2,1-2.1,2.1-2.1S138.9,10.1,138.9,11.2
			C138.9,11.2,138.9,11.2,138.9,11.2z"/>
		<path class="st1" d="M129.2,252.6c0,1.2-1,2.1-2.1,2.1s-2.1-1-2.1-2.1c0-1.2,1-2.1,2.1-2.1C128.3,250.4,129.2,251.4,129.2,252.6
			C129.2,252.6,129.2,252.6,129.2,252.6z"/>
		<path class="st1" d="M138.9,252.6c0,1.2-1,2.1-2.1,2.1c-1.2,0-2.1-1-2.1-2.1c0-1.2,1-2.1,2.1-2.1
			C137.9,250.4,138.9,251.4,138.9,252.6z"/>
		<circle class="st1" cx="252.6" cy="127.1" r="2.1"/>
		<circle class="st1" cx="252.6" cy="136.8" r="2.1"/>
		<circle class="st1" cx="11.3" cy="127.1" r="2.1"/>
		<circle class="st1" cx="11.3" cy="136.8" r="2.1"/>
		<circle class="st1" cx="43.2" cy="50" r="2.1"/>
		<path class="st1" d="M51.5,41.7c0.8,0.8,0.8,2.2,0,3c-0.8,0.8-2.2,0.8-3,0c-0.8-0.8-0.8-2.2,0-3c0,0,0,0,0,0
			C49.4,40.8,50.7,40.8,51.5,41.7C51.5,41.6,51.5,41.6,51.5,41.7z"/>
		<path class="st1" d="M215.3,219.1c0.8,0.8,0.8,2.2,0,3s-2.2,0.8-3,0c-0.8-0.8-0.8-2.2,0-3c0,0,0,0,0,0
			C213.2,218.3,214.5,218.3,215.3,219.1z"/>
		<path class="st1" d="M222.2,212.3c0.8,0.8,0.9,2.2,0,3s-2.2,0.9-3,0c-0.8-0.8-0.9-2.2,0-3c0,0,0,0,0,0
			C220,211.5,221.3,211.5,222.2,212.3z"/>
		<path class="st1" d="M215.3,44.7c-0.8,0.8-2.2,0.8-3,0c-0.8-0.8-0.8-2.2,0-3c0.8-0.8,2.2-0.8,3,0c0,0,0,0,0,0
			C216.2,42.5,216.2,43.8,215.3,44.7z"/>
		<path class="st1" d="M222.2,51.5c-0.8,0.8-2.2,0.8-3,0c-0.8-0.8-0.8-2.2,0-3c0.8-0.8,2.2-0.8,3,0c0,0,0,0,0,0
			C223,49.3,223,50.7,222.2,51.5C222.2,51.5,222.2,51.5,222.2,51.5z"/>
		<circle class="st1" cx="43.2" cy="213.8" r="2.1"/>
		<path class="st1" d="M51.5,222.1c-0.8,0.8-2.2,0.8-3,0c-0.8-0.8-0.8-2.2,0-3c0.8-0.8,2.2-0.8,3,0c0,0,0,0,0,0
			C52.4,220,52.4,221.3,51.5,222.1C51.5,222.1,51.5,222.1,51.5,222.1z"/>
		<rect x="127.1" y="10.3" class="st2" width="9.7" height="1.9"/>
		
			<rect x="216.3" y="41.7" transform="matrix(0.7071 -0.7071 0.7071 0.7071 30.6977 167.2541)" class="st2" width="1.9" height="9.7"/>
		<rect x="251.6" y="127.1" class="st2" width="1.9" height="9.7"/>
		
			<rect x="45.6" y="212.4" transform="matrix(0.7071 -0.7071 0.7071 0.7071 -139.9503 96.5761)" class="st2" width="1.9" height="9.7"/>
		<rect x="10.3" y="127.1" class="st2" width="1.9" height="9.7"/>
		
			<rect x="41.8" y="45.6" transform="matrix(0.7071 -0.7071 0.7071 0.7071 -19.2943 46.5981)" class="st2" width="9.7" height="1.9"/>
	</g>
</g>
</svg>
