<?xml version="1.0" encoding="utf-8"?>
<!-- Generator: Adobe Illustrator 25.0.0, SVG Export Plug-In . SVG Version: 6.00 Build 0)  -->
<svg version="1.1" id="Layer_1" xmlns="http://www.w3.org/2000/svg" xmlns:xlink="http://www.w3.org/1999/xlink" x="0px" y="0px"
	 viewBox="0 0 542.9 330.7" style="enable-background:new 0 0 542.9 330.7;" xml:space="preserve">
<style type="text/css">
	.st0{fill:#5D5D5D;}
	.st1{fill:#3D3D3D;}
	.st2{fill:#6B6B6B;}
	.st3{opacity:0.5;}
	.st4{fill:#4A4A4A;}
	.st5{fill:#FFFFFF;}
	.st6{fill:none;}
	.st7{fill:#8D8D8D;}
	.st8{fill:#F1F1F1;}
	.st9{fill:#FCFCFC;}
	.st10{fill:#B0B0B0;}
</style>
<g id="Layer_2_1_">
	<g id="WheelSpin-Base">
		<polygon class="st0" points="113.3,330.7 113.3,285 126,214.3 126,260 		"/>
		<rect x="33.6" y="285" class="st1" width="79.7" height="45.7"/>
		<polygon class="st2" points="33.6,285 50.2,214.3 126,214.3 113.3,285 		"/>
		<polygon class="st0" points="463,288.6 463,269.7 467.9,247.1 467.9,266.1 		"/>
		<rect x="115.2" y="269.7" class="st2" width="347.8" height="18.9"/>
		<g class="st3">
			<rect x="115.2" y="269.7" class="st4" width="347.8" height="18.9"/>
		</g>
		<polygon class="st2" points="115.2,269.7 120.2,247.1 467.9,247.1 463,269.7 		"/>
		<polygon class="st0" points="530.2,330.7 530.2,285 542.9,214.3 542.9,260 		"/>
		<rect x="450.5" y="285" class="st1" width="79.6" height="45.7"/>
		<polygon class="st2" points="450.5,285 467.1,214.3 542.9,214.3 530.2,285 		"/>
		<path class="st1" d="M112.1,222.5l-2.7,7.3l-44.2-7.3L62.4,76.8c0-16.8,13.3-26.3,26.3-26.3l0,0c12.9,0,23.4,10.5,23.4,23.4
			c0,0,0,0,0,0V222.5z"/>
		<path class="st2" d="M109.4,229.8H62.6V77.5c0-12.9,10.5-23.4,23.4-23.4c0,0,0,0,0,0l0,0c12.9,0,23.4,10.5,23.4,23.4c0,0,0,0,0,0
			V229.8z"/>
		<g class="st3">
			<path class="st4" d="M109.4,229.8H62.6V77.5c0-12.9,10.5-23.4,23.4-23.4c0,0,0,0,0,0l0,0c12.9,0,23.4,10.5,23.4,23.4c0,0,0,0,0,0
				V229.8z"/>
		</g>
		<circle class="st1" cx="86" cy="77.4" r="6.2"/>
		
			<rect x="327.9" y="-78.8" transform="matrix(0.4248 -0.9053 0.9053 0.4248 91.8057 359.5935)" class="st5" width="1.9" height="372.7"/>
		<path class="st1" d="M524.2,257.7l-2.8,4.3l-45-4.3l-3.2-71.4c0-13.2,12-26.4,25.1-26.4h1.9c13.2,0,23.9,10.7,23.9,23.9
			c0,0,0,0,0,0V257.7z"/>
		<path class="st2" d="M521.4,262h-47.7v-75.2c0-13.2,10.7-23.9,23.9-23.9l0,0c13.2,0,23.9,10.7,23.9,23.9L521.4,262z"/>
		<g class="st3">
			<path class="st4" d="M521.4,262h-47.7v-75.2c0-13.2,10.7-23.9,23.9-23.9l0,0c13.2,0,23.9,10.7,23.9,23.9L521.4,262z"/>
		</g>
		<circle class="st1" cx="497.5" cy="186.7" r="6.4"/>
		<path class="st6" d="M318,231.2c1.1,2,0,0,1.7,4s-2,5.4-2,7s-10.2,5.9-13.3,7.9s0,5.4-0.3,6.5s1.1,0.3,3.7-2.8s0,0,4.8-2.8
			s1.4,1.4,11,1.1s2-1.1,6.5-5.1s0.9-2.8,1.1-9.6s-2.5-2.5-1.7-7.9c0,0,0-0.1,0-0.1c-4.3-0.3-8.8-0.5-13.5-0.6
			C316.6,230.3,317.1,229.7,318,231.2z"/>
		<path class="st6" d="M249.7,218.3c0,0,0,0.1,0,0.1C249.8,218.6,249.8,218.4,249.7,218.3z"/>
		<path class="st6" d="M385.6,246c1.7-1.1,2.6-2.1,2.6-3.1c0-3.5-11.2-7.8-31.2-10.8c9,6.8,17,13.5,20.3,16.3
			C380.6,247.5,383.4,246.7,385.6,246z"/>
		<path class="st6" d="M302.7,225.1c-0.9-0.1-1.8-0.2-2.6-0.4c-2-0.3-4.1-0.4-6.3-0.6s-4.3-0.4-6.5-0.5l-12.9-0.8l-6-0.6
			c-1.9-0.2-3.8-0.6-5.5-0.9c-1.5-0.2-3-0.6-4.5-1l-3.4-0.9h-0.1c-0.4,1.1-1,2.1-1.9,2.9c-1,0.9-2,1.6-3.2,2.2
			c-3.9,2.1-8.9,3.8-14,5.5c17.3-3.4,41.3-5.1,65.2-5.1L302.7,225.1z"/>
		<path class="st7" d="M316.1,228.7c4.7,0.1,9.2,0.4,13.5,0.6c0.2-1.1,0.5-2.3,0.9-3.3c-3.9-0.2-7.9-0.4-11.9-0.6l-3-0.7
			c0,0.7,0.1,1.3,0.1,2C315.8,227.4,316,228.1,316.1,228.7z"/>
		<path class="st8" d="M357,232.1c-1.9-1.4-3.8-2.8-5.7-4.2c-7-5.1-14.1-9.8-19.5-12.3c0.8,1.3,1.3,2.8,1.4,4.3
			c0,1.7-1.6,3.2-2.7,6.1c-0.4,1.1-0.7,2.2-0.9,3.3c0,0,0,0.1,0,0.1c-0.8,5.4,2,1.1,1.7,7.9s3.4,5.6-1.1,9.6s3.1,4.8-6.5,5.1
			s-6.2-3.9-11-1.1s-2.3-0.3-4.8,2.8s-3.9,4-3.7,2.8s-2.8-4.5,0.3-6.5s13.3-6.2,13.3-7.9s3.7-3.1,2-7s-0.6-2-1.7-4
			c-0.9-1.5-1.4-0.9-1.9-2.4c-0.2-0.7-0.3-1.4-0.4-2.1c-0.1-0.7-0.1-1.3-0.1-2c0-1.9,0.4-1.5-2.1-3.1c-3.1-2-4-2.3-4-4.8
			c0-0.8,0.1-1.6,0.3-2.4c-0.4,0-0.8-0.1-1.1-0.1c-3-0.7-7.7-5.2-11.3-6.3c-0.3,1.1-0.5,2.3-0.6,3.4c0,2.3-6.2-2.8,2.3,5.6
			c2,2.1,4.2,3.9,6.7,5.4c2.8,1.6,3.4,1.4,3.2,5.1c0,0.4,0,0.7,0,1.1c0.3,4.3,3.6,2.3-1.4,6.3c-5.4,4.2-1.7-1.4-9,6.5
			s-5.6,7.6-7.3,10.4s1.7,2.5-4.8,2.8c-6.5,0.3-2.8,3.1-9.9-0.6s-3.1-6.8-11-5.1s-3.7,3.9-11,1.7c-7.3-2.2-3.1-3.1-7.3-2.3
			s-0.3,0.9-4.2,0.9s-2.5,2.5-5.6-0.9s-3.7,3.1-3.1-3.4c0-0.5,0.1-0.9,0.1-1.4c-4,2.5-6.9,4.3-8,5c9.7,2.7,19.6,4.8,29.5,6.4
			c15.1,1.6,30.2,2.3,45.3,2.2c16.1,0.1,32.2-0.8,48.2-2.6c9.5-1.6,18.8-3.7,28.1-6.3C374,245.7,366,238.9,357,232.1z"/>
		<path class="st9" d="M234.2,245c-0.6,6.5,0,0,3.1,3.4s1.7,0.9,5.6,0.9s0,0,4.2-0.9s0,0,7.3,2.3s3.1,0,11-1.7s4,1.4,11,5.1
			s3.4,0.9,9.9,0.6c6.5-0.3,3.1,0,4.8-2.8s0-2.5,7.3-10.4s3.7-2.3,9-6.5s1.1-1.7,1.4-7.3s-1.4-2-9.9-10.4s-2.3-3.4-2.3-5.6
			c0.1-1.2,0.3-2.3,0.6-3.4c-0.6-0.2-1.3-0.3-2-0.2c-5.5,1.1-9.8,14.5-15,16.6c-1.9,0.8-6.2-0.8-8.2-0.3c-8.8,2-27.2,12.8-38,19.5
			C234.2,244.1,234.2,244.5,234.2,245z"/>
		<path class="st9" d="M313.5,221.6c3.1,2,1.7,0.8,2.3,5.1s1.1,2.5,2.2,4.5s0,0,1.7,4s-2,5.4-2,7s-10.2,5.9-13.3,7.9s0,5.4-0.3,6.5
			s1.1,0.3,3.7-2.8s0,0,4.8-2.8s1.4,1.4,11,1.1s2-1.1,6.5-5.1s0.9-2.8,1.1-9.6s-2.5-2.5-1.7-7.9s3.7-7.3,3.7-9.6
			c-0.1-1.5-0.6-3-1.4-4.3c-1.1-0.5-2.2-1-3.4-1.4c-4.4-1.4-13.5,0.7-18.6,0.1c-0.2,0.8-0.2,1.6-0.3,2.4
			C309.5,219.3,310.4,219.6,313.5,221.6z"/>
		<path class="st10" d="M341,231.5c0,0.3-0.2,0.5-0.5,0.5c-0.3,0-0.5-0.2-0.5-0.5c0-0.3,0.2-0.5,0.5-0.5
			C340.8,231,341,231.2,341,231.5C341,231.5,341,231.5,341,231.5z"/>
		<path class="st10" d="M347.9,233.8c0,0.1-0.1,0.2-0.2,0.2c-0.1,0-0.2-0.1-0.2-0.2c0-0.1,0.1-0.2,0.2-0.2c0,0,0,0,0,0
			C347.8,233.6,347.9,233.7,347.9,233.8z"/>
		<path class="st10" d="M342,236.9c0,0.1-0.1,0.3-0.3,0.3c-0.1,0-0.3-0.1-0.3-0.3c0-0.1,0.1-0.3,0.3-0.3l0,0
			C341.9,236.7,342,236.8,342,236.9z"/>
		<path class="st10" d="M336,234.3c0,0.2-0.2,0.3-0.4,0.3c-0.2,0-0.3-0.2-0.3-0.3c0-0.2,0.2-0.3,0.4-0.3
			C335.9,234,336,234.1,336,234.3z"/>
		<path class="st10" d="M332.2,227.1c0,0.1,0,0.1-0.1,0.1c0,0,0,0,0,0c0,0-0.1,0-0.1-0.1c0,0,0,0,0,0c0-0.1,0-0.1,0.1-0.1
			c0,0,0,0,0,0C332.1,227,332.2,227.1,332.2,227.1z"/>
		<path class="st10" d="M337.2,226.2c0,0.1-0.1,0.2-0.2,0.2c0,0,0,0,0,0c-0.1,0-0.2-0.1-0.2-0.2c0-0.1,0.1-0.2,0.2-0.2
			C337.1,226,337.2,226.1,337.2,226.2C337.2,226.2,337.2,226.2,337.2,226.2z"/>
		<path class="st10" d="M338.2,223.2c0,0.1-0.2,0.2-0.3,0.2c-0.1,0-0.2-0.1-0.2-0.2c0-0.1,0.1-0.3,0.2-0.3c0.1,0,0.3,0.1,0.3,0.2
			C338.2,223.1,338.2,223.1,338.2,223.2z"/>
		<path class="st10" d="M342.6,225.6c0,0.1-0.1,0.3-0.2,0.3c-0.1,0-0.3-0.1-0.3-0.2c0,0,0-0.1,0-0.1c0-0.1,0.2-0.2,0.3-0.2
			C342.5,225.4,342.6,225.5,342.6,225.6z"/>
		<path class="st10" d="M344.8,228c0,0.2-0.2,0.4-0.4,0.4c-0.2,0-0.4-0.2-0.4-0.4c0-0.2,0.2-0.4,0.4-0.4c0,0,0,0,0,0
			C344.6,227.6,344.8,227.7,344.8,228L344.8,228z"/>
		<path class="st10" d="M352.5,231.6c0,0.1-0.1,0.2-0.2,0.2c-0.1,0-0.2-0.1-0.2-0.2c0-0.1,0.1-0.2,0.2-0.2l0,0
			C352.4,231.4,352.5,231.5,352.5,231.6z"/>
		<path class="st10" d="M350.1,229.7c0,0.1-0.1,0.3-0.2,0.3c-0.1,0-0.3-0.1-0.3-0.2c0,0,0-0.1,0-0.1c0-0.1,0.1-0.3,0.2-0.3
			c0.1,0,0.3,0.1,0.3,0.2C350.1,229.7,350.1,229.7,350.1,229.7z"/>
		<path class="st10" d="M350,231.6c0,0.2-0.1,0.3-0.3,0.3l0,0c-0.2,0-0.3-0.1-0.3-0.3c0-0.2,0.1-0.3,0.3-0.3c0,0,0,0,0,0
			C349.8,231.3,350,231.4,350,231.6z"/>
		<path class="st10" d="M346.1,230.4c0,0.1-0.1,0.2-0.2,0.2s-0.2-0.1-0.2-0.2s0.1-0.2,0.2-0.2S346.1,230.3,346.1,230.4z"/>
		<path class="st10" d="M352.7,235.9c0,0.2-0.2,0.4-0.4,0.4l0,0c-0.2,0-0.4-0.2-0.4-0.4v0c0-0.2,0.2-0.4,0.4-0.4l0,0
			C352.5,235.5,352.7,235.7,352.7,235.9C352.7,235.9,352.7,235.9,352.7,235.9z"/>
		<path class="st10" d="M347.3,241.3c0,0.5-0.4,0.9-0.8,0.9s-0.9-0.4-0.9-0.8c0-0.5,0.4-0.9,0.8-0.9c0,0,0,0,0,0
			C347,240.5,347.3,240.8,347.3,241.3z"/>
		<path class="st10" d="M339.3,242.3c0,0.2-0.1,0.3-0.3,0.3c0,0,0,0,0,0c-0.2,0-0.3-0.1-0.3-0.3v0c0-0.2,0.1-0.3,0.3-0.3l0,0
			C339.1,241.9,339.3,242.1,339.3,242.3C339.3,242.3,339.3,242.3,339.3,242.3z"/>
		<path class="st10" d="M336.7,239.4L336.7,239.4z"/>
		<path class="st10" d="M333.1,237.1c0,0.1,0,0.1-0.1,0.1c0,0,0,0,0,0c-0.1,0-0.1-0.1-0.1-0.1c0-0.1,0-0.1,0.1-0.1
			C333.1,237,333.1,237,333.1,237.1C333.1,237.1,333.1,237.1,333.1,237.1z"/>
		<path class="st10" d="M336.6,236.9c0,0.2-0.1,0.3-0.3,0.4s-0.3-0.1-0.4-0.3c0,0,0-0.1,0-0.1c0-0.2,0.1-0.3,0.3-0.4
			s0.3,0.1,0.4,0.3C336.6,236.8,336.6,236.8,336.6,236.9z"/>
		<path class="st10" d="M337.4,244.6c0,0.3-0.3,0.6-0.6,0.6c-0.3,0-0.6-0.3-0.6-0.6c0-0.3,0.3-0.6,0.6-0.6
			C337.1,244.1,337.4,244.3,337.4,244.6z"/>
		<path class="st10" d="M333.6,248.1c0,0.1-0.1,0.3-0.2,0.3c-0.1,0-0.3-0.1-0.3-0.2c0,0,0-0.1,0-0.1c0-0.1,0.1-0.3,0.2-0.3
			c0.1,0,0.3,0.1,0.3,0.2C333.6,248.1,333.6,248.1,333.6,248.1z"/>
		<path class="st10" d="M337.7,247.7c0,0.2-0.1,0.3-0.3,0.3c0,0,0,0,0,0c-0.2,0-0.3-0.1-0.4-0.3c0-0.2,0.1-0.3,0.3-0.4
			c0,0,0.1,0,0.1,0C337.6,247.3,337.7,247.5,337.7,247.7z"/>
		<path class="st10" d="M338.2,250.4c0,0.1-0.1,0.2-0.2,0.2s-0.2-0.1-0.2-0.2s0.1-0.2,0.2-0.2S338.2,250.3,338.2,250.4z"/>
		<path class="st10" d="M349.3,246.2c0,0.2-0.1,0.5-0.4,0.5c-0.2,0-0.5-0.1-0.5-0.4c0,0,0-0.1,0-0.1c0-0.2,0.3-0.4,0.5-0.4
			C349.2,245.8,349.3,246,349.3,246.2z"/>
		<path class="st10" d="M360.4,244.2c0,0.3-0.2,0.5-0.5,0.5c-0.3,0-0.4-0.3-0.4-0.5c0-0.2,0.2-0.4,0.4-0.4
			C360.2,243.7,360.4,244,360.4,244.2L360.4,244.2z"/>
		<path class="st10" d="M353,248.8c0,0.3-0.1,0.5-0.4,0.5c-0.3,0-0.5-0.1-0.5-0.4c0,0,0-0.1,0-0.1c0-0.3,0.3-0.4,0.5-0.4
			C352.8,248.4,353,248.6,353,248.8z"/>
		<path class="st10" d="M346.5,252.8c0,0.2-0.2,0.4-0.4,0.4c0,0,0,0,0,0c-0.2,0-0.4-0.2-0.4-0.3c0,0,0,0,0,0c0-0.2,0.2-0.4,0.4-0.4
			C346.3,252.4,346.5,252.6,346.5,252.8z"/>
		<path class="st10" d="M345.8,249.1c0,0.3-0.3,0.6-0.6,0.6c-0.3,0-0.6-0.3-0.6-0.6c0-0.3,0.3-0.6,0.6-0.6c0,0,0,0,0,0
			C345.6,248.5,345.8,248.8,345.8,249.1z"/>
		<path class="st10" d="M345.6,244.9c0,0.1-0.1,0.2-0.1,0.2c-0.1,0-0.2-0.1-0.2-0.2s0.1-0.2,0.2-0.2
			C345.6,244.7,345.6,244.8,345.6,244.9z"/>
		<path class="st10" d="M354.1,241.6c0,0.1-0.1,0.2-0.2,0.2c-0.1,0-0.2-0.1-0.2-0.2c0-0.1,0.1-0.2,0.2-0.2c0,0,0,0,0,0
			C354,241.4,354.1,241.5,354.1,241.6z"/>
		<path class="st10" d="M368.4,243.6c0,0.1-0.1,0.3-0.2,0.3c0,0,0,0,0,0c-0.1,0-0.3-0.1-0.3-0.3c0-0.1,0.1-0.3,0.3-0.3
			C368.3,243.3,368.4,243.4,368.4,243.6z"/>
		<path class="st10" d="M365.9,246.9c0,0.2-0.2,0.4-0.4,0.4c-0.2,0-0.4-0.2-0.4-0.4c0-0.2,0.2-0.4,0.4-0.4c0,0,0,0,0,0
			C365.8,246.5,365.9,246.7,365.9,246.9L365.9,246.9z"/>
		<path class="st10" d="M372,246c0,0.3-0.3,0.6-0.6,0.6c-0.3,0-0.6-0.3-0.6-0.6c0-0.3,0.3-0.6,0.6-0.6l0,0
			C371.7,245.4,372,245.7,372,246C372,246,372,246,372,246z"/>
		<path class="st10" d="M358.6,239.9c0,0.3-0.3,0.6-0.6,0.6s-0.6-0.3-0.6-0.6s0.3-0.6,0.6-0.6S358.6,239.6,358.6,239.9z"/>
		<path class="st10" d="M360.3,237L360.3,237z"/>
		<path class="st10" d="M311.2,229.1c0,0.1-0.1,0.3-0.3,0.3c-0.1,0-0.3-0.1-0.3-0.3c0-0.1,0.1-0.3,0.3-0.3l0,0
			C311.1,228.8,311.2,228.9,311.2,229.1z"/>
		<path class="st10" d="M313.8,227.9c0,0.1-0.1,0.3-0.2,0.3c-0.1,0-0.3-0.1-0.3-0.2c0,0,0-0.1,0-0.1c0-0.1,0.2-0.2,0.3-0.2
			C313.7,227.7,313.8,227.8,313.8,227.9z"/>
		<path class="st10" d="M308.1,220.4L308.1,220.4z"/>
		<path class="st10" d="M305.6,217.2c0,0.1-0.1,0.3-0.3,0.3c-0.1,0-0.3-0.1-0.3-0.3c0-0.1,0.1-0.3,0.3-0.3l0,0
			C305.5,217,305.6,217.1,305.6,217.2z"/>
		<path class="st10" d="M307.3,215.6c0,0.2-0.1,0.3-0.3,0.4s-0.3-0.1-0.4-0.3c0,0,0-0.1,0-0.1c0-0.2,0.1-0.3,0.3-0.4
			s0.3,0.1,0.4,0.3C307.3,215.5,307.3,215.6,307.3,215.6z"/>
		<path class="st10" d="M303.8,214.4c0,0.1-0.1,0.3-0.3,0.3c-0.1,0-0.3-0.1-0.2-0.3c0-0.1,0.1-0.3,0.2-0.3c0,0,0,0,0,0
			C303.7,214.1,303.8,214.2,303.8,214.4z"/>
		<path class="st10" d="M301,215.3L301,215.3z"/>
		<path class="st10" d="M304.5,215.7c0,0.2-0.1,0.3-0.3,0.3l0,0c-0.2,0-0.3-0.1-0.3-0.3c0-0.2,0.1-0.3,0.3-0.3
			C304.3,215.4,304.5,215.5,304.5,215.7z"/>
		<path class="st10" d="M302.8,216.6c0,0.3-0.2,0.5-0.5,0.5c-0.3,0-0.5-0.2-0.5-0.5s0.2-0.5,0.5-0.5c0,0,0,0,0,0
			C302.6,216.1,302.8,216.3,302.8,216.6C302.8,216.6,302.8,216.6,302.8,216.6z"/>
		<path class="st10" d="M301.4,213L301.4,213z"/>
		<path class="st10" d="M307.6,218.8c0,0.1-0.2,0.2-0.3,0.2c-0.1,0-0.2-0.1-0.2-0.2c0-0.1,0.2-0.2,0.3-0.2
			C307.5,218.6,307.6,218.7,307.6,218.8z"/>
		<path class="st10" d="M310.6,221.2c0,0.3-0.2,0.5-0.5,0.5c-0.3,0-0.5-0.2-0.5-0.5c0-0.3,0.2-0.5,0.5-0.5
			C310.4,220.7,310.6,220.9,310.6,221.2C310.6,221.1,310.6,221.1,310.6,221.2z"/>
		<path class="st10" d="M309.8,223.3c0,0.1-0.1,0.2-0.2,0.2c0,0,0,0,0,0c-0.1,0-0.2-0.1-0.2-0.2c0-0.1,0-0.2,0.2-0.3
			C309.6,223,309.7,223.1,309.8,223.3C309.8,223.3,309.8,223.3,309.8,223.3z"/>
		<path class="st10" d="M314.8,233.9c0,0.2-0.2,0.4-0.4,0.4c0,0,0,0,0,0c-0.2,0-0.4-0.2-0.4-0.4s0.2-0.4,0.4-0.4c0,0,0,0,0,0
			C314.7,233.5,314.8,233.7,314.8,233.9C314.8,233.9,314.8,233.9,314.8,233.9z"/>
		<path class="st10" d="M310.9,237c0,0.1-0.1,0.2-0.2,0.2c-0.1,0-0.2-0.1-0.2-0.2s0.1-0.2,0.2-0.2S310.9,236.9,310.9,237z"/>
		<path class="st10" d="M305.3,241.2c0,0.2-0.1,0.3-0.3,0.3s-0.3-0.1-0.3-0.3c0-0.2,0.1-0.3,0.3-0.3S305.3,241,305.3,241.2
			L305.3,241.2z"/>
		<path class="st10" d="M325.9,229.4c0,0.2-0.2,0.4-0.4,0.4l0,0c-0.2,0-0.4-0.2-0.4-0.4c0-0.2,0.2-0.4,0.4-0.4
			C325.8,228.9,325.9,229.1,325.9,229.4L325.9,229.4z"/>
		<path class="st10" d="M327.2,224.9c0,0.1-0.1,0.2-0.2,0.2l0,0c-0.1,0-0.2-0.1-0.2-0.2s0.1-0.2,0.2-0.2l0,0
			C327.2,224.7,327.2,224.8,327.2,224.9L327.2,224.9z"/>
		<path class="st10" d="M323.2,219.5c0,0.1-0.1,0.3-0.2,0.3c0,0,0,0,0,0c-0.1,0-0.3-0.1-0.3-0.2c0-0.1,0.1-0.3,0.2-0.3
			c0,0,0.1,0,0.1,0C323.1,219.2,323.2,219.3,323.2,219.5L323.2,219.5z"/>
		<path class="st10" d="M321.1,223c0,0.2-0.2,0.4-0.4,0.4c-0.2,0-0.4-0.2-0.4-0.4c0-0.2,0.2-0.4,0.3-0.4c0,0,0,0,0,0
			C320.9,222.6,321.1,222.7,321.1,223z"/>
		<circle class="st10" cx="328.7" cy="220" r="0.3"/>
		<path class="st10" d="M324.3,222.8c0,0.3-0.2,0.5-0.5,0.5c-0.3,0-0.5-0.2-0.5-0.5s0.2-0.5,0.5-0.5c0,0,0,0,0,0
			C324,222.3,324.3,222.5,324.3,222.8z"/>
		<path class="st10" d="M322.4,229.7c0,0.4-0.3,0.7-0.7,0.7s-0.7-0.3-0.7-0.7s0.3-0.7,0.7-0.7S322.4,229.3,322.4,229.7L322.4,229.7z
			"/>
		<path class="st10" d="M327.1,235c0,0.3-0.2,0.5-0.5,0.5c-0.3,0-0.5-0.2-0.5-0.5s0.2-0.5,0.5-0.5
			C326.9,234.5,327.1,234.7,327.1,235C327.1,235,327.1,235,327.1,235z"/>
		<path class="st10" d="M328.3,223.8c0,0.2-0.2,0.4-0.4,0.4c-0.2,0-0.4-0.2-0.4-0.4s0.2-0.4,0.4-0.4l0,0
			C328.1,223.4,328.3,223.6,328.3,223.8z"/>
		<path class="st10" d="M300.6,220.6c0,0.1-0.1,0.2-0.2,0.2c-0.1,0-0.2-0.1-0.2-0.2s0.1-0.2,0.2-0.2
			C300.5,220.4,300.6,220.5,300.6,220.6z"/>
		<path class="st10" d="M297.9,218.3c0,0.3-0.2,0.5-0.5,0.5c-0.3,0-0.5-0.2-0.5-0.5s0.2-0.5,0.5-0.5c0,0,0,0,0,0
			C297.7,217.8,297.9,218.1,297.9,218.3z"/>
		<path class="st10" d="M293.3,221c0,0.3-0.2,0.5-0.5,0.5s-0.5-0.2-0.5-0.5c0-0.3,0.2-0.5,0.5-0.5c0,0,0,0,0,0
			C293,220.6,293.3,220.8,293.3,221L293.3,221z"/>
		<path class="st10" d="M297,222.6c0,0.2-0.2,0.4-0.4,0.4c-0.2,0-0.4-0.2-0.4-0.4c0-0.2,0.2-0.4,0.4-0.4
			C296.8,222.2,297,222.3,297,222.6C297,222.6,297,222.6,297,222.6z"/>
		<path class="st10" d="M300.2,233.4c0,0.1-0.1,0.3-0.2,0.3c0,0,0,0,0,0c-0.1,0-0.3-0.1-0.3-0.2c0-0.1,0.1-0.3,0.2-0.3
			c0,0,0.1,0,0.1,0C300.1,233.2,300.2,233.3,300.2,233.4L300.2,233.4z"/>
		<path class="st10" d="M304.6,230.9c0,0.2-0.2,0.3-0.4,0.3c-0.1,0-0.2-0.1-0.3-0.3c0-0.2,0.1-0.3,0.3-0.4s0.3,0.1,0.4,0.3
			C304.6,230.9,304.6,230.9,304.6,230.9z"/>
		<path class="st10" d="M300.6,226.9c0,0.3-0.2,0.5-0.5,0.5c-0.3,0-0.5-0.2-0.5-0.5c0-0.3,0.2-0.5,0.5-0.5S300.6,226.6,300.6,226.9
			L300.6,226.9z"/>
		<path class="st10" d="M287.8,227.5c0,0.3-0.3,0.6-0.6,0.6c-0.3,0-0.6-0.3-0.6-0.6c0-0.3,0.3-0.6,0.6-0.6c0,0,0,0,0,0
			C287.5,226.9,287.8,227.2,287.8,227.5C287.8,227.5,287.8,227.5,287.8,227.5z"/>
		<path class="st10" d="M287,224c0,0.2-0.1,0.3-0.3,0.3l0,0c-0.2,0-0.3-0.1-0.3-0.3v0c0-0.2,0.1-0.3,0.3-0.3h0
			C286.9,223.6,287,223.8,287,224z"/>
		<path class="st10" d="M292.2,225.8c0,0.3-0.2,0.5-0.5,0.5c-0.3,0-0.5-0.2-0.5-0.5s0.2-0.5,0.5-0.5c0,0,0,0,0,0
			C292,225.2,292.2,225.5,292.2,225.8z"/>
		<circle class="st10" cx="288.5" cy="219.6" r="0.4"/>
		<path class="st10" d="M259.8,236.9c0,0.2-0.1,0.3-0.3,0.4c-0.2,0-0.3-0.1-0.4-0.3c0,0,0-0.1,0-0.1c0-0.2,0.1-0.3,0.3-0.4
			c0.2,0,0.3,0.1,0.4,0.3C259.8,236.8,259.8,236.8,259.8,236.9z"/>
		<path class="st10" d="M262.8,234.1c0,0.2-0.2,0.4-0.4,0.4c0,0,0,0,0,0c-0.2,0-0.4-0.2-0.4-0.4c0-0.2,0.2-0.4,0.4-0.4l0,0
			C262.6,233.7,262.8,233.8,262.8,234.1C262.8,234.1,262.8,234.1,262.8,234.1z"/>
		<path class="st10" d="M268.8,229.1c0,0.2-0.1,0.3-0.3,0.3c-0.2,0-0.3-0.1-0.4-0.3c0-0.2,0.1-0.3,0.3-0.4c0,0,0.1,0,0.1,0
			C268.7,228.8,268.8,229,268.8,229.1C268.8,229.1,268.8,229.1,268.8,229.1z"/>
		<path class="st10" d="M271.8,238.2c0,0.1-0.1,0.3-0.2,0.3s-0.3-0.1-0.3-0.2c0,0,0-0.1,0-0.1c0-0.1,0.2-0.2,0.3-0.2
			C271.7,238,271.8,238.1,271.8,238.2z"/>
		<path class="st10" d="M268.3,235.9c0,0.3-0.3,0.4-0.5,0.4c-0.2,0-0.4-0.2-0.4-0.4c0-0.3,0.1-0.5,0.4-0.5c0.3,0,0.5,0.1,0.5,0.4
			C268.3,235.8,268.3,235.8,268.3,235.9z"/>
		<path class="st10" d="M253,236.3c0,0.2-0.2,0.4-0.4,0.4c-0.2,0-0.4-0.2-0.4-0.4c0-0.2,0.2-0.4,0.4-0.4
			C252.9,235.9,253,236.1,253,236.3C253,236.3,253,236.3,253,236.3z"/>
		<path class="st10" d="M257,233.2c0,0.2-0.1,0.3-0.3,0.3c0,0,0,0,0,0c-0.2,0-0.3-0.1-0.3-0.3v0c0-0.2,0.1-0.3,0.3-0.3h0
			C256.8,232.8,257,233,257,233.2C257,233.2,257,233.2,257,233.2z"/>
		<path class="st10" d="M257.7,241.4c0,0.3-0.2,0.5-0.5,0.5c0,0,0,0,0,0c-0.3,0-0.5-0.2-0.5-0.4c0,0,0,0,0,0c0-0.3,0.2-0.5,0.5-0.5
			c0,0,0,0,0,0C257.5,240.9,257.7,241.1,257.7,241.4z"/>
		<path class="st10" d="M266.1,241c0,0.1-0.1,0.3-0.3,0.3c-0.1,0-0.3-0.1-0.3-0.3c0-0.1,0.1-0.3,0.3-0.3c0,0,0,0,0,0
			C265.9,240.8,266.1,240.9,266.1,241C266.1,241,266.1,241,266.1,241z"/>
		<path class="st10" d="M262.3,244.2c0,0.3-0.2,0.5-0.5,0.5c-0.3,0-0.5-0.2-0.5-0.5c0,0,0,0,0,0c0-0.3,0.2-0.5,0.5-0.5
			C262,243.6,262.3,243.9,262.3,244.2C262.3,244.2,262.3,244.2,262.3,244.2z"/>
		<path class="st10" d="M250.5,242.5c0,0.3-0.1,0.5-0.4,0.5c-0.3,0-0.5-0.1-0.5-0.4c0,0,0-0.1,0-0.1c0-0.3,0.1-0.5,0.4-0.5
			c0.3,0,0.5,0.1,0.5,0.4C250.5,242.4,250.5,242.5,250.5,242.5z"/>
		<path class="st10" d="M250.3,239c0,0.1-0.1,0.3-0.2,0.3c-0.1,0-0.3-0.1-0.3-0.2c0,0,0-0.1,0-0.1c0-0.1,0.2-0.2,0.3-0.2
			C250.2,238.8,250.3,238.9,250.3,239z"/>
		<path class="st10" d="M241.4,242.8c0,0.2-0.2,0.4-0.4,0.4c-0.2,0-0.4-0.3-0.4-0.5c0-0.2,0.2-0.3,0.4-0.4
			C241.2,242.4,241.4,242.6,241.4,242.8L241.4,242.8z"/>
		<path class="st10" d="M245.6,244.3c0,0.3-0.3,0.6-0.6,0.6c-0.3,0-0.6-0.3-0.6-0.6c0-0.3,0.3-0.6,0.6-0.6c0,0,0,0,0,0
			C245.3,243.7,245.6,244,245.6,244.3C245.6,244.3,245.6,244.3,245.6,244.3z"/>
		<path class="st10" d="M250.7,251.5c0,0.3-0.3,0.6-0.6,0.6c-0.3,0-0.6-0.3-0.6-0.6c0-0.3,0.3-0.6,0.6-0.6c0,0,0,0,0,0
			C250.5,250.9,250.7,251.2,250.7,251.5z"/>
		<path class="st10" d="M257.1,252.6c0,0.1-0.1,0.2-0.2,0.2l0,0c-0.1,0-0.2-0.1-0.2-0.2v0c0-0.1,0.1-0.2,0.2-0.2
			C257,252.4,257.1,252.5,257.1,252.6C257.1,252.6,257.1,252.6,257.1,252.6z"/>
		<path class="st10" d="M255.5,251.6c0,0.1-0.1,0.2-0.2,0.2h0c-0.1,0-0.2-0.1-0.2-0.2s0.1-0.2,0.2-0.2c0,0,0,0,0,0
			C255.4,251.4,255.5,251.5,255.5,251.6z"/>
		<path class="st10" d="M259.7,251.9L259.7,251.9z"/>
		<path class="st10" d="M262.3,253.1c0,0.1-0.1,0.3-0.3,0.3s-0.3-0.1-0.3-0.3s0.1-0.3,0.3-0.3c0,0,0,0,0,0
			C262.1,252.8,262.3,253,262.3,253.1z"/>
		<path class="st10" d="M264.5,250c0,0.2-0.1,0.5-0.4,0.5c-0.2,0-0.5-0.1-0.5-0.4c0,0,0-0.1,0-0.1c0-0.2,0.3-0.4,0.5-0.4
			C264.3,249.7,264.5,249.8,264.5,250z"/>
		<path class="st10" d="M267.9,253c0,0.2-0.2,0.4-0.4,0.4c-0.2,0-0.4-0.2-0.4-0.4c0-0.2,0.2-0.4,0.3-0.4c0,0,0,0,0,0
			C267.7,252.6,267.9,252.8,267.9,253z"/>
		<path class="st10" d="M267.4,250c0,0.1-0.1,0.2-0.2,0.2c-0.1,0-0.2-0.1-0.2-0.2c0,0,0,0,0,0c0-0.1,0.1-0.2,0.2-0.2
			C267.3,249.8,267.4,249.9,267.4,250C267.4,250,267.4,250,267.4,250z"/>
		<path class="st10" d="M266.8,252.2c0,0.3-0.3,0.6-0.6,0.6c-0.3,0-0.6-0.3-0.6-0.6c0,0,0,0,0,0c0-0.3,0.3-0.6,0.6-0.6
			C266.5,251.6,266.8,251.9,266.8,252.2z"/>
		<path class="st10" d="M265.9,250.8c0,0.1-0.1,0.3-0.3,0.3c0,0,0,0,0,0c-0.1,0-0.2-0.2-0.2-0.3c0-0.1,0.1-0.2,0.2-0.2
			C265.7,250.5,265.9,250.6,265.9,250.8z"/>
		<path class="st10" d="M262.9,251.3c0,0.1-0.1,0.3-0.3,0.3c-0.1,0-0.2-0.2-0.2-0.3c0-0.1,0.1-0.2,0.2-0.2
			C262.8,251,262.9,251.2,262.9,251.3z"/>
		<path class="st10" d="M292.9,254.6c0,0.3-0.3,0.6-0.6,0.6s-0.6-0.3-0.6-0.6s0.3-0.6,0.6-0.6S292.9,254.3,292.9,254.6z"/>
		<path class="st10" d="M293.1,252.5c0-0.2-0.1-0.3-0.3-0.3s-0.3,0.1-0.3,0.3c0,0.2,0.1,0.3,0.3,0.3c0,0,0,0,0,0
			C293,252.8,293.1,252.7,293.1,252.5C293.1,252.5,293.1,252.5,293.1,252.5z"/>
		<path class="st10" d="M299.2,254.9c0-0.3-0.3-0.6-0.6-0.6c-0.3,0-0.6,0.3-0.6,0.6s0.3,0.6,0.6,0.6
			C298.9,255.5,299.2,255.2,299.2,254.9z"/>
		<path class="st10" d="M296.9,253.2c0,0.1-0.1,0.2-0.2,0.2c-0.1,0-0.2-0.1-0.2-0.2c0,0,0,0,0,0c0-0.1,0.1-0.2,0.2-0.2c0,0,0,0,0,0
			C296.8,253,296.9,253,296.9,253.2z"/>
		<path class="st10" d="M295.8,254.1c0,0.2-0.1,0.3-0.3,0.3l0,0c-0.2,0-0.3-0.1-0.3-0.3c0,0,0,0,0,0c0-0.2,0.1-0.3,0.3-0.3
			c0,0,0,0,0,0C295.7,253.8,295.8,253.9,295.8,254.1L295.8,254.1z"/>
		<path class="st10" d="M290.3,255.3c0,0.2-0.2,0.4-0.4,0.4c-0.2,0-0.4-0.2-0.4-0.3c0,0,0,0,0,0c0-0.2,0.2-0.4,0.4-0.4c0,0,0,0,0,0
			C290.1,255,290.3,255.1,290.3,255.3z"/>
		<path class="st10" d="M290.4,252.5c0,0.2-0.2,0.4-0.4,0.4c-0.2,0-0.4-0.1-0.4-0.3c0,0,0,0,0,0c0-0.2,0.2-0.4,0.4-0.4
			C290.2,252.1,290.4,252.3,290.4,252.5C290.4,252.5,290.4,252.5,290.4,252.5z"/>
		<path class="st10" d="M295.4,248.5c0,0.2-0.1,0.3-0.3,0.3s-0.3-0.1-0.3-0.3s0.1-0.3,0.3-0.3S295.4,248.3,295.4,248.5z"/>
		<path class="st10" d="M296.9,250.5c0,0.1-0.1,0.3-0.2,0.3c-0.1,0-0.3-0.1-0.3-0.2c0,0,0-0.1,0-0.1c0-0.1,0.2-0.2,0.3-0.2
			C296.8,250.3,296.8,250.4,296.9,250.5z"/>
		<path class="st10" d="M299.5,246.6c0,0.1-0.1,0.2-0.2,0.2c-0.1,0-0.2-0.1-0.2-0.3c0-0.1,0.1-0.2,0.2-0.2
			C299.4,246.4,299.5,246.5,299.5,246.6C299.5,246.6,299.5,246.6,299.5,246.6z"/>
	</g>
</g>
<path class="st5" d="M94.7,188.5l-0.3-0.1l-66.4-27.5L0.5,94.2L0.6,94l27.5-66.4L94.8,0l0.3,0.1l66.4,27.5L189,94.3l-0.1,0.3
	l-27.5,66.4L94.7,188.5z M29.2,159.8l65.5,27.2l65.5-27.1l27.2-65.5l-27.1-65.5L94.8,1.6L29.3,28.7L2.1,94.2L29.2,159.8z"/>
<path class="st5" d="M94.7,181.1l-61.4-25.4L8,94.2L8.1,94l25.3-61.1L94.8,7.5l61.4,25.4l25.4,61.4l-25.4,61.4L94.7,181.1z
	 M34.5,154.5l60.2,25l60.2-24.9l25-60.2L155.1,34l-60.3-25L34.5,34l-25,60.2L34.5,154.5z"/>
</svg>
