<svg xmlns="http://www.w3.org/2000/svg" viewBox="0 0 50.64 182.76"><defs><style>.cls-1{fill:#6b6b6b;}.cls-2{fill:#3d3d3d;}.cls-3{fill:#4a4a4a;opacity:0.5;}</style></defs><g id="Layer_2" data-name="Layer 2"><g id="WheelSpin-Front"><path class="cls-1" d="M47.94,182.76H.2V27.48A23.87,23.87,0,0,1,24.07,3.61h0A23.87,23.87,0,0,1,47.94,27.48Z"/><path class="cls-2" d="M50.64,175.33l-2.7,7.43-45-7.43L0,26.77C0,9.69,13.59,0,26.77,0h0A23.87,23.87,0,0,1,50.64,23.87Z"/><path class="cls-3" d="M47.94,182.76H.2V27.48A23.87,23.87,0,0,1,24.07,3.61h0A23.87,23.87,0,0,1,47.94,27.48Z"/><path class="cls-2" d="M30.42,27.38A6.35,6.35,0,1,1,24.07,21,6.34,6.34,0,0,1,30.42,27.38Z"/></g></g></svg>